<svg xmlns="http://www.w3.org/2000/svg" width="1000" height="1000" viewBox="0 0 1000 1000"><path d="M500,33.235C229.815,33.235,10,211.6,10,430.872,10,627.459,184.293,792.05,419.789,823.165c15.973,3.431,37.68,10.534,43.168,24.157a100.48,100.48,0,0,1,1.567,44.1s-5.733,34.593-7.007,41.945c-2.106,12.4-9.8,48.461,42.435,26.411A1581.681,1581.681,0,0,0,884.945,675.283,353.779,353.779,0,0,0,990,430.872C990,211.6,770.188,33.235,500,33.235Zm-172.87,514.7a9.8,9.8,0,0,1-9.555,9.556h-137.2a9.123,9.123,0,0,1-9.259-9.263V334.733a9.8,9.8,0,0,1,9.556-9.556h34.3a9.8,9.8,0,0,1,9.556,9.556v169.05h93.394a9.8,9.8,0,0,1,9.555,9.556Zm82.858,0a9.8,9.8,0,0,1-9.555,9.5h-34.3a9.8,9.8,0,0,1-9.8-9.5V334.44a9.8,9.8,0,0,1,9.8-9.556h34.3a9.8,9.8,0,0,1,9.555,9.556Zm236.572,0a9.505,9.505,0,0,1-9.507,9.5H602.7a9.185,9.185,0,0,1-2.449-.341H598.2l-.589-.344a9.457,9.457,0,0,1-2.4-2.354l-98-132.3V547.884a9.8,9.8,0,0,1-9.8,9.5h-34.3a9.8,9.8,0,0,1-9.555-9.5V334.392a9.8,9.8,0,0,1,9.555-9.556h38.709l.539.293h.3l.487.344h.246l.541.44.586.589a9.84,9.84,0,0,1,.736.978l98,132.3V332.92a9.8,9.8,0,0,1,9.555-9.555h34.3a9.8,9.8,0,0,1,9.555,9.555Zm189.777-179.1a9.5,9.5,0,0,1-9.457,9.555H733.387V414.5h93.394a9.8,9.8,0,0,1,9.556,9.556v34.3a9.8,9.8,0,0,1-9.556,9.555H733.387v36.113h93.394a9.8,9.8,0,0,1,9.556,9.556v34.3a9.8,9.8,0,0,1-9.556,9.556h-137.2a9.04,9.04,0,0,1-9.212-9.263V334.685a9.118,9.118,0,0,1,9.26-9.26h137.2a9.8,9.8,0,0,1,9.556,9.8Z"/></svg>
