<svg viewBox="0 0 1000 1000" width="1000" height="1000" xmlns="http://www.w3.org/2000/svg"><path d="m642.7.1c-39.4-1.3-72.5 29.6-73.8 69.1-1.3 39.4 29.6 72.5 69.1 73.8 1.6.1 3.1.1 4.7 0h113.1l-377.8 377.9c-27.9 27.9-27.9 73.2 0 101.1s73.2 27.9 101.1 0l378-378v113.1c-1.3 39.4 29.6 72.5 69.1 73.8 39.4 1.3 72.5-29.6 73.8-69.1.1-1.6.1-3.1 0-4.7v-285.5c0-39.4-31.9-71.4-71.3-71.4-.1 0-.2 0-.3 0h-285.7zm-464.2 71.5c-98.6 0-178.5 79.9-178.5 178.5v571.3c0 98.6 79.8 178.5 178.4 178.6h.2 571.3c98.6 0 178.5-79.8 178.6-178.4 0-.1 0-.1 0-.2v-178.6c1.3-39.4-29.6-72.5-69.1-73.8-39.4-1.3-72.5 29.6-73.8 69.1-.1 1.6-.1 3.1 0 4.7v178.6c0 19.8-16 35.8-35.8 35.8h-571.2c-19.8 0-35.8-16-35.8-35.8v-571.3c0-19.8 16-35.8 35.8-35.8h178.5c39.4-1.3 70.4-34.3 69.1-73.8-1.2-37.6-31.4-67.8-69.1-69.1z"/></svg>
