<svg width="32" height="31" viewBox="0 0 32 31" fill="none" xmlns="http://www.w3.org/2000/svg">
<g clip-path="url(#clip0_209_2098)">
<path d="M6.50531 1.27129C4.44399 2.60816 4.03905 6.787 4.81729 10.1929C5.42338 12.8452 6.71197 16.403 8.88486 19.7533C10.929 22.9051 13.7808 25.7312 15.9553 27.3663C18.7477 29.4658 22.7284 30.8003 24.7897 29.4635C25.832 28.7875 27.3806 26.9405 27.4513 26.6091C27.4513 26.6091 26.5432 25.209 26.3439 24.9017L23.2987 20.2063C23.0724 19.8574 21.6532 20.1763 20.9323 20.5846C19.9598 21.1357 19.0642 22.6141 19.0642 22.6141C18.3974 22.9993 17.8389 22.6155 16.672 22.0784C15.2378 21.4185 13.6253 19.3682 12.3419 17.5112C11.1697 15.5821 9.95525 13.2736 9.93767 11.695C9.9232 10.4105 9.8005 9.74405 10.4242 9.29229C10.4242 9.29229 12.1394 9.07749 13.0391 8.41433C13.7059 7.92261 14.5759 6.75694 14.3496 6.40796L11.3044 1.71262C11.1051 1.40535 10.197 0.00519608 10.197 0.00519608C9.86554 -0.0654093 7.54763 0.595293 6.50531 1.27129Z" fill="white"/>
</g>
<defs>
<clipPath id="clip0_209_2098">
<rect width="31" height="31" fill="white" transform="translate(0.833252)"/>
</clipPath>
</defs>
</svg>
