<svg width="41" height="30" viewBox="0 0 41 30" fill="none" xmlns="http://www.w3.org/2000/svg">
<path d="M5.67216 21.7119H35.9944C37.1517 21.7119 38.0904 20.8077 38.0904 19.693V2.50515C38.0904 1.39158 37.1516 0.487305 35.9944 0.487305H5.67216C4.51489 0.487305 3.57739 1.39158 3.57739 2.50515V19.693C3.57739 20.8077 4.51489 21.7119 5.67216 21.7119ZM6.78052 3.19893H34.886V18.5253H6.78052V3.19893Z" fill="white"/>
<path d="M40.5232 27.3125L36.7854 24.1165C36.5449 23.9118 36.1994 23.7954 35.8344 23.7954H5.832C5.467 23.7954 5.12153 23.9118 4.88106 24.1165L1.14333 27.3125C0.943096 27.483 0.833252 27.7029 0.833252 27.9299V29.0435C0.833252 29.3033 1.11521 29.5126 1.46317 29.5126H40.2034C40.5525 29.5126 40.8333 29.3033 40.8333 29.0435V27.9299C40.8333 27.7029 40.7234 27.483 40.5232 27.3125ZM16.5474 27.69L17.629 26.2813H24.4832L25.5635 27.69H16.5474Z" fill="white"/>
</svg>
