<svg width="47" height="15" viewBox="0 0 47 15" fill="none" xmlns="http://www.w3.org/2000/svg">
<path d="M34.7758 2.03003C34.7478 2.3847 34.7245 2.7347 34.7058 3.08003C34.6965 3.41603 34.6825 3.7567 34.6638 4.10203C34.7665 4.10203 34.9578 4.10203 35.2378 4.10203C35.5178 4.0927 35.8211 4.0787 36.1478 4.06003C36.1384 4.08803 36.1338 4.13936 36.1338 4.21403V4.35403V4.50803C36.1338 4.57336 36.1384 4.62003 36.1478 4.64803C36.0264 4.6387 35.9004 4.63403 35.7698 4.63403C35.6391 4.6247 35.4991 4.62003 35.3498 4.62003H34.6638C34.6545 4.65736 34.6405 4.8067 34.6218 5.06803C34.6125 5.32936 34.6031 5.64203 34.5938 6.00603C34.5845 6.3607 34.5751 6.73403 34.5658 7.12603C34.5658 7.51803 34.5658 7.86803 34.5658 8.17603C34.5658 8.43736 34.5704 8.69403 34.5798 8.94603C34.5984 9.19803 34.6451 9.4267 34.7198 9.63203C34.7945 9.82803 34.9064 9.9867 35.0558 10.108C35.2051 10.2294 35.4198 10.29 35.6998 10.29C35.7745 10.29 35.8724 10.2807 35.9938 10.262C36.1244 10.2434 36.2365 10.22 36.3298 10.192V10.528C36.1711 10.556 35.9938 10.5887 35.7978 10.626C35.6111 10.6727 35.4291 10.696 35.2518 10.696C34.6638 10.696 34.2298 10.5514 33.9498 10.262C33.6698 9.9727 33.5298 9.54803 33.5298 8.98803C33.5298 8.73603 33.5344 8.46536 33.5438 8.17603C33.5531 7.87736 33.5624 7.55536 33.5718 7.21003C33.5904 6.85536 33.6044 6.46803 33.6138 6.04803C33.6231 5.6187 33.6278 5.1427 33.6278 4.62003H33.1798C33.1051 4.62003 33.0258 4.6247 32.9418 4.63403C32.8578 4.63403 32.7691 4.6387 32.6758 4.64803C32.6851 4.59203 32.6898 4.5407 32.6898 4.49403C32.6991 4.43803 32.7038 4.38203 32.7038 4.32603C32.7038 4.27936 32.6991 4.2327 32.6898 4.18603C32.6898 4.13936 32.6851 4.0927 32.6758 4.04603C33.0958 4.07403 33.4038 4.08803 33.5998 4.08803C33.5904 3.90136 33.5811 3.66803 33.5718 3.38803C33.5718 3.10803 33.5624 2.8187 33.5438 2.52003L34.7058 2.03003H34.7758Z" fill="white"/>
<path d="M25.7227 8.44201C25.7227 7.94734 25.7273 7.52734 25.7367 7.18201C25.7553 6.82734 25.7647 6.47734 25.7647 6.13201C25.7647 5.80534 25.76 5.45067 25.7507 5.06801C25.7507 4.68534 25.746 4.29801 25.7367 3.90601C25.97 3.95267 26.166 3.97601 26.3247 3.97601C26.474 3.97601 26.6653 3.95267 26.8987 3.90601C26.852 4.46601 26.8147 5.08201 26.7867 5.75401C26.768 6.41667 26.7587 7.09801 26.7587 7.79801C26.7587 8.28334 26.8007 8.65667 26.8847 8.91801C26.9687 9.17001 27.0713 9.36134 27.1927 9.49201C27.3233 9.64134 27.4867 9.76734 27.6827 9.87001C27.888 9.96334 28.126 10.01 28.3967 10.01C28.7887 10.01 29.1153 9.92601 29.3767 9.75801C29.638 9.58067 29.8293 9.36601 29.9507 9.11401C30.016 8.95534 30.0673 8.82001 30.1047 8.70801C30.142 8.59601 30.17 8.44667 30.1887 8.26001C30.2167 8.07334 30.2307 7.82134 30.2307 7.50401C30.24 7.18667 30.2447 6.75267 30.2447 6.20201V5.02601C30.2447 4.82067 30.24 4.62467 30.2307 4.43801C30.2307 4.25134 30.226 4.07401 30.2167 3.90601C30.3193 3.92467 30.4173 3.94334 30.5107 3.96201C30.604 3.97134 30.702 3.97601 30.8047 3.97601C30.9073 3.97601 31.0053 3.97134 31.0987 3.96201C31.192 3.94334 31.2853 3.92467 31.3787 3.90601C31.332 4.63401 31.304 5.33867 31.2947 6.02001C31.2853 6.69201 31.2807 7.40601 31.2807 8.16201C31.2807 8.58201 31.2853 8.99267 31.2947 9.39401C31.304 9.79534 31.318 10.1827 31.3367 10.556C31.15 10.5373 30.968 10.528 30.7907 10.528C30.6133 10.528 30.4313 10.5373 30.2447 10.556C30.254 10.472 30.2587 10.3833 30.2587 10.29C30.268 10.1967 30.2727 10.0987 30.2727 9.99601V9.39401H30.2447C30.002 9.84201 29.6893 10.1733 29.3067 10.388C28.924 10.5933 28.5087 10.696 28.0607 10.696C27.3327 10.696 26.7587 10.5047 26.3387 10.122C25.928 9.73001 25.7227 9.17001 25.7227 8.44201Z" fill="white"/>
<path d="M18.6016 7.25202C18.6016 7.64402 18.6343 8.02202 18.6996 8.38602C18.7743 8.75002 18.8956 9.07669 19.0636 9.36602C19.2316 9.64602 19.4556 9.87002 19.7356 10.038C20.0156 10.206 20.361 10.29 20.7716 10.29C21.1823 10.29 21.5276 10.206 21.8076 10.038C22.0876 9.87002 22.3116 9.64602 22.4796 9.36602C22.6476 9.07669 22.7643 8.75002 22.8296 8.38602C22.9043 8.02202 22.9416 7.64402 22.9416 7.25202C22.9416 6.86002 22.9043 6.48202 22.8296 6.11802C22.7643 5.75402 22.6476 5.43202 22.4796 5.15202C22.3116 4.86269 22.0876 4.63402 21.8076 4.46602C21.5276 4.29802 21.1823 4.21402 20.7716 4.21402C20.361 4.21402 20.0156 4.29802 19.7356 4.46602C19.4556 4.63402 19.2316 4.86269 19.0636 5.15202C18.8956 5.43202 18.7743 5.75402 18.6996 6.11802C18.6343 6.48202 18.6016 6.86002 18.6016 7.25202ZM17.3696 7.25202C17.3696 6.61736 17.4676 6.08069 17.6636 5.64202C17.869 5.19402 18.135 4.83469 18.4616 4.56402C18.7883 4.28402 19.1523 4.08335 19.5536 3.96202C19.9643 3.83136 20.3703 3.76602 20.7716 3.76602C21.1823 3.76602 21.5883 3.83136 21.9896 3.96202C22.391 4.08335 22.755 4.28402 23.0816 4.56402C23.4083 4.83469 23.6696 5.19402 23.8656 5.64202C24.071 6.08069 24.1736 6.61736 24.1736 7.25202C24.1736 7.88669 24.071 8.42802 23.8656 8.87602C23.6696 9.31469 23.4083 9.67402 23.0816 9.95402C22.755 10.2247 22.391 10.416 21.9896 10.528C21.5883 10.64 21.1823 10.696 20.7716 10.696C20.3703 10.696 19.9643 10.64 19.5536 10.528C19.1523 10.416 18.7883 10.2247 18.4616 9.95402C18.135 9.67402 17.869 9.31469 17.6636 8.87602C17.4676 8.42802 17.3696 7.88669 17.3696 7.25202Z" fill="white"/>
<path d="M15.0639 7.014C15.0639 6.58467 15.0079 6.20667 14.8959 5.88C14.7933 5.544 14.6533 5.264 14.4759 5.04C14.3079 4.816 14.1073 4.648 13.8739 4.536C13.6499 4.41467 13.4166 4.354 13.1739 4.354C12.8846 4.354 12.6046 4.41 12.3339 4.522C12.0726 4.62467 11.8439 4.802 11.6479 5.054C11.4519 5.29667 11.2933 5.61867 11.1719 6.02C11.0599 6.412 11.0039 6.89733 11.0039 7.476C11.0039 9.352 11.6853 10.29 13.0479 10.29C13.3373 10.29 13.6033 10.2153 13.8459 10.066C14.0886 9.90733 14.2986 9.68333 14.4759 9.394C14.6626 9.10467 14.8073 8.75933 14.9099 8.358C15.0126 7.95667 15.0639 7.50867 15.0639 7.014ZM16.2959 7.056C16.2959 7.59733 16.2119 8.092 16.0439 8.54C15.8853 8.988 15.6613 9.37533 15.3719 9.702C15.0919 10.0193 14.7559 10.2667 14.3639 10.444C13.9813 10.612 13.5659 10.696 13.1179 10.696C12.6699 10.696 12.2639 10.6027 11.8999 10.416C11.5453 10.22 11.2746 9.98667 11.0879 9.716C10.7519 9.98667 10.4393 10.2573 10.1499 10.528H9.89795C9.91662 10.304 9.93062 10.0333 9.93995 9.716C9.95862 9.39867 9.97262 9.06267 9.98195 8.708C9.99128 8.344 9.99595 7.97533 9.99595 7.602C10.0053 7.22867 10.0099 6.88333 10.0099 6.566V4.032C10.0099 3.71467 10.0053 3.36933 9.99595 2.996C9.99595 2.62267 9.99128 2.254 9.98195 1.89C9.97262 1.526 9.95862 1.18067 9.93995 0.854C9.93062 0.518 9.91662 0.233333 9.89795 0C10.1593 0.0466666 10.3693 0.0699997 10.5279 0.0699997C10.6306 0.0699997 10.7379 0.0653332 10.8499 0.056C10.9619 0.037333 11.0833 0.0186664 11.2139 0C11.1859 0.186666 11.1626 0.485333 11.1439 0.896C11.1253 1.29733 11.1113 1.75 11.1019 2.254C11.0926 2.74867 11.0833 3.262 11.0739 3.794C11.0646 4.31667 11.0553 4.79267 11.0459 5.222H11.0739C11.3913 4.718 11.7413 4.34933 12.1239 4.116C12.5066 3.88267 12.9499 3.766 13.4539 3.766C13.9393 3.766 14.3593 3.85933 14.7139 4.046C15.0686 4.22333 15.3626 4.46133 15.5959 4.76C15.8293 5.05867 16.0019 5.40867 16.1139 5.81C16.2353 6.202 16.2959 6.61733 16.2959 7.056Z" fill="white"/>
<path d="M2.66 6.20201C2.90267 6.20201 3.15467 6.20668 3.416 6.21601C3.67733 6.22535 3.92933 6.23001 4.172 6.23001C4.43333 6.23001 4.69467 6.23001 4.956 6.23001C5.21733 6.22068 5.47867 6.21135 5.74 6.20201L4.186 2.64601L2.66 6.20201ZM8.862 10.556C8.73133 10.5373 8.60533 10.528 8.484 10.528C8.372 10.528 8.25067 10.528 8.12 10.528C7.98933 10.528 7.86333 10.528 7.742 10.528C7.63 10.528 7.50867 10.5373 7.378 10.556C7.31267 10.3413 7.224 10.0847 7.112 9.78601C7 9.47801 6.874 9.16068 6.734 8.83401C6.60333 8.49801 6.468 8.16201 6.328 7.82601C6.188 7.48068 6.05733 7.15401 5.936 6.84601C5.63733 6.83668 5.334 6.83201 5.026 6.83201C4.718 6.82268 4.41 6.81801 4.102 6.81801C3.81267 6.81801 3.528 6.82268 3.248 6.83201C2.968 6.83201 2.68333 6.83668 2.394 6.84601C2.09533 7.57401 1.82467 8.26935 1.582 8.93201C1.33933 9.58535 1.15733 10.1267 1.036 10.556C0.877333 10.5373 0.704667 10.528 0.518 10.528C0.331333 10.528 0.158667 10.5373 0 10.556C0.756 8.92268 1.49333 7.29868 2.212 5.68401C2.93067 4.06935 3.654 2.42668 4.382 0.756012H4.648C4.872 1.29734 5.11467 1.88535 5.376 2.52001C5.63733 3.14535 5.90333 3.78001 6.174 4.42401C6.44467 5.06801 6.71533 5.70734 6.986 6.34201C7.25667 6.97668 7.50867 7.56935 7.742 8.12001C7.98467 8.66135 8.19933 9.14668 8.386 9.57601C8.582 10.0053 8.74067 10.332 8.862 10.556Z" fill="white"/>
</svg>
