<svg width="55" height="17" viewBox="0 0 55 17" fill="none" xmlns="http://www.w3.org/2000/svg">
<path d="M45.7704 9.104C45.8344 9.27467 45.9144 9.44 46.0104 9.6C46.117 9.74933 46.245 9.888 46.3944 10.016C46.5437 10.1333 46.7197 10.2293 46.9224 10.304C47.1357 10.3787 47.381 10.416 47.6584 10.416C48.0317 10.416 48.3197 10.32 48.5224 10.128C48.725 9.936 48.8264 9.728 48.8264 9.504C48.8264 9.25867 48.7357 9.06133 48.5544 8.912C48.373 8.76267 48.1437 8.62933 47.8664 8.512C47.5997 8.384 47.3064 8.256 46.9864 8.128C46.6664 8 46.3677 7.84 46.0904 7.648C45.8237 7.44533 45.5997 7.19467 45.4184 6.896C45.237 6.59733 45.1464 6.21333 45.1464 5.744C45.1464 5.296 45.2264 4.912 45.3864 4.592C45.557 4.26133 45.7757 3.99467 46.0424 3.792C46.309 3.57867 46.6077 3.424 46.9384 3.328C47.2797 3.22133 47.6157 3.168 47.9464 3.168C48.3944 3.168 48.789 3.232 49.1304 3.36C49.4824 3.488 49.8397 3.67467 50.2024 3.92C50.1064 4.13333 50.0264 4.36267 49.9624 4.608C49.8984 4.85333 49.8504 5.09333 49.8184 5.328H49.3704C49.3384 5.2 49.285 5.06133 49.2104 4.912C49.1357 4.752 49.0344 4.60267 48.9064 4.464C48.7784 4.32533 48.6237 4.21333 48.4424 4.128C48.261 4.032 48.0424 3.984 47.7864 3.984C47.4664 3.984 47.1944 4.06933 46.9704 4.24C46.757 4.41067 46.6504 4.63467 46.6504 4.912C46.6504 5.168 46.741 5.376 46.9224 5.536C47.1144 5.68533 47.349 5.81867 47.6264 5.936C47.9037 6.05333 48.2077 6.17067 48.5384 6.288C48.869 6.40533 49.173 6.56 49.4504 6.752C49.7277 6.93333 49.957 7.17333 50.1384 7.472C50.3304 7.77067 50.4264 8.15467 50.4264 8.624C50.4264 9.09333 50.341 9.49867 50.1704 9.84C49.9997 10.1707 49.7704 10.448 49.4824 10.672C49.1944 10.8853 48.8637 11.04 48.4904 11.136C48.1277 11.232 47.7437 11.28 47.3384 11.28C46.8584 11.28 46.4264 11.2107 46.0424 11.072C45.6584 10.9333 45.3544 10.7893 45.1304 10.64C45.2584 10.128 45.3384 9.616 45.3704 9.104H45.7704Z" fill="black"/>
<path d="M39.5516 9.104C39.6156 9.27467 39.6956 9.44 39.7916 9.6C39.8983 9.74933 40.0263 9.888 40.1756 10.016C40.325 10.1333 40.501 10.2293 40.7036 10.304C40.917 10.3787 41.1623 10.416 41.4396 10.416C41.813 10.416 42.101 10.32 42.3036 10.128C42.5063 9.936 42.6076 9.728 42.6076 9.504C42.6076 9.25867 42.517 9.06133 42.3356 8.912C42.1543 8.76267 41.925 8.62933 41.6476 8.512C41.381 8.384 41.0876 8.256 40.7676 8.128C40.4476 8 40.149 7.84 39.8716 7.648C39.605 7.44533 39.381 7.19467 39.1996 6.896C39.0183 6.59733 38.9276 6.21333 38.9276 5.744C38.9276 5.296 39.0076 4.912 39.1676 4.592C39.3383 4.26133 39.557 3.99467 39.8236 3.792C40.0903 3.57867 40.389 3.424 40.7196 3.328C41.061 3.22133 41.397 3.168 41.7276 3.168C42.1756 3.168 42.5703 3.232 42.9116 3.36C43.2636 3.488 43.621 3.67467 43.9836 3.92C43.8876 4.13333 43.8076 4.36267 43.7436 4.608C43.6796 4.85333 43.6316 5.09333 43.5996 5.328H43.1516C43.1196 5.2 43.0663 5.06133 42.9916 4.912C42.917 4.752 42.8156 4.60267 42.6876 4.464C42.5596 4.32533 42.405 4.21333 42.2236 4.128C42.0423 4.032 41.8236 3.984 41.5676 3.984C41.2476 3.984 40.9756 4.06933 40.7516 4.24C40.5383 4.41067 40.4316 4.63467 40.4316 4.912C40.4316 5.168 40.5223 5.376 40.7036 5.536C40.8956 5.68533 41.1303 5.81867 41.4076 5.936C41.685 6.05333 41.989 6.17067 42.3196 6.288C42.6503 6.40533 42.9543 6.56 43.2316 6.752C43.509 6.93333 43.7383 7.17333 43.9196 7.472C44.1116 7.77067 44.2076 8.15467 44.2076 8.624C44.2076 9.09333 44.1223 9.49867 43.9516 9.84C43.781 10.1707 43.5516 10.448 43.2636 10.672C42.9756 10.8853 42.645 11.04 42.2716 11.136C41.909 11.232 41.525 11.28 41.1196 11.28C40.6396 11.28 40.2076 11.2107 39.8236 11.072C39.4396 10.9333 39.1356 10.7893 38.9116 10.64C39.0396 10.128 39.1196 9.616 39.1516 9.104H39.5516Z" fill="black"/>
<path d="M33.3436 7.248C33.3436 7.67467 33.3863 8.07467 33.4716 8.448C33.5569 8.82133 33.6849 9.14667 33.8556 9.424C34.0369 9.69067 34.2609 9.904 34.5276 10.064C34.8049 10.2133 35.1249 10.288 35.4876 10.288C36.2236 10.288 36.8796 10.048 37.4556 9.568L37.6476 9.712L37.2956 10.608C37.0289 10.8107 36.7089 10.9707 36.3356 11.088C35.9623 11.216 35.4716 11.28 34.8636 11.28C34.3409 11.28 33.8449 11.2053 33.3756 11.056C32.9063 10.9173 32.4903 10.6827 32.1276 10.352C31.7756 10.0213 31.4929 9.60533 31.2796 9.104C31.0769 8.592 30.9756 7.984 30.9756 7.28C30.9756 6.58667 31.0663 5.984 31.2476 5.472C31.4396 4.96 31.7009 4.53333 32.0316 4.192C32.3623 3.85067 32.7516 3.59467 33.1996 3.424C33.6583 3.25333 34.1543 3.168 34.6876 3.168C35.7436 3.168 36.5489 3.47733 37.1036 4.096C37.6689 4.71467 37.9516 5.58933 37.9516 6.72V7.056C37.9516 7.152 37.9463 7.216 37.9356 7.248H33.3436ZM35.8076 6.528C35.7863 5.728 35.6849 5.088 35.5036 4.608C35.3329 4.128 35.0396 3.888 34.6236 3.888C34.3889 3.888 34.1916 3.968 34.0316 4.128C33.8716 4.288 33.7436 4.496 33.6476 4.752C33.5516 4.99733 33.4769 5.28 33.4236 5.6C33.3809 5.90933 33.3543 6.21867 33.3436 6.528H35.8076Z" fill="black"/>
<path d="M29.1197 5.584C29.0344 5.104 28.8637 4.72 28.6077 4.432C28.3624 4.13333 27.9944 3.984 27.5037 3.984C26.8637 3.984 26.3837 4.27733 26.0637 4.864C25.7437 5.44 25.5837 6.24533 25.5837 7.28C25.5837 8.25067 25.7864 8.99733 26.1917 9.52C26.5971 10.032 27.1891 10.288 27.9677 10.288C28.2984 10.288 28.6184 10.2133 28.9277 10.064C29.2371 9.904 29.4664 9.728 29.6157 9.536L29.8077 9.696C29.7331 9.84533 29.6691 10 29.6157 10.16C29.5624 10.32 29.5091 10.48 29.4557 10.64C29.2211 10.8213 28.9224 10.9707 28.5597 11.088C28.2077 11.216 27.7864 11.28 27.2957 11.28C26.5171 11.28 25.8611 11.168 25.3277 10.944C24.7944 10.72 24.3624 10.416 24.0317 10.032C23.7117 9.648 23.4824 9.216 23.3437 8.736C23.2051 8.24533 23.1357 7.75467 23.1357 7.264C23.1357 6.67733 23.2317 6.13333 23.4237 5.632C23.6264 5.13067 23.9091 4.69867 24.2717 4.336C24.6451 3.97333 25.0931 3.69067 25.6157 3.488C26.1384 3.27467 26.7197 3.168 27.3597 3.168C27.9677 3.168 28.4797 3.23733 28.8957 3.376C29.3224 3.51467 29.7277 3.696 30.1117 3.92C29.9837 4.13333 29.8611 4.39467 29.7437 4.704C29.6371 5.01333 29.5571 5.30667 29.5037 5.584H29.1197Z" fill="black"/>
<path d="M21.1197 5.584C21.0344 5.104 20.8637 4.72 20.6077 4.432C20.3624 4.13333 19.9944 3.984 19.5037 3.984C18.8637 3.984 18.3837 4.27733 18.0637 4.864C17.7437 5.44 17.5837 6.24533 17.5837 7.28C17.5837 8.25067 17.7864 8.99733 18.1917 9.52C18.5971 10.032 19.1891 10.288 19.9677 10.288C20.2984 10.288 20.6184 10.2133 20.9277 10.064C21.2371 9.904 21.4664 9.728 21.6157 9.536L21.8077 9.696C21.7331 9.84533 21.6691 10 21.6157 10.16C21.5624 10.32 21.5091 10.48 21.4557 10.64C21.2211 10.8213 20.9224 10.9707 20.5597 11.088C20.2077 11.216 19.7864 11.28 19.2957 11.28C18.5171 11.28 17.8611 11.168 17.3277 10.944C16.7944 10.72 16.3624 10.416 16.0317 10.032C15.7117 9.648 15.4824 9.216 15.3437 8.736C15.2051 8.24533 15.1357 7.75467 15.1357 7.264C15.1357 6.67733 15.2317 6.13333 15.4237 5.632C15.6264 5.13067 15.9091 4.69867 16.2717 4.336C16.6451 3.97333 17.0931 3.69067 17.6157 3.488C18.1384 3.27467 18.7197 3.168 19.3597 3.168C19.9677 3.168 20.4797 3.23733 20.8957 3.376C21.3224 3.51467 21.7277 3.696 22.1117 3.92C21.9837 4.13333 21.8611 4.39467 21.7437 4.704C21.6371 5.01333 21.5571 5.30667 21.5037 5.584H21.1197Z" fill="black"/>
<path d="M8.56 3.088C8.28267 3.728 8.02133 4.36267 7.776 4.992C7.53067 5.61067 7.29067 6.24533 7.056 6.896H9.984C9.74933 6.24533 9.51467 5.61067 9.28 4.992C9.056 4.36267 8.816 3.728 8.56 3.088ZM14.224 11.072C13.968 11.0507 13.7227 11.04 13.488 11.04C13.264 11.04 13.04 11.04 12.816 11.04C12.592 11.04 12.3627 11.04 12.128 11.04C11.904 11.04 11.68 11.0507 11.456 11.072C11.2853 10.5493 11.1093 10.016 10.928 9.472C10.7467 8.928 10.5547 8.384 10.352 7.84C10.0107 7.82933 9.66933 7.824 9.328 7.824C8.98667 7.81333 8.64533 7.808 8.304 7.808C8.02667 7.808 7.74933 7.81333 7.472 7.824C7.19467 7.824 6.91733 7.82933 6.64 7.84C6.42667 8.384 6.22933 8.928 6.048 9.472C5.86667 10.016 5.70133 10.5493 5.552 11.072C5.424 11.0507 5.296 11.04 5.168 11.04C5.05067 11.04 4.928 11.04 4.8 11.04C4.672 11.04 4.544 11.04 4.416 11.04C4.288 11.04 4.14933 11.0507 4 11.072C4.128 10.7947 4.29867 10.4107 4.512 9.92C4.72533 9.42933 4.96 8.87467 5.216 8.256C5.472 7.63733 5.744 6.976 6.032 6.272C6.33067 5.55733 6.624 4.83733 6.912 4.112C7.21067 3.38667 7.49867 2.672 7.776 1.968C8.064 1.264 8.32533 0.608 8.56 0C8.66667 0.0213337 8.768 0.0426671 8.864 0.0640001C8.96 0.0746667 9.06133 0.0799999 9.168 0.0799999C9.27467 0.0799999 9.376 0.0746667 9.472 0.0640001C9.568 0.0426671 9.66933 0.0213337 9.776 0C10.1173 0.906667 10.48 1.87733 10.864 2.912C11.2587 3.94667 11.6533 4.96533 12.048 5.968C12.4427 6.96 12.8267 7.904 13.2 8.8C13.5733 9.696 13.9147 10.4533 14.224 11.072Z" fill="black"/>
</svg>
