<svg width="47" height="15" viewBox="0 0 47 15" fill="none" xmlns="http://www.w3.org/2000/svg">
<path d="M36.5356 8.49801C36.5822 8.59134 36.6522 8.69401 36.7456 8.80601C36.8482 8.91801 36.9649 9.02534 37.0956 9.12801C37.2356 9.22134 37.3896 9.30068 37.5576 9.36601C37.7349 9.43134 37.9216 9.46401 38.1176 9.46401C38.2949 9.46401 38.4629 9.43601 38.6216 9.38001C38.7896 9.32401 38.9342 9.24468 39.0556 9.14201C39.1862 9.03934 39.2889 8.90868 39.3636 8.75001C39.4382 8.59134 39.4756 8.40934 39.4756 8.20401C39.4756 7.91468 39.3916 7.69534 39.2236 7.54601C39.0649 7.38734 38.8642 7.26134 38.6216 7.16801C38.3789 7.06534 38.1129 6.97668 37.8236 6.90201C37.5342 6.82734 37.2682 6.72468 37.0256 6.59401C36.7829 6.45401 36.5776 6.27201 36.4096 6.04801C36.2509 5.82401 36.1716 5.51601 36.1716 5.12401C36.1716 4.81601 36.2229 4.53601 36.3256 4.28401C36.4282 4.02268 36.5776 3.79868 36.7736 3.61201C36.9696 3.42534 37.2122 3.28068 37.5016 3.17801C37.7909 3.06601 38.1222 3.01001 38.4956 3.01001C38.8409 3.01001 39.1302 3.05668 39.3636 3.15001C39.6062 3.24334 39.8349 3.32734 40.0496 3.40201C39.9749 3.54201 39.9049 3.71468 39.8396 3.92001C39.7742 4.12534 39.7322 4.28401 39.7136 4.39601H39.5456C39.4709 4.17201 39.3262 3.97134 39.1116 3.79401C38.8969 3.61668 38.6309 3.52801 38.3136 3.52801C38.1736 3.52801 38.0336 3.55134 37.8936 3.59801C37.7536 3.64468 37.6276 3.71468 37.5156 3.80801C37.4036 3.90134 37.3102 4.02268 37.2356 4.17201C37.1609 4.32134 37.1236 4.49868 37.1236 4.70401C37.1236 5.00268 37.2029 5.23601 37.3616 5.40401C37.5296 5.56268 37.7349 5.68868 37.9776 5.78201C38.2202 5.87534 38.4862 5.95934 38.7756 6.03401C39.0649 6.09934 39.3309 6.19734 39.5736 6.32801C39.8162 6.44934 40.0169 6.62201 40.1756 6.84601C40.3436 7.07001 40.4276 7.37801 40.4276 7.77001C40.4276 8.04068 40.3669 8.30668 40.2456 8.56801C40.1336 8.82934 39.9656 9.06734 39.7416 9.28201C39.5269 9.48734 39.2656 9.65068 38.9576 9.77201C38.6496 9.88401 38.2996 9.94001 37.9076 9.94001C37.4782 9.94001 37.1189 9.89801 36.8296 9.81401C36.5402 9.73001 36.2976 9.63201 36.1016 9.52001C36.1576 9.39868 36.2136 9.23534 36.2696 9.03001C36.3349 8.81534 36.3676 8.63801 36.3676 8.49801H36.5356Z" fill="white"/>
<path d="M31.0942 8.49801C31.1408 8.59134 31.2108 8.69401 31.3042 8.80601C31.4068 8.91801 31.5235 9.02534 31.6542 9.12801C31.7942 9.22134 31.9482 9.30068 32.1162 9.36601C32.2935 9.43134 32.4802 9.46401 32.6762 9.46401C32.8535 9.46401 33.0215 9.43601 33.1802 9.38001C33.3482 9.32401 33.4928 9.24468 33.6142 9.14201C33.7448 9.03934 33.8475 8.90868 33.9222 8.75001C33.9968 8.59134 34.0342 8.40934 34.0342 8.20401C34.0342 7.91468 33.9502 7.69534 33.7822 7.54601C33.6235 7.38734 33.4228 7.26134 33.1802 7.16801C32.9375 7.06534 32.6715 6.97668 32.3822 6.90201C32.0928 6.82734 31.8268 6.72468 31.5842 6.59401C31.3415 6.45401 31.1362 6.27201 30.9682 6.04801C30.8095 5.82401 30.7302 5.51601 30.7302 5.12401C30.7302 4.81601 30.7815 4.53601 30.8842 4.28401C30.9868 4.02268 31.1362 3.79868 31.3322 3.61201C31.5282 3.42534 31.7708 3.28068 32.0602 3.17801C32.3495 3.06601 32.6808 3.01001 33.0542 3.01001C33.3995 3.01001 33.6888 3.05668 33.9222 3.15001C34.1648 3.24334 34.3935 3.32734 34.6082 3.40201C34.5335 3.54201 34.4635 3.71468 34.3982 3.92001C34.3328 4.12534 34.2908 4.28401 34.2722 4.39601H34.1042C34.0295 4.17201 33.8848 3.97134 33.6702 3.79401C33.4555 3.61668 33.1895 3.52801 32.8722 3.52801C32.7322 3.52801 32.5922 3.55134 32.4522 3.59801C32.3122 3.64468 32.1862 3.71468 32.0742 3.80801C31.9622 3.90134 31.8688 4.02268 31.7942 4.17201C31.7195 4.32134 31.6822 4.49868 31.6822 4.70401C31.6822 5.00268 31.7615 5.23601 31.9202 5.40401C32.0882 5.56268 32.2935 5.68868 32.5362 5.78201C32.7788 5.87534 33.0448 5.95934 33.3342 6.03401C33.6235 6.09934 33.8895 6.19734 34.1322 6.32801C34.3748 6.44934 34.5755 6.62201 34.7342 6.84601C34.9022 7.07001 34.9862 7.37801 34.9862 7.77001C34.9862 8.04068 34.9255 8.30668 34.8042 8.56801C34.6922 8.82934 34.5242 9.06734 34.3002 9.28201C34.0855 9.48734 33.8242 9.65068 33.5162 9.77201C33.2082 9.88401 32.8582 9.94001 32.4662 9.94001C32.0368 9.94001 31.6775 9.89801 31.3882 9.81401C31.0988 9.73001 30.8562 9.63201 30.6602 9.52001C30.7162 9.39868 30.7722 9.23534 30.8282 9.03001C30.8935 8.81534 30.9262 8.63801 30.9262 8.49801H31.0942Z" fill="white"/>
<path d="M26.8243 3.45801C26.479 3.45801 26.185 3.53734 25.9423 3.69601C25.709 3.85468 25.513 4.05534 25.3543 4.29801C25.205 4.53134 25.0883 4.79268 25.0043 5.08201C24.9297 5.36201 24.883 5.62801 24.8643 5.88001C25.1537 5.88934 25.4523 5.89868 25.7603 5.90801C26.0777 5.91734 26.3857 5.92201 26.6843 5.92201C26.9923 5.92201 27.305 5.91734 27.6223 5.90801C27.9397 5.89868 28.2477 5.88934 28.5463 5.88001C28.5463 5.62801 28.523 5.36201 28.4763 5.08201C28.439 4.80201 28.355 4.54068 28.2243 4.29801C28.103 4.05534 27.9303 3.85468 27.7063 3.69601C27.4823 3.53734 27.1883 3.45801 26.8243 3.45801ZM23.5903 6.69201C23.5903 5.54401 23.861 4.64334 24.4023 3.99001C24.953 3.33668 25.751 3.01001 26.7963 3.01001C27.291 3.01001 27.7157 3.08934 28.0703 3.24801C28.4343 3.39734 28.7377 3.60268 28.9803 3.86401C29.223 4.11601 29.4003 4.41468 29.5123 4.76001C29.6337 5.10534 29.6943 5.47401 29.6943 5.86601C29.6943 5.95934 29.6897 6.05268 29.6803 6.14601C29.6803 6.23001 29.6757 6.31868 29.6663 6.41201C29.1623 6.40268 28.663 6.39334 28.1683 6.38401C27.6737 6.37468 27.1743 6.37001 26.6703 6.37001C26.3623 6.37001 26.0543 6.37468 25.7463 6.38401C25.4477 6.39334 25.1443 6.40268 24.8363 6.41201C24.827 6.45868 24.8223 6.52868 24.8223 6.62201V6.80401C24.8223 7.16801 24.8737 7.50868 24.9763 7.82601C25.0883 8.14334 25.247 8.41868 25.4523 8.65201C25.6577 8.87601 25.9097 9.05801 26.2083 9.19801C26.507 9.32868 26.8523 9.39401 27.2443 9.39401C27.431 9.39401 27.6223 9.37068 27.8183 9.32401C28.0143 9.26801 28.2057 9.19801 28.3923 9.11401C28.579 9.02068 28.7517 8.91334 28.9103 8.79201C29.0783 8.67068 29.223 8.54001 29.3443 8.40001L29.4143 8.44201L29.3303 9.12801C29.0503 9.35201 28.7003 9.54334 28.2803 9.70201C27.8697 9.86068 27.4403 9.94001 26.9923 9.94001C26.4883 9.94001 26.0263 9.86534 25.6063 9.71601C25.1957 9.55734 24.8363 9.33334 24.5283 9.04401C24.2297 8.74534 23.9963 8.39534 23.8283 7.99401C23.6697 7.59268 23.5903 7.15868 23.5903 6.69201Z" fill="white"/>
<path d="M16.688 6.49601C16.688 5.88934 16.7907 5.36668 16.996 4.92801C17.2013 4.48934 17.4673 4.13001 17.794 3.85001C18.13 3.56068 18.5127 3.35068 18.942 3.22001C19.3713 3.08001 19.81 3.01001 20.258 3.01001C20.7713 3.01001 21.2287 3.07534 21.63 3.20601C22.0407 3.32734 22.3347 3.46734 22.512 3.62601C22.4467 3.76601 22.386 3.91534 22.33 4.07401C22.2833 4.22334 22.2413 4.38201 22.204 4.55001H22.092C22.0267 4.42868 21.938 4.30734 21.826 4.18601C21.714 4.05534 21.5787 3.93868 21.42 3.83601C21.2707 3.72401 21.1027 3.63534 20.916 3.57001C20.7293 3.49534 20.524 3.45801 20.3 3.45801C19.88 3.45801 19.516 3.53734 19.208 3.69601C18.9093 3.84534 18.662 4.05534 18.466 4.32601C18.2793 4.59668 18.1393 4.91868 18.046 5.29201C17.962 5.65601 17.92 6.05268 17.92 6.48201C17.92 7.44334 18.1253 8.17134 18.536 8.66601C18.9467 9.15134 19.5487 9.39401 20.342 9.39401C20.5287 9.39401 20.72 9.37068 20.916 9.32401C21.112 9.26801 21.3033 9.19801 21.49 9.11401C21.6767 9.02068 21.8493 8.91334 22.008 8.79201C22.176 8.67068 22.3207 8.54001 22.442 8.40001L22.512 8.44201C22.4653 8.66601 22.4373 8.89468 22.428 9.12801C22.148 9.35201 21.798 9.54334 21.378 9.70201C20.9673 9.86068 20.538 9.94001 20.09 9.94001C19.6887 9.94001 19.2827 9.88401 18.872 9.77201C18.4707 9.65068 18.1067 9.45468 17.78 9.18401C17.4533 8.90401 17.1873 8.54468 16.982 8.10601C16.786 7.66734 16.688 7.13068 16.688 6.49601Z" fill="white"/>
<path d="M9.68799 6.49601C9.68799 5.88934 9.79065 5.36668 9.99599 4.92801C10.2013 4.48934 10.4673 4.13001 10.794 3.85001C11.13 3.56068 11.5127 3.35068 11.942 3.22001C12.3713 3.08001 12.81 3.01001 13.258 3.01001C13.7713 3.01001 14.2287 3.07534 14.63 3.20601C15.0407 3.32734 15.3347 3.46734 15.512 3.62601C15.4467 3.76601 15.386 3.91534 15.33 4.07401C15.2833 4.22334 15.2413 4.38201 15.204 4.55001H15.092C15.0267 4.42868 14.938 4.30734 14.826 4.18601C14.714 4.05534 14.5787 3.93868 14.42 3.83601C14.2707 3.72401 14.1027 3.63534 13.916 3.57001C13.7293 3.49534 13.524 3.45801 13.3 3.45801C12.88 3.45801 12.516 3.53734 12.208 3.69601C11.9093 3.84534 11.662 4.05534 11.466 4.32601C11.2793 4.59668 11.1393 4.91868 11.046 5.29201C10.962 5.65601 10.92 6.05268 10.92 6.48201C10.92 7.44334 11.1253 8.17134 11.536 8.66601C11.9467 9.15134 12.5487 9.39401 13.342 9.39401C13.5287 9.39401 13.72 9.37068 13.916 9.32401C14.112 9.26801 14.3033 9.19801 14.49 9.11401C14.6767 9.02068 14.8493 8.91334 15.008 8.79201C15.176 8.67068 15.3207 8.54001 15.442 8.40001L15.512 8.44201C15.4653 8.66601 15.4373 8.89468 15.428 9.12801C15.148 9.35201 14.798 9.54334 14.378 9.70201C13.9673 9.86068 13.538 9.94001 13.09 9.94001C12.6887 9.94001 12.2827 9.88401 11.872 9.77201C11.4707 9.65068 11.1067 9.45468 10.78 9.18401C10.4533 8.90401 10.1873 8.54468 9.98199 8.10601C9.78599 7.66734 9.68799 7.13068 9.68799 6.49601Z" fill="white"/>
<path d="M2.66 5.446C2.90267 5.446 3.15467 5.45067 3.416 5.46C3.67733 5.46933 3.92933 5.474 4.172 5.474C4.43333 5.474 4.69467 5.474 4.956 5.474C5.21733 5.46467 5.47867 5.45533 5.74 5.446L4.186 1.89L2.66 5.446ZM8.862 9.8C8.73133 9.78133 8.60533 9.772 8.484 9.772C8.372 9.772 8.25067 9.772 8.12 9.772C7.98933 9.772 7.86333 9.772 7.742 9.772C7.63 9.772 7.50867 9.78133 7.378 9.8C7.31267 9.58533 7.224 9.32867 7.112 9.03C7 8.722 6.874 8.40467 6.734 8.078C6.60333 7.742 6.468 7.406 6.328 7.07C6.188 6.72467 6.05733 6.398 5.936 6.09C5.63733 6.08067 5.334 6.076 5.026 6.076C4.718 6.06667 4.41 6.062 4.102 6.062C3.81267 6.062 3.528 6.06667 3.248 6.076C2.968 6.076 2.68333 6.08067 2.394 6.09C2.09533 6.818 1.82467 7.51333 1.582 8.176C1.33933 8.82933 1.15733 9.37067 1.036 9.8C0.877333 9.78133 0.704667 9.772 0.518 9.772C0.331333 9.772 0.158667 9.78133 0 9.8C0.756 8.16667 1.49333 6.54267 2.212 4.928C2.93067 3.31333 3.654 1.67067 4.382 0H4.648C4.872 0.541333 5.11467 1.12933 5.376 1.764C5.63733 2.38933 5.90333 3.024 6.174 3.668C6.44467 4.312 6.71533 4.95133 6.986 5.586C7.25667 6.22067 7.50867 6.81333 7.742 7.364C7.98467 7.90533 8.19933 8.39067 8.386 8.82C8.582 9.24933 8.74067 9.576 8.862 9.8Z" fill="white"/>
</svg>
