<svg width="47" height="15" viewBox="0 0 47 15" fill="none" xmlns="http://www.w3.org/2000/svg">
<path d="M44.5429 1.27402C44.5149 1.62868 44.4915 1.97868 44.4729 2.32402C44.4635 2.66002 44.4495 3.00068 44.4309 3.34602C44.5335 3.34602 44.7249 3.34602 45.0049 3.34602C45.2849 3.33668 45.5882 3.32268 45.9149 3.30402C45.9055 3.33202 45.9009 3.38335 45.9009 3.45802V3.59802V3.75202C45.9009 3.81735 45.9055 3.86402 45.9149 3.89202C45.7935 3.88268 45.6675 3.87802 45.5369 3.87802C45.4062 3.86868 45.2662 3.86402 45.1169 3.86402H44.4309C44.4215 3.90135 44.4075 4.05068 44.3889 4.31202C44.3795 4.57335 44.3702 4.88602 44.3609 5.25002C44.3515 5.60468 44.3422 5.97802 44.3329 6.37002C44.3329 6.76202 44.3329 7.11202 44.3329 7.42002C44.3329 7.68135 44.3375 7.93802 44.3469 8.19002C44.3655 8.44202 44.4122 8.67068 44.4869 8.87602C44.5615 9.07202 44.6735 9.23069 44.8229 9.35202C44.9722 9.47335 45.1869 9.53402 45.4669 9.53402C45.5415 9.53402 45.6395 9.52468 45.7609 9.50602C45.8915 9.48735 46.0035 9.46402 46.0969 9.43602V9.77202C45.9382 9.80002 45.7609 9.83268 45.5649 9.87002C45.3782 9.91668 45.1962 9.94002 45.0189 9.94002C44.4309 9.94002 43.9969 9.79535 43.7169 9.50602C43.4369 9.21668 43.2969 8.79202 43.2969 8.23202C43.2969 7.98002 43.3015 7.70935 43.3109 7.42002C43.3202 7.12135 43.3295 6.79935 43.3389 6.45402C43.3575 6.09935 43.3715 5.71202 43.3809 5.29202C43.3902 4.86268 43.3949 4.38668 43.3949 3.86402H42.9469C42.8722 3.86402 42.7929 3.86868 42.7089 3.87802C42.6249 3.87802 42.5362 3.88268 42.4429 3.89202C42.4522 3.83602 42.4569 3.78468 42.4569 3.73802C42.4662 3.68202 42.4709 3.62602 42.4709 3.57002C42.4709 3.52335 42.4662 3.47668 42.4569 3.43002C42.4569 3.38335 42.4522 3.33668 42.4429 3.29002C42.8629 3.31802 43.1709 3.33202 43.3669 3.33202C43.3575 3.14535 43.3482 2.91202 43.3389 2.63202C43.3389 2.35202 43.3295 2.06268 43.3109 1.76402L44.4729 1.27402H44.5429Z" fill="white"/>
<path d="M35.793 6.49601C35.793 5.88934 35.8956 5.36668 36.101 4.92801C36.3063 4.48934 36.5723 4.13001 36.899 3.85001C37.235 3.56068 37.6176 3.35068 38.047 3.22001C38.4763 3.08001 38.915 3.01001 39.363 3.01001C39.8763 3.01001 40.3336 3.07534 40.735 3.20601C41.1456 3.32734 41.4396 3.46734 41.617 3.62601C41.5516 3.76601 41.491 3.91534 41.435 4.07401C41.3883 4.22334 41.3463 4.38201 41.309 4.55001H41.197C41.1316 4.42868 41.043 4.30734 40.931 4.18601C40.819 4.05534 40.6836 3.93868 40.525 3.83601C40.3756 3.72401 40.2076 3.63534 40.021 3.57001C39.8343 3.49534 39.629 3.45801 39.405 3.45801C38.985 3.45801 38.621 3.53734 38.313 3.69601C38.0143 3.84534 37.767 4.05534 37.571 4.32601C37.3843 4.59668 37.2443 4.91868 37.151 5.29201C37.067 5.65601 37.025 6.05268 37.025 6.48201C37.025 7.44334 37.2303 8.17134 37.641 8.66601C38.0516 9.15134 38.6536 9.39401 39.447 9.39401C39.6336 9.39401 39.825 9.37068 40.021 9.32401C40.217 9.26801 40.4083 9.19801 40.595 9.11401C40.7816 9.02068 40.9543 8.91334 41.113 8.79201C41.281 8.67068 41.4256 8.54001 41.547 8.40001L41.617 8.44201C41.5703 8.66601 41.5423 8.89468 41.533 9.12801C41.253 9.35201 40.903 9.54334 40.483 9.70201C40.0723 9.86068 39.643 9.94001 39.195 9.94001C38.7936 9.94001 38.3876 9.88401 37.977 9.77201C37.5756 9.65068 37.2116 9.45468 36.885 9.18401C36.5583 8.90401 36.2923 8.54468 36.087 8.10601C35.891 7.66734 35.793 7.13068 35.793 6.49601Z" fill="white"/>
<path d="M32.867 6.31401C32.7083 6.37001 32.5216 6.41668 32.307 6.45401C32.1016 6.49134 31.8916 6.53334 31.677 6.58001C31.4623 6.61734 31.2476 6.66868 31.033 6.73401C30.8276 6.79934 30.641 6.88801 30.473 7.00001C30.3143 7.11201 30.1836 7.25201 30.081 7.42001C29.9876 7.58801 29.941 7.80268 29.941 8.06401C29.941 8.50268 30.067 8.83401 30.319 9.05801C30.571 9.28201 30.851 9.39401 31.159 9.39401C31.5136 9.39401 31.8356 9.29601 32.125 9.10001C32.4236 8.90401 32.6523 8.67534 32.811 8.41401L32.867 6.31401ZM29.409 3.82201C29.829 3.50468 30.2163 3.29001 30.571 3.17801C30.9256 3.06601 31.2896 3.01001 31.663 3.01001C31.999 3.01001 32.307 3.06134 32.587 3.16401C32.867 3.25734 33.105 3.39734 33.301 3.58401C33.497 3.76134 33.651 3.98068 33.763 4.24201C33.875 4.49401 33.931 4.77401 33.931 5.08201C33.931 5.61401 33.9216 6.14601 33.903 6.67801C33.8843 7.20068 33.875 7.75601 33.875 8.34401C33.875 8.45601 33.875 8.57734 33.875 8.70801C33.8843 8.82934 33.9076 8.94134 33.945 9.04401C33.9823 9.13734 34.0336 9.21668 34.099 9.28201C34.1736 9.34734 34.281 9.38001 34.421 9.38001C34.4676 9.38001 34.5143 9.38001 34.561 9.38001C34.617 9.37068 34.6683 9.35201 34.715 9.32401V9.63201C34.6123 9.67868 34.4816 9.71601 34.323 9.74401C34.1736 9.77201 34.0056 9.78601 33.819 9.78601C33.5203 9.78601 33.2916 9.71134 33.133 9.56201C32.9743 9.40334 32.881 9.20268 32.853 8.96001C32.517 9.29601 32.1856 9.54334 31.859 9.70201C31.5323 9.86068 31.131 9.94001 30.655 9.94001C30.4216 9.94001 30.193 9.90734 29.969 9.84201C29.745 9.77668 29.5443 9.66934 29.367 9.52001C29.199 9.37068 29.059 9.19334 28.947 8.98801C28.8443 8.77334 28.793 8.53068 28.793 8.26001C28.793 7.70001 28.9656 7.26601 29.311 6.95801C29.6656 6.65001 30.151 6.44468 30.767 6.34201C31.271 6.25801 31.663 6.18801 31.943 6.13201C32.2323 6.06668 32.4423 6.00134 32.573 5.93601C32.713 5.87068 32.797 5.79601 32.825 5.71201C32.853 5.61868 32.867 5.50201 32.867 5.36201C32.867 5.12868 32.839 4.90468 32.783 4.69001C32.727 4.47534 32.6383 4.28868 32.517 4.13001C32.3956 3.97134 32.237 3.84534 32.041 3.75201C31.845 3.64934 31.607 3.59801 31.327 3.59801C30.9536 3.59801 30.6036 3.68201 30.277 3.85001C29.9596 4.01801 29.7216 4.25134 29.563 4.55001H29.409V3.82201Z" fill="white"/>
<path d="M26.6464 1.27402C26.6184 1.62868 26.5951 1.97868 26.5764 2.32402C26.5671 2.66002 26.5531 3.00068 26.5344 3.34602C26.6371 3.34602 26.8284 3.34602 27.1084 3.34602C27.3884 3.33668 27.6917 3.32268 28.0184 3.30402C28.0091 3.33202 28.0044 3.38335 28.0044 3.45802V3.59802V3.75202C28.0044 3.81735 28.0091 3.86402 28.0184 3.89202C27.8971 3.88268 27.7711 3.87802 27.6404 3.87802C27.5097 3.86868 27.3697 3.86402 27.2204 3.86402H26.5344C26.5251 3.90135 26.5111 4.05068 26.4924 4.31202C26.4831 4.57335 26.4737 4.88602 26.4644 5.25002C26.4551 5.60468 26.4457 5.97802 26.4364 6.37002C26.4364 6.76202 26.4364 7.11202 26.4364 7.42002C26.4364 7.68135 26.4411 7.93802 26.4504 8.19002C26.4691 8.44202 26.5157 8.67068 26.5904 8.87602C26.6651 9.07202 26.7771 9.23069 26.9264 9.35202C27.0757 9.47335 27.2904 9.53402 27.5704 9.53402C27.6451 9.53402 27.7431 9.52468 27.8644 9.50602C27.9951 9.48735 28.1071 9.46402 28.2004 9.43602V9.77202C28.0417 9.80002 27.8644 9.83268 27.6684 9.87002C27.4817 9.91668 27.2997 9.94002 27.1224 9.94002C26.5344 9.94002 26.1004 9.79535 25.8204 9.50602C25.5404 9.21668 25.4004 8.79202 25.4004 8.23202C25.4004 7.98002 25.4051 7.70935 25.4144 7.42002C25.4237 7.12135 25.4331 6.79935 25.4424 6.45402C25.4611 6.09935 25.4751 5.71202 25.4844 5.29202C25.4937 4.86268 25.4984 4.38668 25.4984 3.86402H25.0504C24.9757 3.86402 24.8964 3.86868 24.8124 3.87802C24.7284 3.87802 24.6397 3.88268 24.5464 3.89202C24.5557 3.83602 24.5604 3.78468 24.5604 3.73802C24.5697 3.68202 24.5744 3.62602 24.5744 3.57002C24.5744 3.52335 24.5697 3.47668 24.5604 3.43002C24.5604 3.38335 24.5557 3.33668 24.5464 3.29002C24.9664 3.31802 25.2744 3.33202 25.4704 3.33202C25.4611 3.14535 25.4517 2.91202 25.4424 2.63202C25.4424 2.35202 25.4331 2.06268 25.4144 1.76402L26.5764 1.27402H26.6464Z" fill="white"/>
<path d="M22.1573 5.86601C22.1573 5.16601 22.0219 4.63868 21.7513 4.28401C21.4806 3.92001 21.1073 3.73801 20.6313 3.73801C19.9779 3.73801 19.4973 3.93868 19.1893 4.34001C18.8906 4.74134 18.7413 5.30601 18.7413 6.03401V7.22401C18.7413 7.64401 18.7459 8.08734 18.7553 8.55401C18.7739 9.01134 18.8066 9.42668 18.8533 9.80001C18.6386 9.78134 18.4286 9.77201 18.2233 9.77201C18.0179 9.77201 17.8079 9.78134 17.5933 9.80001C17.6399 9.42668 17.6679 9.01134 17.6773 8.55401C17.6959 8.08734 17.7053 7.64401 17.7053 7.22401V5.76801C17.7053 5.34801 17.6959 4.90934 17.6773 4.45201C17.6679 3.98534 17.6399 3.55134 17.5933 3.15001C17.8546 3.19668 18.0646 3.22001 18.2233 3.22001C18.2979 3.22001 18.3773 3.21534 18.4613 3.20601C18.5546 3.18734 18.6619 3.16868 18.7833 3.15001C18.7553 3.52334 18.7413 3.89668 18.7413 4.27001H18.7693C19.0306 3.86868 19.3433 3.56068 19.7073 3.34601C20.0713 3.12201 20.5053 3.01001 21.0093 3.01001C21.2706 3.01001 21.5319 3.04734 21.7933 3.12201C22.0639 3.19668 22.3066 3.32734 22.5213 3.51401C22.7359 3.69134 22.9086 3.93868 23.0393 4.25601C23.1793 4.56401 23.2493 4.96068 23.2493 5.44601C23.2493 5.84734 23.2399 6.26268 23.2213 6.69201C23.2026 7.11201 23.1933 7.56001 23.1933 8.03601V8.94601C23.1933 9.09534 23.1933 9.24468 23.1933 9.39401C23.2026 9.53401 23.2119 9.66934 23.2213 9.80001C23.0346 9.78134 22.8386 9.77201 22.6333 9.77201C22.4373 9.77201 22.2459 9.78134 22.0593 9.80001C22.0779 9.31468 22.0966 8.81534 22.1153 8.30201C22.1433 7.78868 22.1573 7.26134 22.1573 6.72001V5.86601Z" fill="white"/>
<path d="M10.4722 6.49601C10.4722 6.88801 10.5049 7.26601 10.5702 7.63001C10.6449 7.99401 10.7662 8.32068 10.9342 8.61001C11.1022 8.89001 11.3262 9.11401 11.6062 9.28201C11.8862 9.45001 12.2316 9.53401 12.6422 9.53401C13.0529 9.53401 13.3982 9.45001 13.6782 9.28201C13.9582 9.11401 14.1822 8.89001 14.3502 8.61001C14.5182 8.32068 14.6349 7.99401 14.7002 7.63001C14.7749 7.26601 14.8122 6.88801 14.8122 6.49601C14.8122 6.10401 14.7749 5.72601 14.7002 5.36201C14.6349 4.99801 14.5182 4.67601 14.3502 4.39601C14.1822 4.10668 13.9582 3.87801 13.6782 3.71001C13.3982 3.54201 13.0529 3.45801 12.6422 3.45801C12.2316 3.45801 11.8862 3.54201 11.6062 3.71001C11.3262 3.87801 11.1022 4.10668 10.9342 4.39601C10.7662 4.67601 10.6449 4.99801 10.5702 5.36201C10.5049 5.72601 10.4722 6.10401 10.4722 6.49601ZM9.24023 6.49601C9.24023 5.86134 9.33823 5.32468 9.53424 4.88601C9.73957 4.43801 10.0056 4.07868 10.3322 3.80801C10.6589 3.52801 11.0229 3.32734 11.4242 3.20601C11.8349 3.07534 12.2409 3.01001 12.6422 3.01001C13.0529 3.01001 13.4589 3.07534 13.8602 3.20601C14.2616 3.32734 14.6256 3.52801 14.9522 3.80801C15.2789 4.07868 15.5402 4.43801 15.7362 4.88601C15.9416 5.32468 16.0442 5.86134 16.0442 6.49601C16.0442 7.13068 15.9416 7.67201 15.7362 8.12001C15.5402 8.55868 15.2789 8.91801 14.9522 9.19801C14.6256 9.46868 14.2616 9.66001 13.8602 9.77201C13.4589 9.88401 13.0529 9.94001 12.6422 9.94001C12.2409 9.94001 11.8349 9.88401 11.4242 9.77201C11.0229 9.66001 10.6589 9.46868 10.3322 9.19801C10.0056 8.91801 9.73957 8.55868 9.53424 8.12001C9.33823 7.67201 9.24023 7.13068 9.24023 6.49601Z" fill="white"/>
<path d="M8.022 9.226C7.938 9.30067 7.80267 9.38467 7.616 9.478C7.43867 9.562 7.21933 9.64133 6.958 9.716C6.706 9.78133 6.42133 9.842 6.104 9.898C5.78667 9.954 5.45533 9.982 5.11 9.982C4.37267 9.982 3.69133 9.87933 3.066 9.674C2.44067 9.45933 1.89933 9.13733 1.442 8.708C0.994 8.27867 0.639333 7.756 0.378 7.14C0.126 6.51467 0 5.80533 0 5.012C0 4.21867 0.126 3.514 0.378 2.898C0.639333 2.27267 0.998667 1.74533 1.456 1.316C1.92267 0.886667 2.478 0.56 3.122 0.336C3.766 0.112 4.47533 0 5.25 0C5.866 0 6.426 0.0653334 6.93 0.196C7.44333 0.317334 7.896 0.466667 8.288 0.644C8.21333 0.774667 8.15267 0.952 8.106 1.176C8.05933 1.4 8.022 1.58667 7.994 1.736L7.91 1.764C7.81667 1.652 7.686 1.526 7.518 1.386C7.35 1.246 7.154 1.11067 6.93 0.98C6.706 0.849333 6.454 0.742 6.174 0.658C5.894 0.564667 5.586 0.518 5.25 0.518C4.69933 0.518 4.186 0.606667 3.71 0.784C3.24333 0.961333 2.83267 1.23667 2.478 1.61C2.13267 1.974 1.862 2.44067 1.666 3.01C1.47 3.57 1.372 4.23733 1.372 5.012C1.372 5.78667 1.47 6.45867 1.666 7.028C1.862 7.588 2.13267 8.05467 2.478 8.428C2.83267 8.792 3.24333 9.06267 3.71 9.24C4.186 9.41733 4.69933 9.506 5.25 9.506C5.586 9.506 5.894 9.464 6.174 9.38C6.46333 9.296 6.72467 9.198 6.958 9.086C7.20067 8.96467 7.41533 8.83867 7.602 8.708C7.798 8.568 7.96133 8.44667 8.092 8.344L8.148 8.4L8.022 9.226Z" fill="white"/>
</svg>
