<svg width="55" height="17" viewBox="0 0 55 17" fill="none" xmlns="http://www.w3.org/2000/svg">
<path d="M39.0853 8.24C39.0853 8.66667 39.128 9.06667 39.2133 9.44C39.2986 9.81334 39.4266 10.1387 39.5973 10.416C39.7786 10.6827 40.0026 10.896 40.2693 11.056C40.5466 11.2053 40.8666 11.28 41.2293 11.28C41.9653 11.28 42.6213 11.04 43.1973 10.56L43.3893 10.704L43.0373 11.6C42.7706 11.8027 42.4506 11.9627 42.0773 12.08C41.704 12.208 41.2133 12.272 40.6053 12.272C40.0826 12.272 39.5866 12.1973 39.1173 12.048C38.648 11.9093 38.232 11.6747 37.8693 11.344C37.5173 11.0133 37.2346 10.5973 37.0213 10.096C36.8186 9.584 36.7173 8.976 36.7173 8.272C36.7173 7.57867 36.808 6.976 36.9893 6.464C37.1813 5.952 37.4426 5.52534 37.7733 5.184C38.104 4.84267 38.4933 4.58667 38.9413 4.416C39.4 4.24534 39.896 4.16 40.4293 4.16C41.4853 4.16 42.2906 4.46934 42.8453 5.088C43.4106 5.70667 43.6933 6.58134 43.6933 7.712V8.048C43.6933 8.144 43.688 8.208 43.6773 8.24H39.0853ZM41.5493 7.52C41.528 6.72 41.4266 6.08 41.2453 5.6C41.0746 5.12 40.7813 4.88 40.3653 4.88C40.1306 4.88 39.9333 4.96 39.7733 5.12C39.6133 5.28 39.4853 5.488 39.3893 5.744C39.2933 5.98934 39.2186 6.272 39.1653 6.592C39.1226 6.90134 39.096 7.21067 39.0853 7.52H41.5493Z" fill="black"/>
<path d="M32.8883 5.536C32.8883 4.49067 32.8776 3.53067 32.8563 2.656C32.8349 1.78133 32.8029 0.896 32.7603 0C32.8989 0.0213331 33.0749 0.0426664 33.2883 0.0640001C33.5016 0.0746667 33.7256 0.0799999 33.9603 0.0799999C34.1949 0.0799999 34.4189 0.0746667 34.6323 0.0640001C34.8456 0.0426664 35.0216 0.0213331 35.1603 0C35.1176 0.896 35.0856 1.78133 35.0643 2.656C35.0429 3.53067 35.0323 4.49067 35.0323 5.536V6.576C35.0323 7.62133 35.0429 8.58133 35.0643 9.456C35.0856 10.3307 35.1176 11.2 35.1603 12.064C35.0216 12.0427 34.8456 12.032 34.6323 12.032C34.4189 12.032 34.1949 12.032 33.9603 12.032C33.7256 12.032 33.5016 12.032 33.2883 12.032C33.0749 12.032 32.8989 12.0427 32.7603 12.064C32.8029 11.2 32.8349 10.3307 32.8563 9.456C32.8776 8.58133 32.8883 7.62133 32.8883 6.576V5.536Z" fill="black"/>
<path d="M28.3279 9.39201C28.5199 8.90134 28.6959 8.44801 28.8559 8.03201C29.0159 7.60535 29.1653 7.19468 29.3039 6.80001C29.4533 6.40534 29.5919 6.01068 29.7199 5.61601C29.8586 5.22134 29.9973 4.80534 30.1359 4.36801C30.2533 4.38934 30.3599 4.41068 30.4559 4.43201C30.5626 4.44268 30.6693 4.44801 30.7759 4.44801C30.8826 4.44801 30.9893 4.44268 31.0959 4.43201C31.2026 4.41068 31.3199 4.38934 31.4479 4.36801C31.3946 4.50668 31.2666 4.80535 31.0639 5.26401C30.8719 5.71201 30.6319 6.27201 30.3439 6.94401C30.0666 7.60535 29.7573 8.34135 29.4159 9.15201C29.0746 9.96268 28.7279 10.784 28.3759 11.616C28.0346 12.4373 27.6986 13.2533 27.3679 14.064C27.0479 14.8747 26.7653 15.6107 26.5199 16.272C26.4026 16.2507 26.2906 16.2293 26.1839 16.208C26.0773 16.1973 25.9653 16.192 25.8479 16.192C25.7306 16.192 25.6186 16.1973 25.5119 16.208C25.4053 16.2293 25.2933 16.2507 25.1759 16.272C25.5279 15.568 25.8746 14.8693 26.2159 14.176C26.5573 13.4933 26.8879 12.8 27.2079 12.096C26.9519 11.488 26.6639 10.8 26.3439 10.032C26.0346 9.26401 25.7253 8.51201 25.4159 7.77601C25.1173 7.04001 24.8399 6.36801 24.5839 5.76001C24.3386 5.15201 24.1519 4.68801 24.0239 4.36801C24.2266 4.38934 24.4239 4.41068 24.6159 4.43201C24.8186 4.44268 25.0213 4.44801 25.2239 4.44801C25.4266 4.44801 25.6239 4.44268 25.8159 4.43201C26.0079 4.41068 26.2053 4.38934 26.4079 4.36801C26.7173 5.21068 27.0266 6.04801 27.3359 6.88001C27.6559 7.71201 27.9866 8.54934 28.3279 9.39201Z" fill="black"/>
<path d="M23.464 4.44801C23.432 4.60801 23.416 4.75201 23.416 4.88001C23.416 5.01868 23.432 5.15201 23.464 5.28001L22.056 5.24801C22.0347 5.49334 22.0133 5.77601 21.992 6.09601C21.9813 6.41601 21.9707 6.74134 21.96 7.07201C21.96 7.40268 21.9547 7.72268 21.944 8.03201C21.944 8.34134 21.944 8.60268 21.944 8.81601C21.944 9.37068 21.9547 9.81868 21.976 10.16C22.008 10.5013 22.056 10.7627 22.12 10.944C22.184 11.1253 22.2747 11.248 22.392 11.312C22.5093 11.376 22.6587 11.408 22.84 11.408C23.0427 11.408 23.192 11.3973 23.288 11.376C23.384 11.344 23.48 11.3013 23.576 11.248V11.904C23.3627 12 23.096 12.0853 22.776 12.16C22.456 12.2347 22.1413 12.272 21.832 12.272C20.4773 12.272 19.8 11.4613 19.8 9.84001C19.8 9.53068 19.8053 9.18401 19.816 8.80001C19.8267 8.40534 19.8373 8.00534 19.848 7.60001C19.8693 7.18401 19.8853 6.77868 19.896 6.38401C19.9067 5.97868 19.912 5.60534 19.912 5.26401L18.792 5.28001C18.824 5.15201 18.84 5.01868 18.84 4.88001C18.84 4.75201 18.824 4.60801 18.792 4.44801L19.912 4.49601C19.912 4.16534 19.9067 3.85601 19.896 3.56801C19.8853 3.28001 19.8693 2.93334 19.848 2.52801C20.2213 2.37868 20.5893 2.22401 20.952 2.06401C21.3147 1.89334 21.6773 1.71734 22.04 1.53601L22.2 1.64801C22.1787 1.81868 22.1573 2.02134 22.136 2.25601C22.1253 2.48001 22.1093 2.72001 22.088 2.97601C22.0773 3.22134 22.0667 3.47734 22.056 3.74401C22.056 4.00001 22.056 4.24534 22.056 4.48001L23.464 4.44801Z" fill="black"/>
<path d="M16.552 3.23201C16.2107 2.31468 15.5653 1.85601 14.616 1.85601C14.1253 1.85601 13.7253 2.00001 13.416 2.28801C13.1067 2.57601 12.952 2.91201 12.952 3.29601C12.952 3.69068 13.0693 4.01601 13.304 4.27201C13.5493 4.51735 13.8533 4.74135 14.216 4.94401C14.5787 5.14668 14.968 5.34401 15.384 5.53601C15.8 5.71735 16.1893 5.94668 16.552 6.22401C16.9147 6.49068 17.2133 6.82135 17.448 7.21601C17.6933 7.60001 17.816 8.09601 17.816 8.70401C17.816 9.23735 17.7147 9.72801 17.512 10.176C17.3093 10.6133 17.0213 10.992 16.648 11.312C16.2747 11.6213 15.8267 11.8613 15.304 12.032C14.792 12.192 14.216 12.272 13.576 12.272C13 12.272 12.4827 12.208 12.024 12.08C11.576 11.9627 11.2347 11.8133 11 11.632C11.1067 11.2587 11.1973 10.9173 11.272 10.608C11.3467 10.2987 11.4107 9.96268 11.464 9.60001H11.768C11.8107 9.83468 11.8907 10.0587 12.008 10.272C12.1253 10.4747 12.2747 10.656 12.456 10.816C12.6373 10.976 12.856 11.104 13.112 11.2C13.368 11.2853 13.656 11.328 13.976 11.328C14.616 11.328 15.0853 11.168 15.384 10.848C15.6933 10.528 15.848 10.144 15.848 9.69601C15.848 9.29068 15.7307 8.96001 15.496 8.70401C15.2613 8.44801 14.968 8.22401 14.616 8.03201C14.264 7.82935 13.88 7.63735 13.464 7.45601C13.048 7.26401 12.664 7.03468 12.312 6.76801C11.96 6.50135 11.6667 6.17601 11.432 5.79201C11.1973 5.39735 11.08 4.89601 11.08 4.28801C11.08 3.73335 11.176 3.24268 11.368 2.81601C11.5707 2.38935 11.8373 2.03201 12.168 1.74401C12.4987 1.45601 12.8773 1.23735 13.304 1.08801C13.7413 0.93868 14.2 0.864014 14.68 0.864014C15.256 0.864014 15.7573 0.933347 16.184 1.07201C16.6213 1.21068 16.9947 1.40268 17.304 1.64801C17.208 1.89335 17.1227 2.13335 17.048 2.36801C16.984 2.59201 16.8987 2.88001 16.792 3.23201H16.552Z" fill="black"/>
</svg>
