<svg width="55" height="17" viewBox="0 0 55 17" fill="none" xmlns="http://www.w3.org/2000/svg">
<path d="M39.3065 8.15999C39.3065 8.58665 39.3491 8.98665 39.4345 9.35999C39.5198 9.73332 39.6478 10.0587 39.8185 10.336C39.9998 10.6027 40.2238 10.816 40.4905 10.976C40.7678 11.1253 41.0878 11.2 41.4505 11.2C42.1865 11.2 42.8425 10.96 43.4185 10.48L43.6105 10.624L43.2585 11.52C42.9918 11.7227 42.6718 11.8827 42.2985 12C41.9251 12.128 41.4345 12.192 40.8265 12.192C40.3038 12.192 39.8078 12.1173 39.3385 11.968C38.8691 11.8293 38.4531 11.5947 38.0905 11.264C37.7385 10.9333 37.4558 10.5173 37.2425 10.016C37.0398 9.50399 36.9385 8.89599 36.9385 8.19199C36.9385 7.49865 37.0291 6.89599 37.2105 6.38399C37.4025 5.87199 37.6638 5.44532 37.9945 5.10399C38.3251 4.76265 38.7145 4.50665 39.1625 4.33599C39.6211 4.16532 40.1171 4.07999 40.6505 4.07999C41.7065 4.07999 42.5118 4.38932 43.0665 5.00799C43.6318 5.62665 43.9145 6.50132 43.9145 7.63199V7.96799C43.9145 8.06399 43.9091 8.12799 43.8985 8.15999H39.3065ZM41.7705 7.43999C41.7491 6.63999 41.6478 5.99999 41.4665 5.51999C41.2958 5.03999 41.0025 4.79999 40.5865 4.79999C40.3518 4.79999 40.1545 4.87999 39.9945 5.03999C39.8345 5.19999 39.7065 5.40799 39.6105 5.66399C39.5145 5.90932 39.4398 6.19199 39.3865 6.51199C39.3438 6.82132 39.3171 7.13065 39.3065 7.43999H41.7705Z" fill="black"/>
<path d="M35.0826 6.49599C34.9973 6.01599 34.8266 5.63199 34.5706 5.34399C34.3253 5.04532 33.9573 4.89599 33.4666 4.89599C32.8266 4.89599 32.3466 5.18932 32.0266 5.77599C31.7066 6.35199 31.5466 7.15732 31.5466 8.19199C31.5466 9.16265 31.7493 9.90932 32.1546 10.432C32.56 10.944 33.152 11.2 33.9306 11.2C34.2613 11.2 34.5813 11.1253 34.8906 10.976C35.2 10.816 35.4293 10.64 35.5786 10.448L35.7706 10.608C35.696 10.7573 35.632 10.912 35.5786 11.072C35.5253 11.232 35.472 11.392 35.4186 11.552C35.184 11.7333 34.8853 11.8827 34.5226 12C34.1706 12.128 33.7493 12.192 33.2586 12.192C32.48 12.192 31.824 12.08 31.2906 11.856C30.7573 11.632 30.3253 11.328 29.9946 10.944C29.6746 10.56 29.4453 10.128 29.3066 9.64799C29.168 9.15732 29.0986 8.66665 29.0986 8.17599C29.0986 7.58932 29.1946 7.04532 29.3866 6.54399C29.5893 6.04265 29.872 5.61065 30.2346 5.24799C30.608 4.88532 31.056 4.60265 31.5786 4.39999C32.1013 4.18665 32.6826 4.07999 33.3226 4.07999C33.9306 4.07999 34.4426 4.14932 34.8586 4.28799C35.2853 4.42665 35.6906 4.60799 36.0746 4.83199C35.9466 5.04532 35.824 5.30665 35.7066 5.61599C35.6 5.92532 35.52 6.21865 35.4666 6.49599H35.0826Z" fill="black"/>
<path d="M24.9175 1.264C24.9175 0.912 25.0401 0.613333 25.2855 0.368C25.5308 0.122667 25.8295 0 26.1815 0C26.5335 0 26.8321 0.122667 27.0775 0.368C27.3228 0.613333 27.4455 0.912 27.4455 1.264C27.4455 1.616 27.3228 1.91467 27.0775 2.16C26.8321 2.40533 26.5335 2.528 26.1815 2.528C25.8295 2.528 25.5308 2.40533 25.2855 2.16C25.0401 1.91467 24.9175 1.616 24.9175 1.264ZM25.1095 7.84C25.1095 7.18933 25.0988 6.58133 25.0775 6.016C25.0668 5.44 25.0348 4.864 24.9815 4.288C25.1308 4.30933 25.3068 4.33067 25.5095 4.352C25.7121 4.36267 25.9361 4.368 26.1815 4.368C26.6828 4.368 27.0828 4.34133 27.3815 4.288C27.3281 4.864 27.2908 5.44 27.2695 6.016C27.2588 6.58133 27.2535 7.18933 27.2535 7.84V8.48C27.2535 9.13067 27.2588 9.744 27.2695 10.32C27.2908 10.896 27.3281 11.4507 27.3815 11.984C27.2428 11.9627 27.0668 11.952 26.8535 11.952C26.6508 11.952 26.4268 11.952 26.1815 11.952C25.9361 11.952 25.7121 11.952 25.5095 11.952C25.3068 11.952 25.1308 11.9627 24.9815 11.984C25.0348 11.4507 25.0668 10.896 25.0775 10.32C25.0988 9.744 25.1095 9.13067 25.1095 8.48V7.84Z" fill="black"/>
<path d="M20.8907 6.27199C21.1681 5.53599 21.5041 4.99732 21.8987 4.65599C22.2934 4.30399 22.7627 4.12799 23.3067 4.12799C23.3601 4.12799 23.4027 4.13332 23.4347 4.14399C23.4774 4.14399 23.5201 4.14399 23.5627 4.14399C23.5307 4.30399 23.5041 4.47466 23.4827 4.65599C23.4721 4.83732 23.4667 5.05066 23.4667 5.29599V5.80799C23.4667 5.89332 23.4667 5.98399 23.4667 6.07999C23.4667 6.17599 23.4721 6.26666 23.4827 6.35199L23.3387 6.47999C23.2321 6.41599 23.1094 6.36266 22.9707 6.31999C22.8427 6.27732 22.6934 6.25599 22.5227 6.25599C22.0427 6.25599 21.6641 6.41599 21.3867 6.73599C21.1094 7.04532 20.9707 7.41332 20.9707 7.83999V8.47999C20.9707 9.13066 20.9761 9.74399 20.9867 10.32C21.0081 10.896 21.0454 11.4507 21.0987 11.984C20.9601 11.9627 20.7841 11.952 20.5707 11.952C20.3681 11.952 20.1441 11.952 19.8987 11.952C19.6534 11.952 19.4294 11.952 19.2267 11.952C19.0241 11.952 18.8481 11.9627 18.6987 11.984C18.7521 11.4507 18.7841 10.896 18.7947 10.32C18.8161 9.74399 18.8267 9.13066 18.8267 8.47999V7.83999C18.8267 7.18932 18.8161 6.58132 18.7947 6.01599C18.7841 5.43999 18.7521 4.86399 18.6987 4.28799C18.8801 4.30932 19.0614 4.33066 19.2427 4.35199C19.4347 4.36266 19.6214 4.36799 19.8027 4.36799C19.9841 4.36799 20.1654 4.36266 20.3467 4.35199C20.5387 4.33066 20.7254 4.30932 20.9067 4.28799L20.8587 6.23999L20.8907 6.27199Z" fill="black"/>
<path d="M14.896 4.064C14.896 3.65867 14.848 3.31734 14.752 3.04C14.6667 2.76267 14.544 2.54401 14.384 2.384C14.2347 2.21334 14.0533 2.09067 13.84 2.016C13.6373 1.94134 13.424 1.90401 13.2 1.90401H12.832C12.7787 1.90401 12.7253 1.90401 12.672 1.90401C12.6187 1.90401 12.5707 1.90934 12.528 1.92C12.5173 2.68801 12.5067 3.44534 12.496 4.19201C12.496 4.92801 12.496 5.66934 12.496 6.41601C12.7627 6.41601 13.0347 6.38934 13.312 6.33601C13.6 6.28267 13.8613 6.176 14.096 6.016C14.3307 5.84534 14.5227 5.60534 14.672 5.29601C14.8213 4.98667 14.896 4.576 14.896 4.064ZM10.128 5.42401C10.128 4.53867 10.1173 3.75467 10.096 3.07201C10.0747 2.37867 10.0427 1.68534 10 0.992004C10.1813 1.01334 10.3787 1.03467 10.592 1.056C10.8053 1.06667 11.0453 1.07201 11.312 1.07201C11.6853 1.07201 12.0693 1.06134 12.464 1.04C12.8693 1.008 13.264 0.992004 13.648 0.992004C14.4053 0.992004 14.9973 1.05067 15.424 1.168C15.8507 1.27467 16.1867 1.43467 16.432 1.648C16.7733 1.92534 17.024 2.23467 17.184 2.576C17.344 2.91734 17.424 3.32801 17.424 3.80801C17.424 4.41601 17.3227 4.93867 17.12 5.37601C16.9173 5.81334 16.6293 6.17067 16.256 6.44801C15.8933 6.71467 15.4613 6.912 14.96 7.04C14.4587 7.168 13.9093 7.23201 13.312 7.23201H12.496C12.496 8.03201 12.5013 8.83201 12.512 9.63201C12.5333 10.4213 12.5707 11.2053 12.624 11.984C12.4427 11.9627 12.2453 11.952 12.032 11.952C11.8187 11.952 11.5787 11.952 11.312 11.952C11.0453 11.952 10.8053 11.952 10.592 11.952C10.3787 11.952 10.1813 11.9627 10 11.984C10.0427 11.3227 10.0747 10.6507 10.096 9.96801C10.1173 9.27467 10.128 8.48534 10.128 7.60001V5.42401Z" fill="black"/>
</svg>
