<svg width="47" height="15" viewBox="0 0 47 15" fill="none" xmlns="http://www.w3.org/2000/svg">
<path d="M24.8873 4.21402C24.542 4.21402 24.248 4.29335 24.0053 4.45202C23.772 4.61069 23.576 4.81135 23.4173 5.05402C23.268 5.28735 23.1513 5.54869 23.0673 5.83802C22.9927 6.11802 22.946 6.38402 22.9273 6.63602C23.2167 6.64536 23.5153 6.65469 23.8233 6.66402C24.1407 6.67335 24.4487 6.67802 24.7473 6.67802C25.0553 6.67802 25.368 6.67335 25.6853 6.66402C26.0027 6.65469 26.3107 6.64536 26.6093 6.63602C26.6093 6.38402 26.586 6.11802 26.5393 5.83802C26.502 5.55802 26.418 5.29669 26.2873 5.05402C26.166 4.81135 25.9933 4.61069 25.7693 4.45202C25.5453 4.29335 25.2513 4.21402 24.8873 4.21402ZM21.6533 7.44802C21.6533 6.30002 21.924 5.39935 22.4653 4.74602C23.016 4.09269 23.814 3.76602 24.8593 3.76602C25.354 3.76602 25.7787 3.84536 26.1333 4.00402C26.4973 4.15336 26.8007 4.35869 27.0433 4.62002C27.286 4.87202 27.4633 5.17069 27.5753 5.51602C27.6967 5.86136 27.7573 6.23002 27.7573 6.62202C27.7573 6.71535 27.7527 6.80869 27.7433 6.90202C27.7433 6.98602 27.7387 7.07469 27.7293 7.16802C27.2253 7.15869 26.726 7.14935 26.2313 7.14002C25.7367 7.13069 25.2373 7.12602 24.7333 7.12602C24.4253 7.12602 24.1173 7.13069 23.8093 7.14002C23.5107 7.14935 23.2073 7.15869 22.8993 7.16802C22.89 7.21469 22.8853 7.28469 22.8853 7.37802V7.56002C22.8853 7.92402 22.9367 8.26469 23.0393 8.58202C23.1513 8.89936 23.31 9.17469 23.5153 9.40802C23.7207 9.63202 23.9727 9.81402 24.2713 9.95402C24.57 10.0847 24.9153 10.15 25.3073 10.15C25.494 10.15 25.6853 10.1267 25.8813 10.08C26.0773 10.024 26.2687 9.95402 26.4553 9.87002C26.642 9.77669 26.8147 9.66936 26.9733 9.54802C27.1413 9.42669 27.286 9.29602 27.4073 9.15602L27.4773 9.19802L27.3933 9.88402C27.1133 10.108 26.7633 10.2994 26.3433 10.458C25.9327 10.6167 25.5033 10.696 25.0553 10.696C24.5513 10.696 24.0893 10.6214 23.6693 10.472C23.2587 10.3134 22.8993 10.0894 22.5913 9.80002C22.2927 9.50136 22.0593 9.15136 21.8913 8.75002C21.7327 8.34869 21.6533 7.91469 21.6533 7.44802Z" fill="white"/>
<path d="M18.6945 4.032C18.6945 3.71467 18.6899 3.36933 18.6805 2.996C18.6805 2.62267 18.6759 2.254 18.6665 1.89C18.6572 1.526 18.6432 1.18067 18.6245 0.854C18.6152 0.518 18.6012 0.233333 18.5825 0C18.8439 0.0466666 19.0539 0.0699997 19.2125 0.0699997C19.3712 0.0699997 19.5812 0.0466666 19.8425 0C19.8239 0.233333 19.8052 0.518 19.7865 0.854C19.7772 1.18067 19.7679 1.526 19.7585 1.89C19.7492 2.254 19.7399 2.62267 19.7305 2.996C19.7305 3.36933 19.7305 3.71467 19.7305 4.032V6.566C19.7305 6.88333 19.7305 7.22867 19.7305 7.602C19.7399 7.97533 19.7492 8.344 19.7585 8.708C19.7679 9.072 19.7772 9.41733 19.7865 9.744C19.8052 10.0707 19.8239 10.3413 19.8425 10.556C19.6279 10.5373 19.4179 10.528 19.2125 10.528C19.0072 10.528 18.7972 10.5373 18.5825 10.556C18.6012 10.3413 18.6152 10.0707 18.6245 9.744C18.6432 9.41733 18.6572 9.072 18.6665 8.708C18.6759 8.344 18.6805 7.97533 18.6805 7.602C18.6899 7.22867 18.6945 6.88333 18.6945 6.566V4.032Z" fill="white"/>
<path d="M13.3747 10.57C13.272 10.318 13.1367 9.99134 12.9687 9.59001C12.81 9.18867 12.6374 8.76867 12.4507 8.33001C12.264 7.88201 12.0727 7.42934 11.8767 6.97201C11.6807 6.50534 11.494 6.07134 11.3167 5.67001C11.1487 5.25934 10.9994 4.90001 10.8687 4.59201C10.738 4.28401 10.64 4.05534 10.5747 3.90601C10.696 3.92467 10.808 3.94334 10.9107 3.96201C11.0134 3.97134 11.116 3.97601 11.2187 3.97601C11.3214 3.97601 11.424 3.97134 11.5267 3.96201C11.6294 3.94334 11.7414 3.92467 11.8627 3.90601C12.152 4.80201 12.474 5.68867 12.8287 6.56601C13.1834 7.44334 13.5567 8.34867 13.9487 9.28201C14.3407 8.46067 14.714 7.58334 15.0687 6.65001C15.4327 5.71667 15.7547 4.80201 16.0347 3.90601C16.2214 3.95267 16.3754 3.97601 16.4967 3.97601C16.618 3.97601 16.772 3.95267 16.9587 3.90601C16.8934 4.03667 16.786 4.26067 16.6367 4.57801C16.4967 4.88601 16.324 5.25934 16.1187 5.69801C15.9227 6.12734 15.7034 6.60801 15.4607 7.14001C15.2274 7.66267 14.9847 8.20401 14.7327 8.76401C14.49 9.31467 14.2474 9.86534 14.0047 10.416C13.762 10.9573 13.538 11.4707 13.3327 11.956C13.1274 12.4507 12.9454 12.894 12.7867 13.286C12.6374 13.6873 12.5254 14.0047 12.4507 14.238C12.264 14.1913 12.1054 14.168 11.9747 14.168C11.844 14.168 11.6854 14.1913 11.4987 14.238C12.236 13.0153 12.8614 11.7927 13.3747 10.57Z" fill="white"/>
<path d="M8.70791 2.03003C8.67991 2.3847 8.65658 2.7347 8.63791 3.08003C8.62858 3.41603 8.61458 3.7567 8.59591 4.10203C8.69858 4.10203 8.88991 4.10203 9.16991 4.10203C9.44991 4.0927 9.75324 4.0787 10.0799 4.06003C10.0706 4.08803 10.0659 4.13936 10.0659 4.21403V4.35403V4.50803C10.0659 4.57336 10.0706 4.62003 10.0799 4.64803C9.95858 4.6387 9.83258 4.63403 9.70191 4.63403C9.57124 4.6247 9.43124 4.62003 9.28191 4.62003H8.59591C8.58658 4.65736 8.57258 4.8067 8.55391 5.06803C8.54458 5.32936 8.53524 5.64203 8.52591 6.00603C8.51658 6.3607 8.50724 6.73403 8.49791 7.12603C8.49791 7.51803 8.49791 7.86803 8.49791 8.17603C8.49791 8.43736 8.50258 8.69403 8.51191 8.94603C8.53058 9.19803 8.57724 9.4267 8.65191 9.63203C8.72658 9.82803 8.83858 9.9867 8.98791 10.108C9.13724 10.2294 9.35191 10.29 9.63191 10.29C9.70658 10.29 9.80458 10.2807 9.92591 10.262C10.0566 10.2434 10.1686 10.22 10.2619 10.192V10.528C10.1032 10.556 9.92591 10.5887 9.72991 10.626C9.54324 10.6727 9.36124 10.696 9.18391 10.696C8.59591 10.696 8.16191 10.5514 7.88191 10.262C7.60191 9.9727 7.46191 9.54803 7.46191 8.98803C7.46191 8.73603 7.46658 8.46536 7.47591 8.17603C7.48524 7.87736 7.49458 7.55536 7.50391 7.21003C7.52258 6.85536 7.53658 6.46803 7.54591 6.04803C7.55524 5.6187 7.55991 5.1427 7.55991 4.62003H7.11191C7.03724 4.62003 6.95791 4.6247 6.87391 4.63403C6.78991 4.63403 6.70124 4.6387 6.60791 4.64803C6.61724 4.59203 6.62191 4.5407 6.62191 4.49403C6.63124 4.43803 6.63591 4.38203 6.63591 4.32603C6.63591 4.27936 6.63124 4.2327 6.62191 4.18603C6.62191 4.13936 6.61724 4.0927 6.60791 4.04603C7.02791 4.07403 7.33591 4.08803 7.53191 4.08803C7.52258 3.90136 7.51324 3.66803 7.50391 3.38803C7.50391 3.10803 7.49458 2.8187 7.47591 2.52003L8.63791 2.03003H8.70791Z" fill="white"/>
<path d="M0.434 8.73601C0.508667 8.90401 0.606667 9.07668 0.728 9.25401C0.858667 9.42201 1.01267 9.57601 1.19 9.71601C1.37667 9.85601 1.59133 9.97268 1.834 10.066C2.07667 10.15 2.34733 10.192 2.646 10.192C2.954 10.192 3.22933 10.1407 3.472 10.038C3.724 9.92601 3.934 9.78135 4.102 9.60401C4.27933 9.41735 4.41467 9.20268 4.508 8.96001C4.60133 8.70801 4.648 8.44201 4.648 8.16201C4.648 7.73268 4.536 7.39201 4.312 7.14001C4.09733 6.88801 3.82667 6.67801 3.5 6.51001C3.17333 6.34201 2.81867 6.18801 2.436 6.04801C2.06267 5.90801 1.71267 5.73535 1.386 5.53001C1.05933 5.31535 0.784 5.04468 0.56 4.71801C0.345333 4.39135 0.238 3.95268 0.238 3.40201C0.238 3.01001 0.308 2.65535 0.448 2.33801C0.588 2.01135 0.788667 1.73135 1.05 1.49801C1.32067 1.26468 1.64267 1.08268 2.016 0.952012C2.38933 0.821345 2.80933 0.756012 3.276 0.756012C3.724 0.756012 4.11133 0.812012 4.438 0.924012C4.76467 1.02668 5.068 1.19001 5.348 1.41401C5.264 1.57268 5.194 1.74068 5.138 1.91801C5.082 2.09535 5.026 2.31935 4.97 2.59001H4.802C4.75533 2.45934 4.69 2.31935 4.606 2.17001C4.53133 2.01135 4.424 1.86668 4.284 1.73601C4.15333 1.60535 3.99467 1.49801 3.808 1.41401C3.62133 1.32068 3.39733 1.27401 3.136 1.27401C2.87467 1.27401 2.632 1.31601 2.408 1.40001C2.19333 1.48401 2.002 1.60535 1.834 1.76401C1.67533 1.91335 1.54933 2.09535 1.456 2.31001C1.372 2.52468 1.33 2.75801 1.33 3.01001C1.33 3.44868 1.43733 3.79401 1.652 4.04601C1.876 4.29801 2.15133 4.51268 2.478 4.69001C2.80467 4.85801 3.15467 5.01201 3.528 5.15201C3.91067 5.28268 4.26533 5.44601 4.592 5.64201C4.91867 5.83801 5.18933 6.09001 5.404 6.39801C5.628 6.70601 5.74 7.11668 5.74 7.63001C5.74 8.05934 5.66067 8.46535 5.502 8.84801C5.35267 9.23068 5.12867 9.56668 4.83 9.85601C4.54067 10.136 4.18133 10.3553 3.752 10.514C3.332 10.6633 2.85133 10.738 2.31 10.738C1.73133 10.738 1.26 10.6633 0.896 10.514C0.541333 10.3553 0.242667 10.178 0 9.98201C0.084 9.76735 0.14 9.57601 0.168 9.40801C0.205333 9.23068 0.238 9.00668 0.266 8.73601H0.434Z" fill="white"/>
</svg>
