<svg width="55" height="17" viewBox="0 0 55 17" fill="none" xmlns="http://www.w3.org/2000/svg">
<path d="M49.1759 4.44801C49.1439 4.60801 49.1279 4.75201 49.1279 4.88001C49.1279 5.01868 49.1439 5.15201 49.1759 5.28001L47.7679 5.24801C47.7466 5.49334 47.7252 5.77601 47.7039 6.09601C47.6932 6.41601 47.6826 6.74134 47.6719 7.07201C47.6719 7.40268 47.6666 7.72268 47.6559 8.03201C47.6559 8.34134 47.6559 8.60268 47.6559 8.81601C47.6559 9.37068 47.6666 9.81868 47.6879 10.16C47.7199 10.5013 47.7679 10.7627 47.8319 10.944C47.8959 11.1253 47.9866 11.248 48.1039 11.312C48.2212 11.376 48.3706 11.408 48.5519 11.408C48.7546 11.408 48.9039 11.3973 48.9999 11.376C49.0959 11.344 49.1919 11.3013 49.2879 11.248V11.904C49.0746 12 48.8079 12.0853 48.4879 12.16C48.1679 12.2347 47.8532 12.272 47.5439 12.272C46.1892 12.272 45.5119 11.4613 45.5119 9.84001C45.5119 9.53068 45.5172 9.18401 45.5279 8.80001C45.5386 8.40534 45.5492 8.00534 45.5599 7.60001C45.5812 7.18401 45.5972 6.77868 45.6079 6.38401C45.6186 5.97868 45.6239 5.60534 45.6239 5.26401L44.5039 5.28001C44.5359 5.15201 44.5519 5.01868 44.5519 4.88001C44.5519 4.75201 44.5359 4.60801 44.5039 4.44801L45.6239 4.49601C45.6239 4.16534 45.6186 3.85601 45.6079 3.56801C45.5972 3.28001 45.5812 2.93334 45.5599 2.52801C45.9332 2.37868 46.3012 2.22401 46.6639 2.06401C47.0266 1.89334 47.3892 1.71734 47.7519 1.53601L47.9119 1.64801C47.8906 1.81868 47.8692 2.02134 47.8479 2.25601C47.8372 2.48001 47.8212 2.72001 47.7999 2.97601C47.7892 3.22134 47.7786 3.47734 47.7679 3.74401C47.7679 4.00001 47.7679 4.24534 47.7679 4.48001L49.1759 4.44801Z" fill="black"/>
<path d="M41.0051 10.912C40.7065 11.36 40.3545 11.7013 39.9492 11.936C39.5545 12.16 39.1011 12.272 38.5891 12.272C37.7891 12.272 37.1705 12.048 36.7332 11.6C36.3065 11.152 36.0931 10.4107 36.0931 9.37601C36.0931 8.83201 36.1038 8.35201 36.1251 7.93601C36.1465 7.52001 36.1572 7.10401 36.1572 6.68801C36.1572 6.34668 36.1465 5.97868 36.1251 5.58401C36.1145 5.17868 36.0985 4.77334 36.0771 4.36801C36.2158 4.38934 36.3918 4.41068 36.6051 4.43201C36.8185 4.44268 37.0425 4.44801 37.2771 4.44801C37.5118 4.44801 37.7358 4.44268 37.9492 4.43201C38.1625 4.41068 38.3385 4.38934 38.4771 4.36801C38.4025 4.94401 38.3545 5.61068 38.3331 6.36801C38.3118 7.12535 38.3011 7.98934 38.3011 8.96001C38.3011 9.63201 38.4131 10.128 38.6371 10.448C38.8718 10.7573 39.1971 10.912 39.6131 10.912C40.0931 10.912 40.4451 10.704 40.6691 10.288C40.8931 9.87201 41.0051 9.29601 41.0051 8.56001V7.92001C41.0051 7.26935 40.9945 6.66134 40.9731 6.09601C40.9625 5.52001 40.9305 4.94401 40.8771 4.36801C41.1758 4.42134 41.5758 4.44801 42.0771 4.44801C42.3225 4.44801 42.5465 4.44268 42.7491 4.43201C42.9518 4.41068 43.1278 4.38934 43.2771 4.36801C43.2238 4.94401 43.1865 5.52001 43.1651 6.09601C43.1545 6.66134 43.1492 7.26935 43.1492 7.92001V8.56001C43.1492 9.21068 43.1545 9.82401 43.1651 10.4C43.1865 10.976 43.2238 11.5307 43.2771 12.064C43.0851 12.0427 42.8931 12.032 42.7011 12.032C42.5198 12.032 42.3331 12.032 42.1411 12.032C41.9491 12.032 41.7571 12.032 41.5651 12.032C41.3838 12.032 41.1865 12.0427 40.9731 12.064L41.0371 10.912H41.0051Z" fill="black"/>
<path d="M32.3387 7.84C32.3387 6.90134 32.2214 6.176 31.9867 5.664C31.752 5.14134 31.3627 4.88 30.8187 4.88C30.328 4.88 29.9387 5.168 29.6507 5.744C29.3734 6.32 29.2347 7.22134 29.2347 8.448C29.2347 8.896 29.2614 9.312 29.3147 9.696C29.368 10.08 29.4534 10.416 29.5707 10.704C29.6987 10.9813 29.8587 11.2 30.0507 11.36C30.2534 11.52 30.504 11.6 30.8027 11.6C31.8267 11.6 32.3387 10.3467 32.3387 7.84ZM26.8667 8.432C26.8667 7.71734 26.9734 7.09334 27.1867 6.56C27.4107 6.02667 27.704 5.584 28.0667 5.232C28.4294 4.86934 28.8454 4.60267 29.3147 4.432C29.7947 4.25067 30.2854 4.16 30.7867 4.16C32.0347 4.16 33 4.512 33.6827 5.216C34.3654 5.92 34.7067 6.87467 34.7067 8.08C34.7067 8.73067 34.6107 9.31734 34.4187 9.84C34.2267 10.3627 33.9547 10.8107 33.6027 11.184C33.2614 11.5467 32.8507 11.8187 32.3707 12C31.8907 12.1813 31.3627 12.272 30.7867 12.272C30.3067 12.272 29.832 12.208 29.3627 12.08C28.904 11.952 28.488 11.7387 28.1147 11.44C27.7414 11.1307 27.4374 10.7307 27.2027 10.24C26.9787 9.74934 26.8667 9.14667 26.8667 8.432Z" fill="black"/>
<path d="M20.5679 8.288C20.5679 8.75733 20.5839 9.19467 20.6159 9.6C20.6586 10.0053 20.7279 10.3573 20.8239 10.656C20.9306 10.944 21.0692 11.1733 21.2399 11.344C21.4212 11.5147 21.6559 11.6 21.9439 11.6C22.4026 11.6 22.7652 11.3173 23.0319 10.752C23.3092 10.176 23.4479 9.23733 23.4479 7.936C23.4479 6.08 22.9892 5.152 22.0719 5.152C21.8479 5.152 21.6399 5.20533 21.4479 5.312C21.2666 5.41867 21.1066 5.6 20.9679 5.856C20.8399 6.10133 20.7386 6.42667 20.6639 6.832C20.5999 7.22667 20.5679 7.712 20.5679 8.288ZM18.4239 5.536C18.4239 4.49067 18.4132 3.53067 18.3919 2.656C18.3706 1.78133 18.3386 0.896 18.2959 0C18.4346 0.0213331 18.6106 0.0426664 18.8239 0.0640001C19.0372 0.0746667 19.2612 0.0799999 19.4959 0.0799999C19.7306 0.0799999 19.9546 0.0746667 20.1679 0.0640001C20.3812 0.0426664 20.5572 0.0213331 20.6959 0C20.6532 0.896 20.6212 1.78133 20.5999 2.656C20.5786 3.53067 20.5679 4.49067 20.5679 5.536H20.5999C20.7812 5.088 21.0586 4.74667 21.4319 4.512C21.8159 4.27733 22.2479 4.16 22.7279 4.16C23.1866 4.16 23.6026 4.26133 23.9759 4.464C24.3599 4.66667 24.6852 4.93867 24.9519 5.28C25.2292 5.62133 25.4426 6.02667 25.5919 6.496C25.7412 6.95467 25.8159 7.45067 25.8159 7.984C25.8159 8.784 25.7039 9.46133 25.4799 10.016C25.2666 10.56 24.9839 11.0027 24.6319 11.344C24.2906 11.6853 23.9066 11.9253 23.4799 12.064C23.0532 12.2027 22.6319 12.272 22.2159 12.272C21.7039 12.272 21.2719 12.176 20.9199 11.984C20.5679 11.7813 20.2799 11.52 20.0559 11.2C19.8319 11.328 19.6026 11.4773 19.3679 11.648C19.1439 11.8187 18.9146 11.9787 18.6799 12.128H18.2959C18.3386 11.232 18.3706 10.3467 18.3919 9.472C18.4132 8.58667 18.4239 7.62133 18.4239 6.576V5.536Z" fill="black"/>
<path d="M11.56 4.08001C11.2827 4.72001 11.0213 5.35467 10.776 5.984C10.5307 6.60267 10.2907 7.23734 10.056 7.88801H12.984C12.7493 7.23734 12.5147 6.60267 12.28 5.984C12.056 5.35467 11.816 4.72001 11.56 4.08001ZM17.224 12.064C16.968 12.0427 16.7227 12.032 16.488 12.032C16.264 12.032 16.04 12.032 15.816 12.032C15.592 12.032 15.3627 12.032 15.128 12.032C14.904 12.032 14.68 12.0427 14.456 12.064C14.2853 11.5413 14.1093 11.008 13.928 10.464C13.7467 9.92001 13.5547 9.37601 13.352 8.83201C13.0107 8.82134 12.6693 8.81601 12.328 8.81601C11.9867 8.80534 11.6453 8.8 11.304 8.8C11.0267 8.8 10.7493 8.80534 10.472 8.81601C10.1947 8.81601 9.91733 8.82134 9.64 8.83201C9.42667 9.37601 9.22933 9.92001 9.048 10.464C8.86667 11.008 8.70133 11.5413 8.552 12.064C8.424 12.0427 8.296 12.032 8.168 12.032C8.05067 12.032 7.928 12.032 7.8 12.032C7.672 12.032 7.544 12.032 7.416 12.032C7.288 12.032 7.14933 12.0427 7 12.064C7.128 11.7867 7.29867 11.4027 7.512 10.912C7.72533 10.4213 7.96 9.86667 8.216 9.248C8.472 8.62934 8.744 7.96801 9.032 7.26401C9.33067 6.54934 9.624 5.82934 9.912 5.104C10.2107 4.37867 10.4987 3.664 10.776 2.96C11.064 2.256 11.3253 1.6 11.56 0.992004C11.6667 1.01334 11.768 1.03467 11.864 1.056C11.96 1.06667 12.0613 1.072 12.168 1.072C12.2747 1.072 12.376 1.06667 12.472 1.056C12.568 1.03467 12.6693 1.01334 12.776 0.992004C13.1173 1.89867 13.48 2.86934 13.864 3.90401C14.2587 4.93867 14.6533 5.95734 15.048 6.96C15.4427 7.952 15.8267 8.89601 16.2 9.79201C16.5733 10.688 16.9147 11.4453 17.224 12.064Z" fill="black"/>
</svg>
