<svg width="109" height="18" viewBox="0 0 109 18" fill="none" xmlns="http://www.w3.org/2000/svg">
<path d="M99.5104 7.208C99.5104 5.88 99.4944 4.704 99.4624 3.68C99.4304 2.64 99.3824 1.6 99.3184 0.559998C100.038 0.575998 100.75 0.599998 101.454 0.631998C102.158 0.663999 102.87 0.679999 103.59 0.679999C104.774 0.679999 105.822 0.671999 106.734 0.655998C107.662 0.623998 108.286 0.591998 108.606 0.559998C108.542 0.815998 108.51 1.152 108.51 1.568C108.51 1.824 108.518 2.024 108.534 2.168C108.55 2.312 108.574 2.472 108.606 2.648C108.142 2.616 107.63 2.584 107.07 2.552C106.526 2.52 105.99 2.488 105.462 2.456C104.95 2.424 104.486 2.4 104.07 2.384C103.654 2.368 103.358 2.36 103.182 2.36C103.118 3.24 103.078 4.112 103.062 4.976C103.062 5.84 103.062 6.712 103.062 7.592C104.102 7.576 105.038 7.552 105.87 7.52C106.718 7.488 107.598 7.448 108.51 7.4C108.462 7.672 108.43 7.88 108.414 8.024C108.398 8.168 108.39 8.32 108.39 8.48C108.39 8.608 108.398 8.744 108.414 8.888C108.446 9.016 108.478 9.208 108.51 9.464C106.686 9.32 104.87 9.248 103.062 9.248C103.062 9.76 103.054 10.272 103.038 10.784C103.038 11.296 103.038 11.808 103.038 12.32C103.038 13.36 103.062 14.36 103.11 15.32C104.022 15.32 104.934 15.296 105.846 15.248C106.758 15.2 107.678 15.12 108.606 15.008C108.574 15.184 108.55 15.344 108.534 15.488C108.518 15.632 108.51 15.832 108.51 16.088C108.51 16.344 108.518 16.544 108.534 16.688C108.55 16.832 108.574 16.952 108.606 17.048C108.174 17.032 107.638 17.016 106.998 17C106.374 17 105.51 17 104.406 17C103.43 17 102.638 17 102.03 17C101.438 17 100.958 17 100.59 17C100.238 17 99.9664 17 99.7744 17C99.5984 17.016 99.4464 17.032 99.3184 17.048C99.3824 16.056 99.4304 15.048 99.4624 14.024C99.4944 12.984 99.5104 11.8 99.5104 10.472V7.208Z" fill="white"/>
<path d="M87.5106 12.608C88.3426 10.576 89.1506 8.536 89.9346 6.488C90.7186 4.424 91.4226 2.448 92.0466 0.559998C92.4466 0.639998 92.7986 0.679999 93.1026 0.679999C93.4066 0.679999 93.7586 0.639998 94.1586 0.559998C93.7586 1.504 93.2786 2.64 92.7186 3.968C92.1586 5.296 91.5746 6.704 90.9666 8.192C90.3586 9.68 89.7586 11.192 89.1666 12.728C88.5746 14.264 88.0466 15.704 87.5826 17.048C87.2626 17.016 86.9106 17 86.5266 17C86.1426 17 85.7906 17.016 85.4706 17.048C85.2306 16.408 84.9346 15.632 84.5826 14.72C84.2466 13.808 83.8786 12.84 83.4786 11.816C83.0946 10.792 82.6866 9.744 82.2546 8.672C81.8226 7.6 81.4066 6.568 81.0066 5.576C80.6066 4.568 80.2306 3.632 79.8786 2.768C79.5266 1.904 79.2226 1.168 78.9666 0.559998C79.3346 0.591998 79.6946 0.623998 80.0466 0.655998C80.4146 0.671999 80.7746 0.679999 81.1266 0.679999C81.4786 0.679999 81.8306 0.671999 82.1826 0.655998C82.5346 0.623998 82.8866 0.591998 83.2386 0.559998C83.5106 1.456 83.8146 2.4 84.1506 3.392C84.5026 4.384 84.8626 5.4 85.2306 6.44C85.5986 7.464 85.9746 8.496 86.3586 9.536C86.7586 10.576 87.1426 11.6 87.5106 12.608Z" fill="white"/>
<path d="M71.0414 5.072C71.0414 4.368 70.9694 3.808 70.8254 3.392C70.6814 2.976 70.4574 2.664 70.1534 2.456C69.8654 2.232 69.4814 2.088 69.0014 2.024C68.5374 1.96 67.9774 1.928 67.3214 1.928C67.2734 4.104 67.2494 6.28 67.2494 8.456C67.3454 8.472 67.4334 8.488 67.5134 8.504C67.6094 8.504 67.6974 8.504 67.7774 8.504C68.8334 8.504 69.6414 8.224 70.2014 7.664C70.7614 7.088 71.0414 6.224 71.0414 5.072ZM67.2494 9.488V10.472C67.2494 11.8 67.2654 12.984 67.2974 14.024C67.3294 15.048 67.3774 16.056 67.4414 17.048C67.1694 17.016 66.8734 17 66.5534 17C66.2334 17 65.8734 17 65.4734 17C65.0734 17 64.7134 17 64.3934 17C64.0734 17 63.7774 17.016 63.5054 17.048C63.5694 16.056 63.6174 15.048 63.6494 14.024C63.6814 12.984 63.6974 11.8 63.6974 10.472V7.208C63.6974 5.88 63.6814 4.704 63.6494 3.68C63.6174 2.64 63.5694 1.6 63.5054 0.559998C63.7774 0.591998 64.0734 0.623998 64.3934 0.655998C64.7134 0.671999 65.0734 0.679999 65.4734 0.679999C65.9054 0.679999 66.3934 0.663999 66.9374 0.631998C67.4974 0.583998 68.1854 0.559998 69.0014 0.559998C69.6094 0.559998 70.1294 0.575998 70.5614 0.607998C70.9934 0.639998 71.3614 0.687998 71.6654 0.751998C71.9854 0.815998 72.2574 0.903998 72.4814 1.016C72.7214 1.112 72.9454 1.232 73.1534 1.376C73.6334 1.728 74.0094 2.168 74.2814 2.696C74.5694 3.208 74.7134 3.824 74.7134 4.544C74.7134 5.712 74.3934 6.664 73.7534 7.4C73.1134 8.136 72.1934 8.656 70.9934 8.96C71.7614 10.32 72.5854 11.68 73.4654 13.04C74.3454 14.384 75.2254 15.72 76.1054 17.048C75.7374 17.016 75.3774 17 75.0254 17C74.6734 17 74.3134 17 73.9454 17C73.5774 17 73.2094 17 72.8414 17C72.4894 17 72.1294 17.016 71.7614 17.048L67.4654 9.488H67.2494Z" fill="white"/>
<path d="M48.3614 7.208C48.3614 5.88 48.3454 4.704 48.3134 3.68C48.2814 2.64 48.2334 1.6 48.1694 0.559998C48.8894 0.575998 49.6014 0.599998 50.3054 0.631998C51.0094 0.663999 51.7214 0.679999 52.4414 0.679999C53.6254 0.679999 54.6734 0.671999 55.5854 0.655998C56.5134 0.623998 57.1374 0.591998 57.4574 0.559998C57.3934 0.815998 57.3614 1.152 57.3614 1.568C57.3614 1.824 57.3694 2.024 57.3854 2.168C57.4014 2.312 57.4254 2.472 57.4574 2.648C56.9934 2.616 56.4814 2.584 55.9214 2.552C55.3774 2.52 54.8414 2.488 54.3134 2.456C53.8014 2.424 53.3374 2.4 52.9214 2.384C52.5054 2.368 52.2094 2.36 52.0334 2.36C51.9694 3.24 51.9294 4.112 51.9134 4.976C51.9134 5.84 51.9134 6.712 51.9134 7.592C52.9534 7.576 53.8894 7.552 54.7214 7.52C55.5694 7.488 56.4494 7.448 57.3614 7.4C57.3134 7.672 57.2814 7.88 57.2654 8.024C57.2494 8.168 57.2414 8.32 57.2414 8.48C57.2414 8.608 57.2494 8.744 57.2654 8.888C57.2974 9.016 57.3294 9.208 57.3614 9.464C55.5374 9.32 53.7214 9.248 51.9134 9.248C51.9134 9.76 51.9054 10.272 51.8894 10.784C51.8894 11.296 51.8894 11.808 51.8894 12.32C51.8894 13.36 51.9134 14.36 51.9614 15.32C52.8734 15.32 53.7854 15.296 54.6974 15.248C55.6094 15.2 56.5294 15.12 57.4574 15.008C57.4254 15.184 57.4014 15.344 57.3854 15.488C57.3694 15.632 57.3614 15.832 57.3614 16.088C57.3614 16.344 57.3694 16.544 57.3854 16.688C57.4014 16.832 57.4254 16.952 57.4574 17.048C57.0254 17.032 56.4894 17.016 55.8494 17C55.2254 17 54.3614 17 53.2574 17C52.2814 17 51.4894 17 50.8814 17C50.2894 17 49.8094 17 49.4414 17C49.0894 17 48.8174 17 48.6254 17C48.4494 17.016 48.2974 17.032 48.1694 17.048C48.2334 16.056 48.2814 15.048 48.3134 14.024C48.3454 12.984 48.3614 11.8 48.3614 10.472V7.208Z" fill="white"/>
<path d="M40.5375 3.79999C40.0255 2.42399 39.0575 1.73599 37.6335 1.73599C36.8975 1.73599 36.2975 1.95199 35.8335 2.38399C35.3695 2.81599 35.1375 3.31999 35.1375 3.89599C35.1375 4.48799 35.3135 4.97599 35.6655 5.35999C36.0335 5.72799 36.4895 6.06399 37.0335 6.36799C37.5775 6.67199 38.1615 6.96799 38.7855 7.25599C39.4095 7.52799 39.9935 7.87199 40.5375 8.28799C41.0815 8.68799 41.5295 9.18399 41.8815 9.77599C42.2495 10.352 42.4335 11.096 42.4335 12.008C42.4335 12.808 42.2815 13.544 41.9775 14.216C41.6735 14.872 41.2415 15.44 40.6815 15.92C40.1215 16.384 39.4495 16.744 38.6655 17C37.8975 17.24 37.0335 17.36 36.0735 17.36C35.2095 17.36 34.4335 17.264 33.7455 17.072C33.0735 16.896 32.5615 16.672 32.2095 16.4C32.3695 15.84 32.5055 15.328 32.6175 14.864C32.7295 14.4 32.8255 13.896 32.9055 13.352H33.3615C33.4255 13.704 33.5455 14.04 33.7215 14.36C33.8975 14.664 34.1215 14.936 34.3935 15.176C34.6655 15.416 34.9935 15.608 35.3775 15.752C35.7615 15.88 36.1935 15.944 36.6735 15.944C37.6335 15.944 38.3375 15.704 38.7855 15.224C39.2495 14.744 39.4815 14.168 39.4815 13.496C39.4815 12.888 39.3055 12.392 38.9535 12.008C38.6015 11.624 38.1615 11.288 37.6335 11C37.1055 10.696 36.5295 10.408 35.9055 10.136C35.2815 9.84799 34.7055 9.50398 34.1775 9.10398C33.6495 8.70399 33.2095 8.21599 32.8575 7.63999C32.5055 7.04799 32.3295 6.29599 32.3295 5.38399C32.3295 4.55199 32.4735 3.81599 32.7615 3.17598C33.0655 2.53598 33.4655 1.99999 33.9615 1.56799C34.4575 1.13599 35.0255 0.807986 35.6655 0.583986C36.3215 0.359986 37.0095 0.247986 37.7295 0.247986C38.5935 0.247986 39.3455 0.351985 39.9855 0.559985C40.6415 0.767985 41.2015 1.05598 41.6655 1.42399C41.5215 1.79199 41.3935 2.15199 41.2815 2.50399C41.1855 2.83999 41.0575 3.27199 40.8975 3.79999H40.5375Z" fill="white"/>
<path d="M18.1214 7.208C18.1214 5.88 18.1054 4.704 18.0734 3.68C18.0414 2.64 17.9934 1.6 17.9294 0.559998C18.6494 0.575998 19.3614 0.599998 20.0654 0.631998C20.7694 0.663999 21.4814 0.679999 22.2014 0.679999C23.3854 0.679999 24.4334 0.671999 25.3454 0.655998C26.2734 0.623998 26.8974 0.591998 27.2174 0.559998C27.1534 0.815998 27.1214 1.152 27.1214 1.568C27.1214 1.824 27.1294 2.024 27.1454 2.168C27.1614 2.312 27.1854 2.472 27.2174 2.648C26.7534 2.616 26.2414 2.584 25.6814 2.552C25.1374 2.52 24.6014 2.488 24.0734 2.456C23.5614 2.424 23.0974 2.4 22.6814 2.384C22.2654 2.368 21.9694 2.36 21.7934 2.36C21.7294 3.24 21.6894 4.112 21.6734 4.976C21.6734 5.84 21.6734 6.712 21.6734 7.592C22.7134 7.576 23.6494 7.552 24.4814 7.52C25.3294 7.488 26.2094 7.448 27.1214 7.4C27.0734 7.672 27.0414 7.88 27.0254 8.024C27.0094 8.168 27.0014 8.32 27.0014 8.48C27.0014 8.608 27.0094 8.744 27.0254 8.888C27.0574 9.016 27.0894 9.208 27.1214 9.464C25.2974 9.32 23.4814 9.248 21.6734 9.248C21.6734 9.76 21.6654 10.272 21.6494 10.784C21.6494 11.296 21.6494 11.808 21.6494 12.32C21.6494 13.36 21.6734 14.36 21.7214 15.32C22.6334 15.32 23.5454 15.296 24.4574 15.248C25.3694 15.2 26.2894 15.12 27.2174 15.008C27.1854 15.184 27.1614 15.344 27.1454 15.488C27.1294 15.632 27.1214 15.832 27.1214 16.088C27.1214 16.344 27.1294 16.544 27.1454 16.688C27.1614 16.832 27.1854 16.952 27.2174 17.048C26.7854 17.032 26.2494 17.016 25.6094 17C24.9854 17 24.1214 17 23.0174 17C22.0414 17 21.2494 17 20.6414 17C20.0494 17 19.5694 17 19.2014 17C18.8494 17 18.5774 17 18.3854 17C18.2094 17.016 18.0574 17.032 17.9294 17.048C17.9934 16.056 18.0414 15.048 18.0734 14.024C18.1054 12.984 18.1214 11.8 18.1214 10.472V7.208Z" fill="white"/>
<path d="M7.88952 5.072C7.88952 4.368 7.81752 3.808 7.67352 3.392C7.52952 2.976 7.30552 2.664 7.00152 2.456C6.71352 2.232 6.32952 2.088 5.84952 2.024C5.38552 1.96 4.82552 1.928 4.16952 1.928C4.12152 4.104 4.09752 6.28 4.09752 8.456C4.19352 8.472 4.28152 8.488 4.36152 8.504C4.45752 8.504 4.54552 8.504 4.62552 8.504C5.68152 8.504 6.48952 8.224 7.04952 7.664C7.60952 7.088 7.88952 6.224 7.88952 5.072ZM4.09752 9.488V10.472C4.09752 11.8 4.11352 12.984 4.14552 14.024C4.17752 15.048 4.22552 16.056 4.28952 17.048C4.01752 17.016 3.72152 17 3.40152 17C3.08152 17 2.72152 17 2.32152 17C1.92152 17 1.56152 17 1.24152 17C0.921516 17 0.625516 17.016 0.353516 17.048C0.417516 16.056 0.465516 15.048 0.497516 14.024C0.529516 12.984 0.545516 11.8 0.545516 10.472V7.208C0.545516 5.88 0.529516 4.704 0.497516 3.68C0.465516 2.64 0.417516 1.6 0.353516 0.559998C0.625516 0.591998 0.921516 0.623998 1.24152 0.655998C1.56152 0.671999 1.92152 0.679999 2.32152 0.679999C2.75352 0.679999 3.24152 0.663999 3.78552 0.631998C4.34552 0.583998 5.03352 0.559998 5.84952 0.559998C6.45752 0.559998 6.97752 0.575998 7.40952 0.607998C7.84152 0.639998 8.20952 0.687998 8.51352 0.751998C8.83352 0.815998 9.10552 0.903998 9.32952 1.016C9.56952 1.112 9.79352 1.232 10.0015 1.376C10.4815 1.728 10.8575 2.168 11.1295 2.696C11.4175 3.208 11.5615 3.824 11.5615 4.544C11.5615 5.712 11.2415 6.664 10.6015 7.4C9.96152 8.136 9.04152 8.656 7.84152 8.96C8.60952 10.32 9.43352 11.68 10.3135 13.04C11.1935 14.384 12.0735 15.72 12.9535 17.048C12.5855 17.016 12.2255 17 11.8735 17C11.5215 17 11.1615 17 10.7935 17C10.4255 17 10.0575 17 9.68952 17C9.33752 17 8.97752 17.016 8.60952 17.048L4.31352 9.488H4.09752Z" fill="white"/>
</svg>
