<svg width="47" height="15" viewBox="0 0 47 15" fill="none" xmlns="http://www.w3.org/2000/svg">
<path d="M25.8024 3.45801C25.457 3.45801 25.163 3.53734 24.9204 3.69601C24.687 3.85468 24.491 4.05534 24.3324 4.29801C24.183 4.53134 24.0664 4.79268 23.9824 5.08201C23.9077 5.36201 23.861 5.62801 23.8424 5.88001C24.1317 5.88934 24.4304 5.89868 24.7384 5.90801C25.0557 5.91734 25.3637 5.92201 25.6624 5.92201C25.9704 5.92201 26.283 5.91734 26.6004 5.90801C26.9177 5.89868 27.2257 5.88934 27.5244 5.88001C27.5244 5.62801 27.501 5.36201 27.4544 5.08201C27.417 4.80201 27.333 4.54068 27.2024 4.29801C27.081 4.05534 26.9084 3.85468 26.6844 3.69601C26.4604 3.53734 26.1664 3.45801 25.8024 3.45801ZM22.5684 6.69201C22.5684 5.54401 22.839 4.64334 23.3804 3.99001C23.931 3.33668 24.729 3.01001 25.7744 3.01001C26.269 3.01001 26.6937 3.08934 27.0484 3.24801C27.4124 3.39734 27.7157 3.60268 27.9584 3.86401C28.201 4.11601 28.3784 4.41468 28.4904 4.76001C28.6117 5.10534 28.6724 5.47401 28.6724 5.86601C28.6724 5.95934 28.6677 6.05268 28.6584 6.14601C28.6584 6.23001 28.6537 6.31868 28.6444 6.41201C28.1404 6.40268 27.641 6.39334 27.1464 6.38401C26.6517 6.37468 26.1524 6.37001 25.6484 6.37001C25.3404 6.37001 25.0324 6.37468 24.7244 6.38401C24.4257 6.39334 24.1224 6.40268 23.8144 6.41201C23.805 6.45868 23.8004 6.52868 23.8004 6.62201V6.80401C23.8004 7.16801 23.8517 7.50868 23.9544 7.82601C24.0664 8.14334 24.225 8.41868 24.4304 8.65201C24.6357 8.87601 24.8877 9.05801 25.1864 9.19801C25.485 9.32868 25.8304 9.39401 26.2224 9.39401C26.409 9.39401 26.6004 9.37068 26.7964 9.32401C26.9924 9.26801 27.1837 9.19801 27.3704 9.11401C27.557 9.02068 27.7297 8.91334 27.8884 8.79201C28.0564 8.67068 28.201 8.54001 28.3224 8.40001L28.3924 8.44201L28.3084 9.12801C28.0284 9.35201 27.6784 9.54334 27.2584 9.70201C26.8477 9.86068 26.4184 9.94001 25.9704 9.94001C25.4664 9.94001 25.0044 9.86534 24.5844 9.71601C24.1737 9.55734 23.8144 9.33334 23.5064 9.04401C23.2077 8.74534 22.9744 8.39534 22.8064 7.99401C22.6477 7.59268 22.5684 7.15868 22.5684 6.69201Z" fill="white"/>
<path d="M15.666 6.49601C15.666 5.88934 15.7687 5.36668 15.974 4.92801C16.1793 4.48934 16.4453 4.13001 16.772 3.85001C17.108 3.56068 17.4907 3.35068 17.92 3.22001C18.3494 3.08001 18.788 3.01001 19.236 3.01001C19.7494 3.01001 20.2067 3.07534 20.608 3.20601C21.0187 3.32734 21.3127 3.46734 21.49 3.62601C21.4247 3.76601 21.364 3.91534 21.308 4.07401C21.2613 4.22334 21.2193 4.38201 21.182 4.55001H21.07C21.0047 4.42868 20.916 4.30734 20.804 4.18601C20.692 4.05534 20.5567 3.93868 20.398 3.83601C20.2487 3.72401 20.0807 3.63534 19.894 3.57001C19.7073 3.49534 19.502 3.45801 19.278 3.45801C18.858 3.45801 18.494 3.53734 18.186 3.69601C17.8873 3.84534 17.64 4.05534 17.444 4.32601C17.2574 4.59668 17.1174 4.91868 17.024 5.29201C16.94 5.65601 16.898 6.05268 16.898 6.48201C16.898 7.44334 17.1034 8.17134 17.514 8.66601C17.9247 9.15134 18.5267 9.39401 19.32 9.39401C19.5067 9.39401 19.698 9.37068 19.894 9.32401C20.09 9.26801 20.2813 9.19801 20.468 9.11401C20.6547 9.02068 20.8274 8.91334 20.986 8.79201C21.154 8.67068 21.2987 8.54001 21.42 8.40001L21.49 8.44201C21.4434 8.66601 21.4154 8.89468 21.406 9.12801C21.126 9.35201 20.776 9.54334 20.356 9.70201C19.9453 9.86068 19.516 9.94001 19.068 9.94001C18.6667 9.94001 18.2607 9.88401 17.85 9.77201C17.4487 9.65068 17.0847 9.45468 16.758 9.18401C16.4313 8.90401 16.1653 8.54468 15.96 8.10601C15.764 7.66734 15.666 7.13068 15.666 6.49601Z" fill="white"/>
<path d="M12.4136 0.714C12.4136 0.518 12.4836 0.35 12.6236 0.21C12.7636 0.0700002 12.9316 0 13.1276 0C13.3236 0 13.4916 0.0700002 13.6316 0.21C13.7716 0.35 13.8416 0.518 13.8416 0.714C13.8416 0.91 13.7716 1.078 13.6316 1.218C13.4916 1.358 13.3236 1.428 13.1276 1.428C12.9316 1.428 12.7636 1.358 12.6236 1.218C12.4836 1.078 12.4136 0.91 12.4136 0.714ZM12.6096 5.768C12.6096 5.348 12.6002 4.90933 12.5816 4.452C12.5722 3.98533 12.5442 3.55133 12.4976 3.15C12.7589 3.19667 12.9689 3.22 13.1276 3.22C13.2862 3.22 13.4962 3.19667 13.7576 3.15C13.7109 3.55133 13.6782 3.98533 13.6596 4.452C13.6502 4.90933 13.6456 5.348 13.6456 5.768V7.224C13.6456 7.644 13.6502 8.08733 13.6596 8.554C13.6782 9.01133 13.7109 9.42667 13.7576 9.8C13.5429 9.78133 13.3329 9.772 13.1276 9.772C12.9222 9.772 12.7122 9.78133 12.4976 9.8C12.5442 9.42667 12.5722 9.01133 12.5816 8.554C12.6002 8.08733 12.6096 7.644 12.6096 7.224V5.768Z" fill="white"/>
<path d="M10.7895 4.29801C10.7428 4.24201 10.6495 4.19068 10.5095 4.14401C10.3788 4.09734 10.2435 4.07401 10.1035 4.07401C9.8795 4.07401 9.67883 4.12534 9.5015 4.22801C9.32416 4.33068 9.17483 4.47068 9.0535 4.64801C8.93216 4.81601 8.83883 5.02134 8.7735 5.26401C8.70816 5.49734 8.6755 5.74934 8.6755 6.02001V7.56001C8.6755 8.18534 8.6755 8.66601 8.6755 9.00201C8.68483 9.32868 8.7035 9.59468 8.7315 9.80001C8.54483 9.78134 8.35816 9.77201 8.1715 9.77201C7.96616 9.77201 7.77016 9.78134 7.5835 9.80001C7.6115 9.48268 7.6255 9.05334 7.6255 8.51201C7.63483 7.96134 7.6395 7.28934 7.6395 6.49601V6.04801C7.6395 5.68401 7.63483 5.26401 7.6255 4.78801C7.6255 4.31201 7.6115 3.76601 7.5835 3.15001C7.68616 3.16868 7.78416 3.18734 7.8775 3.20601C7.97083 3.21534 8.06883 3.22001 8.1715 3.22001C8.2555 3.22001 8.34416 3.21534 8.4375 3.20601C8.53083 3.18734 8.62883 3.16868 8.7315 3.15001C8.69416 3.48601 8.67083 3.75201 8.6615 3.94801C8.6615 4.14401 8.6615 4.33068 8.6615 4.50801L8.6895 4.52201C9.24016 3.51401 9.85616 3.01001 10.5375 3.01001C10.6215 3.01001 10.6915 3.01468 10.7475 3.02401C10.8128 3.03334 10.8922 3.05668 10.9855 3.09401C10.9388 3.20601 10.9108 3.37868 10.9015 3.61201C10.8922 3.83601 10.8875 4.04134 10.8875 4.22801L10.7895 4.29801Z" fill="white"/>
<path d="M1.26 4.85801C1.57733 4.93267 1.90867 4.97001 2.254 4.97001C2.54333 4.97001 2.842 4.93734 3.15 4.87201C3.458 4.80667 3.738 4.69001 3.99 4.52201C4.25133 4.34467 4.46133 4.10667 4.62 3.80801C4.788 3.50001 4.872 3.10801 4.872 2.63201C4.872 2.23067 4.816 1.90401 4.704 1.65201C4.592 1.40001 4.43333 1.20401 4.228 1.06401C4.032 0.924007 3.78933 0.830674 3.5 0.784007C3.21067 0.728007 2.884 0.700008 2.52 0.700008H1.26V4.85801ZM0.112 3.80801C0.112 3.19201 0.098 2.59001 0.0700001 2.00201C0.0513333 1.40467 0.028 0.798007 0 0.182007C0.224 0.200674 0.448 0.21934 0.672 0.238007C0.905333 0.247341 1.134 0.252008 1.358 0.252008C1.47 0.252008 1.60533 0.247341 1.764 0.238007C1.92267 0.228674 2.08133 0.224007 2.24 0.224007C2.408 0.214674 2.56667 0.205341 2.716 0.196007C2.86533 0.186674 2.99133 0.182007 3.094 0.182007C3.234 0.182007 3.40667 0.186674 3.612 0.196007C3.81733 0.205341 4.032 0.233341 4.256 0.280007C4.48933 0.326674 4.718 0.396674 4.942 0.490007C5.166 0.58334 5.36667 0.718674 5.544 0.896008C5.73067 1.07334 5.88 1.29734 5.992 1.56801C6.104 1.82934 6.16 2.15601 6.16 2.54801C6.16 3.16401 6.02467 3.66334 5.754 4.04601C5.49267 4.42867 5.166 4.72734 4.774 4.94201C4.39133 5.15667 3.98067 5.30134 3.542 5.37601C3.11267 5.45067 2.73 5.48801 2.394 5.48801C2.17933 5.48801 1.98333 5.48801 1.806 5.48801C1.62867 5.47867 1.44667 5.46467 1.26 5.44601V6.21601C1.26 6.83201 1.26933 7.43867 1.288 8.03601C1.316 8.63334 1.344 9.22134 1.372 9.80001C1.15733 9.78134 0.928667 9.77201 0.686 9.77201C0.443333 9.77201 0.214667 9.78134 0 9.80001C0.028 9.22134 0.0513333 8.63334 0.0700001 8.03601C0.098 7.43867 0.112 6.83201 0.112 6.21601V3.80801Z" fill="white"/>
</svg>
