<svg width="55" height="17" viewBox="0 0 55 17" fill="none" xmlns="http://www.w3.org/2000/svg">
<path d="M54.2775 3.584C54.2455 3.744 54.2295 3.888 54.2295 4.016C54.2295 4.15466 54.2455 4.288 54.2775 4.416L52.8695 4.384C52.8481 4.62933 52.8268 4.912 52.8055 5.232C52.7948 5.552 52.7841 5.87733 52.7735 6.208C52.7735 6.53866 52.7681 6.85866 52.7575 7.168C52.7575 7.47733 52.7575 7.73866 52.7575 7.952C52.7575 8.50666 52.7681 8.95466 52.7895 9.296C52.8215 9.63733 52.8695 9.89866 52.9335 10.08C52.9975 10.2613 53.0881 10.384 53.2055 10.448C53.3228 10.512 53.4721 10.544 53.6535 10.544C53.8561 10.544 54.0055 10.5333 54.1015 10.512C54.1975 10.48 54.2935 10.4373 54.3895 10.384V11.04C54.1761 11.136 53.9095 11.2213 53.5895 11.296C53.2695 11.3707 52.9548 11.408 52.6455 11.408C51.2908 11.408 50.6135 10.5973 50.6135 8.976C50.6135 8.66666 50.6188 8.32 50.6295 7.936C50.6401 7.54133 50.6508 7.14133 50.6615 6.736C50.6828 6.32 50.6988 5.91466 50.7095 5.52C50.7201 5.11466 50.7255 4.74133 50.7255 4.4L49.6055 4.416C49.6375 4.288 49.6535 4.15466 49.6535 4.016C49.6535 3.888 49.6375 3.744 49.6055 3.584L50.7255 3.632C50.7255 3.30133 50.7201 2.992 50.7095 2.704C50.6988 2.416 50.6828 2.06933 50.6615 1.664C51.0348 1.51466 51.4028 1.36 51.7655 1.2C52.1281 1.02933 52.4908 0.85333 52.8535 0.671997L53.0135 0.783997C52.9921 0.954664 52.9708 1.15733 52.9495 1.392C52.9388 1.616 52.9228 1.856 52.9015 2.112C52.8908 2.35733 52.8801 2.61333 52.8695 2.88C52.8695 3.136 52.8695 3.38133 52.8695 3.616L54.2775 3.584Z" fill="black"/>
<path d="M47.8932 5.71199C47.8078 5.23199 47.6372 4.84799 47.3812 4.55999C47.1358 4.26132 46.7678 4.11199 46.2772 4.11199C45.6372 4.11199 45.1572 4.40532 44.8372 4.99199C44.5172 5.56799 44.3572 6.37332 44.3572 7.40799C44.3572 8.37866 44.5598 9.12532 44.9652 9.64799C45.3705 10.16 45.9625 10.416 46.7412 10.416C47.0718 10.416 47.3918 10.3413 47.7012 10.192C48.0105 10.032 48.2398 9.85599 48.3892 9.66399L48.5812 9.82399C48.5065 9.97332 48.4425 10.128 48.3892 10.288C48.3358 10.448 48.2825 10.608 48.2292 10.768C47.9945 10.9493 47.6958 11.0987 47.3332 11.216C46.9812 11.344 46.5598 11.408 46.0692 11.408C45.2905 11.408 44.6345 11.296 44.1012 11.072C43.5678 10.848 43.1358 10.544 42.8052 10.16C42.4852 9.77599 42.2558 9.34399 42.1172 8.86399C41.9785 8.37332 41.9092 7.88266 41.9092 7.39199C41.9092 6.80532 42.0052 6.26132 42.1972 5.75999C42.3998 5.25866 42.6825 4.82666 43.0452 4.46399C43.4185 4.10132 43.8665 3.81866 44.3892 3.61599C44.9118 3.40266 45.4932 3.29599 46.1332 3.29599C46.7412 3.29599 47.2532 3.36532 47.6692 3.50399C48.0958 3.64266 48.5012 3.82399 48.8852 4.04799C48.7572 4.26132 48.6345 4.52266 48.5172 4.83199C48.4105 5.14132 48.3305 5.43466 48.2772 5.71199H47.8932Z" fill="black"/>
<path d="M37.9415 8.76799C37.9415 8.30932 37.9415 7.96266 37.9415 7.72799C37.9521 7.48266 37.9575 7.26932 37.9575 7.08799C37.7335 7.21599 37.4935 7.32266 37.2375 7.40799C36.9921 7.48266 36.7628 7.58399 36.5495 7.71199C36.3468 7.82932 36.1761 7.99466 36.0375 8.20799C35.9095 8.42132 35.8455 8.73066 35.8455 9.13599C35.8455 9.53066 35.9255 9.83466 36.0855 10.048C36.2561 10.2507 36.4801 10.352 36.7575 10.352C37.1095 10.352 37.3921 10.2187 37.6055 9.95199C37.8295 9.68532 37.9415 9.29066 37.9415 8.76799ZM34.1495 4.41599C34.5975 4.05332 35.0775 3.77599 35.5895 3.58399C36.1121 3.39199 36.6295 3.29599 37.1415 3.29599C37.5681 3.29599 37.9575 3.34399 38.3095 3.43999C38.6721 3.53599 38.9815 3.69066 39.2375 3.90399C39.5041 4.10666 39.7068 4.37332 39.8455 4.70399C39.9948 5.03466 40.0695 5.43466 40.0695 5.90399C40.0695 6.58666 40.0588 7.22132 40.0375 7.80799C40.0268 8.38399 40.0215 8.95999 40.0215 9.53599C40.0215 9.79199 40.0375 9.99466 40.0695 10.144C40.1121 10.2827 40.1708 10.3893 40.2455 10.464C40.3201 10.5387 40.4161 10.5867 40.5335 10.608C40.6615 10.6293 40.8055 10.64 40.9655 10.64V11.024C40.6561 11.152 40.3948 11.248 40.1815 11.312C39.9681 11.376 39.7388 11.408 39.4935 11.408C39.0988 11.408 38.7788 11.312 38.5335 11.12C38.2881 10.928 38.1015 10.6507 37.9735 10.288C37.7281 10.6293 37.4401 10.9013 37.1095 11.104C36.7895 11.3067 36.3841 11.408 35.8935 11.408C35.4881 11.408 35.1415 11.3547 34.8535 11.248C34.5655 11.1413 34.3255 10.992 34.1335 10.8C33.9521 10.5973 33.8188 10.3733 33.7335 10.128C33.6481 9.87199 33.6055 9.61599 33.6055 9.35999C33.6055 9.00799 33.6588 8.70399 33.7655 8.44799C33.8828 8.19199 34.0428 7.97332 34.2455 7.79199C34.4588 7.61066 34.7095 7.46132 34.9975 7.34399C35.2855 7.21599 35.6108 7.10932 35.9735 7.02399C36.4215 6.91732 36.7735 6.82666 37.0295 6.75199C37.2961 6.66666 37.4935 6.58666 37.6215 6.51199C37.7495 6.42666 37.8295 6.33599 37.8615 6.23999C37.9041 6.14399 37.9255 6.02666 37.9255 5.88799C37.9255 5.50399 37.7868 5.17866 37.5095 4.91199C37.2428 4.63466 36.8695 4.49599 36.3895 4.49599C36.2081 4.49599 36.0215 4.52266 35.8295 4.57599C35.6375 4.61866 35.4508 4.68266 35.2695 4.76799C35.0988 4.85332 34.9388 4.94932 34.7895 5.05599C34.6508 5.15199 34.5441 5.25866 34.4695 5.37599H34.3575L34.1495 4.41599Z" fill="black"/>
<path d="M32.9493 3.584C32.9173 3.744 32.9013 3.888 32.9013 4.016C32.9013 4.15466 32.9173 4.288 32.9493 4.416L31.5413 4.384C31.52 4.62933 31.4987 4.912 31.4773 5.232C31.4667 5.552 31.456 5.87733 31.4453 6.208C31.4453 6.53866 31.44 6.85866 31.4293 7.168C31.4293 7.47733 31.4293 7.73866 31.4293 7.952C31.4293 8.50666 31.44 8.95466 31.4613 9.296C31.4933 9.63733 31.5413 9.89866 31.6053 10.08C31.6693 10.2613 31.76 10.384 31.8773 10.448C31.9947 10.512 32.144 10.544 32.3253 10.544C32.528 10.544 32.6773 10.5333 32.7733 10.512C32.8693 10.48 32.9653 10.4373 33.0613 10.384V11.04C32.848 11.136 32.5813 11.2213 32.2613 11.296C31.9413 11.3707 31.6267 11.408 31.3173 11.408C29.9627 11.408 29.2853 10.5973 29.2853 8.976C29.2853 8.66666 29.2907 8.32 29.3013 7.936C29.312 7.54133 29.3227 7.14133 29.3333 6.736C29.3547 6.32 29.3707 5.91466 29.3813 5.52C29.392 5.11466 29.3973 4.74133 29.3973 4.4L28.2773 4.416C28.3093 4.288 28.3253 4.15466 28.3253 4.016C28.3253 3.888 28.3093 3.744 28.2773 3.584L29.3973 3.632C29.3973 3.30133 29.392 2.992 29.3813 2.704C29.3707 2.416 29.3547 2.06933 29.3333 1.664C29.7067 1.51466 30.0747 1.36 30.4373 1.2C30.8 1.02933 31.1627 0.85333 31.5253 0.671997L31.6853 0.783997C31.664 0.954664 31.6427 1.15733 31.6213 1.392C31.6107 1.616 31.5947 1.856 31.5733 2.112C31.5627 2.35733 31.552 2.61333 31.5413 2.88C31.5413 3.136 31.5413 3.38133 31.5413 3.616L32.9493 3.584Z" fill="black"/>
<path d="M22.1226 4.70399C22.4213 4.25599 22.7679 3.90932 23.1626 3.66399C23.5679 3.41866 24.0266 3.29599 24.5386 3.29599C25.3386 3.29599 25.9519 3.53066 26.3786 3.99999C26.8159 4.45866 27.0346 5.20532 27.0346 6.23999C27.0346 6.78399 27.0239 7.26399 27.0026 7.67999C26.9813 8.09599 26.9706 8.51199 26.9706 8.92799C26.9706 9.26932 26.9759 9.64266 26.9866 10.048C27.0079 10.4427 27.0293 10.8267 27.0506 11.2C26.9119 11.1787 26.7359 11.168 26.5226 11.168C26.3093 11.168 26.0853 11.168 25.8506 11.168C25.6159 11.168 25.3919 11.168 25.1786 11.168C24.9653 11.168 24.7893 11.1787 24.6506 11.2C24.7253 10.6453 24.7733 9.99466 24.7946 9.24799C24.8159 8.49066 24.8266 7.62666 24.8266 6.65599C24.8266 5.98399 24.7093 5.49332 24.4746 5.18399C24.2506 4.86399 23.9306 4.70399 23.5146 4.70399C23.0346 4.70399 22.6826 4.91199 22.4586 5.32799C22.2346 5.74399 22.1226 6.31999 22.1226 7.05599V7.69599C22.1226 8.34666 22.1279 8.95999 22.1386 9.53599C22.1599 10.112 22.1973 10.6667 22.2506 11.2C22.1119 11.1787 21.9359 11.168 21.7226 11.168C21.5199 11.168 21.2959 11.168 21.0506 11.168C20.8053 11.168 20.5813 11.168 20.3786 11.168C20.1759 11.168 19.9999 11.1787 19.8506 11.2C19.9039 10.6667 19.9359 10.112 19.9466 9.53599C19.9679 8.95999 19.9786 8.34666 19.9786 7.69599V7.05599C19.9786 6.40532 19.9679 5.79732 19.9466 5.23199C19.9359 4.65599 19.9039 4.07999 19.8506 3.50399C20.0426 3.52532 20.2293 3.54666 20.4106 3.56799C20.6026 3.57866 20.7946 3.58399 20.9866 3.58399C21.1786 3.58399 21.3653 3.57866 21.5466 3.56799C21.7386 3.54666 21.9413 3.52532 22.1546 3.50399L22.0906 4.70399H22.1226Z" fill="black"/>
<path d="M16.1116 6.97599C16.1116 6.03732 15.9943 5.31199 15.7596 4.79999C15.525 4.27732 15.1356 4.01599 14.5916 4.01599C14.101 4.01599 13.7116 4.30399 13.4236 4.87999C13.1463 5.45599 13.0076 6.35732 13.0076 7.58399C13.0076 8.03199 13.0343 8.44799 13.0876 8.83199C13.141 9.21599 13.2263 9.55199 13.3436 9.83999C13.4716 10.1173 13.6316 10.336 13.8236 10.496C14.0263 10.656 14.277 10.736 14.5756 10.736C15.5996 10.736 16.1116 9.48266 16.1116 6.97599ZM10.6396 7.56799C10.6396 6.85332 10.7463 6.22932 10.9596 5.69599C11.1836 5.16266 11.477 4.71999 11.8396 4.36799C12.2023 4.00532 12.6183 3.73866 13.0876 3.56799C13.5676 3.38666 14.0583 3.29599 14.5596 3.29599C15.8076 3.29599 16.773 3.64799 17.4556 4.35199C18.1383 5.05599 18.4796 6.01066 18.4796 7.21599C18.4796 7.86666 18.3836 8.45332 18.1916 8.97599C17.9996 9.49866 17.7276 9.94666 17.3756 10.32C17.0343 10.6827 16.6236 10.9547 16.1436 11.136C15.6636 11.3173 15.1356 11.408 14.5596 11.408C14.0796 11.408 13.605 11.344 13.1356 11.216C12.677 11.088 12.261 10.8747 11.8876 10.576C11.5143 10.2667 11.2103 9.86666 10.9756 9.37599C10.7516 8.88532 10.6396 8.28266 10.6396 7.56799Z" fill="black"/>
<path d="M9.52 9.392C9.43467 9.616 9.36 9.84533 9.296 10.08C9.232 10.304 9.18933 10.528 9.168 10.752C8.304 11.1893 7.216 11.408 5.904 11.408C4.976 11.408 4.144 11.28 3.408 11.024C2.68267 10.7573 2.064 10.3893 1.552 9.92C1.05067 9.44 0.666666 8.87467 0.4 8.224C0.133333 7.57333 0 6.86933 0 6.112C0 5.00267 0.170667 4.064 0.512 3.296C0.864 2.51733 1.328 1.888 1.904 1.408C2.49067 0.917333 3.168 0.56 3.936 0.335999C4.704 0.112 5.50933 0 6.352 0C6.62933 0 6.92267 0.0213334 7.232 0.0640001C7.54133 0.106666 7.84 0.165333 8.128 0.24C8.416 0.304 8.688 0.384 8.944 0.48C9.21067 0.576 9.43467 0.677333 9.616 0.783999C9.50933 1.05067 9.424 1.32267 9.36 1.6C9.30667 1.86667 9.26933 2.13867 9.248 2.416H9.024C8.61867 1.904 8.20267 1.54133 7.776 1.328C7.34933 1.104 6.848 0.992 6.272 0.992C5.84533 0.992 5.41333 1.088 4.976 1.28C4.54933 1.472 4.16 1.76533 3.808 2.16C3.456 2.55467 3.168 3.06133 2.944 3.68C2.73067 4.288 2.624 5.01867 2.624 5.872C2.624 6.69333 2.736 7.39733 2.96 7.984C3.184 8.56 3.472 9.03467 3.824 9.408C4.18667 9.77067 4.592 10.0373 5.04 10.208C5.49867 10.3787 5.95733 10.464 6.416 10.464C6.672 10.464 6.93333 10.4373 7.2 10.384C7.46667 10.32 7.728 10.24 7.984 10.144C8.24 10.0373 8.48 9.90933 8.704 9.76C8.93867 9.61067 9.14133 9.44533 9.312 9.264L9.52 9.392Z" fill="black"/>
</svg>
