<svg width="110" height="60" viewBox="0 0 110 60" fill="none" xmlns="http://www.w3.org/2000/svg">
<g clip-path="url(#clip0_402_3863)">
<path d="M16.4786 31.8052C16.4786 33.511 15.824 34.9417 14.513 36.0992C13.2021 37.2566 11.579 37.8353 9.64547 37.8353C8.48468 37.8353 7.34245 37.7864 6.22046 37.6902V42.8344C6.22046 43.5127 6.30482 43.9868 6.47523 44.2584C6.64395 44.5301 6.94089 44.7443 7.36101 44.9046C7.7828 45.0649 8.40032 45.1931 9.21355 45.2893C9.36877 45.3096 9.44638 45.4395 9.44638 45.6824C9.44638 45.9541 9.36877 46.089 9.21355 46.089C8.56398 46.089 7.79461 46.0604 6.90378 46.0013C6.05174 45.9439 5.32962 45.9136 4.73911 45.9136C4.14859 45.9136 3.42141 45.9422 2.55925 46.0013C1.65829 46.0587 0.883867 46.089 0.234298 46.089C0.0790758 46.089 0.00146484 45.9541 0.00146484 45.6824C0.00146484 45.4395 0.0790758 45.3096 0.234298 45.2893C1.4069 45.1526 2.20325 44.935 2.62505 44.6347C3.04685 44.3344 3.25775 43.7337 3.25775 42.8311V29.1462C3.25775 28.468 3.17339 27.9905 3.00298 27.7138C2.83426 27.4371 2.53563 27.2195 2.10877 27.0592C1.68191 26.8989 1.05765 26.7707 0.234298 26.6745C0.0790758 26.6745 0.00146484 26.5412 0.00146484 26.2746C0.00146484 26.008 0.0790758 25.8748 0.234298 25.8748C0.883867 25.8748 1.65829 25.9034 2.55925 25.9625C3.42141 26.0215 4.1469 26.0502 4.73742 26.0502C5.32794 26.0502 6.04837 26.0215 6.9004 25.9625C7.79124 25.9051 8.5606 25.8748 9.20848 25.8748C11.5891 25.8748 13.3961 26.3792 14.6294 27.3865C15.8628 28.3937 16.4803 29.8667 16.4803 31.8036L16.4786 31.8052ZM13.2662 31.8052C13.2662 30.2513 12.8866 29.0366 12.1256 28.1626C11.3647 27.2886 10.3558 26.8516 9.09544 26.8516C8.33958 26.8516 7.75581 26.9107 7.34413 27.0271C6.93246 27.1435 6.64226 27.3325 6.47185 27.5957C6.30145 27.8589 6.21709 28.3786 6.21709 29.1547V35.8444C6.21709 36.2628 6.347 36.5412 6.6102 36.6829C6.87172 36.823 7.43862 36.8938 8.3109 36.8938C9.89011 36.8938 11.11 36.4417 11.9721 35.539C12.8343 34.6347 13.2662 33.3912 13.2662 31.8086V31.8052Z" fill="white"/>
<path d="M33.6832 37.8371C33.6832 38.1087 33.5094 38.2437 33.1601 38.2437H25.1966C25.1392 38.7667 25.1088 39.31 25.1088 39.8718C25.1088 41.4308 25.48 42.6304 26.2207 43.4689C26.9614 44.3074 28.0159 44.7259 29.3808 44.7259C30.0692 44.7259 30.7609 44.542 31.4594 44.1742C32.1563 43.8063 32.7181 43.3356 33.1449 42.7653L33.2175 42.7367C33.3052 42.7367 33.3896 42.7907 33.4723 42.8969C33.5549 43.0032 33.5954 43.1298 33.5954 43.2749C33.5954 43.479 33.285 43.9025 32.6658 44.547C32.0466 45.1915 31.3717 45.6825 30.6462 46.0216C29.919 46.3608 29.1598 46.5295 28.3651 46.5295C26.6206 46.5295 25.1544 45.89 23.9615 44.6111C22.7704 43.3322 22.1748 41.7632 22.1748 39.9022C22.1748 38.0412 22.7586 36.3962 23.9261 35.0785C25.0937 33.7608 26.5733 33.1028 28.3651 33.1028C29.8667 33.1028 31.1287 33.5954 32.1512 34.5774C33.1736 35.561 33.6848 36.6476 33.6848 37.8404L33.6832 37.8371ZM31.0393 36.5582C31.0393 35.831 30.7896 35.2286 30.2902 34.7495C29.7908 34.2703 29.1497 34.0307 28.3651 34.0307C27.5806 34.0307 26.9715 34.3429 26.4248 34.9688C25.8765 35.5931 25.507 36.4147 25.313 37.4321L29.3521 37.3157C29.9629 37.3056 30.3965 37.2482 30.653 37.1419C30.9094 37.0356 31.0376 36.8416 31.0376 36.5615L31.0393 36.5582Z" fill="white"/>
<path d="M56.0319 45.6824C56.0319 45.954 55.9543 46.089 55.7991 46.089C55.411 46.089 54.9369 46.0603 54.3751 46.0013C53.7559 45.9439 53.2092 45.9135 52.7368 45.9135C52.2644 45.9135 51.6992 45.9422 51.0715 46.0013C50.5013 46.0586 50.0238 46.089 49.6374 46.089C49.4822 46.089 49.4063 45.954 49.4063 45.6824C49.4063 45.4394 49.4839 45.3095 49.6391 45.2893C50.3072 45.2117 50.7459 45.0227 50.9534 44.7224C51.161 44.422 51.2656 43.7927 51.2656 42.8327V37.9787C51.2656 36.8938 51.053 36.0991 50.6261 35.5963C50.1993 35.0919 49.5413 34.8405 48.6504 34.8405C48.0886 34.8405 47.5925 34.9468 47.1606 35.1593C46.7287 35.3719 46.2664 35.7499 45.7737 36.2931V42.8327C45.7737 43.7927 45.8784 44.422 46.0859 44.7224C46.2934 45.0227 46.7321 45.2117 47.4002 45.2893C47.5554 45.3095 47.633 45.4394 47.633 45.6824C47.633 45.954 47.5554 46.089 47.4002 46.089C47.0037 46.089 46.5178 46.0603 45.9475 46.0013C45.3182 45.9439 44.7648 45.9135 44.2907 45.9135C43.8166 45.9135 43.2834 45.9422 42.6626 46.0013C42.0906 46.0586 41.6064 46.089 41.2099 46.089C41.0547 46.089 40.9771 45.954 40.9771 45.6824C40.9771 45.4394 41.0547 45.3095 41.2099 45.2893C42.0434 45.183 42.5799 44.9822 42.8228 44.6869C43.0641 44.3917 43.1856 43.7758 43.1856 42.8361V37.4674C43.1856 36.693 43.086 36.1852 42.887 35.9439C42.6879 35.7026 42.2458 35.5423 41.5574 35.4647C41.4022 35.4647 41.3246 35.3365 41.3246 35.08C41.3246 34.8438 41.4022 34.7241 41.5574 34.7241C42.5158 34.4828 43.3155 34.2078 43.9549 33.9024C44.5944 33.597 44.996 33.3473 45.1613 33.1533C45.2575 33.0369 45.3654 32.9795 45.4802 32.9795C45.7518 32.9795 45.8868 33.0571 45.8868 33.2123L45.7704 35.0429C47.1623 33.7455 48.4581 33.0959 49.6577 33.0959C50.972 33.0959 51.9995 33.4738 52.7402 34.2297C53.4792 34.9856 53.8503 36.0029 53.8503 37.2818V42.8327C53.8503 43.7826 53.9684 44.4018 54.2063 44.692C54.4442 44.9822 54.974 45.1813 55.7974 45.2876C55.9526 45.3078 56.0302 45.4377 56.0302 45.6807L56.0319 45.6824Z" fill="white"/>
<path d="M71.8999 42.3419C71.8999 43.5246 71.4359 44.5167 70.508 45.3214C69.58 46.1262 68.458 46.5278 67.142 46.5278C66.678 46.5278 65.9627 46.4266 64.9942 46.2224C64.2687 46.0773 63.7761 46.0048 63.5146 46.0048C63.4369 45.3265 63.2581 44.2956 62.978 42.9088C62.978 42.7637 63.1181 42.6911 63.3998 42.6911C63.6327 42.6911 63.7727 42.7687 63.8216 42.9239C64.0443 43.641 64.4847 44.2653 65.1444 44.7984C65.8024 45.3316 66.4806 45.5981 67.1791 45.5981C67.8776 45.5981 68.4698 45.3991 68.8714 45.0026C69.273 44.6061 69.4737 44.0493 69.4737 43.3322C69.4737 42.8767 69.3067 42.4751 68.9726 42.1259C68.6386 41.7766 67.9148 41.3464 66.7995 40.8335C65.3367 40.1654 64.37 39.5361 63.9009 38.9439C63.4302 38.3533 63.1957 37.6464 63.1957 36.823C63.1957 35.8057 63.636 34.9317 64.5184 34.1995C65.3992 33.4689 66.4418 33.1028 67.6431 33.1028C68.1459 33.1028 68.8545 33.1905 69.7639 33.3643C70.2684 33.4605 70.5974 33.5094 70.7526 33.5094C70.7813 34.6533 70.8437 35.6268 70.9416 36.4299C70.9416 36.575 70.8015 36.6476 70.5198 36.6476C70.2768 36.6476 70.1419 36.57 70.1132 36.4147C70.0069 35.7078 69.742 35.1342 69.3168 34.6921C68.8916 34.2518 68.3855 34.0307 67.795 34.0307C66.2883 34.0307 65.5358 34.6887 65.5358 36.0064C65.5358 36.4519 65.7147 36.8635 66.0707 37.2415C66.4267 37.6194 67.2044 38.1087 68.399 38.7093C69.8263 39.4264 70.7661 40.0456 71.22 40.5686C71.6738 41.0916 71.8999 41.6822 71.8999 42.3419Z" fill="white"/>
<path d="M90.8775 37.837C90.8775 38.1086 90.7037 38.2436 90.3545 38.2436H82.3909C82.3335 38.7666 82.3032 39.3099 82.3032 39.8717C82.3032 41.4307 82.6744 42.6303 83.415 43.4688C84.1557 44.3074 85.2102 44.7258 86.5751 44.7258C87.2635 44.7258 87.9553 44.5419 88.6538 44.1741C89.3506 43.8063 89.9124 43.3355 90.3393 42.7653L90.4118 42.7366C90.4996 42.7366 90.5839 42.7906 90.6666 42.8969C90.7493 43.0032 90.7898 43.1297 90.7898 43.2748C90.7898 43.479 90.4793 43.9024 89.8601 44.547C89.2409 45.1915 88.566 45.6824 87.8405 46.0216C87.1134 46.3607 86.3541 46.5294 85.5595 46.5294C83.8149 46.5294 82.3487 45.89 81.1559 44.6111C79.9647 43.3322 79.3691 41.7631 79.3691 39.9021C79.3691 38.0411 79.9529 36.3961 81.1204 35.0784C82.288 33.7607 83.7677 33.1027 85.5595 33.1027C87.0611 33.1027 88.3231 33.5954 89.3455 34.5773C90.368 35.561 90.8792 36.6475 90.8792 37.8404L90.8775 37.837ZM88.232 36.5581C88.232 35.8309 87.9823 35.2286 87.4829 34.7494C86.9834 34.2703 86.3423 34.0307 85.5578 34.0307C84.7732 34.0307 84.1641 34.3428 83.6175 34.9688C83.0692 35.593 82.6997 36.4147 82.5056 37.4321L86.5448 37.3156C87.1555 37.3055 87.5891 37.2482 87.8456 37.1419C88.1021 37.0356 88.2303 36.8415 88.2303 36.5615L88.232 36.5581ZM89.7437 27.5333C89.7437 27.7661 89.656 27.9348 89.4822 28.0411L84.6585 31.0207C84.5708 31.0798 84.4847 31.1085 84.397 31.1085C84.3008 31.1085 84.203 31.0511 84.1068 30.9347C84.0106 30.8183 83.9617 30.7018 83.9617 30.5854C83.9617 30.4589 84.0055 30.3577 84.0916 30.28L88.2033 26.3995C88.2995 26.3033 88.426 26.2544 88.5812 26.2544C88.8613 26.2544 89.1262 26.3944 89.3725 26.6762C89.6188 26.958 89.7437 27.2431 89.7437 27.5333Z" fill="white"/>
<path d="M110 37.8371C110 38.1087 109.826 38.2437 109.477 38.2437H101.513C101.454 38.7667 101.426 39.31 101.426 39.8718C101.426 41.4308 101.797 42.6304 102.538 43.4689C103.278 44.3074 104.333 44.7259 105.698 44.7259C106.386 44.7259 107.078 44.542 107.776 44.1742C108.473 43.8063 109.035 43.3356 109.462 42.7653L109.534 42.7367C109.622 42.7367 109.706 42.7907 109.789 42.8969C109.872 43.0032 109.912 43.1298 109.912 43.2749C109.912 43.479 109.602 43.9025 108.983 44.547C108.362 45.1915 107.689 45.6825 106.963 46.0216C106.236 46.3608 105.475 46.5295 104.682 46.5295C102.939 46.5295 101.471 45.89 100.278 44.6111C99.0873 43.3322 98.4917 41.7632 98.4917 39.9022C98.4917 38.0412 99.0755 36.3962 100.243 35.0785C101.411 33.7608 102.89 33.1028 104.682 33.1028C106.184 33.1028 107.446 33.5954 108.468 34.5774C109.491 35.561 110.002 36.6476 110.002 37.8404L110 37.8371ZM107.355 36.5582C107.355 35.831 107.105 35.2286 106.605 34.7495C106.106 34.2703 105.465 34.0307 104.68 34.0307C103.896 34.0307 103.287 34.3429 102.74 34.9688C102.193 35.5931 101.822 36.4147 101.628 37.4321L105.667 37.3157C106.278 37.3056 106.712 37.2482 106.968 37.1419C107.225 37.0356 107.353 36.8416 107.353 36.5615L107.355 36.5582Z" fill="white"/>
<path d="M57.4069 12.1141C56.9125 12.1141 56.4502 12.2507 56.0521 12.4835L55.3553 11.5269L58.3568 7.40003L58.0396 6.86182L55.0009 11.041L51.9623 6.86182L51.6451 7.40003L54.6466 11.5269L53.9515 12.4835C53.5533 12.2507 53.091 12.1141 52.595 12.1141C51.6316 12.1141 50.7863 12.6236 50.3105 13.3879L50.6497 13.9649C50.9753 13.2141 51.7244 12.6877 52.5933 12.6877C53.7625 12.6877 54.7124 13.6393 54.7124 14.8068C54.7124 15.9744 53.7625 16.9259 52.5933 16.9259C52.5225 16.9259 52.4533 16.9226 52.3858 16.9158L52.7266 17.4945C53.7221 17.4456 54.5758 16.8534 54.9993 16.0081C55.4227 16.8534 56.2765 17.4456 57.2719 17.4945L57.6127 16.9158C57.5435 16.9226 57.4744 16.9259 57.4052 16.9259C56.236 16.9259 55.2861 15.9744 55.2861 14.8068C55.2861 13.6393 56.2377 12.6877 57.4052 12.6877C58.2741 12.6877 59.0232 13.2141 59.3488 13.9649L59.688 13.3879C59.2122 12.6253 58.3669 12.1141 57.4035 12.1141H57.4069ZM54.9993 13.6038C54.8508 13.3086 54.65 13.0454 54.4104 12.8244L54.9993 12.0145L55.5881 12.8244C55.3468 13.0454 55.146 13.3086 54.9993 13.6038Z" fill="#333333"/>
<path d="M54.9993 23.0538L48.2168 11.5269L54.9993 0L61.7818 11.5269L54.9993 23.0538ZM48.8832 11.5269L55.001 21.9234L61.1188 11.5269L55.001 1.13042L48.8832 11.5269Z" fill="white"/>
<path fill-rule="evenodd" clip-rule="evenodd" d="M54.9995 21.3581L60.7849 11.5268L58.3566 7.4003L58.3568 7.40003L58.1149 6.98962L54.9995 1.69556L49.2158 11.5268L50.3106 13.3878C50.3106 13.3878 50.3106 13.3879 50.3105 13.3879L50.6497 13.9649C50.6497 13.9648 50.6498 13.9646 50.6499 13.9645L52.3862 16.9158C52.386 16.9158 52.3859 16.9158 52.3858 16.9158L52.6986 17.4469L52.3862 16.9158C52.4535 16.9226 52.5226 16.9259 52.5933 16.9259C53.7625 16.9259 54.7124 15.9744 54.7124 14.8068C54.7124 13.6393 53.7625 12.6877 52.5933 12.6877C51.7246 12.6877 50.9756 13.2139 50.6499 13.9645L50.3106 13.3878C50.7864 12.6235 51.6317 12.1141 52.595 12.1141C53.091 12.1141 53.5533 12.2507 53.9515 12.4835L54.6466 11.5269L51.6451 7.40003L51.9623 6.86182L55.0009 11.041L58.0396 6.86182L58.1149 6.98962L58.3566 7.4003L55.3553 11.5269L56.0521 12.4835C56.4502 12.2507 56.9125 12.1141 57.4069 12.1141H57.4035C58.3669 12.1141 59.2122 12.6253 59.688 13.3879L59.3488 13.9649C59.0232 13.2141 58.2741 12.6877 57.4052 12.6877C56.2377 12.6877 55.2861 13.6393 55.2861 14.8068C55.2861 15.9744 56.236 16.9259 57.4052 16.9259C57.4744 16.9259 57.5435 16.9226 57.6127 16.9158L57.2719 17.4945C56.2765 17.4456 55.4227 16.8534 54.9993 16.0081C54.5758 16.8534 53.7221 17.4456 52.7266 17.4945L54.9995 21.3581ZM54.4104 12.8244C54.65 13.0454 54.8508 13.3086 54.9993 13.6038C55.146 13.3086 55.3468 13.0454 55.5881 12.8244L54.9993 12.0145L54.4104 12.8244Z" fill="white"/>
<path d="M21.5186 57.3831C21.5186 57.4489 21.5001 57.4826 21.4613 57.4826C21.301 57.4826 21.1103 57.4759 20.891 57.4607C20.6835 57.4472 20.5063 57.4388 20.3629 57.4388C20.2195 57.4388 20.0525 57.4455 19.8635 57.4607C19.6644 57.4742 19.4856 57.4826 19.3287 57.4826C19.2915 57.4826 19.2713 57.4489 19.2713 57.3831C19.2713 57.324 19.2915 57.292 19.332 57.2869C19.5311 57.2633 19.6779 57.2312 19.7758 57.1891C19.8719 57.1486 19.9344 57.0929 19.9614 57.0254C19.9884 56.9579 20.0019 56.8449 20.0019 56.6863V55.1054H17.2956V56.6863C17.2956 56.8449 17.3091 56.9579 17.3361 57.0254C17.3631 57.0929 17.4255 57.1469 17.5217 57.1891C17.6179 57.2312 17.768 57.2633 17.9688 57.2869C18.0059 57.292 18.0262 57.324 18.0262 57.3831C18.0262 57.4489 18.0076 57.4826 17.9688 57.4826C17.8102 57.4826 17.6313 57.4759 17.4339 57.4607C17.245 57.4472 17.0779 57.4388 16.9345 57.4388C16.7911 57.4388 16.6123 57.4455 16.4031 57.4607C16.1837 57.4742 15.9948 57.4826 15.8362 57.4826C15.7991 57.4826 15.7788 57.4489 15.7788 57.3831C15.7788 57.324 15.7974 57.292 15.8362 57.2869C16.123 57.2532 16.317 57.2009 16.4199 57.1266C16.5229 57.0541 16.5735 56.9073 16.5735 56.6863V53.3473C16.5735 53.182 16.5532 53.0656 16.5111 52.9981C16.4689 52.9306 16.3963 52.8766 16.2934 52.8378C16.1888 52.799 16.0369 52.7669 15.8362 52.7433C15.7991 52.7433 15.7788 52.7112 15.7788 52.6454C15.7788 52.5796 15.7974 52.5476 15.8362 52.5476C15.9948 52.5476 16.1837 52.5543 16.4031 52.5695C16.614 52.583 16.7911 52.5915 16.9345 52.5915C17.0779 52.5915 17.245 52.5847 17.4339 52.5695C17.633 52.556 17.8119 52.5476 17.9688 52.5476C18.0059 52.5476 18.0262 52.5796 18.0262 52.6454C18.0262 52.7112 18.0076 52.7433 17.9688 52.7433C17.7849 52.7652 17.6448 52.7939 17.5504 52.8277C17.4559 52.8631 17.3901 52.912 17.3513 52.9711C17.3142 53.0318 17.2939 53.1567 17.2939 53.3456V54.8776H20.0002V53.3456C20.0002 53.187 19.9867 53.074 19.9597 53.0048C19.9327 52.9356 19.8719 52.8816 19.7758 52.8395C19.6796 52.7973 19.5311 52.7652 19.327 52.7416C19.2899 52.7416 19.2696 52.7096 19.2696 52.6438C19.2696 52.578 19.2882 52.5459 19.327 52.5459C19.4856 52.5459 19.6644 52.5526 19.8618 52.5678C20.0508 52.5813 20.2178 52.5898 20.3612 52.5898C20.5046 52.5898 20.6818 52.583 20.8893 52.5678C21.1087 52.5543 21.2993 52.5459 21.4596 52.5459C21.4967 52.5459 21.517 52.578 21.517 52.6438C21.517 52.7096 21.4984 52.7416 21.4596 52.7416C21.2588 52.7652 21.107 52.7973 21.0024 52.8361C20.8978 52.8749 20.8252 52.9289 20.7847 52.9964C20.7425 53.0639 20.7223 53.1803 20.7223 53.3456V56.6846C20.7223 56.9056 20.7746 57.0507 20.8758 57.1249C20.9787 57.1975 21.1728 57.2515 21.4596 57.2852C21.4967 57.2903 21.517 57.3223 21.517 57.3814L21.5186 57.3831Z" fill="white"/>
<path d="M28.1661 57.5603C28.0345 57.5603 27.9198 57.5283 27.8219 57.4625C27.7241 57.3984 27.6583 57.3089 27.6228 57.1976C27.3698 57.4574 27.0391 57.5873 26.6291 57.5873C26.4165 57.5873 26.2427 57.5215 26.1077 57.3899C25.9728 57.2583 25.9053 57.0947 25.9053 56.8989C25.9053 56.4147 26.4789 56.0216 27.6296 55.7213L27.6515 55.1679V55.151C27.6515 54.9806 27.6093 54.8456 27.525 54.7444C27.4406 54.6449 27.3293 54.5942 27.1892 54.5942C27.0492 54.5942 26.9311 54.628 26.8349 54.6955C26.7387 54.763 26.6881 54.8473 26.6864 54.9486C26.6848 55.1004 26.6443 55.2185 26.5683 55.3029C26.4924 55.3872 26.3895 55.4311 26.2613 55.4311C26.1853 55.4311 26.1246 55.4092 26.0774 55.3636C26.0301 55.318 26.0065 55.259 26.0065 55.1831C26.0065 55.0009 26.1719 54.8102 26.5025 54.6111C26.8332 54.412 27.1403 54.3108 27.4237 54.3108C27.6785 54.3108 27.886 54.3867 28.0446 54.5369C28.2032 54.6887 28.2825 54.8912 28.2825 55.1476V55.1898L28.2302 56.7927V56.818C28.2302 57.066 28.3112 57.1908 28.4715 57.1908C28.5491 57.1908 28.6402 57.1436 28.7448 57.0491L28.7701 57.0424C28.7887 57.0424 28.8072 57.0542 28.8241 57.0795C28.841 57.1048 28.8494 57.1318 28.8494 57.1588C28.8494 57.228 28.7786 57.3106 28.6352 57.4102C28.4917 57.5097 28.3365 57.5586 28.1695 57.5586L28.1661 57.5603ZM27.6245 55.9609C26.9361 56.1178 26.592 56.3759 26.592 56.7353C26.592 57.0727 26.7219 57.2398 26.98 57.2398C27.1049 57.2398 27.228 57.2077 27.3495 57.1453C27.471 57.0829 27.552 57.0052 27.5958 56.9124L27.6245 55.9592V55.9609Z" fill="white"/>
<path d="M34.9438 57.383C34.9438 57.4488 34.9252 57.4825 34.8864 57.4825C34.7902 57.4825 34.6654 57.4758 34.5135 57.4606C34.3431 57.4471 34.2014 57.4387 34.0867 57.4387C33.9719 57.4387 33.8285 57.4454 33.6632 57.4606C33.5147 57.4741 33.3915 57.4825 33.2937 57.4825C33.2566 57.4825 33.2363 57.4488 33.2363 57.383C33.2363 57.3239 33.2549 57.2919 33.2937 57.2868C33.4945 57.2615 33.6244 57.2126 33.6817 57.1417C33.7391 57.0709 33.7695 56.9207 33.7695 56.6879V55.3786C33.7695 55.1896 33.7459 55.0665 33.6969 55.0074C33.648 54.9484 33.5434 54.9096 33.3797 54.891C33.3426 54.891 33.3224 54.859 33.3224 54.7965C33.3224 54.7392 33.3409 54.7088 33.3797 54.7088C33.6278 54.6447 33.8302 54.5772 33.9871 54.5046C34.1457 54.4321 34.2436 54.373 34.2841 54.3258C34.3077 54.2971 34.333 54.2836 34.3617 54.2836C34.4275 54.2836 34.4612 54.3022 34.4612 54.341C34.4241 54.8708 34.4039 55.2824 34.4039 55.5743V56.6879C34.4039 56.919 34.4325 57.0709 34.4899 57.1417C34.5473 57.2126 34.6789 57.2615 34.8847 57.2868C34.9218 57.2919 34.9421 57.3239 34.9421 57.383H34.9438ZM34.446 53.0958C34.446 53.1954 34.4106 53.2814 34.3381 53.354C34.2655 53.4265 34.1795 53.4636 34.0782 53.4636C33.977 53.4636 33.8893 53.4265 33.8167 53.354C33.7442 53.2814 33.7087 53.1937 33.7087 53.0958C33.7087 52.998 33.7442 52.9052 33.815 52.8343C33.8859 52.7635 33.9736 52.728 34.0782 52.728C34.1828 52.728 34.2672 52.7635 34.3381 52.8343C34.4106 52.9052 34.446 52.9929 34.446 53.0958Z" fill="white"/>
<path d="M41.9354 54.6667C41.9354 54.7612 41.9067 54.8422 41.8477 54.908C41.7903 54.9738 41.7195 55.0075 41.6368 55.0075C41.5322 55.0075 41.4293 54.9738 41.328 54.9046C41.2471 54.8506 41.1779 54.8236 41.1188 54.8236C40.9653 54.8236 40.8067 54.913 40.643 55.0936V56.6897C40.643 56.8955 40.6785 57.0389 40.7493 57.1199C40.8202 57.2009 40.972 57.2582 41.2032 57.2886C41.2403 57.2937 41.2606 57.3257 41.2606 57.3848C41.2606 57.4506 41.242 57.4843 41.2032 57.4843C41.107 57.4843 40.9687 57.4776 40.7915 57.4624C40.5958 57.4489 40.4406 57.4405 40.3258 57.4405C40.2111 57.4405 40.066 57.4472 39.899 57.4624C39.7471 57.4759 39.624 57.4843 39.5261 57.4843C39.489 57.4843 39.4688 57.4506 39.4688 57.3848C39.4688 57.3257 39.4873 57.2937 39.5261 57.2886C39.732 57.2633 39.8636 57.2144 39.9209 57.1435C39.9783 57.0726 40.007 56.9225 40.007 56.6897V55.3804C40.007 55.1914 39.9833 55.0683 39.9344 55.0092C39.8855 54.9502 39.7775 54.9114 39.6105 54.8928C39.5734 54.8928 39.5531 54.8607 39.5531 54.7983C39.5531 54.7409 39.5717 54.7106 39.6105 54.7106C39.845 54.6515 40.0373 54.5857 40.1892 54.5132C40.341 54.4406 40.4406 54.3799 40.4878 54.3276C40.5165 54.2989 40.5435 54.2854 40.5722 54.2854C40.638 54.2854 40.6717 54.304 40.6717 54.3428L40.643 54.7899C40.832 54.6144 40.994 54.4929 41.1306 54.4204C41.2673 54.3495 41.4023 54.3141 41.5373 54.3141C41.6452 54.3141 41.7397 54.3495 41.8173 54.4204C41.8949 54.4912 41.9337 54.5739 41.9337 54.6684L41.9354 54.6667Z" fill="white"/>
<path d="M57.7563 55.0496C57.7563 55.7785 57.5134 56.3657 57.0258 56.8111C56.5382 57.2582 55.8802 57.4809 55.0501 57.4809C54.9455 57.4809 54.7363 57.4758 54.4191 57.4674C54.0934 57.4573 53.8758 57.4539 53.7661 57.4539C53.3258 57.4539 52.8989 57.464 52.4822 57.4826C52.4451 57.4826 52.4248 57.4488 52.4248 57.383C52.4248 57.324 52.4434 57.2919 52.4822 57.2869C52.6779 57.2632 52.828 57.2312 52.9327 57.1924C53.0373 57.1536 53.1098 57.1013 53.1503 57.0338C53.1925 56.968 53.2127 56.8516 53.2127 56.6862V53.3608C53.2127 53.1971 53.1925 53.0824 53.1537 53.0149C53.1149 52.9474 53.0423 52.8934 52.9394 52.8529C52.8348 52.8124 52.6829 52.7804 52.4822 52.7568C52.4451 52.7568 52.4248 52.7247 52.4248 52.6589C52.4248 52.5931 52.4434 52.561 52.4822 52.561C52.7589 52.5796 53.1857 52.5897 53.7661 52.5897C53.8741 52.5897 54.0918 52.5863 54.4191 52.5796C54.7363 52.5728 54.9455 52.5695 55.0501 52.5695C55.8582 52.5695 56.5112 52.8006 57.0089 53.2629C57.5066 53.7252 57.7547 54.3208 57.7547 55.048L57.7563 55.0496ZM56.9752 55.0496C56.9752 54.4051 56.7913 53.8703 56.4235 53.4418C56.0556 53.0149 55.595 52.8006 55.0416 52.8006H55.0197L54.3533 52.8141C54.0749 52.8242 53.9348 52.9609 53.9348 53.2258V56.8246C53.9348 57.0945 54.0749 57.2295 54.3533 57.2295L55.0197 57.2514C55.5697 57.2514 56.0337 57.0405 56.41 56.6204C56.7862 56.2003 56.9735 55.6756 56.9735 55.048L56.9752 55.0496Z" fill="white"/>
<path d="M65.0535 55.4682C65.0535 55.534 65.0114 55.5678 64.9253 55.5678H62.9817C62.9682 55.696 62.9597 55.8276 62.9597 55.9642C62.9597 56.3456 63.0508 56.6374 63.2314 56.8416C63.4119 57.0457 63.6684 57.1487 64.0024 57.1487C64.1695 57.1487 64.3399 57.1031 64.5086 57.0137C64.679 56.9243 64.8156 56.8095 64.9203 56.6695L64.9371 56.6627C64.9591 56.6627 64.9793 56.6762 64.9996 56.7015C65.0198 56.7269 65.0299 56.7589 65.0299 56.7943C65.0299 56.8433 64.954 56.9479 64.8021 57.1048C64.6503 57.2617 64.4866 57.3815 64.3095 57.4642C64.1323 57.5468 63.9467 57.589 63.7527 57.589C63.3275 57.589 62.9699 57.4321 62.678 57.12C62.3878 56.8078 62.2427 56.4248 62.2427 55.971C62.2427 55.5171 62.3844 55.1156 62.6695 54.7933C62.9547 54.4728 63.3157 54.3108 63.7527 54.3108C64.1188 54.3108 64.4276 54.4306 64.6756 54.6702C64.9253 54.9097 65.0502 55.1763 65.0502 55.4665L65.0535 55.4682ZM64.4073 55.1561C64.4073 54.9789 64.3466 54.8321 64.2251 54.714C64.1037 54.5976 63.9467 54.5386 63.7561 54.5386C63.5654 54.5386 63.417 54.6145 63.282 54.768C63.1487 54.9199 63.0576 55.1206 63.0103 55.3687L63.9957 55.34C64.1441 55.3383 64.2504 55.3231 64.3129 55.2978C64.3753 55.2725 64.4073 55.2253 64.4073 55.1561Z" fill="white"/>
<path d="M72.0537 56.5664C72.0537 56.8549 71.9406 57.0979 71.7145 57.2936C71.4884 57.4893 71.2134 57.5888 70.8929 57.5888C70.7798 57.5888 70.6044 57.5635 70.3682 57.5146C70.191 57.4792 70.0712 57.4623 70.0071 57.4623C69.9885 57.2969 69.9447 57.0456 69.8755 56.7064C69.8755 56.671 69.9092 56.6541 69.9784 56.6541C70.0358 56.6541 70.0695 56.6727 70.0813 56.7115C70.1353 56.887 70.2433 57.0388 70.4036 57.1687C70.5639 57.2986 70.7292 57.3644 70.8996 57.3644C71.07 57.3644 71.2151 57.3155 71.313 57.2193C71.4108 57.1232 71.4598 56.9865 71.4598 56.811C71.4598 56.6997 71.4193 56.6018 71.3383 56.5175C71.2573 56.4331 71.0801 56.3268 70.8085 56.202C70.4508 56.0383 70.2163 55.8848 70.1016 55.7414C69.9868 55.5963 69.9295 55.4242 69.9295 55.2234C69.9295 54.9754 70.0375 54.7611 70.2517 54.5839C70.466 54.4051 70.7208 54.3157 71.0143 54.3157C71.1375 54.3157 71.3096 54.3376 71.5323 54.3798C71.6555 54.4034 71.7365 54.4152 71.7736 54.4152C71.7803 54.6936 71.7955 54.9315 71.8191 55.1272C71.8191 55.1626 71.7854 55.1795 71.7162 55.1795C71.6572 55.1795 71.6234 55.161 71.6167 55.1238C71.5914 54.9517 71.5256 54.8117 71.4226 54.7037C71.3197 54.5958 71.1949 54.5418 71.0515 54.5418C70.6837 54.5418 70.4998 54.702 70.4998 55.0243C70.4998 55.1323 70.5436 55.2335 70.6297 55.3263C70.7174 55.4191 70.9064 55.5372 71.1982 55.684C71.5475 55.8595 71.777 56.0096 71.8866 56.1378C71.998 56.2661 72.052 56.4095 72.052 56.5698L72.0537 56.5664Z" fill="white"/>
<path d="M78.4208 57.383C78.4208 57.4488 78.4023 57.4825 78.3635 57.4825C78.2673 57.4825 78.1424 57.4758 77.9906 57.4606C77.8219 57.4471 77.6785 57.4387 77.5637 57.4387C77.449 57.4387 77.3056 57.4454 77.1402 57.4606C76.9918 57.4741 76.8686 57.4825 76.7707 57.4825C76.7336 57.4825 76.7134 57.4488 76.7134 57.383C76.7134 57.3239 76.7319 57.2919 76.7707 57.2868C76.9715 57.2615 77.1014 57.2126 77.1588 57.1417C77.2162 57.0709 77.2448 56.9207 77.2448 56.6879V55.3786C77.2448 55.1896 77.2212 55.0665 77.1723 55.0074C77.1234 54.9484 77.0188 54.9096 76.8551 54.891C76.818 54.891 76.7977 54.859 76.7977 54.7965C76.7977 54.7392 76.8163 54.7088 76.8534 54.7088C77.1014 54.6447 77.3039 54.5772 77.4608 54.5046C77.6194 54.4321 77.7173 54.373 77.7578 54.3258C77.7814 54.2971 77.8067 54.2836 77.8354 54.2836C77.9012 54.2836 77.9349 54.3022 77.9349 54.341C77.8978 54.8708 77.8775 55.2824 77.8775 55.5743V56.6879C77.8775 56.919 77.9062 57.0709 77.9636 57.1417C78.021 57.2126 78.1526 57.2615 78.3584 57.2868C78.3955 57.2919 78.4158 57.3239 78.4158 57.383H78.4208ZM77.9248 53.0958C77.9248 53.1954 77.8894 53.2814 77.8168 53.354C77.7443 53.4265 77.6582 53.4636 77.5553 53.4636C77.4524 53.4636 77.3663 53.4265 77.2955 53.354C77.2229 53.2814 77.1875 53.1937 77.1875 53.0958C77.1875 52.998 77.2229 52.9052 77.2938 52.8343C77.3646 52.7635 77.4524 52.728 77.5553 52.728C77.6582 52.728 77.7443 52.7635 77.8168 52.8343C77.8894 52.9052 77.9248 52.9929 77.9248 53.0958Z" fill="white"/>
<path d="M86.1668 54.8372C86.1668 54.9654 86.1365 55.0295 86.0741 55.0295L85.6236 55.016C85.6759 55.151 85.7012 55.2877 85.7012 55.4277C85.7012 55.7685 85.5763 56.052 85.3283 56.2781C85.0803 56.5041 84.7749 56.6189 84.4155 56.6189H84.2738C84.0848 56.6189 83.9364 56.6442 83.825 56.6931C83.7137 56.742 83.6597 56.8011 83.6597 56.8669C83.6597 56.9496 83.7052 57.0171 83.798 57.071C83.8908 57.1233 84.019 57.152 84.1827 57.1537L85.0027 57.1638C85.357 57.1706 85.632 57.2448 85.8277 57.3865C86.0251 57.5283 86.123 57.7257 86.123 57.9788C86.123 58.3617 85.9155 58.6958 85.4987 58.9826C85.0837 59.2678 84.591 59.4112 84.0224 59.4112C83.6496 59.4112 83.3357 59.3201 83.0793 59.1379C82.8228 58.9556 82.6963 58.7346 82.6963 58.4748C82.6963 58.2993 82.7773 58.1289 82.9392 57.9636C83.1012 57.7965 83.2919 57.6751 83.5129 57.5974C83.3661 57.5316 83.2463 57.4372 83.1552 57.3157C83.0624 57.1942 83.0169 57.0727 83.0169 56.9512C83.0169 56.8652 83.1029 56.7741 83.2767 56.6779C83.4505 56.5818 83.631 56.516 83.8183 56.4822C83.6141 56.3827 83.4572 56.2511 83.3425 56.0857C83.2294 55.9204 83.1721 55.7365 83.1721 55.5323C83.1721 55.2067 83.2986 54.9216 83.55 54.6769C83.8014 54.434 84.1 54.3108 84.4476 54.3108C84.6315 54.3108 84.812 54.3428 84.9909 54.407C85.1697 54.4711 85.3165 54.5571 85.4329 54.6651L86.0741 54.6432C86.1348 54.6432 86.1668 54.7073 86.1668 54.8355V54.8372ZM85.6809 58.2436C85.6809 58.0817 85.6269 57.9636 85.519 57.8944C85.411 57.8235 85.2305 57.7864 84.9774 57.7814L84.154 57.7645C83.9904 57.7645 83.847 57.7409 83.7221 57.6936C83.4336 57.8522 83.2902 58.0597 83.2902 58.3162C83.2902 58.549 83.388 58.7397 83.5837 58.8848C83.7795 59.0299 84.0292 59.1024 84.3312 59.1024C84.6956 59.1024 85.0111 59.0197 85.2777 58.8544C85.5443 58.6891 85.6792 58.4866 85.6792 58.2453L85.6809 58.2436ZM85.0381 55.4176C85.0381 55.1156 84.9909 54.8929 84.8981 54.7512C84.8053 54.6094 84.6551 54.5386 84.451 54.5386C84.0595 54.5386 83.8638 54.8693 83.8638 55.5323C83.8638 55.8326 83.9094 56.0503 84.0005 56.187C84.0916 56.3236 84.2418 56.3911 84.451 56.3911C84.8424 56.3911 85.0381 56.0672 85.0381 55.4193V55.4176Z" fill="white"/>
<path d="M94.2233 57.3831C94.2233 57.4489 94.2047 57.4826 94.1659 57.4826C94.0714 57.4826 93.955 57.4759 93.8183 57.4607C93.6665 57.4472 93.5332 57.4387 93.4185 57.4387C93.3038 57.4387 93.1654 57.4455 93.0119 57.4607C92.8735 57.4742 92.7554 57.4826 92.6626 57.4826C92.6255 57.4826 92.6053 57.4489 92.6053 57.3831C92.6053 57.324 92.6238 57.292 92.6626 57.2869C92.8263 57.2683 92.9326 57.2228 92.9832 57.1485C93.0338 57.076 93.0591 56.9225 93.0591 56.6879V55.5035C93.0591 55.2386 93.0068 55.0446 92.9022 54.9215C92.7976 54.7983 92.6373 54.7375 92.4197 54.7375C92.283 54.7375 92.1615 54.7629 92.0569 54.8152C91.9523 54.8675 91.8393 54.9603 91.7178 55.0919V56.6879C91.7178 56.9225 91.7431 57.076 91.7937 57.1485C91.8443 57.2211 91.9506 57.2683 92.1143 57.2869C92.1514 57.292 92.1716 57.324 92.1716 57.3831C92.1716 57.4489 92.1531 57.4826 92.1143 57.4826C92.0181 57.4826 91.8983 57.4759 91.76 57.4607C91.6064 57.4472 91.4715 57.4387 91.355 57.4387C91.2386 57.4387 91.1087 57.4455 90.9586 57.4607C90.8185 57.4742 90.7004 57.4826 90.6042 57.4826C90.5671 57.4826 90.5469 57.4489 90.5469 57.3831C90.5469 57.324 90.5654 57.292 90.6042 57.2869C90.8067 57.2616 90.9383 57.2127 90.9974 57.1401C91.0564 57.0676 91.0868 56.9174 91.0868 56.6879V55.3787C91.0868 55.1897 91.0632 55.0666 91.0142 55.0075C90.9653 54.9484 90.8573 54.9096 90.6903 54.8911C90.6532 54.8911 90.6346 54.859 90.6346 54.7966C90.6346 54.7392 90.6532 54.7089 90.6903 54.7089C90.9248 54.6498 91.1188 54.5823 91.2757 54.5081C91.4327 54.4339 91.5305 54.3731 91.5693 54.3259C91.5929 54.2972 91.6182 54.2837 91.6469 54.2837C91.7127 54.2837 91.7465 54.3022 91.7465 54.3411L91.7178 54.7882C92.0569 54.471 92.3741 54.3124 92.666 54.3124C92.9866 54.3124 93.238 54.4052 93.4185 54.5891C93.599 54.773 93.6901 55.0227 93.6901 55.3331V56.6879C93.6901 56.9191 93.7188 57.0709 93.7762 57.1418C93.8335 57.2127 93.9634 57.2616 94.1642 57.2869C94.2013 57.292 94.2216 57.324 94.2216 57.3831H94.2233Z" fill="white"/>
</g>
<defs>
<clipPath id="clip0_402_3863">
<rect width="110" height="59.4112" fill="white"/>
</clipPath>
</defs>
</svg>
