<svg width="178" height="97" viewBox="0 0 178 97" fill="none" xmlns="http://www.w3.org/2000/svg">
<g clip-path="url(#clip0_198_685)">
<path d="M26.633 51.4037C26.633 54.1605 25.575 56.4729 23.4563 58.3435C21.3375 60.2141 18.7143 61.1494 15.5893 61.1494C13.7132 61.1494 11.8672 61.0704 10.0538 60.9149V69.2291C10.0538 70.3253 10.1902 71.0915 10.4656 71.5305C10.7383 71.9696 11.2182 72.3159 11.8972 72.5749C12.5789 72.834 13.5769 73.0412 14.8912 73.1966C15.1421 73.2294 15.2676 73.4393 15.2676 73.832C15.2676 74.271 15.1421 74.4892 14.8912 74.4892C13.8414 74.4892 12.598 74.4428 11.1582 74.3474C9.78114 74.2546 8.61405 74.2056 7.65966 74.2056C6.70526 74.2056 5.53 74.2519 4.13658 74.3474C2.68044 74.4401 1.42882 74.4892 0.37899 74.4892C0.12812 74.4892 0.00268555 74.271 0.00268555 73.832C0.00268555 73.4393 0.12812 73.2294 0.37899 73.1966C2.27415 72.9758 3.56121 72.624 4.24293 72.1386C4.92464 71.6532 5.26549 70.6825 5.26549 69.2236V47.1062C5.26549 46.01 5.12915 45.2383 4.85374 44.7911C4.58105 44.3439 4.0984 43.9921 3.40851 43.7331C2.71862 43.474 1.70969 43.2668 0.37899 43.1114C0.12812 43.1114 0.00268555 42.8959 0.00268555 42.4651C0.00268555 42.0343 0.12812 41.8188 0.37899 41.8188C1.42882 41.8188 2.68044 41.8652 4.13658 41.9606C5.53 42.0561 6.70254 42.1024 7.65693 42.1024C8.61133 42.1024 9.77569 42.0561 11.1527 41.9606C12.5925 41.8679 13.836 41.8188 14.8831 41.8188C18.7306 41.8188 21.6511 42.6342 23.6444 44.2621C25.6377 45.89 26.6358 48.2706 26.6358 51.401L26.633 51.4037ZM21.4411 51.4037C21.4411 48.8923 20.8276 46.929 19.5978 45.5164C18.368 44.1039 16.7373 43.3977 14.7004 43.3977C13.4787 43.3977 12.5353 43.4931 11.8699 43.6813C11.2046 43.8694 10.7355 44.1748 10.4601 44.6002C10.1847 45.0256 10.0484 45.8655 10.0484 47.1198V57.9318C10.0484 58.608 10.2583 59.0579 10.6837 59.287C11.1064 59.5133 12.0226 59.6279 13.4324 59.6279C15.9847 59.6279 17.9562 58.8971 19.3496 57.4382C20.743 55.9766 21.4411 53.9669 21.4411 51.4092V51.4037Z" fill="#231815"/>
<path d="M54.4387 61.1522C54.4387 61.5912 54.1578 61.8094 53.5933 61.8094H40.7226C40.6299 62.6547 40.5809 63.5327 40.5809 64.4408C40.5809 66.9604 41.1808 68.8992 42.3778 70.2544C43.5749 71.6096 45.2792 72.2859 47.4852 72.2859C48.5978 72.2859 49.7158 71.9887 50.8447 71.3942C51.9709 70.7998 52.8789 70.039 53.5688 69.1173L53.6861 69.0709C53.8279 69.0709 53.9642 69.1582 54.0978 69.33C54.2314 69.5018 54.2969 69.7063 54.2969 69.9408C54.2969 70.2708 53.7951 70.9552 52.7944 71.9968C51.7936 73.0385 50.7029 73.832 49.5303 74.3801C48.3551 74.9282 47.128 75.2009 45.8437 75.2009C43.0241 75.2009 40.6545 74.1674 38.7266 72.1005C36.8014 70.0335 35.8389 67.4976 35.8389 64.4898C35.8389 61.4821 36.7824 58.8235 38.6693 56.6938C40.5563 54.5641 42.9477 53.5007 45.8437 53.5007C48.2705 53.5007 50.3102 54.2969 51.9627 55.8839C53.6152 57.4737 54.4414 59.2298 54.4414 61.1576L54.4387 61.1522ZM50.1657 59.0852C50.1657 57.91 49.7621 56.9365 48.955 56.1621C48.1478 55.3876 47.1116 55.0004 45.8437 55.0004C44.5757 55.0004 43.5913 55.5049 42.7078 56.5166C41.8216 57.5255 41.2244 58.8535 40.9108 60.4978L47.4389 60.3096C48.426 60.2932 49.1268 60.2005 49.5413 60.0287C49.9557 59.8569 50.163 59.5434 50.163 59.0907L50.1657 59.0852Z" fill="#231815"/>
<path d="M90.5584 73.832C90.5584 74.271 90.433 74.4892 90.1821 74.4892C89.5549 74.4892 88.7887 74.4428 87.8807 74.3474C86.8799 74.2547 85.9964 74.2056 85.2329 74.2056C84.4694 74.2056 83.5559 74.2519 82.5415 74.3474C81.6198 74.4401 80.8481 74.4892 80.2237 74.4892C79.9728 74.4892 79.8501 74.271 79.8501 73.832C79.8501 73.4393 79.9755 73.2294 80.2264 73.1966C81.3062 73.0712 82.0152 72.7658 82.3506 72.2804C82.686 71.7951 82.8551 70.7779 82.8551 69.2264V61.3812C82.8551 59.6279 82.5115 58.3435 81.8216 57.5309C81.1317 56.7156 80.0683 56.3093 78.6285 56.3093C77.7205 56.3093 76.9188 56.4811 76.2207 56.8247C75.5226 57.1683 74.7755 57.7791 73.9792 58.6571V69.2264C73.9792 70.7779 74.1483 71.7951 74.4837 72.2804C74.8191 72.7658 75.5281 73.0712 76.6079 73.1966C76.8588 73.2294 76.9842 73.4393 76.9842 73.832C76.9842 74.271 76.8588 74.4892 76.6079 74.4892C75.9671 74.4892 75.1818 74.4428 74.2601 74.3474C73.243 74.2547 72.3486 74.2056 71.5823 74.2056C70.8161 74.2056 69.9544 74.2519 68.9509 74.3474C68.0265 74.4401 67.2439 74.4892 66.6031 74.4892C66.3522 74.4892 66.2268 74.271 66.2268 73.832C66.2268 73.4393 66.3522 73.2294 66.6031 73.1966C67.9502 73.0249 68.8173 72.7004 69.21 72.2232C69.5999 71.746 69.7962 70.7507 69.7962 69.2318V60.555C69.7962 59.3034 69.6354 58.4826 69.3136 58.0927C68.9918 57.7027 68.2774 57.4437 67.1648 57.3182C66.914 57.3182 66.7885 57.111 66.7885 56.6965C66.7885 56.3148 66.914 56.1212 67.1648 56.1212C68.7137 55.7312 70.0062 55.2867 71.0397 54.7932C72.0732 54.2996 72.7222 53.8961 72.9894 53.5825C73.1448 53.3943 73.3193 53.3016 73.5047 53.3016C73.9438 53.3016 74.1619 53.427 74.1619 53.6779L73.9738 56.6365C76.2234 54.5396 78.3176 53.4898 80.2564 53.4898C82.3806 53.4898 84.0413 54.1006 85.2384 55.3222C86.4327 56.5438 87.0326 58.1881 87.0326 60.2551V69.2264C87.0326 70.7616 87.2235 71.7623 87.608 72.2314C87.9925 72.7004 88.8487 73.0221 90.1794 73.1939C90.4303 73.2266 90.5557 73.4366 90.5557 73.8293L90.5584 73.832Z" fill="#231815"/>
<path d="M116.204 68.4329C116.204 70.3444 115.455 71.9478 113.955 73.2485C112.455 74.5492 110.642 75.1982 108.515 75.1982C107.765 75.1982 106.609 75.0345 105.043 74.7046C103.871 74.4701 103.075 74.3528 102.652 74.3528C102.527 73.2567 102.238 71.5905 101.785 69.3491C101.785 69.1146 102.011 68.9973 102.467 68.9973C102.843 68.9973 103.069 69.1228 103.148 69.3736C103.508 70.5325 104.22 71.5415 105.286 72.4031C106.35 73.2648 107.446 73.6957 108.575 73.6957C109.704 73.6957 110.661 73.3739 111.31 72.7331C111.959 72.0923 112.283 71.1924 112.283 70.0335C112.283 69.2973 112.013 68.6483 111.473 68.0838C110.933 67.5194 109.764 66.824 107.961 65.9951C105.597 64.9152 104.035 63.8981 103.276 62.941C102.516 61.9866 102.137 60.8441 102.137 59.5134C102.137 57.8691 102.848 56.4566 104.275 55.2731C105.698 54.0924 107.383 53.5007 109.325 53.5007C110.137 53.5007 111.283 53.6425 112.752 53.9233C113.568 54.0788 114.099 54.1578 114.35 54.1578C114.397 56.0066 114.497 57.58 114.656 58.878C114.656 59.1125 114.429 59.2298 113.974 59.2298C113.581 59.2298 113.363 59.1043 113.317 58.8535C113.145 57.7109 112.717 56.7838 112.03 56.0694C111.342 55.3577 110.524 55.0004 109.57 55.0004C107.135 55.0004 105.919 56.0639 105.919 58.1936C105.919 58.9135 106.208 59.5788 106.783 60.1896C107.359 60.8004 108.616 61.5912 110.546 62.562C112.853 63.7209 114.372 64.7216 115.106 65.567C115.839 66.4123 116.204 67.3667 116.204 68.4329Z" fill="#231815"/>
<path d="M146.876 61.1522C146.876 61.5912 146.595 61.8093 146.031 61.8093H133.16C133.067 62.6547 133.018 63.5327 133.018 64.4408C133.018 66.9604 133.618 68.8991 134.815 70.2544C136.012 71.6096 137.716 72.2859 139.922 72.2859C141.035 72.2859 142.153 71.9887 143.282 71.3942C144.408 70.7997 145.316 70.039 146.006 69.1173L146.123 69.0709C146.265 69.0709 146.401 69.1582 146.535 69.33C146.669 69.5018 146.734 69.7063 146.734 69.9408C146.734 70.2707 146.232 70.9552 145.232 71.9968C144.231 73.0385 143.14 73.832 141.968 74.3801C140.792 74.9282 139.565 75.2009 138.281 75.2009C135.461 75.2009 133.092 74.1674 131.164 72.1005C129.239 70.0335 128.276 67.4975 128.276 64.4898C128.276 61.4821 129.22 58.8235 131.107 56.6938C132.994 54.5641 135.385 53.5007 138.281 53.5007C140.708 53.5007 142.747 54.2969 144.4 55.8839C146.052 57.4737 146.879 59.2298 146.879 61.1576L146.876 61.1522ZM142.6 59.0852C142.6 57.91 142.197 56.9365 141.39 56.1621C140.582 55.3876 139.546 55.0004 138.278 55.0004C137.01 55.0004 136.026 55.5049 135.142 56.5165C134.256 57.5255 133.659 58.8534 133.345 60.4977L139.873 60.3096C140.861 60.2932 141.561 60.2005 141.976 60.0287C142.39 59.8569 142.597 59.5433 142.597 59.0907L142.6 59.0852ZM145.043 44.4994C145.043 44.8757 144.902 45.1483 144.621 45.3201L136.825 50.1357C136.683 50.2312 136.544 50.2775 136.402 50.2775C136.247 50.2775 136.089 50.1848 135.933 49.9967C135.778 49.8085 135.699 49.6204 135.699 49.4322C135.699 49.2277 135.769 49.0641 135.909 48.9386L142.554 42.6669C142.709 42.5115 142.914 42.4324 143.165 42.4324C143.617 42.4324 144.045 42.6587 144.444 43.1141C144.842 43.5695 145.043 44.0303 145.043 44.4994Z" fill="#231815"/>
<path d="M177.782 61.1522C177.782 61.5912 177.501 61.8094 176.937 61.8094H164.066C163.97 62.6547 163.924 63.5327 163.924 64.4408C163.924 66.9604 164.524 68.8992 165.721 70.2544C166.918 71.6096 168.622 72.2859 170.828 72.2859C171.941 72.2859 173.059 71.9887 174.188 71.3942C175.314 70.7998 176.222 70.039 176.912 69.1173L177.029 69.0709C177.171 69.0709 177.307 69.1582 177.441 69.33C177.575 69.5018 177.64 69.7063 177.64 69.9408C177.64 70.2708 177.138 70.9552 176.138 71.9968C175.134 73.0385 174.046 73.832 172.874 74.3801C171.698 74.9282 170.469 75.2009 169.187 75.2009C166.37 75.2009 163.998 74.1674 162.07 72.1005C160.145 70.0335 159.182 67.4976 159.182 64.4898C159.182 61.4821 160.126 58.8235 162.013 56.6938C163.9 54.5641 166.291 53.5007 169.187 53.5007C171.614 53.5007 173.653 54.2969 175.306 55.8839C176.958 57.4737 177.785 59.2298 177.785 61.1576L177.782 61.1522ZM173.506 59.0852C173.506 57.91 173.103 56.9365 172.296 56.1621C171.488 55.3876 170.452 55.0004 169.184 55.0004C167.916 55.0004 166.932 55.5049 166.048 56.5166C165.165 57.5255 164.565 58.8535 164.251 60.4978L170.779 60.3096C171.766 60.2932 172.467 60.2005 172.882 60.0287C173.296 59.8569 173.504 59.5434 173.504 59.0907L173.506 59.0852Z" fill="#231815"/>
<path d="M92.7809 19.5787C91.9819 19.5787 91.2347 19.7996 90.5912 20.1759L89.465 18.6298L94.3161 11.9599L93.8034 11.0901L88.8924 17.8444L83.9813 11.0901L83.4687 11.9599L88.3198 18.6298L87.1963 20.1759C86.5528 19.7996 85.8056 19.5787 85.0039 19.5787C83.4469 19.5787 82.0807 20.4022 81.3118 21.6375L81.8599 22.5701C82.3861 21.3566 83.5969 20.5058 85.0012 20.5058C86.8909 20.5058 88.4261 22.0438 88.4261 23.9308C88.4261 25.8177 86.8909 27.3557 85.0012 27.3557C84.8867 27.3557 84.7749 27.3502 84.6658 27.3393L85.2166 28.2746C86.8254 28.1955 88.2052 27.2384 88.8897 25.8723C89.5741 27.2384 90.9539 28.1955 92.5627 28.2746L93.1135 27.3393C93.0017 27.3502 92.8899 27.3557 92.7781 27.3557C90.8884 27.3557 89.3532 25.8177 89.3532 23.9308C89.3532 22.0438 90.8912 20.5058 92.7781 20.5058C94.1825 20.5058 95.3932 21.3566 95.9195 22.5701L96.4676 21.6375C95.6986 20.405 94.3324 19.5787 92.7754 19.5787H92.7809ZM88.8897 21.9865C88.6497 21.5093 88.3252 21.0839 87.938 20.7267L88.8897 19.4178L89.8413 20.7267C89.4514 21.0839 89.1269 21.5093 88.8897 21.9865Z" fill="#E4E4E4"/>
<path d="M88.8896 37.2596L77.9277 18.6298L88.8896 0L99.8515 18.6298L88.8896 37.2596ZM79.0048 18.6298L88.8924 35.4326L98.7799 18.6298L88.8924 1.82698L79.0048 18.6298Z" fill="#231815"/>
<path d="M98.2399 18.6298L88.8896 34.5191L79.542 18.6298L88.8896 2.74048L98.2399 18.6298Z" fill="#231815"/>
<path d="M92.7809 19.5787C91.9819 19.5787 91.2347 19.7996 90.5912 20.1759L89.465 18.6298L94.3161 11.9599L93.8034 11.0901L88.8924 17.8444L83.9813 11.0901L83.4687 11.9599L88.3198 18.6298L87.1963 20.1759C86.5528 19.7996 85.8056 19.5787 85.0039 19.5787C83.4469 19.5787 82.0807 20.4022 81.3118 21.6375L81.8599 22.5701C82.3861 21.3566 83.5969 20.5058 85.0012 20.5058C86.8909 20.5058 88.4261 22.0438 88.4261 23.9308C88.4261 25.8177 86.8909 27.3557 85.0012 27.3557C84.8867 27.3557 84.7749 27.3502 84.6658 27.3393L85.2166 28.2746C86.8254 28.1955 88.2052 27.2384 88.8897 25.8723C89.5741 27.2384 90.9539 28.1955 92.5627 28.2746L93.1135 27.3393C93.0017 27.3502 92.8899 27.3557 92.7781 27.3557C90.8884 27.3557 89.3532 25.8177 89.3532 23.9308C89.3532 22.0438 90.8912 20.5058 92.7781 20.5058C94.1825 20.5058 95.3932 21.3566 95.9195 22.5701L96.4676 21.6375C95.6986 20.405 94.3324 19.5787 92.7754 19.5787H92.7809ZM88.8897 21.9865C88.6497 21.5093 88.3252 21.0839 87.938 20.7267L88.8897 19.4178L89.8413 20.7267C89.4514 21.0839 89.1269 21.5093 88.8897 21.9865Z" fill="#E4E4E4"/>
<path d="M34.7782 92.7427C34.7782 92.849 34.7482 92.9035 34.6855 92.9035C34.4264 92.9035 34.1183 92.8926 33.7638 92.8681C33.4284 92.8463 33.1421 92.8326 32.9103 92.8326C32.6785 92.8326 32.4086 92.8436 32.1032 92.8681C31.7814 92.8899 31.4923 92.9035 31.2387 92.9035C31.1788 92.9035 31.146 92.849 31.146 92.7427C31.146 92.6472 31.1788 92.5954 31.2442 92.5872C31.566 92.5491 31.8032 92.4972 31.9614 92.4291C32.1168 92.3636 32.2177 92.2736 32.2613 92.1646C32.3049 92.0555 32.3268 91.8728 32.3268 91.6165V89.0614H27.9529V91.6165C27.9529 91.8728 27.9747 92.0555 28.0183 92.1646C28.062 92.2736 28.1629 92.3609 28.3183 92.4291C28.4737 92.4972 28.7164 92.5491 29.0409 92.5872C29.1009 92.5954 29.1336 92.6472 29.1336 92.7427C29.1336 92.849 29.1036 92.9035 29.0409 92.9035C28.7846 92.9035 28.4955 92.8926 28.1765 92.8681C27.8711 92.8463 27.6011 92.8326 27.3694 92.8326C27.1376 92.8326 26.8485 92.8436 26.5104 92.8681C26.1559 92.8899 25.8505 92.9035 25.5942 92.9035C25.5342 92.9035 25.5015 92.849 25.5015 92.7427C25.5015 92.6472 25.5315 92.5954 25.5942 92.5872C26.0577 92.5327 26.3713 92.4482 26.5377 92.3282C26.704 92.2109 26.7858 91.9737 26.7858 91.6165V86.2201C26.7858 85.9528 26.7531 85.7647 26.6849 85.6556C26.6167 85.5465 26.4995 85.4593 26.3332 85.3966C26.1641 85.3338 25.9187 85.282 25.5942 85.2438C25.5342 85.2438 25.5015 85.192 25.5015 85.0857C25.5015 84.9793 25.5315 84.9275 25.5942 84.9275C25.8505 84.9275 26.1559 84.9384 26.5104 84.963C26.8513 84.9848 27.1376 84.9984 27.3694 84.9984C27.6011 84.9984 27.8711 84.9875 28.1765 84.963C28.4983 84.9412 28.7873 84.9275 29.0409 84.9275C29.1009 84.9275 29.1336 84.9793 29.1336 85.0857C29.1336 85.192 29.1036 85.2438 29.0409 85.2438C28.7437 85.2793 28.5174 85.3256 28.3646 85.3802C28.2119 85.4374 28.1056 85.5165 28.0429 85.612C27.9829 85.7101 27.9502 85.9119 27.9502 86.2173V88.6933H32.324V86.2173C32.324 85.961 32.3022 85.7783 32.2586 85.6665C32.215 85.5547 32.1168 85.4674 31.9614 85.3993C31.8059 85.3311 31.566 85.2793 31.236 85.2411C31.176 85.2411 31.1433 85.1893 31.1433 85.083C31.1433 84.9766 31.1733 84.9248 31.236 84.9248C31.4923 84.9248 31.7814 84.9357 32.1004 84.9603C32.4058 84.9821 32.6758 84.9957 32.9076 84.9957C33.1394 84.9957 33.4257 84.9848 33.7611 84.9603C34.1156 84.9384 34.4237 84.9248 34.6827 84.9248C34.7427 84.9248 34.7755 84.9766 34.7755 85.083C34.7755 85.1893 34.7455 85.2411 34.6827 85.2411C34.3583 85.2793 34.1128 85.3311 33.9438 85.3938C33.7747 85.4565 33.6575 85.5438 33.592 85.6529C33.5238 85.7619 33.4911 85.9501 33.4911 86.2173V91.6137C33.4911 91.971 33.5756 92.2055 33.7393 92.3255C33.9056 92.4427 34.2192 92.53 34.6827 92.5845C34.7427 92.5927 34.7755 92.6445 34.7755 92.7399L34.7782 92.7427Z" fill="#231815"/>
<path d="M45.5219 93.029C45.3092 93.029 45.1238 92.9772 44.9656 92.8708C44.8075 92.7672 44.7011 92.6227 44.6438 92.4427C44.2348 92.8626 43.7004 93.0726 43.0377 93.0726C42.6942 93.0726 42.4133 92.9663 42.1951 92.7536C41.977 92.5409 41.8679 92.2764 41.8679 91.96C41.8679 91.1774 42.795 90.5421 44.6548 90.0567L44.6902 89.1623V89.135C44.6902 88.8596 44.622 88.6415 44.4857 88.4779C44.3493 88.317 44.1694 88.2352 43.943 88.2352C43.7167 88.2352 43.5258 88.2897 43.3704 88.3988C43.215 88.5079 43.1332 88.6442 43.1304 88.8078C43.1277 89.0532 43.0623 89.2441 42.9396 89.3805C42.8169 89.5168 42.6505 89.5877 42.4433 89.5877C42.3206 89.5877 42.2224 89.5522 42.1461 89.4786C42.0697 89.405 42.0315 89.3096 42.0315 89.1869C42.0315 88.8924 42.2988 88.5842 42.8332 88.2624C43.3677 87.9407 43.864 87.7771 44.3221 87.7771C44.7338 87.7771 45.0692 87.8998 45.3256 88.1425C45.5819 88.3879 45.71 88.7151 45.71 89.1296V89.1978L45.6255 91.7883V91.8292C45.6255 92.23 45.7564 92.4318 46.0154 92.4318C46.1409 92.4318 46.2881 92.3554 46.4572 92.2027L46.4981 92.1918C46.5281 92.1918 46.5581 92.2109 46.5854 92.2518C46.6126 92.2927 46.6263 92.3364 46.6263 92.38C46.6263 92.4918 46.5117 92.6254 46.28 92.7863C46.0482 92.9472 45.7973 93.0262 45.5273 93.0262L45.5219 93.029ZM44.6466 90.4439C43.534 90.6975 42.9777 91.1147 42.9777 91.6955C42.9777 92.2409 43.1877 92.5109 43.6049 92.5109C43.8067 92.5109 44.0058 92.4591 44.2021 92.3582C44.3984 92.2573 44.5293 92.1318 44.6002 91.9819L44.6466 90.4412V90.4439Z" fill="#231815"/>
<path d="M56.4756 92.7427C56.4756 92.849 56.4456 92.9035 56.3829 92.9035C56.2275 92.9035 56.0257 92.8926 55.7803 92.8681C55.5049 92.8463 55.2758 92.8326 55.0904 92.8326C54.905 92.8326 54.6732 92.8436 54.406 92.8681C54.166 92.8899 53.9669 92.9035 53.8088 92.9035C53.7488 92.9035 53.7161 92.849 53.7161 92.7427C53.7161 92.6472 53.7461 92.5954 53.8088 92.5872C54.1333 92.5463 54.3432 92.4672 54.436 92.3527C54.5287 92.2382 54.5777 91.9955 54.5777 91.6192V89.5032C54.5777 89.1978 54.5396 88.9987 54.4605 88.9033C54.3814 88.8078 54.2123 88.7451 53.9478 88.7151C53.8879 88.7151 53.8551 88.6633 53.8551 88.5624C53.8551 88.4697 53.8851 88.4206 53.9478 88.4206C54.3487 88.317 54.6759 88.2079 54.9295 88.0907C55.1858 87.9734 55.344 87.878 55.4094 87.8016C55.4476 87.7553 55.4885 87.7334 55.5349 87.7334C55.6412 87.7334 55.6958 87.7634 55.6958 87.8262C55.6358 88.6824 55.603 89.3477 55.603 89.8195V91.6192C55.603 91.9928 55.6494 92.2382 55.7421 92.3527C55.8348 92.4672 56.0475 92.5463 56.3802 92.5872C56.4402 92.5954 56.4729 92.6472 56.4729 92.7427H56.4756ZM55.6712 85.8138C55.6712 85.9746 55.6139 86.1137 55.4967 86.231C55.3794 86.3482 55.2404 86.4082 55.0768 86.4082C54.9131 86.4082 54.7713 86.3482 54.6541 86.231C54.5368 86.1137 54.4796 85.9719 54.4796 85.8138C54.4796 85.6556 54.5368 85.5056 54.6514 85.3911C54.7659 85.2766 54.9077 85.2193 55.0768 85.2193C55.2458 85.2193 55.3822 85.2766 55.4967 85.3911C55.6139 85.5056 55.6712 85.6474 55.6712 85.8138Z" fill="#231815"/>
<path d="M67.7757 88.3524C67.7757 88.5051 67.7294 88.636 67.6339 88.7424C67.5412 88.8487 67.4267 88.9033 67.2931 88.9033C67.124 88.9033 66.9577 88.8487 66.794 88.7369C66.6632 88.6497 66.5514 88.606 66.4559 88.606C66.2078 88.606 65.9515 88.7506 65.6869 89.0423V91.6219C65.6869 91.9546 65.7442 92.1864 65.8587 92.3173C65.9733 92.4482 66.2187 92.5409 66.5923 92.59C66.6523 92.5981 66.685 92.6499 66.685 92.7454C66.685 92.8517 66.655 92.9063 66.5923 92.9063C66.4368 92.9063 66.2132 92.8954 65.9269 92.8708C65.6106 92.849 65.3597 92.8354 65.1743 92.8354C64.9889 92.8354 64.7544 92.8463 64.4844 92.8708C64.239 92.8926 64.0399 92.9063 63.8818 92.9063C63.8218 92.9063 63.7891 92.8517 63.7891 92.7454C63.7891 92.6499 63.8191 92.5981 63.8818 92.59C64.2145 92.549 64.4271 92.47 64.5199 92.3554C64.6126 92.2409 64.6589 91.9982 64.6589 91.6219V89.5059C64.6589 89.2005 64.6208 89.0014 64.5417 88.906C64.4626 88.8106 64.2881 88.7478 64.0181 88.7178C63.9581 88.7178 63.9254 88.666 63.9254 88.5651C63.9254 88.4724 63.9554 88.4233 64.0181 88.4233C64.3972 88.3279 64.708 88.2216 64.9534 88.1043C65.1988 87.987 65.3597 87.8889 65.4361 87.8043C65.4824 87.758 65.5261 87.7362 65.5724 87.7362C65.6788 87.7362 65.7333 87.7662 65.7333 87.8289L65.6869 88.5515C65.9924 88.2679 66.2541 88.0716 66.475 87.9543C66.6959 87.8398 66.914 87.7825 67.1322 87.7825C67.3067 87.7825 67.4594 87.8398 67.5848 87.9543C67.7103 88.0688 67.773 88.2025 67.773 88.3552L67.7757 88.3524Z" fill="#231815"/>
<path d="M93.3453 88.9714C93.3453 90.1494 92.9527 91.0984 92.1646 91.8183C91.3766 92.5409 90.3131 92.9008 88.9715 92.9008C88.8024 92.9008 88.4643 92.8926 87.9516 92.879C87.4254 92.8626 87.0736 92.8572 86.8964 92.8572C86.1847 92.8572 85.4948 92.8735 84.8212 92.9035C84.7612 92.9035 84.7285 92.849 84.7285 92.7427C84.7285 92.6472 84.7585 92.5954 84.8212 92.5872C85.1375 92.5491 85.3802 92.4972 85.5493 92.4345C85.7184 92.3718 85.8356 92.2873 85.9011 92.1782C85.9692 92.0719 86.002 91.8837 86.002 91.6165V86.2419C86.002 85.9774 85.9692 85.7919 85.9065 85.6829C85.8438 85.5738 85.7265 85.4865 85.5602 85.4211C85.3911 85.3556 85.1457 85.3038 84.8212 85.2657C84.7612 85.2657 84.7285 85.2138 84.7285 85.1075C84.7285 85.0011 84.7585 84.9493 84.8212 84.9493C85.2684 84.9793 85.9583 84.9957 86.8964 84.9957C87.0709 84.9957 87.4226 84.9902 87.9516 84.9793C88.4643 84.9684 88.8024 84.963 88.9715 84.963C90.2776 84.963 91.3329 85.3366 92.1374 86.0837C92.9418 86.8309 93.3426 87.7934 93.3426 88.9687L93.3453 88.9714ZM92.0828 88.9714C92.0828 87.9298 91.7856 87.0654 91.1911 86.3728C90.5967 85.6829 89.8523 85.3366 88.9579 85.3366H88.9224L87.8453 85.3584C87.3954 85.3747 87.169 85.5956 87.169 86.0237V91.8401C87.169 92.2764 87.3954 92.4945 87.8453 92.4945L88.9224 92.53C89.8114 92.53 90.5612 92.1891 91.1693 91.5101C91.7774 90.8311 92.0801 89.9831 92.0801 88.9687L92.0828 88.9714Z" fill="#231815"/>
<path d="M105.139 89.6477C105.139 89.754 105.071 89.8086 104.932 89.8086H101.79C101.768 90.0158 101.755 90.2285 101.755 90.4494C101.755 91.0656 101.902 91.5374 102.194 91.8673C102.486 92.1973 102.9 92.3636 103.44 92.3636C103.71 92.3636 103.985 92.29 104.258 92.1455C104.534 92.001 104.754 91.8155 104.923 91.5892L104.951 91.5783C104.986 91.5783 105.019 91.6001 105.052 91.641C105.084 91.6819 105.101 91.7337 105.101 91.791C105.101 91.8701 104.978 92.0391 104.733 92.2927C104.487 92.5463 104.223 92.7399 103.936 92.8735C103.65 93.0072 103.35 93.0753 103.036 93.0753C102.349 93.0753 101.771 92.8217 101.299 92.3173C100.83 91.8128 100.596 91.1938 100.596 90.4603C100.596 89.7268 100.825 89.0778 101.286 88.557C101.747 88.0389 102.33 87.7771 103.036 87.7771C103.628 87.7771 104.127 87.9707 104.528 88.3579C104.932 88.7451 105.133 89.1759 105.133 89.645L105.139 89.6477ZM104.094 89.1432C104.094 88.8569 103.996 88.6197 103.8 88.4288C103.604 88.2406 103.35 88.1452 103.042 88.1452C102.734 88.1452 102.494 88.2679 102.276 88.516C102.06 88.7615 101.913 89.086 101.837 89.4868L103.429 89.4404C103.669 89.4377 103.841 89.4132 103.942 89.3723C104.043 89.3314 104.094 89.255 104.094 89.1432Z" fill="#231815"/>
<path d="M116.452 91.4229C116.452 91.8891 116.27 92.2818 115.904 92.5981C115.539 92.9144 115.095 93.0753 114.576 93.0753C114.394 93.0753 114.11 93.0344 113.728 92.9553C113.442 92.8981 113.248 92.8708 113.145 92.8708C113.115 92.6036 113.044 92.1973 112.932 91.6492C112.932 91.5919 112.987 91.5647 113.098 91.5647C113.191 91.5647 113.246 91.5947 113.265 91.6574C113.352 91.941 113.527 92.1864 113.786 92.3963C114.045 92.6063 114.312 92.7127 114.587 92.7127C114.863 92.7127 115.097 92.6336 115.255 92.4781C115.414 92.3227 115.493 92.1018 115.493 91.8183C115.493 91.6383 115.427 91.4801 115.296 91.3438C115.165 91.2074 114.879 91.0356 114.44 90.8339C113.862 90.5694 113.483 90.3212 113.298 90.0894C113.112 89.8549 113.019 89.5768 113.019 89.2523C113.019 88.8514 113.194 88.5051 113.54 88.2188C113.887 87.9298 114.298 87.7852 114.773 87.7852C114.972 87.7852 115.25 87.8207 115.61 87.8889C115.809 87.927 115.94 87.9461 116 87.9461C116.011 88.3961 116.035 88.7805 116.073 89.0969C116.073 89.1541 116.019 89.1814 115.907 89.1814C115.812 89.1814 115.757 89.1514 115.746 89.0914C115.705 88.8133 115.599 88.5869 115.433 88.4124C115.266 88.2379 115.065 88.1506 114.833 88.1506C114.238 88.1506 113.941 88.4097 113.941 88.9305C113.941 89.105 114.012 89.2687 114.151 89.4186C114.293 89.5686 114.598 89.7595 115.07 89.9967C115.634 90.2803 116.005 90.523 116.183 90.7302C116.363 90.9375 116.45 91.1693 116.45 91.4283L116.452 91.4229Z" fill="#231815"/>
<path d="M126.744 92.7427C126.744 92.849 126.714 92.9035 126.651 92.9035C126.496 92.9035 126.294 92.8926 126.048 92.8681C125.776 92.8463 125.544 92.8326 125.358 92.8326C125.173 92.8326 124.941 92.8436 124.674 92.8681C124.434 92.8899 124.235 92.9035 124.077 92.9035C124.017 92.9035 123.984 92.849 123.984 92.7427C123.984 92.6472 124.014 92.5954 124.077 92.5872C124.401 92.5463 124.611 92.4672 124.704 92.3527C124.797 92.2382 124.843 91.9955 124.843 91.6192V89.5032C124.843 89.1978 124.805 88.9987 124.726 88.9033C124.647 88.8078 124.478 88.7451 124.213 88.7151C124.153 88.7151 124.12 88.6633 124.12 88.5624C124.12 88.4697 124.15 88.4206 124.21 88.4206C124.611 88.317 124.939 88.2079 125.192 88.0907C125.448 87.9734 125.607 87.878 125.672 87.8016C125.71 87.7553 125.751 87.7334 125.797 87.7334C125.904 87.7334 125.958 87.7634 125.958 87.8262C125.898 88.6824 125.866 89.3477 125.866 89.8195V91.6192C125.866 91.9928 125.912 92.2382 126.005 92.3527C126.097 92.4672 126.31 92.5463 126.643 92.5872C126.703 92.5954 126.736 92.6472 126.736 92.7427H126.744ZM125.942 85.8138C125.942 85.9746 125.885 86.1137 125.767 86.231C125.65 86.3482 125.511 86.4082 125.345 86.4082C125.178 86.4082 125.039 86.3482 124.925 86.231C124.808 86.1137 124.75 85.9719 124.75 85.8138C124.75 85.6556 124.808 85.5056 124.922 85.3911C125.037 85.2766 125.178 85.2193 125.345 85.2193C125.511 85.2193 125.65 85.2766 125.767 85.3911C125.885 85.5056 125.942 85.6474 125.942 85.8138Z" fill="#231815"/>
<path d="M139.263 88.6278C139.263 88.8351 139.214 88.9387 139.113 88.9387L138.385 88.9169C138.469 89.135 138.51 89.3559 138.51 89.5822C138.51 90.1331 138.308 90.5912 137.907 90.9566C137.507 91.322 137.013 91.5074 136.432 91.5074H136.203C135.898 91.5074 135.658 91.5483 135.478 91.6274C135.298 91.7064 135.211 91.8019 135.211 91.9082C135.211 92.0418 135.284 92.1509 135.434 92.2382C135.584 92.3227 135.791 92.3691 136.056 92.3718L137.381 92.3882C137.954 92.3991 138.398 92.5191 138.715 92.7481C139.034 92.9772 139.192 93.2962 139.192 93.7052C139.192 94.3242 138.856 94.8641 138.183 95.3277C137.512 95.7885 136.716 96.0203 135.797 96.0203C135.194 96.0203 134.687 95.8731 134.273 95.5786C133.858 95.2841 133.654 94.9268 133.654 94.5069C133.654 94.2233 133.784 93.9479 134.046 93.6807C134.308 93.4107 134.616 93.2144 134.973 93.089C134.736 92.9826 134.543 92.8299 134.395 92.6336C134.245 92.4372 134.172 92.2409 134.172 92.0446C134.172 91.9055 134.311 91.7583 134.592 91.6028C134.872 91.4474 135.164 91.3411 135.467 91.2865C135.137 91.1256 134.883 90.9129 134.698 90.6457C134.515 90.3785 134.423 90.0813 134.423 89.7513C134.423 89.225 134.627 88.7642 135.033 88.3688C135.44 87.9761 135.922 87.7771 136.484 87.7771C136.781 87.7771 137.073 87.8289 137.362 87.9325C137.651 88.0361 137.888 88.1752 138.076 88.3497L139.113 88.3143C139.211 88.3143 139.263 88.4179 139.263 88.6251V88.6278ZM138.477 94.1333C138.477 93.8716 138.39 93.6807 138.216 93.5689C138.041 93.4544 137.749 93.3944 137.34 93.3862L136.01 93.3589C135.745 93.3589 135.513 93.3207 135.311 93.2444C134.845 93.5007 134.613 93.8361 134.613 94.2506C134.613 94.6269 134.772 94.935 135.088 95.1695C135.404 95.4041 135.808 95.5213 136.296 95.5213C136.885 95.5213 137.395 95.3877 137.826 95.1205C138.256 94.8532 138.475 94.526 138.475 94.1361L138.477 94.1333ZM137.438 89.5659C137.438 89.0778 137.362 88.7178 137.212 88.4888C137.062 88.2597 136.819 88.1452 136.489 88.1452C135.857 88.1452 135.541 88.6797 135.541 89.7513C135.541 90.2367 135.614 90.5884 135.761 90.8093C135.909 91.0302 136.151 91.1393 136.489 91.1393C137.122 91.1393 137.438 90.6157 137.438 89.5686V89.5659Z" fill="#231815"/>
<path d="M152.283 92.7427C152.283 92.849 152.253 92.9036 152.191 92.9036C152.038 92.9036 151.85 92.8927 151.629 92.8681C151.383 92.8463 151.168 92.8327 150.983 92.8327C150.797 92.8327 150.574 92.8436 150.325 92.8681C150.102 92.8899 149.911 92.9036 149.761 92.9036C149.701 92.9036 149.668 92.849 149.668 92.7427C149.668 92.6472 149.698 92.5954 149.761 92.5872C150.026 92.5572 150.197 92.4836 150.279 92.3636C150.361 92.2464 150.402 91.9982 150.402 91.6192V89.705C150.402 89.2769 150.317 88.9633 150.148 88.7642C149.979 88.5651 149.72 88.467 149.368 88.467C149.147 88.467 148.951 88.5079 148.782 88.5924C148.613 88.677 148.43 88.8269 148.234 89.0396V91.6192C148.234 91.9982 148.275 92.2464 148.357 92.3636C148.438 92.4809 148.61 92.5572 148.875 92.5872C148.935 92.5954 148.968 92.6472 148.968 92.7427C148.968 92.849 148.938 92.9036 148.875 92.9036C148.719 92.9036 148.526 92.8927 148.302 92.8681C148.054 92.8463 147.836 92.8327 147.648 92.8327C147.46 92.8327 147.25 92.8436 147.007 92.8681C146.781 92.8899 146.59 92.9036 146.434 92.9036C146.374 92.9036 146.342 92.849 146.342 92.7427C146.342 92.6472 146.372 92.5954 146.434 92.5872C146.761 92.5463 146.974 92.4673 147.07 92.35C147.165 92.2328 147.214 91.9901 147.214 91.6192V89.5032C147.214 89.1978 147.176 88.9987 147.097 88.9033C147.018 88.8078 146.843 88.7451 146.573 88.7151C146.513 88.7151 146.483 88.6633 146.483 88.5624C146.483 88.4697 146.513 88.4206 146.573 88.4206C146.952 88.3252 147.266 88.2161 147.52 88.0961C147.773 87.9762 147.931 87.878 147.994 87.8016C148.032 87.7553 148.073 87.7335 148.119 87.7335C148.226 87.7335 148.28 87.7635 148.28 87.8262L148.234 88.5488C148.782 88.0361 149.295 87.7798 149.766 87.7798C150.285 87.7798 150.691 87.9298 150.983 88.227C151.274 88.5242 151.422 88.9278 151.422 89.4296V91.6192C151.422 91.9928 151.468 92.2382 151.561 92.3527C151.653 92.4673 151.863 92.5463 152.188 92.5872C152.248 92.5954 152.281 92.6472 152.281 92.7427H152.283Z" fill="#231815"/>
</g>
<defs>
<clipPath id="clip0_198_685">
<rect width="177.782" height="96.0203" fill="white"/>
</clipPath>
</defs>
</svg>
