<svg width="147" height="33" viewBox="0 0 147 33" fill="none" xmlns="http://www.w3.org/2000/svg">
<path d="M25 25L1 1" stroke="white"/>
<path d="M94.0723 9.01599C94.0723 8.16799 94.0803 7.44799 94.0963 6.85599C94.1283 6.24799 94.1443 5.64799 94.1443 5.05599C94.1443 4.49599 94.1363 3.88799 94.1203 3.23199C94.1203 2.57599 94.1123 1.91199 94.0963 1.23999C94.4963 1.31999 94.8323 1.35999 95.1043 1.35999C95.3603 1.35999 95.6883 1.31999 96.0883 1.23999C96.0083 2.19999 95.9443 3.25599 95.8963 4.40799C95.8643 5.54399 95.8483 6.71199 95.8483 7.91199C95.8483 8.74399 95.9203 9.38399 96.0643 9.83199C96.2083 10.264 96.3843 10.592 96.5923 10.816C96.8163 11.072 97.0963 11.288 97.4323 11.464C97.7843 11.624 98.1923 11.704 98.6563 11.704C99.3283 11.704 99.8883 11.56 100.336 11.272C100.784 10.968 101.112 10.6 101.32 10.168C101.432 9.89599 101.52 9.66399 101.584 9.47199C101.648 9.27999 101.696 9.02399 101.728 8.70399C101.776 8.38399 101.8 7.95199 101.8 7.40799C101.816 6.86399 101.824 6.11999 101.824 5.17599V3.15999C101.824 2.80799 101.816 2.47199 101.8 2.15199C101.8 1.83199 101.792 1.52799 101.776 1.23999C101.952 1.27199 102.12 1.30399 102.28 1.33599C102.44 1.35199 102.608 1.35999 102.784 1.35999C102.96 1.35999 103.128 1.35199 103.288 1.33599C103.448 1.30399 103.608 1.27199 103.768 1.23999C103.688 2.48799 103.64 3.69599 103.624 4.86399C103.608 6.01599 103.6 7.23999 103.6 8.53599C103.6 9.25599 103.608 9.95999 103.624 10.648C103.64 11.336 103.664 12 103.696 12.64C103.376 12.608 103.064 12.592 102.76 12.592C102.456 12.592 102.144 12.608 101.824 12.64C101.84 12.496 101.848 12.344 101.848 12.184C101.864 12.024 101.872 11.856 101.872 11.68V10.648H101.824C101.408 11.416 100.872 11.984 100.216 12.352C99.5603 12.704 98.8483 12.88 98.0803 12.88C96.8323 12.88 95.8483 12.552 95.1283 11.896C94.4243 11.224 94.0723 10.264 94.0723 9.01599Z" fill="white"/>
<path d="M87.3601 5.896C87.3601 4.696 87.1281 3.792 86.6641 3.184C86.2001 2.56 85.5601 2.248 84.7441 2.248C83.6241 2.248 82.8001 2.592 82.2721 3.28C81.7601 3.968 81.5041 4.936 81.5041 6.184V8.224C81.5041 8.944 81.5121 9.704 81.5281 10.504C81.5601 11.288 81.6161 12 81.6961 12.64C81.3281 12.608 80.9681 12.592 80.6161 12.592C80.2641 12.592 79.9041 12.608 79.5361 12.64C79.6161 12 79.6641 11.288 79.6801 10.504C79.7121 9.704 79.7281 8.944 79.7281 8.224V5.728C79.7281 5.008 79.7121 4.256 79.6801 3.472C79.6641 2.672 79.6161 1.928 79.5361 1.24C79.9841 1.32 80.3441 1.36 80.6161 1.36C80.7441 1.36 80.8801 1.352 81.0241 1.336C81.1841 1.304 81.3681 1.272 81.5761 1.24C81.5281 1.88 81.5041 2.52 81.5041 3.16H81.5521C82.0001 2.472 82.5361 1.944 83.1601 1.576C83.7841 1.192 84.5281 1 85.3921 1C85.8401 1 86.2881 1.064 86.7361 1.192C87.2001 1.32 87.6161 1.544 87.9841 1.864C88.3521 2.168 88.6481 2.592 88.8721 3.136C89.1121 3.664 89.2321 4.344 89.2321 5.176C89.2321 5.864 89.2161 6.576 89.1841 7.312C89.1521 8.032 89.1361 8.8 89.1361 9.616V11.176C89.1361 11.432 89.1361 11.688 89.1361 11.944C89.1521 12.184 89.1681 12.416 89.1841 12.64C88.8641 12.608 88.5281 12.592 88.1761 12.592C87.8401 12.592 87.5121 12.608 87.1921 12.64C87.2241 11.808 87.2561 10.952 87.2881 10.072C87.3361 9.192 87.3601 8.288 87.3601 7.36V5.896Z" fill="white"/>
<path d="M70.8961 1.768C70.3041 1.768 69.8001 1.904 69.3841 2.176C68.9841 2.448 68.6481 2.792 68.3761 3.208C68.1201 3.608 67.9201 4.056 67.7761 4.552C67.6481 5.032 67.5681 5.488 67.5361 5.92C68.0321 5.936 68.544 5.952 69.0721 5.968C69.6161 5.984 70.1441 5.992 70.6561 5.992C71.1841 5.992 71.7201 5.984 72.2641 5.968C72.8081 5.952 73.3361 5.936 73.8481 5.92C73.8481 5.488 73.8081 5.032 73.7281 4.552C73.6641 4.072 73.5201 3.624 73.2961 3.208C73.0881 2.792 72.7921 2.448 72.4081 2.176C72.0241 1.904 71.5201 1.768 70.8961 1.768ZM65.3521 7.312C65.3521 5.344 65.8161 3.8 66.7441 2.68C67.6881 1.56 69.0561 1 70.8481 1C71.6961 1 72.4241 1.136 73.0321 1.408C73.6561 1.664 74.1761 2.016 74.5921 2.464C75.0081 2.896 75.3121 3.408 75.5041 4C75.7121 4.592 75.8161 5.224 75.8161 5.896C75.8161 6.056 75.8081 6.216 75.7921 6.376C75.7921 6.52 75.7841 6.672 75.7681 6.832C74.9041 6.816 74.0481 6.8 73.2001 6.784C72.3521 6.768 71.4961 6.76 70.6321 6.76C70.1041 6.76 69.5761 6.768 69.048 6.784C68.536 6.8 68.0161 6.816 67.4881 6.832C67.4721 6.912 67.4641 7.032 67.4641 7.192V7.504C67.4641 8.128 67.5521 8.712 67.7281 9.256C67.9201 9.8 68.1921 10.272 68.5441 10.672C68.8961 11.056 69.3281 11.368 69.8401 11.608C70.3521 11.832 70.9441 11.944 71.6161 11.944C71.9361 11.944 72.2641 11.904 72.6001 11.824C72.9361 11.728 73.2641 11.608 73.5841 11.464C73.9041 11.304 74.2001 11.12 74.4721 10.912C74.7601 10.704 75.0081 10.48 75.2161 10.24L75.3361 10.312L75.1921 11.488C74.7121 11.872 74.1121 12.2 73.3921 12.472C72.6881 12.744 71.9521 12.88 71.1841 12.88C70.3201 12.88 69.5281 12.752 68.8081 12.496C68.1041 12.224 67.4881 11.84 66.9601 11.344C66.4481 10.832 66.048 10.232 65.76 9.544C65.488 8.856 65.3521 8.112 65.3521 7.312Z" fill="white"/>
<path d="M45.192 5.728C45.192 5.008 45.176 4.256 45.144 3.472C45.128 2.672 45.08 1.928 45 1.24C45.448 1.32 45.808 1.36 46.08 1.36C46.208 1.36 46.344 1.352 46.488 1.336C46.648 1.304 46.832 1.272 47.04 1.24C46.992 1.88 46.968 2.52 46.968 3.16H47.016C47.864 1.72 49.056 1 50.592 1C50.992 1 51.384 1.064 51.768 1.192C52.152 1.304 52.496 1.464 52.8 1.672C53.12 1.88 53.392 2.136 53.616 2.44C53.84 2.728 53.992 3.04 54.072 3.376H54.12C54.504 2.608 55.024 2.024 55.68 1.624C56.352 1.208 57.12 1 57.984 1C58.512 1 59 1.072 59.448 1.216C59.896 1.36 60.28 1.584 60.6 1.888C60.936 2.192 61.192 2.584 61.368 3.064C61.56 3.544 61.656 4.12 61.656 4.792C61.656 5.064 61.648 5.36 61.632 5.68C61.616 6 61.6 6.376 61.584 6.808C61.568 7.224 61.552 7.704 61.536 8.248C61.52 8.776 61.512 9.392 61.512 10.096C61.512 10.528 61.512 10.944 61.512 11.344C61.528 11.744 61.552 12.176 61.584 12.64C61.408 12.608 61.232 12.592 61.056 12.592C60.88 12.592 60.712 12.592 60.552 12.592C60.376 12.592 60.2 12.592 60.024 12.592C59.848 12.592 59.672 12.608 59.496 12.64C59.544 12.24 59.592 11.432 59.64 10.216C59.704 9 59.736 7.304 59.736 5.128C59.736 4.728 59.688 4.352 59.592 4C59.512 3.648 59.376 3.344 59.184 3.088C58.992 2.832 58.736 2.632 58.416 2.488C58.096 2.328 57.696 2.248 57.216 2.248C56.64 2.248 56.152 2.36 55.752 2.584C55.352 2.808 55.04 3.072 54.816 3.376C54.688 3.552 54.584 3.728 54.504 3.904C54.44 4.08 54.384 4.352 54.336 4.72C54.304 5.072 54.28 5.576 54.264 6.232C54.248 6.872 54.24 7.76 54.24 8.896C54.24 9.584 54.248 10.216 54.264 10.792C54.296 11.352 54.328 11.968 54.36 12.64C53.992 12.608 53.64 12.592 53.304 12.592C52.968 12.592 52.616 12.608 52.248 12.64C52.328 11.76 52.384 10.864 52.416 9.952C52.448 9.04 52.464 8.144 52.464 7.264C52.464 6.512 52.456 5.928 52.44 5.512C52.44 5.08 52.424 4.744 52.392 4.504C52.36 4.248 52.312 4.04 52.248 3.88C52.2 3.72 52.128 3.544 52.032 3.352C51.856 3.048 51.576 2.792 51.192 2.584C50.824 2.36 50.44 2.248 50.04 2.248C48.984 2.248 48.208 2.592 47.712 3.28C47.216 3.968 46.968 4.936 46.968 6.184V8.224C46.968 8.944 46.976 9.704 46.992 10.504C47.024 11.288 47.08 12 47.16 12.64C46.792 12.608 46.432 12.592 46.08 12.592C45.728 12.592 45.368 12.608 45 12.64C45.08 12 45.128 11.288 45.144 10.504C45.176 9.704 45.192 8.944 45.192 8.224V5.728Z" fill="white"/>
</svg>
