<svg width="625" height="625" viewBox="0 0 625 625" fill="none" xmlns="http://www.w3.org/2000/svg">
<path d="M624.5 312.5C624.5 484.813 484.813 624.5 312.5 624.5C140.187 624.5 0.5 484.813 0.5 312.5C0.5 140.187 140.187 0.5 312.5 0.5C484.813 0.5 624.5 140.187 624.5 312.5Z" stroke="white"/>
<path d="M577.642 320.791C577.31 321.907 577.108 323.081 577.037 324.312C576.977 325.344 577.032 326.416 577.201 327.527C577.371 328.639 577.729 329.661 578.276 330.595C578.854 331.563 579.659 332.361 580.691 332.988C581.755 333.651 583.135 334.031 584.832 334.13C586.263 334.213 587.439 334.08 588.361 333.733C589.283 333.386 590.014 332.861 590.556 332.157C591.096 331.488 591.478 330.642 591.705 329.62C591.964 328.6 592.131 327.441 592.207 326.143L592.467 321.65L577.642 320.791ZM581.623 316.915C583.819 317.042 585.968 317.117 588.07 317.139C590.204 317.195 592.372 317.238 594.574 317.265C594.461 318.06 594.348 318.855 594.236 319.649C594.154 320.479 594.09 321.294 594.044 322.092C594.021 322.492 594.009 322.975 594.01 323.543C594.01 324.11 593.994 324.677 593.962 325.243C593.96 325.844 593.961 326.411 593.963 326.946C593.965 327.48 593.956 327.93 593.935 328.296C593.906 328.796 593.854 329.41 593.778 330.14C593.702 330.871 593.558 331.63 593.345 332.419C593.131 333.242 592.834 334.042 592.455 334.822C592.076 335.601 591.552 336.289 590.883 336.884C590.212 337.513 589.383 337.999 588.394 338.343C587.44 338.688 586.263 338.82 584.866 338.739C582.669 338.612 580.917 338.026 579.608 336.982C578.298 335.971 577.301 334.745 576.616 333.303C575.93 331.894 575.499 330.4 575.323 328.821C575.146 327.275 575.092 325.902 575.161 324.704C575.206 323.939 575.246 323.24 575.283 322.608C575.353 321.978 575.44 321.332 575.545 320.67L572.8 320.511C570.604 320.384 568.439 320.292 566.305 320.235C564.169 320.211 562.067 320.19 559.998 320.17C560.109 319.408 560.19 318.595 560.24 317.73C560.29 316.864 560.304 316.047 560.282 315.278C562.339 315.497 564.431 315.702 566.557 315.892C568.681 316.115 570.841 316.29 573.037 316.418L581.623 316.915Z" fill="white"/>
<path d="M578.701 359.002C578.919 357.788 578.825 356.705 578.419 355.752C578.008 354.832 577.426 354.017 576.673 353.306C575.946 352.635 575.101 352.06 574.137 351.583C573.199 351.144 572.293 350.813 571.419 350.589C571.204 351.6 570.984 352.644 570.757 353.721C570.525 354.831 570.315 355.911 570.127 356.961C569.933 358.044 569.753 359.146 569.586 360.267C569.42 361.389 569.259 362.477 569.104 363.533C569.99 363.692 570.94 363.777 571.953 363.789C572.961 363.834 573.933 363.703 574.868 363.396C575.797 363.122 576.611 362.641 577.31 361.954C578.009 361.266 578.473 360.282 578.701 359.002ZM569.366 345.599C573.402 346.321 576.398 347.839 578.354 350.153C580.305 352.5 580.951 355.511 580.294 359.186C579.983 360.925 579.437 362.368 578.656 363.515C577.902 364.701 576.99 365.638 575.918 366.327C574.88 367.021 573.718 367.457 572.434 367.634C571.143 367.843 569.809 367.825 568.431 367.578C568.103 367.519 567.778 367.444 567.455 367.353C567.16 367.3 566.851 367.228 566.529 367.136C566.879 365.37 567.226 363.621 567.57 361.887C567.913 360.154 568.244 358.402 568.561 356.63C568.755 355.547 568.932 354.461 569.093 353.373C569.248 352.317 569.406 351.244 569.566 350.156C569.408 350.094 569.165 350.033 568.837 349.974L568.197 349.86C566.917 349.631 565.688 349.597 564.507 349.759C563.321 349.953 562.254 350.338 561.304 350.913C560.387 351.494 559.589 352.265 558.909 353.227C558.262 354.195 557.815 355.368 557.569 356.746C557.451 357.402 557.413 358.09 557.454 358.808C557.527 359.532 557.653 360.249 557.831 360.958C558.042 361.673 558.311 362.348 558.637 362.982C558.958 363.649 559.327 364.239 559.743 364.754L559.551 364.974L557.192 364.247C556.581 363.122 556.128 361.771 555.834 360.195C555.535 358.651 555.526 357.092 555.808 355.517C556.124 353.745 556.678 352.168 557.467 350.785C558.283 349.441 559.296 348.319 560.507 347.418C561.745 346.556 563.122 345.955 564.639 345.617C566.149 345.312 567.725 345.306 569.366 345.599Z" fill="white"/>
<path d="M561.418 393.289C563.808 394.024 565.75 394.117 567.245 393.566C568.772 393.024 569.785 391.941 570.286 390.317C570.972 388.087 570.793 386.235 569.746 384.762C568.69 383.321 566.92 382.218 564.435 381.452L560.373 380.202C558.94 379.76 557.422 379.31 555.819 378.852C554.238 378.435 552.786 378.11 551.463 377.877C551.752 377.163 552.005 376.456 552.221 375.756C552.437 375.055 552.625 374.328 552.787 373.576C554.013 374.127 555.401 374.66 556.952 375.172C558.525 375.726 560.029 376.224 561.462 376.666L566.432 378.196C567.866 378.637 569.373 379.067 570.953 379.483C572.556 379.942 574.067 380.303 575.486 380.565C575.052 381.408 574.751 382.1 574.585 382.642C574.506 382.897 574.439 383.173 574.382 383.469C574.348 383.807 574.299 384.193 574.235 384.627C572.99 384.139 571.73 383.699 570.456 383.306L570.427 383.402C571.522 384.716 572.245 386.107 572.595 387.575C572.977 389.053 572.903 390.652 572.373 392.372C572.098 393.264 571.696 394.117 571.167 394.93C570.628 395.776 569.926 396.467 569.064 397.003C568.233 397.55 567.207 397.879 565.987 397.991C564.788 398.146 563.361 397.968 561.704 397.457C560.334 397.036 558.926 396.567 557.481 396.052C556.067 395.547 554.547 395.044 552.923 394.544L549.817 393.588C549.307 393.431 548.797 393.274 548.287 393.117C547.8 393.002 547.328 392.891 546.872 392.786C547.132 392.168 547.37 391.509 547.586 390.808C547.792 390.139 547.961 389.476 548.093 388.819C549.73 389.393 551.415 389.982 553.148 390.585C554.87 391.22 556.656 391.822 558.503 392.391L561.418 393.289Z" fill="white"/>
<path d="M547.327 405.137C546.955 405.156 546.519 405.239 546.019 405.384C545.505 405.56 544.987 405.789 544.465 406.07C543.959 406.395 543.48 406.786 543.026 407.243C542.559 407.73 542.185 408.294 541.905 408.936C541.652 409.516 541.504 410.106 541.461 410.706C541.404 411.336 541.457 411.923 541.62 412.466C541.77 413.041 542.051 413.563 542.463 414.034C542.876 414.505 543.419 414.887 544.091 415.181C545.038 415.594 545.876 415.632 546.605 415.295C547.351 415.003 548.05 414.526 548.702 413.864C549.384 413.217 550.054 412.473 550.712 411.632C551.37 410.792 552.086 410.067 552.86 409.46C553.665 408.865 554.554 408.453 555.527 408.223C556.487 408.023 557.608 408.203 558.891 408.763C559.9 409.203 560.743 409.771 561.421 410.467C562.13 411.176 562.65 411.985 562.981 412.893C563.313 413.801 563.44 414.802 563.362 415.896C563.316 417.003 563.026 418.167 562.493 419.39C562 420.52 561.434 421.401 560.795 422.031C560.143 422.692 559.542 423.321 558.991 423.917C558.639 423.473 558.174 422.997 557.595 422.49C557.016 421.983 556.557 421.619 556.217 421.398L556.457 420.848C557.296 420.923 558.16 420.736 559.047 420.287C559.934 419.837 560.604 419.093 561.057 418.054C561.257 417.596 561.381 417.104 561.428 416.579C561.475 416.054 561.426 415.542 561.28 415.042C561.135 414.542 560.871 414.063 560.488 413.606C560.106 413.148 559.579 412.773 558.907 412.479C557.929 412.053 557.052 411.979 556.276 412.259C555.516 412.582 554.811 413.074 554.159 413.736C553.506 414.397 552.852 415.147 552.194 415.988C551.567 416.842 550.866 417.573 550.092 418.18C549.348 418.801 548.497 419.212 547.537 419.411C546.564 419.641 545.435 419.477 544.152 418.917C543.266 418.53 542.482 417.952 541.8 417.181C541.104 416.442 540.565 415.552 540.182 414.512C539.817 413.516 539.655 412.427 539.698 411.246C539.771 410.078 540.087 408.852 540.647 407.569C541.26 406.163 541.911 405.047 542.599 404.22C543.287 403.393 543.954 402.738 544.601 402.257C544.918 402.613 545.373 403.03 545.965 403.506C546.575 404.027 547.108 404.387 547.567 404.587L547.327 405.137Z" fill="white"/>
<path d="M557.793 453.889C558.095 454.98 558.074 455.829 557.729 456.439C557.565 456.729 557.276 456.968 556.863 457.155C556.434 457.372 555.988 457.349 555.524 457.086C555.001 456.791 554.679 456.378 554.557 455.85C554.464 455.337 554.4 454.841 554.365 454.362L553.897 445.65L554.931 443.823L557.793 453.889ZM548.557 444.121C549.165 443.048 549.435 441.995 549.369 440.961C549.287 439.957 549.008 438.995 548.533 438.074C548.07 437.2 547.464 436.377 546.712 435.607C545.973 434.882 545.229 434.269 544.478 433.768C543.94 434.651 543.386 435.563 542.815 436.503C542.227 437.473 541.671 438.422 541.145 439.35C540.603 440.308 540.068 441.288 539.538 442.29C539.009 443.293 538.496 444.267 538 445.211C538.783 445.655 539.651 446.05 540.603 446.398C541.539 446.774 542.499 446.973 543.483 446.994C544.451 447.044 545.378 446.861 546.265 446.444C547.153 446.027 547.916 445.252 548.557 444.121ZM544.196 428.38C547.764 430.4 550.087 432.826 551.165 435.658C552.227 438.519 551.838 441.574 549.999 444.822C549.128 446.36 548.134 447.54 547.017 448.363C545.913 449.232 544.741 449.813 543.502 450.107C542.291 450.418 541.051 450.444 539.781 450.184C538.494 449.954 537.241 449.494 536.023 448.804C535.733 448.64 535.451 448.461 535.178 448.268C534.917 448.12 534.649 447.949 534.376 447.756C535.291 446.206 536.199 444.671 537.098 443.15C537.998 441.629 538.891 440.085 539.778 438.519C540.32 437.561 540.847 436.596 541.36 435.622C541.857 434.678 542.361 433.719 542.874 432.745C542.746 432.634 542.536 432.496 542.246 432.332L541.681 432.012C540.549 431.371 539.4 430.931 538.233 430.692C537.05 430.482 535.915 430.49 534.829 430.718C533.771 430.962 532.762 431.425 531.801 432.107C530.87 432.805 530.059 433.763 529.369 434.982C529.041 435.562 528.777 436.198 528.577 436.889C528.406 437.596 528.287 438.314 528.22 439.042C528.181 439.787 528.211 440.512 528.309 441.219C528.39 441.954 528.542 442.634 528.764 443.257L528.51 443.401L526.526 441.933C526.322 440.668 526.343 439.244 526.589 437.66C526.819 436.104 527.328 434.63 528.116 433.238C529.003 431.671 530.048 430.367 531.251 429.324C532.467 428.327 533.795 427.605 535.236 427.156C536.69 426.754 538.188 426.644 539.731 426.828C541.258 427.042 542.746 427.559 544.196 428.38Z" fill="white"/>
<path d="M532.082 470.044C532.807 469.047 533.196 468.031 533.247 466.997C533.279 465.989 533.112 465.002 532.744 464.034C532.384 463.112 531.874 462.226 531.215 461.376C530.563 460.572 529.893 459.878 529.204 459.295C528.57 460.111 527.915 460.954 527.241 461.824C526.548 462.721 525.887 463.6 525.26 464.463C524.612 465.352 523.969 466.265 523.329 467.201C522.69 468.138 522.07 469.047 521.469 469.929C522.197 470.458 523.014 470.95 523.921 471.403C524.808 471.884 525.739 472.19 526.715 472.323C527.67 472.482 528.613 472.405 529.541 472.091C530.47 471.778 531.317 471.095 532.082 470.044ZM529.536 453.909C532.851 456.321 534.884 458.995 535.634 461.931C536.364 464.894 535.631 467.885 533.435 470.904C532.395 472.333 531.274 473.393 530.071 474.084C528.875 474.821 527.644 475.266 526.38 475.418C525.142 475.589 523.907 475.474 522.674 475.072C521.422 474.697 520.23 474.097 519.098 473.274C518.828 473.078 518.568 472.868 518.318 472.645C518.076 472.469 517.829 472.269 517.58 472.046C518.665 470.61 519.741 469.187 520.808 467.778C521.874 466.369 522.936 464.937 523.995 463.481C524.642 462.592 525.276 461.692 525.896 460.783C526.496 459.901 527.107 459.005 527.727 458.096C527.612 457.971 527.419 457.811 527.15 457.615L526.624 457.232C525.573 456.468 524.481 455.9 523.349 455.53C522.197 455.187 521.069 455.067 519.963 455.169C518.885 455.292 517.83 455.637 516.798 456.206C515.793 456.794 514.879 457.654 514.055 458.786C513.663 459.325 513.329 459.927 513.052 460.591C512.802 461.275 512.602 461.974 512.452 462.69C512.33 463.425 512.277 464.149 512.294 464.862C512.291 465.603 512.365 466.295 512.514 466.939L512.246 467.053L510.441 465.37C510.383 464.09 510.565 462.677 510.989 461.131C511.394 459.612 512.067 458.205 513.008 456.911C514.067 455.455 515.253 454.278 516.567 453.379C517.888 452.526 519.29 451.959 520.772 451.677C522.262 451.442 523.763 451.503 525.275 451.861C526.768 452.246 528.188 452.929 529.536 453.909Z" fill="white"/>
<path d="M486.785 517.547C488.26 519.18 489.738 520.742 491.22 522.234C492.699 523.772 494.213 525.324 495.762 526.89C495.395 527.131 495.042 527.361 494.7 527.579C494.381 527.823 494.073 528.078 493.776 528.347C493.479 528.615 493.193 528.895 492.919 529.188C492.667 529.506 492.402 529.834 492.125 530.174C490.725 528.474 489.347 526.799 487.991 525.149C486.633 523.546 485.217 521.928 483.743 520.295L477.979 513.913C476.504 512.28 475.027 510.694 473.548 509.156C472.044 507.64 470.562 506.148 469.103 504.681C469.716 504.217 470.345 503.694 470.988 503.113C471.631 502.533 472.215 501.961 472.739 501.397C474.05 502.998 475.396 504.612 476.776 506.24C478.132 507.891 479.547 509.532 481.021 511.165L484.037 514.504C485.396 513.323 486.706 512.162 487.967 511.023C489.226 509.931 490.524 508.781 491.86 507.575C493.196 506.368 494.483 505.183 495.723 504.019C496.96 502.902 498.235 501.728 499.548 500.497L496.532 497.157C495.058 495.524 493.581 493.939 492.102 492.4C490.598 490.884 489.116 489.392 487.656 487.925C488.27 487.461 488.899 486.939 489.542 486.358C490.185 485.777 490.769 485.205 491.293 484.641C492.604 486.242 493.95 487.857 495.33 489.484C496.686 491.135 498.101 492.776 499.575 494.409L505.339 500.791C506.814 502.424 508.292 503.986 509.773 505.478C511.253 507.016 512.767 508.568 514.316 510.134C513.949 510.375 513.595 510.605 513.254 510.824C512.935 511.067 512.627 511.323 512.33 511.591C512.033 511.859 511.747 512.139 511.473 512.432C511.22 512.75 510.956 513.078 510.679 513.418C509.279 511.719 507.901 510.044 506.545 508.393C505.187 506.79 503.771 505.172 502.296 503.539L501.123 502.241C499.765 503.422 498.456 504.559 497.197 505.652C495.913 506.766 494.603 507.927 493.267 509.133C491.932 510.34 490.656 511.514 489.442 512.656C488.202 513.82 486.926 515.017 485.612 516.249L486.785 517.547Z" fill="white"/>
<path d="M456.662 528.959C457.018 528.475 457.477 527.963 458.036 527.422C458.568 526.9 459.105 526.355 459.646 525.787C460.205 525.246 460.737 524.664 461.241 524.041C461.716 523.436 462.09 522.8 462.363 522.132C462.607 521.483 462.712 520.807 462.679 520.104C462.618 519.421 462.326 518.693 461.802 517.92C460.923 516.624 459.886 515.897 458.692 515.74C457.498 515.583 456.446 515.814 455.536 516.431C454.487 517.142 453.732 518.077 453.27 519.237C452.78 520.415 452.562 521.549 452.617 522.639L456.662 528.959ZM471.878 529.392C471.273 531.172 470.559 532.583 469.735 533.625C468.911 534.667 467.948 535.562 466.844 536.311C465.851 536.984 464.838 537.45 463.804 537.708C462.79 537.993 461.805 538.057 460.852 537.898C459.917 537.767 459.022 537.427 458.167 536.879C457.331 536.359 456.604 535.643 455.987 534.733C454.92 533.161 453.881 531.569 452.87 529.96C451.877 528.377 450.792 526.717 449.613 524.979C449.388 524.648 449.145 524.29 448.883 523.903C448.612 523.564 448.319 523.279 448.003 523.051C447.705 522.85 447.394 522.718 447.07 522.656C446.719 522.612 446.336 522.731 445.922 523.012C445.784 523.105 445.646 523.199 445.508 523.292C445.362 523.432 445.247 523.59 445.165 523.767L444.548 522.856C444.758 522.513 445.069 522.14 445.482 521.739C445.867 521.357 446.336 520.979 446.888 520.605C447.77 520.006 448.596 519.768 449.364 519.892C450.151 520.043 450.829 520.449 451.399 521.11C451.718 519.443 452.202 518.048 452.849 516.924C453.497 515.8 454.524 514.761 455.931 513.807C456.62 513.339 457.362 512.977 458.155 512.721C458.948 512.465 459.756 512.38 460.58 512.466C461.376 512.571 462.145 512.814 462.888 513.197C463.621 513.625 464.26 514.24 464.802 515.04C465.925 516.695 466.284 518.324 465.881 519.926C465.45 521.548 464.428 523.128 462.813 524.666C461.491 525.925 460.473 526.917 459.758 527.644C459.034 528.417 458.544 529.031 458.289 529.486C458.006 529.96 457.907 530.349 457.993 530.654C458.097 530.986 458.29 531.359 458.57 531.772C459.038 532.462 459.57 533.068 460.166 533.59C460.762 534.113 461.398 534.486 462.075 534.712C462.751 534.938 463.473 534.992 464.239 534.875C465.024 534.786 465.831 534.46 466.658 533.899C467.762 533.151 468.628 532.201 469.257 531.049C469.858 529.917 470.094 528.75 469.964 527.549L470.419 527.24L471.878 529.392Z" fill="white"/>
<path d="M451.589 555.645C451.927 556.258 451.998 556.904 451.802 557.583C451.606 558.263 451.201 558.771 450.588 559.109C449.975 559.448 449.329 559.518 448.65 559.322C447.97 559.126 447.462 558.721 447.124 558.108C446.785 557.495 446.715 556.849 446.911 556.17C447.107 555.491 447.512 554.982 448.125 554.644C448.738 554.306 449.384 554.235 450.063 554.431C450.742 554.627 451.251 555.032 451.589 555.645ZM442.258 540.178C442.982 541.492 443.768 542.847 444.616 544.245C445.45 545.689 446.286 546.998 447.124 548.172C446.227 548.477 445.53 548.766 445.033 549.04C444.537 549.314 443.921 549.749 443.184 550.346C442.638 549.01 441.991 547.597 441.244 546.105C440.485 544.659 439.743 543.279 439.018 541.965L436.506 537.412C435.782 536.099 435.003 534.721 434.168 533.277C433.321 531.879 432.502 530.637 431.712 529.55C432.416 529.238 433.089 528.905 433.731 528.551C434.373 528.196 435.014 527.805 435.653 527.376C436.151 528.624 436.78 529.971 437.539 531.418C438.286 532.909 439.022 534.312 439.746 535.625L442.258 540.178Z" fill="white"/>
<path d="M418.505 557.928C418.739 558.041 419.119 558.07 419.643 558.015C420.137 557.974 420.611 557.85 421.066 557.643C421.795 557.312 422.372 556.849 422.797 556.253C423.222 555.658 423.501 554.982 423.633 554.226C423.78 553.5 423.78 552.695 423.634 551.809C423.502 550.954 423.236 550.086 422.837 549.206L420.563 544.198C419.639 542.165 418.929 540.602 418.433 539.509C417.921 538.461 417.467 537.623 417.073 536.997C417.707 536.782 418.328 536.537 418.935 536.261C419.603 535.958 420.227 535.638 420.806 535.302C421.183 536.375 421.772 537.792 422.571 539.552C423.354 541.357 424.331 543.549 425.503 546.129L426.164 547.585C426.702 548.769 427.337 550.128 428.07 551.662C428.773 553.21 429.625 554.965 430.626 556.927C430.264 557.018 429.918 557.102 429.587 557.179C429.27 557.286 428.944 557.416 428.61 557.567C428.337 557.691 428.055 557.837 427.766 558.006C427.49 558.204 427.199 558.409 426.892 558.622C426.518 557.474 426.201 556.575 425.942 555.923C425.652 555.286 425.377 554.679 425.115 554.102L425.003 554.098C424.701 558.189 423.442 560.738 421.226 561.744C420.953 561.868 420.719 561.956 420.523 562.008C420.296 562.075 420.004 562.116 419.645 562.132C419.632 561.699 419.468 561.096 419.154 560.324C418.853 559.582 418.565 558.907 418.29 558.3L418.505 557.928Z" fill="white"/>
<path d="M390.585 570.515C391.088 572.657 391.627 574.739 392.204 576.761C392.757 578.822 393.333 580.913 393.932 583.032C392.684 583.256 391.452 583.477 390.236 583.694C388.995 583.95 387.758 584.224 386.525 584.513C385.292 584.802 384.082 585.12 382.897 585.467C381.686 585.853 380.465 586.191 379.232 586.481C376.376 587.151 373.854 587.348 371.667 587.074C369.448 586.807 367.525 586.129 365.9 585.038C364.282 583.979 362.945 582.512 361.889 580.637C360.807 578.802 359.974 576.636 359.388 574.137C358.626 570.892 358.551 568.016 359.161 565.51C359.747 563.045 360.756 560.925 362.189 559.151C363.589 557.384 365.275 555.962 367.248 554.883C369.195 553.844 371.126 553.1 373.041 552.65C374.144 552.392 375.235 552.153 376.314 551.934C377.392 551.715 378.483 551.476 379.587 551.217C380.69 550.959 381.777 550.704 382.848 550.452C383.919 550.201 384.999 549.914 386.087 549.59C386.461 551.625 386.86 553.688 387.282 555.78C387.672 557.88 388.118 560.001 388.621 562.143L390.585 570.515ZM384.629 563.079C383.807 559.574 382.903 556.157 381.916 552.828C381.197 552.826 380.241 552.913 379.05 553.089C377.867 553.299 376.658 553.548 375.425 553.837C373.64 554.256 371.905 554.886 370.219 555.726C368.533 556.567 367.129 557.735 366.008 559.231C364.854 560.734 364.075 562.594 363.671 564.812C363.242 567.07 363.404 569.805 364.158 573.018C364.82 575.841 365.722 578.078 366.862 579.727C367.97 581.385 369.262 582.588 370.739 583.337C372.191 584.127 373.807 584.518 375.585 584.511C377.372 584.537 379.271 584.314 381.283 583.842C382.744 583.5 384.095 583.131 385.338 582.737C386.581 582.343 387.69 581.963 388.665 581.597C388.397 580.016 388.094 578.358 387.755 576.623C387.392 574.928 387.005 573.204 386.594 571.452L384.629 563.079Z" fill="white"/>
<path d="M338.585 581.465C339.813 581.351 340.832 580.972 341.643 580.327C342.42 579.686 343.051 578.908 343.535 577.992C343.989 577.113 344.318 576.146 344.521 575.089C344.694 574.069 344.772 573.107 344.755 572.205C343.723 572.267 342.658 572.333 341.56 572.401C340.428 572.473 339.331 572.558 338.269 572.656C337.174 572.758 336.064 572.878 334.938 573.016C333.813 573.154 332.721 573.288 331.662 573.42C331.745 574.316 331.916 575.255 332.174 576.235C332.399 577.218 332.784 578.12 333.329 578.94C333.84 579.763 334.521 580.419 335.37 580.91C336.219 581.4 337.29 581.585 338.585 581.465ZM349.018 568.897C349.397 572.979 348.732 576.272 347.022 578.774C345.279 581.279 342.55 582.704 338.832 583.049C337.073 583.212 335.537 583.07 334.223 582.623C332.879 582.212 331.733 581.582 330.784 580.733C329.838 579.917 329.108 578.913 328.596 577.722C328.051 576.534 327.713 575.243 327.584 573.849C327.553 573.517 327.539 573.184 327.541 572.849C327.513 572.55 327.501 572.233 327.503 571.898C329.299 571.765 331.077 571.633 332.839 571.503C334.602 571.373 336.379 571.225 338.171 571.059C339.267 570.957 340.36 570.839 341.452 570.704C342.511 570.572 343.587 570.439 344.679 570.304C344.697 570.135 344.691 569.884 344.66 569.552L344.6 568.905C344.48 567.611 344.185 566.416 343.715 565.322C343.212 564.23 342.557 563.303 341.749 562.541C340.945 561.813 339.989 561.249 338.881 560.849C337.776 560.483 336.526 560.365 335.132 560.494C334.468 560.556 333.795 560.702 333.114 560.933C332.435 561.196 331.778 561.509 331.142 561.869C330.509 562.262 329.93 562.701 329.406 563.185C328.849 563.672 328.377 564.184 327.992 564.722L327.729 564.596L327.802 562.129C328.723 561.24 329.905 560.444 331.346 559.741C332.754 559.041 334.255 558.617 335.848 558.469C337.64 558.303 339.308 558.416 340.851 558.808C342.363 559.237 343.715 559.915 344.906 560.842C346.067 561.806 347.012 562.974 347.742 564.345C348.438 565.72 348.864 567.237 349.018 568.897Z" fill="white"/>
<path d="M316.953 564.796C316.791 564.46 316.547 564.09 316.22 563.685C315.859 563.279 315.448 562.889 314.987 562.516C314.493 562.175 313.947 561.883 313.351 561.64C312.721 561.397 312.056 561.27 311.356 561.259C310.723 561.25 310.122 561.34 309.552 561.531C308.949 561.722 308.428 561.998 307.989 562.357C307.517 562.717 307.143 563.178 306.868 563.74C306.592 564.303 306.449 564.951 306.438 565.684C306.422 566.717 306.709 567.505 307.301 568.048C307.859 568.623 308.569 569.084 309.43 569.431C310.291 569.811 311.236 570.142 312.265 570.424C313.294 570.707 314.238 571.088 315.098 571.568C315.957 572.082 316.68 572.743 317.267 573.552C317.822 574.361 318.088 575.465 318.066 576.865C318.049 577.965 317.851 578.962 317.47 579.856C317.089 580.783 316.543 581.575 315.833 582.231C315.123 582.887 314.248 583.39 313.21 583.741C312.17 584.125 310.984 584.306 309.651 584.286C308.418 584.267 307.387 584.084 306.559 583.738C305.697 583.391 304.885 583.079 304.123 582.8C304.397 582.304 304.657 581.692 304.901 580.962C305.146 580.232 305.305 579.668 305.378 579.269L305.978 579.278C306.232 580.082 306.737 580.807 307.494 581.452C308.251 582.097 309.196 582.428 310.329 582.446C310.829 582.454 311.33 582.378 311.833 582.219C312.335 582.06 312.789 581.817 313.194 581.49C313.599 581.163 313.939 580.735 314.214 580.206C314.489 579.677 314.632 579.045 314.644 578.312C314.66 577.246 314.39 576.408 313.832 575.799C313.241 575.223 312.515 574.762 311.653 574.415C310.792 574.069 309.847 573.754 308.818 573.472C307.788 573.222 306.844 572.858 305.984 572.378C305.124 571.931 304.417 571.303 303.863 570.495C303.275 569.686 302.992 568.581 303.014 567.181C303.029 566.215 303.26 565.268 303.708 564.342C304.122 563.415 304.735 562.574 305.547 561.82C306.325 561.098 307.267 560.529 308.374 560.113C309.48 559.73 310.733 559.549 312.133 559.571C313.666 559.595 314.947 559.765 315.975 560.08C317.004 560.396 317.865 560.76 318.559 561.171C318.352 561.601 318.143 562.181 317.932 562.911C317.687 563.674 317.56 564.305 317.552 564.805L316.953 564.796Z" fill="white"/>
<path d="M289.351 591.593C289.281 592.289 288.973 592.861 288.425 593.308C287.878 593.756 287.256 593.945 286.559 593.875C285.863 593.805 285.291 593.496 284.843 592.948C284.396 592.401 284.207 591.779 284.277 591.082C284.347 590.386 284.656 589.814 285.203 589.366C285.751 588.919 286.373 588.73 287.069 588.8C287.766 588.87 288.338 589.179 288.785 589.727C289.233 590.274 289.421 590.896 289.351 591.593ZM290.461 573.563C290.311 575.056 290.188 576.618 290.09 578.25C289.957 579.911 289.901 581.463 289.924 582.906C289.012 582.647 288.274 582.489 287.71 582.432C287.146 582.376 286.392 582.383 285.446 582.456C285.755 581.046 286.027 579.516 286.26 577.864C286.456 576.242 286.63 574.685 286.78 573.193L287.3 568.019C287.45 566.526 287.592 564.949 287.726 563.288C287.823 561.656 287.855 560.168 287.823 558.825C288.579 558.968 289.322 559.076 290.052 559.15C290.781 559.223 291.531 559.265 292.3 559.275C292.001 560.585 291.753 562.051 291.557 563.673C291.324 565.325 291.132 566.897 290.982 568.389L290.461 573.563Z" fill="white"/>
<path d="M260.671 549.233C260.289 551.196 260.594 552.682 261.586 553.69C262.579 554.698 264.4 555.46 267.05 555.976C269.504 556.454 271.478 556.431 272.972 555.907C274.473 555.35 275.427 554.025 275.835 551.931C276.052 550.818 276.057 549.834 275.849 548.979C275.61 548.117 275.227 547.381 274.701 546.769C274.142 546.151 273.443 545.641 272.604 545.24C271.765 544.839 270.839 544.54 269.825 544.342C268.843 544.151 267.852 544.094 266.853 544.171C265.853 544.248 264.942 544.478 264.12 544.861C263.266 545.238 262.53 545.791 261.913 546.52C261.302 547.216 260.888 548.12 260.671 549.233ZM259.184 571C258.783 573.061 258.968 574.727 259.739 575.998C260.51 577.269 261.698 578.06 263.301 578.373C265.068 578.717 266.56 578.379 267.777 577.359C268.988 576.373 269.788 574.881 270.176 572.885C270.577 570.824 270.454 569.102 269.807 567.72C269.12 566.363 267.828 565.5 265.93 565.131C264.981 564.946 264.144 564.97 263.42 565.203C262.656 565.461 262.001 565.86 261.455 566.399C260.87 566.964 260.399 567.637 260.043 568.417C259.649 569.223 259.362 570.084 259.184 571ZM274.004 573.631C273.737 575.005 273.262 576.135 272.58 577.021C271.892 577.94 271.059 578.643 270.081 579.132C269.07 579.615 267.976 579.911 266.8 580.022C265.591 580.126 264.349 580.054 263.073 579.805C262.451 579.684 261.865 579.553 261.315 579.412C260.733 579.265 260.006 579.073 259.136 578.835C258.396 578.623 257.735 578.443 257.152 578.296C256.569 578.149 256.098 578.04 255.738 577.97C253.906 577.613 252.565 577.437 251.715 577.441C251.78 577.284 251.847 577.11 251.918 576.92C251.95 576.757 251.982 576.593 252.014 576.43C252.046 576.266 252.081 576.086 252.119 575.89C252.118 575.72 252.117 575.55 252.117 575.38C253.053 575.63 253.972 575.877 254.876 576.121C255.74 576.391 256.611 576.629 257.488 576.833L257.605 576.754C256.699 576.001 256.05 574.974 255.658 573.675C255.259 572.409 255.181 571.154 255.423 569.911C255.9 567.457 257.111 565.689 259.053 564.607C260.957 563.551 263.299 563.294 266.08 563.836C266.538 563.925 266.993 564.031 267.445 564.152C267.864 564.268 268.302 564.37 268.76 564.459C269.349 564.574 269.947 564.47 270.553 564.146C271.127 563.817 271.477 563.324 271.605 562.67C271.77 561.819 271.695 561.16 271.379 560.69C271.03 560.215 270.302 559.853 269.196 559.603C268.287 559.392 267.393 559.184 266.516 558.98C265.633 558.808 264.736 558.616 263.826 558.405C262.328 558.079 261.087 557.651 260.103 557.12C259.087 556.582 258.306 555.972 257.76 555.288C257.181 554.598 256.815 553.865 256.661 553.087C256.474 552.304 256.463 551.487 256.628 550.636C256.851 549.491 257.307 548.374 257.994 547.285C258.649 546.19 259.543 545.261 260.676 544.497C261.777 543.726 263.124 543.173 264.718 542.838C266.311 542.503 268.139 542.537 270.2 542.938C273.374 543.556 275.752 544.681 277.336 546.314C278.926 547.914 279.508 549.81 279.081 552.002C278.916 552.853 278.615 553.61 278.181 554.272C277.714 554.928 277.18 555.487 276.581 555.947C275.982 556.408 275.34 556.741 274.655 556.948C273.969 557.154 273.283 557.275 272.597 557.311L272.578 557.409C273.535 557.901 274.208 558.542 274.598 559.331C274.988 560.12 275.09 560.989 274.906 561.937C274.797 562.494 274.6 562.982 274.315 563.402C273.997 563.815 273.639 564.17 273.242 564.466C272.844 564.762 272.411 564.983 271.941 565.13C271.471 565.276 271.033 565.344 270.628 565.333L270.609 565.431C271.986 566.378 272.986 567.524 273.607 568.867C274.222 570.243 274.355 571.831 274.004 573.631Z" fill="white"/>
<path d="M228.547 560.331C227.784 562.712 227.67 564.653 228.204 566.154C228.728 567.687 229.799 568.713 231.418 569.231C233.64 569.943 235.494 569.784 236.979 568.755C238.432 567.715 239.555 565.958 240.348 563.482L241.645 559.434C242.103 558.006 242.57 556.493 243.047 554.895C243.481 553.32 243.823 551.871 244.071 550.551C244.781 550.848 245.485 551.109 246.183 551.333C246.881 551.556 247.606 551.753 248.356 551.924C247.791 553.143 247.243 554.525 246.713 556.07C246.141 557.637 245.626 559.135 245.169 560.563L243.582 565.515C243.124 566.944 242.678 568.446 242.243 570.022C241.766 571.619 241.389 573.126 241.11 574.541C240.272 574.098 239.583 573.79 239.044 573.617C238.79 573.536 238.515 573.465 238.219 573.405C237.881 573.367 237.496 573.313 237.063 573.245C237.565 572.006 238.019 570.751 238.426 569.481L238.331 569.451C237.005 570.531 235.606 571.238 234.134 571.571C232.652 571.937 231.054 571.845 229.339 571.295C228.451 571.011 227.602 570.599 226.795 570.06C225.956 569.511 225.273 568.802 224.746 567.934C224.209 567.097 223.891 566.067 223.793 564.846C223.652 563.645 223.846 562.22 224.375 560.569C224.812 559.204 225.297 557.802 225.828 556.362C226.349 554.954 226.869 553.44 227.388 551.821L228.379 548.726C228.542 548.219 228.705 547.711 228.868 547.203C228.988 546.716 229.104 546.246 229.215 545.791C229.829 546.058 230.486 546.304 231.184 546.527C231.851 546.741 232.512 546.918 233.167 547.057C232.575 548.688 231.967 550.366 231.344 552.091C230.69 553.807 230.067 555.585 229.477 557.426L228.547 560.331Z" fill="white"/>
<path d="M217.533 543.725C217.227 544.428 216.7 544.926 215.954 545.219C215.208 545.511 214.484 545.505 213.781 545.198C213.079 544.891 212.581 544.365 212.288 543.619C211.995 542.873 212.002 542.149 212.309 541.446C212.615 540.744 213.135 540.261 213.867 539.999C214.587 539.767 215.298 539.804 216.001 540.111C216.703 540.418 217.214 540.913 217.534 541.598C217.84 542.314 217.84 543.023 217.533 543.725Z" fill="white"/>
<path d="M173.992 538.715C173.188 537.873 172.269 537.115 171.236 536.441C170.371 535.877 169.413 535.392 168.364 534.987C167.315 534.582 166.25 534.385 165.169 534.396C164.041 534.417 162.948 534.72 161.891 535.304C160.788 535.898 159.772 536.907 158.844 538.331C158.061 539.531 157.591 540.618 157.435 541.59C157.279 542.563 157.371 543.459 157.713 544.278C158.026 545.079 158.57 545.832 159.345 546.536C160.101 547.267 161.024 547.988 162.113 548.698L165.883 551.155L173.992 538.715ZM175.379 544.095C174.177 545.938 173.045 547.767 171.982 549.581C170.873 551.404 169.76 553.265 168.642 555.163C168.008 554.67 167.375 554.177 166.741 553.684C166.061 553.201 165.386 552.742 164.716 552.305C164.381 552.086 163.967 551.836 163.474 551.555C162.981 551.273 162.497 550.978 162.022 550.668C161.501 550.369 161.008 550.087 160.543 549.824C160.078 549.56 159.692 549.329 159.385 549.128C158.966 548.855 158.459 548.505 157.863 548.076C157.267 547.648 156.679 547.146 156.1 546.569C155.493 545.974 154.945 545.319 154.457 544.603C153.969 543.887 153.632 543.091 153.447 542.214C153.235 541.32 153.225 540.358 153.418 539.33C153.592 538.33 154.062 537.243 154.826 536.07C156.028 534.227 157.406 532.997 158.962 532.38C160.491 531.745 162.05 531.488 163.642 531.61C165.206 531.714 166.716 532.083 168.174 532.715C169.605 533.329 170.822 533.963 171.828 534.618C172.47 535.037 173.056 535.419 173.587 535.765C174.099 536.139 174.616 536.536 175.139 536.956L176.64 534.652C177.842 532.809 178.997 530.976 180.106 529.152C181.187 527.31 182.25 525.496 183.295 523.71C183.901 524.185 184.567 524.659 185.293 525.132C186.019 525.605 186.721 526.023 187.4 526.386C186.187 528.063 184.971 529.777 183.75 531.527C182.501 533.26 181.276 535.048 180.075 536.891L175.379 544.095Z" fill="white"/>
<path d="M140.374 520.658C141.318 521.451 142.305 521.909 143.333 522.032C144.336 522.133 145.332 522.034 146.324 521.735C147.268 521.439 148.187 520.992 149.081 520.393C149.928 519.799 150.666 519.178 151.296 518.531C150.526 517.842 149.73 517.131 148.909 516.398C148.062 515.644 147.23 514.924 146.413 514.238C145.571 513.531 144.704 512.826 143.815 512.123C142.925 511.42 142.061 510.739 141.223 510.079C140.644 510.768 140.097 511.549 139.582 512.422C139.042 513.274 138.671 514.182 138.472 515.146C138.247 516.088 138.258 517.034 138.507 517.982C138.755 518.93 139.378 519.822 140.374 520.658ZM156.646 519.235C154.01 522.375 151.202 524.218 148.221 524.763C145.215 525.286 142.282 524.348 139.422 521.948C138.068 520.812 137.089 519.62 136.483 518.372C135.83 517.128 135.471 515.87 135.407 514.598C135.322 513.351 135.522 512.127 136.009 510.925C136.47 509.702 137.15 508.554 138.05 507.481C138.264 507.226 138.491 506.981 138.731 506.748C138.924 506.518 139.14 506.286 139.38 506.052C140.737 507.235 142.082 508.406 143.414 509.568C144.746 510.729 146.101 511.888 147.48 513.045C148.323 513.752 149.176 514.446 150.04 515.128C150.879 515.788 151.73 516.459 152.594 517.14C152.727 517.034 152.9 516.853 153.114 516.598L153.532 516.1C154.368 515.104 155.009 514.054 155.457 512.95C155.879 511.825 156.077 510.708 156.051 509.598C156.004 508.514 155.732 507.437 155.236 506.369C154.719 505.325 153.924 504.354 152.852 503.454C152.341 503.025 151.764 502.65 151.121 502.328C150.456 502.031 149.772 501.783 149.068 501.584C148.343 501.411 147.625 501.309 146.912 501.276C146.174 501.223 145.478 501.248 144.825 501.352L144.73 501.077L146.534 499.393C147.815 499.423 149.211 499.703 150.725 500.233C152.212 500.742 153.569 501.51 154.795 502.539C156.174 503.696 157.266 504.961 158.072 506.333C158.832 507.71 159.301 509.148 159.479 510.647C159.61 512.149 159.445 513.643 158.983 515.126C158.496 516.589 157.717 517.958 156.646 519.235Z" fill="white"/>
<path d="M119.612 489.07C117.793 490.786 116.755 492.43 116.497 494.002C116.215 495.597 116.657 497.013 117.824 498.25C119.425 499.947 121.124 500.704 122.922 500.52C124.696 500.312 126.529 499.316 128.42 497.532L131.512 494.616C132.603 493.586 133.743 492.487 134.932 491.319C136.075 490.15 137.073 489.047 137.929 488.011C138.407 488.614 138.897 489.183 139.4 489.716C139.903 490.25 140.442 490.772 141.017 491.284C139.933 492.078 138.785 493.023 137.574 494.12C136.316 495.215 135.142 496.277 134.051 497.307L130.269 500.875C129.178 501.905 128.061 503.004 126.919 504.173C125.729 505.341 124.67 506.478 123.742 507.583C123.223 506.79 122.769 506.187 122.38 505.775C122.197 505.581 121.99 505.386 121.76 505.191C121.483 504.994 121.172 504.761 120.826 504.492C121.864 503.649 122.868 502.771 123.838 501.856L123.769 501.783C122.086 502.088 120.52 502.03 119.07 501.611C117.596 501.214 116.242 500.361 115.006 499.052C114.366 498.373 113.822 497.603 113.376 496.741C112.906 495.855 112.651 494.904 112.61 493.889C112.544 492.897 112.764 491.842 113.268 490.725C113.725 489.606 114.583 488.452 115.844 487.263C116.887 486.279 117.989 485.285 119.15 484.282C120.286 483.301 121.473 482.227 122.71 481.06L125.073 478.83C125.461 478.464 125.849 478.098 126.237 477.732C126.578 477.365 126.907 477.009 127.223 476.664C127.632 477.195 128.088 477.727 128.592 478.26C129.072 478.769 129.565 479.244 130.071 479.683C128.765 480.824 127.422 481.999 126.043 483.209C124.641 484.394 123.236 485.65 121.83 486.977L119.612 489.07Z" fill="white"/>
<path d="M116.526 471.257C116.692 470.923 116.834 470.502 116.952 469.995C117.05 469.462 117.105 468.898 117.116 468.305C117.08 467.705 116.975 467.095 116.799 466.476C116.603 465.83 116.295 465.228 115.872 464.669C115.491 464.164 115.049 463.746 114.548 463.414C114.027 463.056 113.489 462.815 112.935 462.69C112.361 462.539 111.768 462.527 111.155 462.656C110.542 462.785 109.943 463.071 109.358 463.513C108.534 464.136 108.09 464.848 108.026 465.648C107.916 466.442 107.989 467.285 108.245 468.177C108.475 469.09 108.795 470.038 109.206 471.024C109.616 472.009 109.896 472.988 110.046 473.96C110.17 474.953 110.093 475.93 109.817 476.891C109.52 477.826 108.814 478.715 107.697 479.559C106.819 480.222 105.911 480.679 104.972 480.929C104.006 481.199 103.046 481.256 102.092 481.1C101.138 480.943 100.204 480.563 99.2881 479.96C98.3459 479.376 97.4729 478.553 96.669 477.489C95.9254 476.505 95.4354 475.58 95.1989 474.715C94.9423 473.822 94.6893 472.99 94.4398 472.217C94.9995 472.129 95.6422 471.956 96.3679 471.7C97.0937 471.444 97.6362 471.222 97.9955 471.034L98.3573 471.513C97.8798 472.208 97.6195 473.052 97.5765 474.046C97.5335 475.039 97.8536 475.988 98.5369 476.892C98.8383 477.291 99.2063 477.64 99.6407 477.938C100.075 478.237 100.546 478.445 101.053 478.563C101.56 478.681 102.107 478.686 102.693 478.577C103.279 478.468 103.865 478.193 104.45 477.751C105.301 477.108 105.795 476.379 105.932 475.565C106.022 474.745 105.939 473.889 105.683 472.996C105.426 472.104 105.093 471.165 104.682 470.18C104.246 469.215 103.952 468.246 103.802 467.273C103.625 466.32 103.685 465.377 103.982 464.443C104.258 463.481 104.955 462.579 106.072 461.735C106.843 461.152 107.731 460.752 108.737 460.535C109.723 460.292 110.763 460.258 111.857 460.434C112.904 460.603 113.932 460.996 114.941 461.613C115.924 462.249 116.837 463.126 117.681 464.243C118.605 465.466 119.259 466.58 119.643 467.585C120.027 468.591 120.27 469.493 120.373 470.293C119.907 470.395 119.321 470.587 118.615 470.869C117.863 471.145 117.287 471.434 116.888 471.736L116.526 471.257Z" fill="white"/>
<path d="M68.747 456.148C67.6493 455.874 66.9202 455.437 66.5597 454.837C66.3881 454.551 66.3221 454.182 66.3619 453.731C66.3845 453.251 66.6244 452.873 67.0816 452.599C67.596 452.29 68.1133 452.212 68.6336 452.366C69.1253 452.537 69.5884 452.726 70.023 452.931L77.8368 456.812L78.9182 458.612L68.747 456.148ZM81.7964 452.917C82.4315 453.974 83.215 454.728 84.1471 455.179C85.062 455.602 86.0368 455.833 87.0715 455.872C88.0605 455.9 89.0751 455.777 90.1154 455.502C91.11 455.216 92.0101 454.869 92.816 454.463C92.3124 453.56 91.7917 452.629 91.2539 451.668C90.6988 450.68 90.1467 449.728 89.5974 448.814C89.031 447.871 88.4417 446.922 87.8295 445.968C87.2173 445.014 86.6223 444.088 86.0444 443.191C85.2729 443.654 84.5015 444.215 83.7301 444.872C82.9415 445.502 82.2959 446.239 81.7933 447.086C81.2735 447.904 80.9767 448.801 80.9029 449.779C80.8291 450.756 81.1269 451.802 81.7964 452.917ZM97.6449 456.87C94.1303 458.981 90.8751 459.809 87.8794 459.353C84.8665 458.869 82.3988 457.027 80.4763 453.826C79.5666 452.312 79.0285 450.866 78.862 449.488C78.6497 448.099 78.7205 446.793 79.0743 445.569C79.3995 444.363 79.9877 443.271 80.839 442.293C81.6731 441.286 82.6902 440.423 83.8903 439.702C84.1761 439.53 84.4704 439.373 84.7733 439.23C85.0305 439.075 85.3105 438.926 85.6134 438.783C86.5117 440.343 87.4015 441.889 88.2826 443.421C89.1638 444.952 90.0678 446.49 90.9947 448.033C91.5612 448.976 92.1419 449.91 92.7369 450.836C93.3147 451.733 93.9012 452.645 94.4962 453.57C94.6562 453.513 94.8791 453.399 95.1649 453.227L95.7221 452.892C96.8364 452.223 97.785 451.439 98.5677 450.541C99.3332 449.615 99.8844 448.623 100.221 447.565C100.529 446.524 100.623 445.418 100.502 444.246C100.353 443.092 99.918 441.914 99.1971 440.714C98.8538 440.143 98.4305 439.6 97.9272 439.085C97.3952 438.588 96.8291 438.131 96.2286 437.714C95.5996 437.315 94.9534 436.983 94.2901 436.721C93.6097 436.43 92.9436 436.227 92.2919 436.113L92.2917 435.821L94.5464 434.817C95.7471 435.262 96.9766 435.982 98.2347 436.976C99.4758 437.941 100.508 439.11 101.332 440.481C102.259 442.024 102.88 443.576 103.195 445.137C103.465 446.686 103.44 448.198 103.121 449.673C102.755 451.136 102.113 452.494 101.193 453.747C100.256 454.971 99.0736 456.012 97.6449 456.87Z" fill="white"/>
<path d="M67.5658 426.295C68.0799 427.417 68.7751 428.253 69.6515 428.804C70.5139 429.326 71.4571 429.663 72.4811 429.817C73.4609 429.954 74.483 429.944 75.5473 429.786C76.5675 429.612 77.5005 429.367 78.3463 429.053C77.9459 428.099 77.5316 427.116 77.1033 426.102C76.6612 425.058 76.2178 424.051 75.7732 423.082C75.3147 422.082 74.834 421.074 74.3313 420.057C73.8286 419.041 73.3398 418.055 72.8648 417.1C72.0468 417.475 71.218 417.946 70.3785 418.515C69.5251 419.053 68.8017 419.715 68.2085 420.5C67.6013 421.255 67.207 422.114 67.0253 423.078C66.8437 424.041 67.0239 425.114 67.5658 426.295ZM82.879 431.98C79.1522 433.689 75.8254 434.151 72.8985 433.366C69.9578 432.551 67.7093 430.447 66.1531 427.053C65.4167 425.447 65.042 423.951 65.0291 422.563C64.972 421.159 65.187 419.869 65.6741 418.692C66.1309 417.529 66.8365 416.509 67.7908 415.631C68.7313 414.723 69.8378 413.977 71.1103 413.394C71.4133 413.255 71.7233 413.131 72.0402 413.022C72.3129 412.897 72.6076 412.78 72.9245 412.672C73.6446 414.322 74.3576 415.957 75.0637 417.576C75.7699 419.196 76.4981 420.824 77.2484 422.46C77.7069 423.46 78.1806 424.453 78.6694 425.439C79.1444 426.395 79.6262 427.366 80.1151 428.351C80.2805 428.312 80.5147 428.223 80.8177 428.084L81.4085 427.813C82.5902 427.271 83.6197 426.598 84.497 425.792C85.3604 424.956 86.0181 424.031 86.4698 423.017C86.8913 422.017 87.107 420.928 87.1169 419.75C87.0964 418.586 86.7944 417.367 86.2108 416.095C85.933 415.489 85.5724 414.903 85.1291 414.336C84.6555 413.783 84.1434 413.266 83.5928 412.785C83.0119 412.318 82.4064 411.917 81.7763 411.583C81.1323 411.218 80.4928 410.943 79.8577 410.757L79.8898 410.468L82.2418 409.719C83.3859 410.295 84.5281 411.146 85.6684 412.273C86.7949 413.37 87.6916 414.646 88.3585 416.1C89.1088 417.736 89.5542 419.347 89.6947 420.933C89.791 422.502 89.5988 424.002 89.118 425.433C88.5931 426.847 87.8042 428.126 86.7514 429.269C85.6848 430.381 84.394 431.285 82.879 431.98Z" fill="white"/>
<path d="M48.4855 363.462C46.338 363.94 44.2503 364.455 42.2221 365.009C40.1543 365.538 38.0574 366.09 35.9317 366.666C35.9027 366.228 35.8772 365.807 35.8554 365.402C35.801 365.004 35.7304 364.61 35.6435 364.22C35.5566 363.829 35.4534 363.442 35.3339 363.059C35.182 362.683 35.0264 362.291 34.8671 361.883C37.0363 361.502 39.173 361.129 41.2771 360.763C43.3414 360.372 45.4473 359.937 47.5947 359.459L55.9893 357.591C58.1367 357.113 60.2444 356.61 62.3123 356.081C64.373 355.52 66.4011 354.966 68.3966 354.42C68.4981 355.182 68.643 355.987 68.8313 356.833C69.0196 357.679 69.2296 358.469 69.4612 359.203C67.4222 359.554 65.3543 359.929 63.2574 360.327C61.1533 360.693 59.0275 361.115 56.8801 361.593L52.4876 362.571C52.8461 364.335 53.21 366.047 53.5794 367.706C53.9089 369.34 54.2693 371.036 54.6603 372.793C55.0514 374.55 55.4479 376.254 55.8498 377.907C56.2119 379.533 56.6047 381.222 57.0283 382.972L61.4208 381.994C63.5683 381.516 65.676 381.013 67.7438 380.484C69.8045 379.923 71.8326 379.369 73.8282 378.822C73.9297 379.585 74.0746 380.39 74.2629 381.236C74.4512 382.082 74.6611 382.872 74.8928 383.605C72.8537 383.957 70.7858 384.332 68.6889 384.73C66.5848 385.096 64.4591 385.518 62.3116 385.996L53.917 387.864C51.7696 388.342 49.6818 388.858 47.6537 389.412C45.5858 389.941 43.489 390.493 41.3633 391.068C41.3342 390.631 41.3087 390.21 41.2869 389.805C41.2326 389.407 41.1619 389.013 41.075 388.623C40.9881 388.232 40.8849 387.845 40.7655 387.462C40.6135 387.086 40.4579 386.694 40.2987 386.285C42.4679 385.905 44.6045 385.532 46.7086 385.166C48.7729 384.775 50.8788 384.34 53.0263 383.862L54.7345 383.482C54.3759 381.718 54.0319 380.019 53.7023 378.385C53.3655 376.718 53.0016 375.006 52.6105 373.249C52.2194 371.492 51.8266 369.804 51.4319 368.184C51.03 366.532 50.6173 364.831 50.1937 363.081L48.4855 363.462Z" fill="white"/>
<path d="M53.4151 331.301C53.6582 331.851 53.8757 332.502 54.0677 333.257C54.2572 333.977 54.4646 334.714 54.6898 335.465C54.8818 336.219 55.1237 336.97 55.4154 337.716C55.7046 338.429 56.0717 339.069 56.5168 339.637C56.9592 340.171 57.4937 340.598 58.1202 340.917C58.7441 341.203 59.5213 341.31 60.4519 341.238C62.0139 341.118 63.159 340.578 63.8873 339.619C64.6155 338.66 64.9373 337.632 64.8525 336.535C64.7549 335.272 64.3173 334.153 63.5397 333.176C62.7596 332.167 61.8824 331.416 60.9082 330.922L53.4151 331.301ZM45.4934 344.3C44.2478 342.892 43.3768 341.572 42.8804 340.34C42.3839 339.108 42.0844 337.827 41.9816 336.498C41.8891 335.301 41.9871 334.19 42.2756 333.165C42.5309 332.142 42.9639 331.256 43.5746 330.507C44.1521 329.76 44.8908 329.152 45.7905 328.681C46.657 328.213 47.6386 327.936 48.7353 327.851C50.6297 327.705 52.5266 327.592 54.4261 327.512C56.2923 327.434 58.2723 327.315 60.3661 327.153C60.7649 327.122 61.1969 327.089 61.6622 327.053C62.0917 326.986 62.4841 326.872 62.8394 326.711C63.1614 326.552 63.4298 326.348 63.6445 326.097C63.8566 325.813 63.9433 325.422 63.9048 324.924C63.8919 324.757 63.8791 324.591 63.8663 324.425C63.8176 324.228 63.737 324.051 63.6245 323.892L64.7212 323.807C64.9156 324.16 65.0845 324.615 65.2279 325.172C65.3687 325.696 65.4648 326.291 65.5162 326.956C65.5984 328.019 65.3955 328.854 64.9074 329.46C64.3861 330.069 63.6972 330.456 62.8408 330.623C64.1298 331.727 65.1017 332.838 65.7566 333.958C66.4115 335.077 66.8044 336.485 66.9354 338.18C66.9997 339.01 66.9463 339.834 66.7753 340.649C66.6043 341.465 66.2774 342.209 65.7944 342.881C65.3089 343.521 64.716 344.068 64.0157 344.523C63.2795 344.948 62.4296 345.198 61.4658 345.272C59.4717 345.426 57.8788 344.931 56.687 343.786C55.4927 342.608 54.628 340.936 54.0928 338.771C53.655 337 53.2978 335.623 53.0214 334.641C52.7091 333.629 52.4186 332.899 52.15 332.452C51.8789 331.971 51.5899 331.693 51.2831 331.616C50.943 331.542 50.5237 331.525 50.0252 331.563C49.1944 331.627 48.4044 331.789 47.6555 332.047C46.9065 332.306 46.2662 332.673 45.7346 333.149C45.203 333.624 44.7981 334.224 44.5197 334.947C44.208 335.674 44.0908 336.535 44.1678 337.532C44.2706 338.862 44.666 340.085 45.3542 341.202C46.0397 342.285 46.9361 343.069 48.0433 343.552L48.0856 344.1L45.4934 344.3Z" fill="white"/>
<path d="M32.7162 313.36C32.0163 313.35 31.4202 313.09 30.928 312.583C30.4358 312.075 30.1951 311.471 30.2059 310.771C30.2167 310.071 30.4759 309.475 30.9836 308.983C31.4912 308.491 32.095 308.25 32.7949 308.261C33.4948 308.272 34.0909 308.531 34.5831 309.039C35.0754 309.546 35.3161 310.15 35.3053 310.85C35.2944 311.55 35.0352 312.146 34.5276 312.638C34.0199 313.131 33.4161 313.371 32.7162 313.36ZM50.7748 312.939C49.275 312.916 47.708 312.925 46.0739 312.967C44.4069 312.974 42.8555 313.05 41.4198 313.195C41.6008 312.264 41.6957 311.515 41.7045 310.949C41.7132 310.382 41.6415 309.631 41.4893 308.695C42.9199 308.884 44.4679 309.025 46.1333 309.117C47.7659 309.176 49.3321 309.216 50.832 309.24L56.0314 309.32C57.5312 309.343 59.1146 309.351 60.7816 309.343C62.4157 309.302 63.9007 309.208 65.2364 309.062C65.1579 309.828 65.113 310.577 65.1017 311.31C65.0904 312.043 65.1121 312.794 65.167 313.561C63.8364 313.374 62.3547 313.251 60.7221 313.193C59.0567 313.1 57.474 313.043 55.9742 313.019L50.7748 312.939Z" fill="white"/>
<path d="M47.1008 283.506C46.8862 283.653 46.6729 283.968 46.4607 284.451C46.2516 284.9 46.124 285.374 46.0778 285.872C46.0038 286.668 46.1202 287.399 46.4267 288.063C46.7333 288.728 47.1819 289.305 47.7724 289.795C48.3298 290.282 49.0292 290.682 49.8706 290.994C50.6788 291.303 51.5642 291.503 52.5267 291.592L58.0032 292.1C60.2269 292.307 61.9363 292.465 63.1311 292.576C64.2959 292.651 65.248 292.672 65.9874 292.64C65.8594 293.298 65.7646 293.959 65.703 294.623C65.6352 295.353 65.6037 296.053 65.6085 296.723C64.4893 296.519 62.9671 296.327 61.0421 296.148C59.0869 295.934 56.6987 295.695 53.8775 295.433L52.2843 295.285C50.9899 295.165 49.4948 295.043 47.799 294.919C46.1062 294.762 44.16 294.632 41.9601 294.528C42.0604 294.169 42.1591 293.827 42.2563 293.501C42.3203 293.172 42.3693 292.825 42.4032 292.46C42.4309 292.161 42.4435 291.845 42.4412 291.51C42.4056 291.171 42.3716 290.817 42.3391 290.446C43.5216 290.689 44.4598 290.86 45.1538 290.958C45.8508 291.023 46.5146 291.084 47.1452 291.143L47.2042 291.048C43.8014 288.757 42.2124 286.4 42.4373 283.977C42.465 283.678 42.5047 283.431 42.5564 283.235C42.6111 283.006 42.7203 282.731 42.8839 282.412C43.2668 282.614 43.8715 282.771 44.6982 282.881C45.4917 282.988 46.2204 283.073 46.8842 283.134L47.1008 283.506Z" fill="white"/>
<path d="M49.9046 252.899C47.7948 252.275 45.7188 251.714 43.6765 251.214C41.6118 250.674 39.5104 250.139 37.3722 249.612C37.7952 248.416 38.2134 247.236 38.6269 246.072C39.0179 244.867 39.3929 243.657 39.7519 242.442C40.1109 241.227 40.4332 240.019 40.7188 238.818C40.9819 237.575 41.293 236.346 41.652 235.131C42.4834 232.318 43.5596 230.029 44.8806 228.264C46.211 226.468 47.7525 225.133 49.5049 224.261C51.2254 223.379 53.1617 222.943 55.3136 222.954C57.4431 222.923 59.7385 223.271 62.2 223.998C65.3966 224.943 67.9324 226.301 69.8074 228.072C71.6599 229.801 73.0024 231.727 73.8348 233.85C74.6767 235.941 75.0783 238.11 75.0395 240.358C74.9783 242.565 74.669 244.611 74.1116 246.497C73.7904 247.584 73.4579 248.65 73.1142 249.696C72.7704 250.741 72.4379 251.807 72.1167 252.894C71.7955 253.981 71.479 255.052 71.1672 256.107C70.8554 257.162 70.5709 258.242 70.3136 259.348C68.3601 258.666 66.3698 257.991 64.3428 257.322C62.3253 256.622 60.2617 255.96 58.1519 255.336L49.9046 252.899ZM59.314 251.404C62.7663 252.425 66.1831 253.33 69.5643 254.121C69.9225 253.497 70.3197 252.624 70.7557 251.501C71.1597 250.369 71.5413 249.196 71.9003 247.981C72.4199 246.223 72.7317 244.403 72.8358 242.522C72.9399 240.642 72.6196 238.844 71.8751 237.129C71.14 235.382 69.909 233.785 68.1822 232.336C66.4328 230.846 63.9758 229.633 60.8111 228.697C58.0301 227.875 55.6405 227.552 53.6426 227.726C51.6541 227.868 49.9688 228.395 48.5869 229.308C47.1824 230.179 46.0428 231.389 45.1679 232.938C44.261 234.477 43.5147 236.238 42.929 238.22C42.5038 239.658 42.155 241.015 41.8824 242.29C41.6099 243.565 41.3911 244.717 41.2261 245.745C42.7321 246.295 44.3228 246.852 45.9981 247.417C47.6509 247.94 49.3404 248.457 51.0666 248.967L59.314 251.404Z" fill="white"/>
<path d="M66.2685 201.831C65.7544 202.952 65.5743 204.024 65.7281 205.048C65.8958 206.042 66.2555 206.977 66.807 207.853C67.3422 208.685 68.0169 209.453 68.8311 210.157C69.629 210.816 70.423 211.363 71.2133 211.799C71.6743 210.874 72.1493 209.918 72.6381 208.932C73.1408 207.916 73.6145 206.923 74.0591 205.953C74.5177 204.953 74.968 203.932 75.4101 202.887C75.8522 201.843 76.2805 200.83 76.6948 199.846C75.8767 199.471 74.9784 199.151 74 198.885C73.0354 198.59 72.062 198.473 71.0797 198.536C70.1113 198.569 69.2028 198.831 68.3542 199.322C67.5057 199.813 66.8104 200.649 66.2685 201.831ZM71.9527 217.144C68.2259 215.435 65.705 213.215 64.3899 210.485C63.0887 207.725 63.2163 204.648 64.7725 201.255C65.5089 199.649 66.3987 198.388 67.4418 197.473C68.4684 196.514 69.5866 195.835 70.7962 195.436C71.9756 195.023 73.2092 194.892 74.497 195.043C75.7987 195.163 77.0858 195.515 78.3584 196.098C78.6614 196.237 78.9574 196.392 79.2465 196.561C79.5192 196.686 79.8001 196.833 80.0892 197.002C79.3086 198.624 78.5349 200.232 77.7682 201.824C77.0015 203.416 76.243 205.03 75.4926 206.666C75.0341 207.666 74.5907 208.672 74.1625 209.686C73.7482 210.67 73.3269 211.668 72.8987 212.682C73.0363 212.782 73.2566 212.901 73.5596 213.04L74.1504 213.311C75.3321 213.853 76.5144 214.194 77.6974 214.333C78.8943 214.442 80.0244 214.336 81.0876 214.017C82.1204 213.684 83.0864 213.137 83.9855 212.376C84.8544 211.601 85.5806 210.577 86.1641 209.304C86.442 208.698 86.6511 208.042 86.7914 207.337C86.9014 206.617 86.959 205.892 86.9642 205.161C86.9391 204.416 86.8477 203.695 86.6901 203C86.5463 202.274 86.3375 201.609 86.0636 201.007L86.3042 200.842L88.4061 202.136C88.7164 203.379 88.8165 204.8 88.7063 206.4C88.6101 207.969 88.2284 209.481 87.5615 210.935C86.8112 212.571 85.881 213.96 84.7709 215.101C83.6445 216.198 82.3824 217.031 80.9845 217.6C79.5703 218.125 78.0867 218.362 76.5338 218.31C74.9947 218.227 73.4677 217.839 71.9527 217.144Z" fill="white"/>
<path d="M90.7692 192.545C91.1409 192.571 91.5838 192.542 92.0977 192.458C92.6286 192.346 93.1706 192.182 93.7236 191.967C94.2649 191.706 94.7886 191.377 95.2947 190.979C95.8177 190.552 96.2573 190.037 96.6133 189.435C96.9354 188.889 97.1545 188.322 97.2705 187.732C97.4035 187.114 97.4223 186.525 97.327 185.965C97.2487 185.377 97.0334 184.824 96.6811 184.306C96.3289 183.788 95.8371 183.343 95.2057 182.97C94.316 182.445 93.4889 182.304 92.7246 182.55C91.9485 182.749 91.1965 183.138 90.4687 183.714C89.7122 184.274 88.9564 184.931 88.2012 185.685C87.446 186.439 86.6471 187.07 85.8045 187.579C84.9332 188.071 84.0006 188.372 83.0066 188.482C82.0296 188.563 80.9384 188.247 79.733 187.535C78.7859 186.975 78.0182 186.309 77.4298 185.535C76.8127 184.745 76.3952 183.879 76.1772 182.937C75.9593 181.995 75.9552 180.986 76.1651 179.91C76.3463 178.817 76.776 177.697 77.4541 176.549C78.0814 175.487 78.7505 174.682 79.4614 174.134C80.1892 173.557 80.8628 173.007 81.4824 172.482C81.7772 172.966 82.181 173.495 82.6937 174.069C83.2064 174.643 83.618 175.06 83.9285 175.321L83.6234 175.838C82.7989 175.66 81.9191 175.741 80.9839 176.079C80.0486 176.417 79.2928 177.073 78.7164 178.049C78.462 178.48 78.2795 178.953 78.1687 179.468C78.0579 179.983 78.0442 180.498 78.1278 181.012C78.2113 181.526 78.4149 182.033 78.7384 182.534C79.062 183.035 79.5395 183.472 80.1709 183.845C81.0893 184.387 81.9509 184.567 82.7557 184.384C83.5487 184.156 84.3092 183.753 85.037 183.177C85.7648 182.6 86.5063 181.935 87.2614 181.181C87.9879 180.41 88.7725 179.77 89.6151 179.261C90.429 178.735 91.3244 178.432 92.3014 178.351C93.2954 178.241 94.3951 178.542 95.6004 179.254C96.4327 179.746 97.1405 180.416 97.7237 181.264C98.3238 182.083 98.7505 183.032 99.0037 184.11C99.2451 185.143 99.2726 186.244 99.0863 187.411C98.8712 188.562 98.4076 189.74 97.6955 190.945C96.9156 192.265 96.1337 193.294 95.3499 194.031C94.566 194.768 93.8238 195.336 93.1234 195.736C92.852 195.343 92.4515 194.874 91.9219 194.329C91.3804 193.738 90.8945 193.315 90.464 193.061L90.7692 192.545Z" fill="white"/>
<path d="M81.3592 154.917C80.7886 154.512 80.4444 153.96 80.3266 153.263C80.2087 152.566 80.3525 151.932 80.7581 151.361C81.1636 150.791 81.715 150.447 82.4122 150.329C83.1094 150.211 83.7433 150.355 84.3139 150.76C84.8844 151.166 85.2286 151.717 85.3465 152.414C85.4644 153.112 85.3205 153.746 84.915 154.316C84.5094 154.887 83.9581 155.231 83.2608 155.349C82.5636 155.467 81.9297 155.323 81.3592 154.917ZM96.4769 164.804C95.2543 163.935 93.958 163.054 92.5881 162.163C91.2103 161.224 89.889 160.408 88.6242 159.713C89.3007 159.049 89.8032 158.486 90.1315 158.024C90.4598 157.562 90.8264 156.903 91.2313 156.045C92.303 157.011 93.4988 158.005 94.8186 159.024C96.1306 159.998 97.3979 160.919 98.6205 161.788L102.859 164.801C104.082 165.67 105.382 166.574 106.76 167.512C108.129 168.404 109.406 169.168 110.589 169.805C110.091 170.391 109.629 170.983 109.204 171.581C108.779 172.178 108.372 172.809 107.982 173.473C106.992 172.564 105.841 171.623 104.529 170.65C103.209 169.63 101.938 168.686 100.715 167.817L96.4769 164.804Z" fill="white"/>
<path d="M131.995 151.355C130.477 150.053 129.035 149.584 127.668 149.949C126.301 150.313 124.738 151.52 122.98 153.57C121.353 155.467 120.397 157.195 120.115 158.753C119.857 160.333 120.538 161.817 122.157 163.206C123.017 163.944 123.87 164.435 124.716 164.677C125.584 164.894 126.414 164.926 127.206 164.77C128.019 164.59 128.808 164.234 129.571 163.703C130.334 163.172 131.052 162.514 131.725 161.73C132.376 160.971 132.915 160.138 133.342 159.231C133.769 158.323 134.019 157.418 134.091 156.514C134.186 155.585 134.069 154.672 133.74 153.775C133.437 152.9 132.855 152.093 131.995 151.355ZM113.805 139.308C112.211 137.94 110.671 137.278 109.185 137.321C107.699 137.363 106.425 138.005 105.361 139.244C104.189 140.61 103.746 142.075 104.03 143.637C104.29 145.177 105.192 146.609 106.735 147.933C108.329 149.3 109.887 150.044 111.409 150.164C112.927 150.237 114.316 149.54 115.575 148.072C116.204 147.339 116.597 146.6 116.752 145.855C116.905 145.063 116.882 144.297 116.683 143.555C116.481 142.767 116.129 142.026 115.626 141.331C115.121 140.59 114.513 139.915 113.805 139.308ZM104.195 150.893C103.133 149.981 102.385 149.01 101.951 147.98C101.493 146.927 101.293 145.855 101.351 144.763C101.431 143.646 101.713 142.549 102.198 141.472C102.705 140.369 103.382 139.325 104.228 138.338C104.64 137.857 105.044 137.413 105.438 137.005C105.854 136.571 106.38 136.034 107.017 135.395C107.567 134.856 108.05 134.37 108.466 133.936C108.882 133.503 109.209 133.147 109.448 132.868C110.663 131.452 111.479 130.373 111.895 129.632C112 129.766 112.117 129.91 112.247 130.066C112.374 130.174 112.5 130.283 112.627 130.391C112.753 130.5 112.892 130.619 113.044 130.749C113.192 130.833 113.341 130.916 113.489 130.999C112.809 131.689 112.14 132.367 111.481 133.032C110.819 133.65 110.183 134.29 109.571 134.951L109.582 135.092C110.685 134.677 111.898 134.619 113.221 134.92C114.519 135.199 115.649 135.751 116.61 136.576C118.508 138.203 119.447 140.129 119.428 142.353C119.405 144.529 118.471 146.693 116.626 148.843C116.323 149.197 116.006 149.541 115.677 149.873C115.369 150.18 115.064 150.511 114.76 150.865C114.369 151.32 114.165 151.892 114.146 152.579C114.15 153.24 114.404 153.788 114.91 154.222C115.568 154.786 116.179 155.047 116.743 155.004C117.329 154.935 118.003 154.482 118.766 153.644C119.4 152.957 120.022 152.283 120.633 151.622C121.219 150.938 121.829 150.254 122.462 149.567C123.485 148.425 124.471 147.558 125.418 146.965C126.388 146.347 127.304 145.97 128.168 145.833C129.054 145.671 129.873 145.714 130.625 145.964C131.399 146.189 132.114 146.583 132.772 147.147C133.658 147.907 134.404 148.855 135.011 149.99C135.639 151.1 136.006 152.337 136.11 153.7C136.236 155.038 136.051 156.482 135.555 158.033C135.059 159.584 134.127 161.156 132.76 162.75C130.655 165.204 128.501 166.716 126.299 167.286C124.122 167.878 122.186 167.447 120.491 165.993C119.833 165.429 119.324 164.794 118.963 164.089C118.623 163.358 118.401 162.619 118.296 161.87C118.192 161.122 118.219 160.399 118.379 159.701C118.538 159.003 118.772 158.347 119.079 157.733L119.003 157.668C118.103 158.257 117.213 158.526 116.335 158.475C115.456 158.424 114.65 158.083 113.916 157.454C113.486 157.085 113.159 156.673 112.935 156.217C112.733 155.736 112.601 155.25 112.54 154.758C112.479 154.266 112.501 153.78 112.606 153.299C112.711 152.818 112.868 152.404 113.078 152.057L113.002 151.992C111.498 152.722 110.008 153.025 108.533 152.901C107.033 152.756 105.587 152.087 104.195 150.893Z" fill="white"/>
<path d="M138.608 117.476C136.919 115.633 135.291 114.571 133.722 114.29C132.131 113.985 130.709 114.406 129.456 115.555C127.735 117.131 126.954 118.819 127.111 120.619C127.293 122.397 128.263 124.244 130.019 126.161L132.89 129.294C133.904 130.4 134.986 131.556 136.136 132.762C137.289 133.921 138.377 134.936 139.401 135.806C138.791 136.275 138.215 136.757 137.675 137.253C137.134 137.748 136.604 138.28 136.083 138.847C135.305 137.751 134.377 136.59 133.298 135.363C132.221 134.089 131.176 132.9 130.163 131.794L126.649 127.96C125.636 126.854 124.553 125.722 123.4 124.562C122.25 123.356 121.129 122.281 120.038 121.337C120.838 120.829 121.448 120.384 121.865 120.001C122.062 119.821 122.26 119.617 122.458 119.39C122.659 119.116 122.896 118.807 123.171 118.466C123.998 119.516 124.862 120.533 125.763 121.516L125.836 121.448C125.556 119.761 125.636 118.196 126.077 116.752C126.495 115.284 127.367 113.942 128.694 112.726C129.382 112.095 130.161 111.563 131.029 111.129C131.922 110.672 132.876 110.431 133.892 110.405C134.885 110.353 135.936 110.588 137.046 111.108C138.158 111.582 139.299 112.457 140.47 113.735C141.439 114.792 142.416 115.908 143.403 117.083C144.367 118.234 145.424 119.436 146.572 120.69L148.768 123.086C149.128 123.479 149.489 123.872 149.849 124.265C150.211 124.612 150.562 124.945 150.902 125.267C150.366 125.668 149.827 126.117 149.286 126.612C148.77 127.085 148.289 127.571 147.843 128.071C146.721 126.748 145.565 125.388 144.376 123.991C143.211 122.572 141.975 121.15 140.669 119.724L138.608 117.476Z" fill="white"/>
<path d="M158.566 115.976C158.106 115.363 157.933 114.659 158.046 113.866C158.16 113.073 158.523 112.446 159.136 111.986C159.75 111.526 160.453 111.353 161.246 111.466C162.04 111.58 162.666 111.943 163.126 112.556C163.586 113.17 163.75 113.86 163.616 114.626C163.463 115.366 163.08 115.966 162.466 116.426C161.853 116.886 161.17 117.086 160.416 117.026C159.643 116.94 159.026 116.589 158.566 115.976Z" fill="white"/>
<path d="M183.838 80.7952C184.967 80.5104 186.079 80.0842 187.174 79.5166C188.091 79.041 188.985 78.4466 189.854 77.7332C190.723 77.0198 191.419 76.1897 191.942 75.2428C192.479 74.251 192.754 73.1512 192.766 71.9435C192.793 70.6907 192.415 69.3097 191.632 67.8005C190.973 66.5279 190.258 65.5842 189.489 64.9692C188.72 64.3543 187.894 63.9936 187.013 63.8871C186.162 63.7654 185.239 63.8683 184.245 64.1958C183.235 64.4938 182.153 64.9419 180.999 65.5402L177.004 67.6111L183.838 80.7952ZM178.472 79.3527C177.46 77.3995 176.426 75.5137 175.371 73.6953C174.33 71.832 173.259 69.9467 172.158 68.0395C172.899 67.7306 173.639 67.4216 174.38 67.1126C175.136 66.7587 175.868 66.3977 176.579 66.0295C176.934 65.8454 177.355 65.6082 177.843 65.3178C178.331 65.0275 178.826 64.7519 179.329 64.4911C179.847 64.1854 180.334 63.895 180.792 63.62C181.251 63.345 181.642 63.1231 181.968 62.9543C182.412 62.7242 182.967 62.4552 183.633 62.1474C184.3 61.8395 185.027 61.5754 185.813 61.3552C186.63 61.1197 187.47 60.9658 188.334 60.8936C189.197 60.8214 190.056 60.9207 190.91 61.1915C191.793 61.447 192.635 61.9118 193.435 62.586C194.22 63.2305 194.934 64.1743 195.578 65.4172C196.591 67.3704 196.982 69.1761 196.753 70.8343C196.553 72.4772 196.008 73.9611 195.118 75.286C194.258 76.5956 193.193 77.7293 191.925 78.687C190.687 79.6294 189.535 80.3767 188.469 80.9289C187.789 81.2818 187.167 81.6039 186.605 81.8954C186.027 82.1572 185.427 82.412 184.805 82.6596L186.07 85.1011C187.083 87.0543 188.109 88.9625 189.15 90.8259C190.221 92.6738 191.276 94.4922 192.316 96.281C191.604 96.5747 190.864 96.9209 190.095 97.3197C189.325 97.7186 188.615 98.124 187.965 98.536C187.103 96.6552 186.211 94.7524 185.288 92.8277C184.395 90.8877 183.442 88.9411 182.43 86.9879L178.472 79.3527Z" fill="white"/>
<path d="M215.654 60.518C214.499 60.9513 213.616 61.5854 213.003 62.4205C212.422 63.2438 212.019 64.1607 211.793 65.1712C211.586 66.1387 211.524 67.159 211.606 68.2318C211.708 69.2618 211.885 70.2098 212.139 71.0758C213.118 70.744 214.129 70.4005 215.17 70.0453C216.243 69.6783 217.279 69.3075 218.277 68.9328C219.307 68.5463 220.347 68.1384 221.396 67.7091C222.446 67.2797 223.464 66.8621 224.451 66.4561C224.135 65.6135 223.723 64.7533 223.216 63.8756C222.739 62.9862 222.131 62.2177 221.389 61.5703C220.679 60.9111 219.85 60.4567 218.902 60.2072C217.954 59.9577 216.871 60.0613 215.654 60.518ZM208.898 75.3894C207.457 71.5507 207.232 68.1995 208.223 65.3357C209.244 62.4602 211.503 60.3667 214.998 59.0551C216.652 58.4345 218.172 58.1669 219.557 58.2525C220.961 58.2951 222.233 58.6012 223.373 59.1705C224.5 59.7087 225.468 60.4849 226.276 61.4991C227.115 62.5016 227.78 63.6582 228.272 64.969C228.389 65.281 228.491 65.599 228.576 65.9228C228.682 66.2037 228.777 66.506 228.863 66.8298C227.166 67.4309 225.485 68.0262 223.819 68.6157C222.153 69.2051 220.478 69.816 218.793 70.4483C217.763 70.8348 216.739 71.2368 215.721 71.6545C214.734 72.0604 213.731 72.4722 212.713 72.8898C212.74 73.0576 212.812 73.2975 212.93 73.6096L213.158 74.2182C213.615 75.4353 214.214 76.51 214.955 77.4423C215.728 78.3629 216.604 79.0845 217.583 79.607C218.551 80.0984 219.622 80.3908 220.796 80.4842C221.959 80.5464 223.195 80.3316 224.506 79.8398C225.13 79.6056 225.741 79.2875 226.338 78.8855C226.923 78.4524 227.475 77.9782 227.993 77.4632C228.501 76.9169 228.943 76.3413 229.322 75.7365C229.731 75.12 230.051 74.5016 230.281 73.8812L230.568 73.9339L231.148 76.3331C230.492 77.4334 229.562 78.5123 228.357 79.5698C227.183 80.6156 225.847 81.4196 224.349 81.9817C222.663 82.614 221.025 82.944 219.433 82.9716C217.861 82.9563 216.378 82.6582 214.985 82.0771C213.612 81.4532 212.392 80.5756 211.327 79.4444C210.293 78.3015 209.483 76.9498 208.898 75.3894Z" fill="white"/>
<path d="M253.858 57.8056C253.269 55.3761 252.355 53.6598 251.117 52.6568C249.871 51.6214 248.422 51.3041 246.77 51.705C244.502 52.2552 243.003 53.3565 242.272 55.0088C241.573 56.6532 241.531 58.7388 242.144 61.2655L243.146 65.3956C243.5 66.8533 243.889 68.3881 244.315 69.9999C244.765 71.5714 245.228 72.9854 245.704 74.2419C244.943 74.3579 244.207 74.5023 243.494 74.6752C242.781 74.8482 242.06 75.0574 241.331 75.303C241.179 73.9679 240.926 72.5029 240.573 70.9077C240.245 69.2723 239.904 67.7258 239.55 66.2681L238.324 61.2147C237.97 59.757 237.569 58.2424 237.119 56.6709C236.693 55.059 236.231 53.5763 235.731 52.2227C236.677 52.1646 237.425 52.0687 237.976 51.9351C238.235 51.8722 238.507 51.7892 238.79 51.6861C239.099 51.5427 239.455 51.3875 239.861 51.2206C240.078 52.5399 240.344 53.8474 240.658 55.1431L240.755 55.1195C241.324 53.5065 242.15 52.1742 243.233 51.1227C244.307 50.0387 245.719 49.2844 247.469 48.86C248.376 48.6399 249.314 48.5494 250.284 48.5885C251.286 48.6197 252.239 48.8688 253.141 49.3359C254.035 49.7706 254.843 50.4836 255.564 51.4749C256.309 52.426 256.886 53.7438 257.295 55.4282C257.633 56.8211 257.95 58.2705 258.247 59.7763C258.536 61.2497 258.881 62.8125 259.281 64.4645L260.048 67.6229C260.174 68.1412 260.299 68.6595 260.425 69.1778C260.575 69.6558 260.722 70.1177 260.864 70.5633C260.201 70.6557 259.512 70.7884 258.8 70.9613C258.12 71.1264 257.463 71.3199 256.831 71.5419C256.487 69.8417 256.132 68.093 255.764 66.2956C255.429 64.4904 255.033 62.6484 254.577 60.7696L253.858 57.8056Z" fill="white"/>
<path d="M271.199 63.8131C271.407 64.1226 271.701 64.4546 272.083 64.8091C272.497 65.1594 272.959 65.4868 273.468 65.7913C274.007 66.0585 274.588 66.2698 275.213 66.4252C275.871 66.5763 276.547 66.6075 277.241 66.5187C277.869 66.4384 278.452 66.2631 278.988 65.9929C279.558 65.7184 280.035 65.3718 280.418 64.9532C280.835 64.5303 281.139 64.0209 281.332 63.425C281.524 62.8291 281.574 62.1674 281.481 61.44C281.35 60.415 280.953 59.676 280.29 59.2231C279.656 58.7329 278.889 58.3774 277.987 58.1567C277.08 57.9029 276.098 57.7092 275.039 57.5757C273.98 57.4423 272.991 57.199 272.073 56.8461C271.15 56.46 270.34 55.9082 269.643 55.1908C268.98 54.4691 268.559 53.4139 268.381 52.0252C268.242 50.9341 268.297 49.9189 268.547 48.9797C268.792 48.0074 269.22 47.1462 269.829 46.3962C270.439 45.6461 271.233 45.0237 272.212 44.529C273.186 44.0012 274.334 43.6527 275.657 43.4836C276.88 43.3272 277.926 43.3615 278.795 43.5864C279.697 43.8072 280.545 44.0012 281.34 44.1685C281.139 44.6983 280.969 45.3417 280.83 46.0987C280.692 46.8557 280.615 47.4368 280.6 47.842L280.004 47.9181C279.638 47.1584 279.035 46.513 278.194 45.982C277.354 45.451 276.371 45.2574 275.247 45.4011C274.751 45.4645 274.265 45.6106 273.791 45.8393C273.316 46.068 272.901 46.3731 272.547 46.7545C272.192 47.1358 271.916 47.6079 271.72 48.1708C271.523 48.7336 271.471 49.3788 271.564 50.1062C271.699 51.1642 272.086 51.9549 272.724 52.4782C273.391 52.9642 274.175 53.3176 275.077 53.5383C275.979 53.759 276.96 53.9361 278.019 54.0696C279.073 54.17 280.06 54.3967 280.979 54.7497C281.893 55.0696 282.682 55.5904 283.346 56.3121C284.043 57.0296 284.48 58.0826 284.657 59.4713C284.78 60.4302 284.685 61.4 284.374 62.3808C284.095 63.3573 283.608 64.2765 282.912 65.1384C282.244 65.9631 281.392 66.6601 280.356 67.2294C279.316 67.7657 278.101 68.1226 276.713 68.3001C275.192 68.4946 273.9 68.5085 272.837 68.342C271.774 68.1754 270.87 67.9382 270.124 67.6302C270.268 67.175 270.392 66.571 270.498 65.8182C270.632 65.0281 270.667 64.3851 270.604 63.8892L271.199 63.8131Z" fill="white"/>
<path d="M308.122 29.7763C308.903 28.958 309.644 28.5407 310.344 28.5245C310.677 28.5168 311.03 28.642 311.402 28.9001C311.809 29.1574 312.018 29.5527 312.03 30.0859C312.044 30.6857 311.855 31.1735 311.464 31.5494C311.072 31.8919 310.679 32.2011 310.285 32.4769L303.046 37.3459L300.946 37.3945L308.122 29.7763ZM304.471 42.7143C303.238 42.7429 302.194 43.0504 301.341 43.637C300.521 44.2228 299.838 44.9555 299.291 45.8351C298.778 46.6805 298.383 47.6233 298.107 48.6633C297.863 49.6692 297.719 50.6228 297.673 51.5241C298.707 51.5335 299.774 51.5421 300.874 51.55C302.008 51.557 303.108 51.5482 304.174 51.5235C305.274 51.4981 306.39 51.4555 307.522 51.396C308.655 51.3364 309.754 51.2776 310.819 51.2196C310.798 50.3198 310.693 49.372 310.503 48.3761C310.347 47.3795 310.025 46.4534 309.539 45.5977C309.085 44.7413 308.452 44.0391 307.639 43.4911C306.826 42.9432 305.77 42.6842 304.471 42.7143ZM293.191 54.5287C293.096 50.4298 293.988 47.1916 295.867 44.8141C297.779 42.4359 300.601 41.2035 304.334 41.1171C306.1 41.0761 307.623 41.3243 308.902 41.8615C310.214 42.3646 311.314 43.0726 312.202 43.9856C313.089 44.8653 313.747 45.917 314.176 47.1408C314.637 48.3637 314.885 49.675 314.917 51.0746C314.925 51.4079 314.916 51.7415 314.89 52.0755C314.897 52.3755 314.888 52.6924 314.862 53.0264C313.062 53.0348 311.278 53.0428 309.511 53.0504C307.744 53.0579 305.961 53.0826 304.162 53.1243C303.062 53.1497 301.962 53.1919 300.864 53.2507C299.798 53.3087 298.716 53.3671 297.617 53.4259C297.587 53.5933 297.576 53.8436 297.584 54.1769L297.599 54.8267C297.629 56.1263 297.841 57.3384 298.234 58.463C298.66 59.5867 299.249 60.5567 300.001 61.3728C300.753 62.1556 301.668 62.7846 302.746 63.2598C303.823 63.7016 305.061 63.9063 306.461 63.8739C307.128 63.8585 307.809 63.7593 308.505 63.5765C309.2 63.3603 309.877 63.0946 310.537 62.7792C311.196 62.4305 311.803 62.033 312.36 61.5867C312.949 61.1396 313.455 60.6611 313.877 60.1512L314.13 60.2953L313.887 62.7516C312.906 63.5746 311.672 64.2867 310.186 64.8879C308.732 65.4884 307.206 65.8072 305.606 65.8442C303.807 65.8859 302.151 65.6575 300.639 65.1591C299.16 64.6265 297.858 63.8564 296.735 62.8489C295.644 61.8072 294.782 60.5768 294.149 59.1577C293.549 57.7379 293.23 56.1949 293.191 54.5287Z" fill="white"/>
<path d="M336.05 43.5967C334.822 43.4828 333.751 43.6678 332.835 44.152C331.953 44.6392 331.19 45.2881 330.546 46.0987C329.938 46.8792 329.436 47.77 329.042 48.7712C328.684 49.7423 328.43 50.6728 328.281 51.5628C329.307 51.6915 330.366 51.8232 331.458 51.9581C332.583 52.096 333.677 52.2143 334.739 52.3129C335.835 52.4145 336.948 52.5011 338.08 52.5727C339.211 52.6442 340.309 52.7127 341.375 52.7781C341.458 51.8819 341.463 50.9283 341.389 49.9172C341.349 48.9091 341.136 47.9521 340.752 47.046C340.4 46.143 339.853 45.3724 339.108 44.7342C338.364 44.096 337.345 43.7169 336.05 43.5967ZM323.482 54.0299C323.861 49.9474 325.121 46.8339 327.262 44.6892C329.436 42.5476 332.381 41.6493 336.099 41.9943C337.858 42.1576 339.342 42.5799 340.551 43.2612C341.796 43.9124 342.807 44.7427 343.583 45.7521C344.363 46.7284 344.895 47.849 345.18 49.114C345.497 50.3821 345.591 51.7132 345.462 53.1072C345.431 53.4391 345.384 53.7695 345.32 54.0983C345.292 54.397 345.246 54.7108 345.182 55.0396C343.393 54.8401 341.62 54.6421 339.864 54.4456C338.108 54.2492 336.334 54.0677 334.542 53.9014C333.446 53.7997 332.349 53.7147 331.251 53.6462C330.186 53.5808 329.104 53.5139 328.006 53.4454C327.957 53.6083 327.917 53.8557 327.887 54.1876L327.827 54.8348C327.706 56.1292 327.777 57.3576 328.037 58.52C328.33 59.6855 328.804 60.717 329.457 61.6145C330.113 62.4789 330.949 63.2092 331.965 63.8057C332.984 64.3689 334.191 64.7152 335.585 64.8446C336.249 64.9062 336.937 64.8864 337.649 64.7852C338.365 64.6507 339.068 64.4649 339.76 64.2278C340.454 63.9575 341.104 63.6328 341.708 63.2537C342.345 62.8777 342.903 62.4608 343.381 62.003L343.616 62.1754L343.091 64.5872C342.021 65.2914 340.713 65.8563 339.167 66.2819C337.654 66.7106 336.101 66.851 334.508 66.7031C332.716 66.5368 331.098 66.1187 329.653 65.4491C328.245 64.7493 327.042 63.8341 326.042 62.7035C325.078 61.5429 324.364 60.2212 323.899 58.7385C323.467 57.259 323.328 55.6894 323.482 54.0299Z" fill="white"/>
<path d="M398.53 57.776C399.178 55.6734 399.763 53.6039 400.285 51.5675C400.849 49.509 401.407 47.4138 401.959 45.2818C402.354 45.473 402.732 45.6593 403.095 45.8408C403.467 45.9903 403.845 46.124 404.227 46.2417C404.609 46.3594 404.996 46.4612 405.388 46.5471C405.79 46.6011 406.208 46.66 406.642 46.7238C405.899 48.7969 405.166 50.8382 404.442 52.8476C403.761 54.835 403.096 56.88 402.449 58.9826L399.918 67.2017C399.27 69.3043 398.665 71.3848 398.1 73.4433C397.568 75.5116 397.046 77.548 396.533 79.5526C395.82 79.2633 395.049 78.9911 394.221 78.736C393.393 78.481 392.602 78.2725 391.85 78.1106C392.554 76.1649 393.252 74.1824 393.943 72.1632C394.666 70.1537 395.352 68.0977 395.999 65.9951L397.324 61.6944C395.613 61.1328 393.946 60.6019 392.321 60.1016C390.738 59.5793 389.086 59.0532 387.366 58.5235C385.646 57.9938 383.968 57.4947 382.334 57.0263C380.741 56.5358 379.079 56.0416 377.349 55.5437L376.025 59.8445C375.377 61.947 374.772 64.0276 374.208 66.0861C373.675 68.1543 373.153 70.1908 372.64 72.1954C371.927 71.906 371.156 71.6338 370.328 71.3788C369.5 71.1237 368.71 70.9152 367.957 70.7533C368.661 68.8076 369.359 66.8251 370.05 64.8059C370.774 62.7965 371.459 60.7405 372.106 58.6379L374.637 50.4187C375.285 48.3161 375.87 46.2466 376.392 44.2102C376.956 42.1517 377.514 40.0565 378.066 37.9245C378.461 38.1157 378.839 38.3021 379.202 38.4835C379.574 38.6331 379.952 38.7667 380.334 38.8844C380.716 39.0021 381.104 39.1039 381.496 39.1898C381.898 39.2438 382.315 39.3027 382.749 39.3665C382.006 41.4397 381.273 43.4809 380.549 45.4904C379.868 47.4778 379.203 49.5227 378.556 51.6253L378.041 53.2978C379.751 53.8594 381.398 54.4014 382.981 54.9237C384.596 55.4559 386.264 55.9868 387.984 56.5165C389.704 57.0462 391.366 57.5404 392.968 57.999C394.603 58.4675 396.285 58.9506 398.015 59.4485L398.53 57.776Z" fill="white"/>
<path d="M424.441 78.0224C423.843 77.9613 423.169 77.8274 422.419 77.6206C421.699 77.4281 420.956 77.2435 420.192 77.0669C419.442 76.8601 418.67 76.6986 417.877 76.5823C417.115 76.4801 416.376 76.4819 415.663 76.5874C414.98 76.7072 414.344 76.96 413.757 77.3461C413.199 77.7463 412.721 78.3684 412.323 79.2124C411.654 80.6291 411.555 81.8913 412.028 82.999C412.5 84.1066 413.233 84.8953 414.228 85.365C415.374 85.9058 416.563 86.0803 417.796 85.8885C419.06 85.7109 420.147 85.3211 421.058 84.7191L424.441 78.0224ZM417.073 64.7015C418.913 64.3171 420.491 64.2144 421.808 64.3935C423.124 64.5726 424.385 64.9468 425.59 65.5161C426.676 66.0285 427.592 66.6639 428.34 67.4224C429.102 68.1508 429.657 68.9658 430.005 69.8676C430.368 70.7391 430.531 71.6823 430.494 72.6971C430.471 73.6817 430.225 74.6714 429.756 75.6661C428.944 77.3842 428.103 79.0881 427.231 80.7777C426.374 82.4372 425.497 84.2165 424.601 86.1154C424.43 86.4772 424.245 86.869 424.046 87.291C423.891 87.6971 423.795 88.0944 423.759 88.4829C423.738 88.8412 423.782 89.1757 423.894 89.4863C424.035 89.8112 424.332 90.0803 424.784 90.2938C424.935 90.365 425.086 90.4361 425.236 90.5073C425.431 90.5625 425.626 90.5805 425.819 90.5613L425.349 91.556C424.947 91.5501 424.468 91.4714 423.913 91.3199C423.388 91.1826 422.824 90.9717 422.221 90.687C421.256 90.2316 420.632 89.6418 420.347 88.9176C420.077 88.1632 420.081 87.3728 420.361 86.5464C418.763 87.1192 417.316 87.4128 416.019 87.4271C414.722 87.4414 413.305 87.0856 411.768 86.3598C411.014 86.004 410.326 85.5498 409.702 84.9972C409.078 84.4447 408.594 83.792 408.249 83.0393C407.934 82.3009 407.752 81.5147 407.703 80.6808C407.699 79.831 407.903 78.969 408.316 78.0949C409.17 76.2863 410.39 75.148 411.974 74.6799C413.59 74.226 415.47 74.3029 417.616 74.9107C419.372 75.4079 420.744 75.7796 421.734 76.0257C422.768 76.2559 423.546 76.3651 424.068 76.3534C424.619 76.3558 425.005 76.2428 425.223 76.0142C425.456 75.7555 425.679 75.4 425.892 74.9479C426.248 74.1943 426.499 73.4282 426.646 72.6496C426.792 71.8709 426.791 71.1328 426.641 70.4354C426.491 69.738 426.17 69.0891 425.68 68.4888C425.203 67.8584 424.513 67.3297 423.609 66.9027C422.403 66.3334 421.145 66.071 419.833 66.1155C418.552 66.1741 417.428 66.5648 416.46 67.2874L415.963 67.0526L417.073 64.7015Z" fill="white"/>
<path d="M449.82 68.6217C450.176 68.019 450.696 67.6296 451.381 67.4534C452.066 67.2772 452.71 67.3671 453.312 67.7232C453.915 68.0792 454.305 68.5996 454.481 69.2844C454.657 69.9692 454.567 70.613 454.211 71.2157C453.855 71.8184 453.335 72.2078 452.65 72.384C451.965 72.5602 451.321 72.4702 450.718 72.1142C450.116 71.7582 449.726 71.2378 449.55 70.5529C449.374 69.8681 449.464 69.2244 449.82 68.6217ZM441.242 84.5186C442.005 83.2271 442.773 81.8613 443.546 80.4211C444.365 78.9691 445.068 77.5838 445.653 76.2649C446.372 76.8831 446.975 77.3363 447.463 77.6245C447.951 77.9128 448.639 78.2225 449.528 78.5537C448.655 79.703 447.766 80.9782 446.861 82.3793C446.002 83.7686 445.191 85.109 444.428 86.4005L441.783 90.8776C441.02 92.1691 440.229 93.5408 439.41 94.9928C438.637 96.433 437.983 97.7694 437.448 99.0022C436.822 98.5549 436.193 98.1447 435.562 97.7717C434.93 97.3987 434.267 97.0459 433.573 96.7134C434.395 95.6502 435.236 94.4239 436.095 93.0346C437 91.6335 437.834 90.2872 438.597 88.9957L441.242 84.5186Z" fill="white"/>
<path d="M468.449 95.7301C468.427 95.4707 468.259 95.1294 467.945 94.7062C467.658 94.302 467.31 93.9566 466.9 93.6699C466.245 93.2112 465.553 92.9505 464.824 92.8878C464.094 92.8251 463.371 92.9289 462.653 93.1993C461.954 93.4425 461.26 93.8521 460.572 94.4284C459.903 94.9774 459.291 95.6478 458.737 96.4398L455.583 100.946C454.303 102.776 453.319 104.182 452.631 105.165C451.989 106.14 451.499 106.957 451.16 107.615C450.652 107.178 450.125 106.769 449.579 106.386C448.978 105.966 448.386 105.592 447.801 105.264C448.533 104.393 449.453 103.165 450.562 101.581C451.717 99.9892 453.106 98.0325 454.731 95.7111L455.648 94.4003C456.394 93.3352 457.24 92.0967 458.188 90.6848C459.162 89.292 460.239 87.6657 461.419 85.8059C461.681 86.0708 461.93 86.3261 462.164 86.5718C462.418 86.7902 462.696 87.0046 462.996 87.2148C463.242 87.3868 463.511 87.5547 463.803 87.7186C464.114 87.8551 464.439 88.0011 464.778 88.1567C463.981 89.0634 463.368 89.794 462.939 90.3484C462.538 90.9219 462.155 91.4681 461.792 91.987L461.846 92.0853C465.521 90.2635 468.355 90.0501 470.349 91.4454C470.595 91.6174 470.79 91.7744 470.935 91.9164C471.107 92.0775 471.291 92.3082 471.488 92.6085C471.122 92.8407 470.687 93.2886 470.181 93.9522C469.695 94.5885 469.261 95.1798 468.879 95.726L468.449 95.7301Z" fill="white"/>
<path d="M493.928 113.436C495.512 111.909 497.024 110.381 498.467 108.851C499.956 107.322 501.458 105.758 502.972 104.159C503.803 105.117 504.623 106.063 505.431 106.997C506.286 107.932 507.154 108.855 508.033 109.767C508.912 110.679 509.804 111.556 510.708 112.397C511.659 113.24 512.574 114.117 513.454 115.028C515.49 117.14 516.949 119.206 517.832 121.225C518.738 123.269 519.138 125.269 519.031 127.223C518.949 129.155 518.372 131.054 517.301 132.92C516.277 134.788 514.841 136.612 512.994 138.394C510.594 140.708 508.162 142.243 505.696 143C503.278 143.757 500.94 143.974 498.683 143.65C496.449 143.35 494.364 142.629 492.428 141.486C490.539 140.343 488.912 139.064 487.547 137.649C486.761 136.833 485.998 136.017 485.258 135.202C484.518 134.388 483.755 133.572 482.969 132.756C482.182 131.94 481.407 131.137 480.643 130.345C479.88 129.553 479.08 128.772 478.246 128.003C479.803 126.64 481.372 125.243 482.954 123.81C484.559 122.401 486.154 120.933 487.737 119.406L493.928 113.436ZM490.583 122.357C487.992 124.856 485.518 127.381 483.161 129.931C483.527 130.55 484.091 131.327 484.852 132.26C485.637 133.17 486.469 134.081 487.348 134.993C488.621 136.313 490.049 137.482 491.634 138.501C493.218 139.52 494.94 140.129 496.799 140.327C498.681 140.55 500.678 140.268 502.79 139.481C504.95 138.696 507.217 137.157 509.593 134.867C511.68 132.854 513.141 130.935 513.976 129.112C514.834 127.312 515.207 125.586 515.095 123.934C515.031 122.283 514.541 120.694 513.626 119.169C512.735 117.62 511.572 116.102 510.137 114.615C509.096 113.535 508.088 112.562 507.114 111.695C506.14 110.829 505.246 110.07 504.432 109.419C503.211 110.458 501.942 111.566 500.624 112.744C499.353 113.924 498.07 115.138 496.774 116.387L490.583 122.357Z" fill="white"/>
<path d="M530.722 153.379C530.001 152.379 529.156 151.693 528.19 151.322C527.242 150.978 526.252 150.83 525.217 150.878C524.229 150.933 523.229 151.142 522.215 151.503C521.248 151.872 520.381 152.293 519.612 152.766C520.19 153.623 520.787 154.508 521.404 155.419C522.04 156.358 522.67 157.259 523.295 158.124C523.938 159.016 524.605 159.912 525.296 160.811C525.986 161.711 526.657 162.583 527.308 163.428C528.038 162.902 528.76 162.278 529.473 161.558C530.206 160.864 530.787 160.075 531.216 159.189C531.666 158.33 531.886 157.411 531.877 156.431C531.868 155.45 531.483 154.433 530.722 153.379ZM514.597 150.774C517.922 148.374 521.096 147.276 524.119 147.477C527.162 147.706 529.776 149.334 531.961 152.361C532.995 153.794 533.653 155.189 533.935 156.548C534.264 157.914 534.303 159.222 534.054 160.471C533.831 161.7 533.337 162.838 532.571 163.884C531.825 164.958 530.884 165.904 529.749 166.723C529.478 166.919 529.198 167.1 528.909 167.268C528.665 167.444 528.399 167.616 528.109 167.784C527.082 166.305 526.066 164.839 525.059 163.387C524.052 161.935 523.022 160.48 521.968 159.02C521.324 158.128 520.667 157.246 519.996 156.374C519.345 155.528 518.684 154.669 518.013 153.797C517.858 153.867 517.646 154 517.375 154.195L516.848 154.576C515.794 155.337 514.915 156.197 514.211 157.158C513.526 158.146 513.06 159.181 512.814 160.263C512.594 161.326 512.594 162.436 512.813 163.594C513.059 164.732 513.592 165.868 514.411 167.003C514.801 167.544 515.269 168.049 515.813 168.519C516.385 168.97 516.988 169.378 517.621 169.742C518.282 170.088 518.954 170.364 519.637 170.569C520.339 170.802 521.02 170.948 521.679 171.007L521.704 171.297L519.542 172.488C518.308 172.145 517.022 171.532 515.685 170.647C514.367 169.79 513.24 168.712 512.303 167.415C511.25 165.956 510.5 164.462 510.055 162.933C509.656 161.412 509.553 159.904 509.747 158.407C509.988 156.918 510.513 155.51 511.325 154.185C512.155 152.887 513.246 151.75 514.597 150.774Z" fill="white"/>
<path d="M526.632 179.137C526.427 179.448 526.234 179.848 526.054 180.336C525.89 180.853 525.766 181.406 525.681 181.993C525.642 182.593 525.67 183.211 525.768 183.847C525.882 184.513 526.113 185.148 526.463 185.755C526.779 186.304 527.165 186.774 527.621 187.165C528.094 187.585 528.597 187.892 529.131 188.084C529.682 188.305 530.269 188.39 530.893 188.339C531.517 188.287 532.147 188.078 532.783 187.712C533.678 187.196 534.207 186.545 534.37 185.759C534.578 184.985 534.61 184.14 534.467 183.222C534.352 182.288 534.152 181.307 533.868 180.279C533.583 179.25 533.427 178.244 533.398 177.26C533.399 176.259 533.596 175.299 533.99 174.38C534.401 173.49 535.212 172.695 536.426 171.997C537.379 171.448 538.337 171.108 539.3 170.976C540.292 170.828 541.251 170.891 542.178 171.165C543.105 171.439 543.985 171.932 544.819 172.644C545.681 173.34 546.445 174.266 547.11 175.421C547.726 176.49 548.097 177.469 548.224 178.357C548.368 179.274 548.516 180.132 548.667 180.929C548.101 180.948 547.442 181.039 546.69 181.203C545.938 181.366 545.372 181.519 544.992 181.661L544.693 181.141C545.253 180.511 545.616 179.705 545.782 178.725C545.948 177.745 545.749 176.763 545.183 175.781C544.933 175.348 544.612 174.956 544.218 174.606C543.824 174.256 543.382 173.991 542.894 173.811C542.406 173.63 541.864 173.558 541.268 173.593C540.673 173.628 540.058 173.828 539.422 174.194C538.498 174.727 537.917 175.388 537.68 176.179C537.489 176.981 537.465 177.842 537.608 178.759C537.752 179.676 537.966 180.649 538.251 181.678C538.564 182.69 538.735 183.688 538.763 184.671C538.82 185.639 538.644 186.568 538.233 187.458C537.839 188.377 537.036 189.186 535.823 189.885C534.985 190.367 534.054 190.654 533.029 190.744C532.02 190.863 530.984 190.767 529.921 190.457C528.902 190.158 527.931 189.641 527.007 188.904C526.111 188.15 525.314 187.167 524.615 185.954C523.85 184.625 523.339 183.438 523.084 182.393C522.828 181.348 522.699 180.422 522.696 179.616C523.171 179.573 523.777 179.455 524.512 179.262C525.293 179.082 525.9 178.867 526.333 178.617L526.632 179.137Z" fill="white"/>
<path d="M563.458 188.329C564.091 188.03 564.74 188 565.406 188.239C566.071 188.478 566.553 188.913 566.852 189.546C567.151 190.179 567.181 190.829 566.943 191.494C566.704 192.16 566.268 192.642 565.635 192.941C565.002 193.24 564.353 193.27 563.687 193.031C563.022 192.793 562.539 192.357 562.241 191.724C561.942 191.091 561.912 190.442 562.15 189.776C562.389 189.11 562.825 188.628 563.458 188.329ZM547.434 196.669C548.791 196.028 550.193 195.329 551.642 194.572C553.135 193.83 554.494 193.078 555.719 192.315C555.966 193.23 556.211 193.944 556.453 194.456C556.695 194.969 557.091 195.611 557.64 196.384C556.273 196.846 554.821 197.402 553.286 198.053C551.794 198.72 550.371 199.374 549.014 200.015L544.312 202.235C542.956 202.875 541.531 203.566 540.038 204.308C538.59 205.066 537.298 205.805 536.164 206.525C535.896 205.803 535.606 205.11 535.293 204.447C534.98 203.784 534.63 203.12 534.242 202.455C535.519 202.037 536.903 201.494 538.394 200.827C539.93 200.175 541.376 199.529 542.732 198.889L547.434 196.669Z" fill="white"/>
<path d="M541.98 234.79C543.86 234.109 544.978 233.083 545.332 231.714C545.687 230.344 545.404 228.39 544.484 225.852C543.632 223.501 542.597 221.82 541.38 220.808C540.131 219.807 538.503 219.67 536.497 220.397C535.432 220.783 534.586 221.285 533.958 221.902C533.343 222.551 532.908 223.258 532.653 224.024C532.41 224.821 532.333 225.682 532.42 226.608C532.507 227.534 532.727 228.482 533.079 229.454C533.42 230.394 533.88 231.273 534.46 232.091C535.04 232.909 535.706 233.572 536.457 234.079C537.22 234.618 538.072 234.965 539.015 235.12C539.926 235.286 540.914 235.176 541.98 234.79ZM561.414 224.875C563.389 224.159 564.723 223.144 565.416 221.829C566.109 220.514 566.178 219.089 565.621 217.553C565.008 215.861 563.951 214.755 562.451 214.235C560.982 213.703 559.292 213.784 557.38 214.477C555.406 215.193 553.992 216.184 553.139 217.45C552.329 218.736 552.253 220.288 552.912 222.106C553.242 223.015 553.692 223.72 554.264 224.222C554.879 224.744 555.557 225.101 556.301 225.292C557.086 225.504 557.905 225.562 558.757 225.466C559.651 225.39 560.537 225.193 561.414 224.875ZM556.051 210.81C557.367 210.333 558.581 210.16 559.691 210.289C560.833 210.407 561.865 210.76 562.787 211.347C563.721 211.966 564.537 212.752 565.237 213.704C565.948 214.687 566.525 215.79 566.968 217.012C567.183 217.607 567.372 218.177 567.534 218.721C567.707 219.297 567.915 220.019 568.159 220.888C568.358 221.631 568.544 222.291 568.717 222.866C568.89 223.442 569.039 223.902 569.164 224.246C569.8 226.001 570.338 227.242 570.779 227.969C570.611 227.994 570.427 228.026 570.228 228.062C570.071 228.119 569.914 228.176 569.758 228.233C569.601 228.289 569.429 228.352 569.241 228.42C569.095 228.508 568.95 228.596 568.805 228.684C568.538 227.753 568.277 226.837 568.022 225.937C567.809 225.057 567.565 224.188 567.29 223.33L567.162 223.27C566.981 224.435 566.434 225.519 565.522 226.524C564.641 227.517 563.605 228.229 562.414 228.661C560.064 229.512 557.925 229.383 555.998 228.274C554.114 227.184 552.689 225.307 551.724 222.643C551.565 222.204 551.422 221.76 551.294 221.31C551.178 220.891 551.04 220.462 550.881 220.023C550.677 219.459 550.28 219 549.691 218.647C549.113 218.324 548.511 218.277 547.884 218.504C547.069 218.799 546.542 219.203 546.302 219.715C546.074 220.259 546.137 221.069 546.492 222.146C546.778 223.035 547.059 223.908 547.335 224.766C547.641 225.612 547.938 226.479 548.225 227.368C548.716 228.821 548.986 230.106 549.036 231.222C549.098 232.37 548.976 233.354 548.67 234.174C548.376 235.025 547.935 235.716 547.348 236.248C546.772 236.811 546.077 237.241 545.262 237.536C544.165 237.934 542.973 238.117 541.686 238.088C540.41 238.089 539.153 237.8 537.915 237.221C536.688 236.673 535.521 235.801 534.415 234.607C533.308 233.412 532.397 231.828 531.682 229.854C530.58 226.814 530.322 224.195 530.908 221.997C531.463 219.81 532.79 218.337 534.89 217.576C535.705 217.28 536.508 217.149 537.3 217.181C538.103 217.245 538.856 217.415 539.559 217.692C540.262 217.969 540.878 218.348 541.407 218.83C541.937 219.312 542.393 219.838 542.777 220.408L542.871 220.374C542.801 219.3 543.004 218.393 543.481 217.653C543.957 216.913 544.649 216.379 545.558 216.049C546.091 215.856 546.611 215.774 547.118 215.803C547.636 215.864 548.124 215.988 548.583 216.176C549.041 216.365 549.454 216.623 549.821 216.951C550.188 217.279 550.471 217.619 550.67 217.973L550.764 217.939C550.868 216.27 551.337 214.824 552.169 213.6C553.034 212.365 554.328 211.435 556.051 210.81Z" fill="white"/>
<path d="M568.154 257.017C570.59 256.455 572.317 255.561 573.334 254.335C574.383 253.101 574.717 251.655 574.335 249.999C573.811 247.725 572.727 246.213 571.083 245.463C569.447 244.746 567.362 244.68 564.828 245.264L560.687 246.219C559.225 246.556 557.686 246.928 556.07 247.335C554.493 247.767 553.074 248.214 551.812 248.676C551.705 247.914 551.569 247.175 551.404 246.461C551.239 245.746 551.038 245.023 550.801 244.291C552.138 244.154 553.606 243.918 555.205 243.583C556.844 243.274 558.394 242.95 559.856 242.613L564.923 241.445C566.384 241.108 567.903 240.723 569.48 240.291C571.097 239.884 572.584 239.439 573.944 238.954C573.991 239.901 574.078 240.651 574.206 241.203C574.266 241.463 574.345 241.735 574.445 242.02C574.585 242.33 574.736 242.688 574.899 243.096C573.577 243.298 572.266 243.549 570.967 243.848L570.99 243.946C572.596 244.533 573.919 245.374 574.958 246.469C576.03 247.556 576.768 248.976 577.172 250.73C577.382 251.639 577.462 252.579 577.412 253.548C577.369 254.55 577.109 255.5 576.632 256.396C576.187 257.286 575.464 258.085 574.465 258.794C573.505 259.529 572.181 260.091 570.492 260.48C569.095 260.802 567.643 261.103 566.133 261.383C564.657 261.655 563.09 261.982 561.434 262.364L558.267 263.094C557.747 263.214 557.227 263.334 556.708 263.454C556.228 263.598 555.765 263.739 555.317 263.877C555.232 263.212 555.108 262.523 554.943 261.808C554.786 261.126 554.6 260.468 554.385 259.833C556.089 259.508 557.842 259.173 559.643 258.826C561.452 258.511 563.298 258.137 565.182 257.702L568.154 257.017Z" fill="white"/>
<path d="M559.638 275.221C560.399 275.123 561.096 275.32 561.73 275.81C562.364 276.3 562.729 276.926 562.826 277.686C562.924 278.447 562.727 279.144 562.237 279.778C561.747 280.412 561.121 280.777 560.361 280.875C559.6 280.972 558.92 280.773 558.319 280.279C557.751 279.78 557.419 279.151 557.321 278.39C557.224 277.63 557.388 276.937 557.812 276.311C558.269 275.681 558.878 275.318 559.638 275.221Z" fill="white"/>
</svg>
