<svg width="147" height="33" viewBox="0 0 147 33" fill="none" xmlns="http://www.w3.org/2000/svg">
<path d="M135.24 13.4239C135.24 12.5759 135.248 11.8559 135.264 11.2639C135.296 10.6559 135.312 10.0559 135.312 9.46395C135.312 8.90395 135.304 8.29595 135.288 7.63995C135.288 6.98395 135.28 6.31995 135.264 5.64795C135.664 5.72795 136 5.76795 136.272 5.76795C136.528 5.76795 136.856 5.72795 137.256 5.64795C137.176 6.60795 137.112 7.66395 137.064 8.81595C137.032 9.95195 137.016 11.1199 137.016 12.3199C137.016 13.1519 137.088 13.7919 137.232 14.2399C137.376 14.6719 137.552 14.9999 137.76 15.2239C137.984 15.4799 138.264 15.6959 138.6 15.8719C138.952 16.0319 139.36 16.1119 139.824 16.1119C140.496 16.1119 141.056 15.9679 141.504 15.6799C141.952 15.3759 142.28 15.0079 142.488 14.5759C142.6 14.3039 142.688 14.0719 142.752 13.8799C142.816 13.6879 142.864 13.4319 142.896 13.1119C142.944 12.7919 142.968 12.3599 142.968 11.8159C142.984 11.2719 142.992 10.5279 142.992 9.58395V7.56795C142.992 7.21595 142.984 6.87995 142.968 6.55995C142.968 6.23995 142.96 5.93595 142.944 5.64795C143.12 5.67995 143.288 5.71195 143.448 5.74395C143.608 5.75995 143.776 5.76795 143.952 5.76795C144.128 5.76795 144.296 5.75995 144.456 5.74395C144.616 5.71195 144.776 5.67995 144.936 5.64795C144.856 6.89595 144.808 8.10395 144.792 9.27195C144.776 10.4239 144.768 11.6479 144.768 12.9439C144.768 13.6639 144.776 14.3679 144.792 15.0559C144.808 15.7439 144.832 16.4079 144.864 17.0479C144.544 17.0159 144.232 16.9999 143.928 16.9999C143.624 16.9999 143.312 17.0159 142.992 17.0479C143.008 16.9039 143.016 16.7519 143.016 16.5919C143.032 16.4319 143.04 16.2639 143.04 16.0879V15.0559H142.992C142.576 15.8239 142.04 16.3919 141.384 16.7599C140.728 17.1119 140.016 17.2879 139.248 17.2879C138 17.2879 137.016 16.96 136.296 16.304C135.592 15.632 135.24 14.6719 135.24 13.4239Z" fill="white"/>
<path d="M128.528 10.304C128.528 9.10396 128.296 8.19996 127.832 7.59196C127.368 6.96796 126.728 6.65596 125.912 6.65596C124.792 6.65596 123.968 6.99996 123.44 7.68796C122.928 8.37596 122.672 9.34396 122.672 10.592V12.632C122.672 13.352 122.68 14.112 122.696 14.912C122.728 15.696 122.784 16.408 122.864 17.048C122.496 17.016 122.136 17 121.784 17C121.432 17 121.072 17.016 120.704 17.048C120.784 16.408 120.832 15.696 120.848 14.912C120.88 14.112 120.896 13.352 120.896 12.632V10.136C120.896 9.41596 120.88 8.66396 120.848 7.87996C120.832 7.07996 120.784 6.33596 120.704 5.64796C121.152 5.72796 121.512 5.76796 121.784 5.76796C121.912 5.76796 122.048 5.75996 122.192 5.74396C122.352 5.71196 122.536 5.67996 122.744 5.64796C122.696 6.28796 122.672 6.92796 122.672 7.56796H122.72C123.168 6.87996 123.704 6.35196 124.328 5.98396C124.952 5.59996 125.696 5.40796 126.56 5.40796C127.008 5.40796 127.456 5.47196 127.904 5.59996C128.368 5.72796 128.784 5.95196 129.152 6.27196C129.52 6.57596 129.816 6.99996 130.04 7.54396C130.28 8.07196 130.4 8.75196 130.4 9.58396C130.4 10.272 130.384 10.984 130.352 11.72C130.32 12.44 130.304 13.208 130.304 14.024V15.584C130.304 15.84 130.304 16.096 130.304 16.352C130.32 16.592 130.336 16.824 130.352 17.048C130.032 17.016 129.696 17 129.344 17C129.008 17 128.68 17.016 128.36 17.048C128.392 16.216 128.424 15.36 128.456 14.48C128.504 13.6 128.528 12.696 128.528 11.768V10.304Z" fill="white"/>
<path d="M112.064 6.17596C111.472 6.17596 110.968 6.31196 110.552 6.58396C110.152 6.85596 109.816 7.19996 109.544 7.61596C109.288 8.01596 109.088 8.46396 108.944 8.95996C108.816 9.43996 108.736 9.89596 108.704 10.328C109.2 10.344 109.712 10.36 110.24 10.376C110.784 10.392 111.312 10.4 111.824 10.4C112.352 10.4 112.888 10.392 113.432 10.376C113.976 10.36 114.504 10.344 115.016 10.328C115.016 9.89596 114.976 9.43996 114.896 8.95996C114.832 8.47996 114.688 8.03196 114.464 7.61596C114.256 7.19996 113.96 6.85596 113.576 6.58396C113.192 6.31196 112.688 6.17596 112.064 6.17596ZM106.52 11.72C106.52 9.75196 106.984 8.20796 107.912 7.08796C108.856 5.96796 110.224 5.40796 112.016 5.40796C112.864 5.40796 113.592 5.54396 114.2 5.81596C114.824 6.07196 115.344 6.42396 115.76 6.87196C116.176 7.30396 116.48 7.81596 116.672 8.40796C116.88 8.99996 116.984 9.63196 116.984 10.304C116.984 10.464 116.976 10.624 116.96 10.784C116.96 10.928 116.952 11.08 116.936 11.24C116.072 11.224 115.216 11.208 114.368 11.192C113.52 11.176 112.664 11.168 111.8 11.168C111.272 11.168 110.744 11.176 110.216 11.192C109.704 11.208 109.184 11.224 108.656 11.24C108.64 11.32 108.632 11.44 108.632 11.6V11.912C108.632 12.536 108.72 13.12 108.896 13.664C109.088 14.208 109.36 14.68 109.712 15.08C110.064 15.464 110.496 15.776 111.008 16.016C111.52 16.24 112.112 16.352 112.784 16.352C113.104 16.352 113.432 16.312 113.768 16.232C114.104 16.136 114.432 16.016 114.752 15.872C115.072 15.712 115.368 15.528 115.64 15.32C115.928 15.112 116.176 14.888 116.384 14.648L116.504 14.72L116.36 15.896C115.88 16.28 115.28 16.608 114.56 16.88C113.856 17.152 113.12 17.288 112.352 17.288C111.488 17.288 110.696 17.16 109.976 16.904C109.272 16.632 108.656 16.248 108.128 15.752C107.616 15.24 107.216 14.64 106.928 13.952C106.656 13.264 106.52 12.52 106.52 11.72Z" fill="white"/>
<path d="M86.3595 10.136C86.3595 9.41596 86.3435 8.66396 86.3115 7.87996C86.2955 7.07996 86.2475 6.33596 86.1675 5.64796C86.6155 5.72796 86.9755 5.76796 87.2475 5.76796C87.3755 5.76796 87.5115 5.75996 87.6555 5.74396C87.8155 5.71196 87.9995 5.67996 88.2075 5.64796C88.1595 6.28796 88.1355 6.92796 88.1355 7.56796H88.1835C89.0315 6.12796 90.2235 5.40796 91.7595 5.40796C92.1595 5.40796 92.5515 5.47196 92.9355 5.59996C93.3195 5.71196 93.6635 5.87196 93.9675 6.07996C94.2875 6.28796 94.5595 6.54396 94.7835 6.84796C95.0075 7.13596 95.1595 7.44796 95.2395 7.78396H95.2875C95.6715 7.01596 96.1915 6.43196 96.8475 6.03196C97.5195 5.61596 98.2875 5.40796 99.1515 5.40796C99.6795 5.40796 100.167 5.47996 100.615 5.62396C101.063 5.76796 101.447 5.99196 101.767 6.29596C102.103 6.59996 102.359 6.99196 102.535 7.47196C102.727 7.95196 102.823 8.52796 102.823 9.19996C102.823 9.47196 102.815 9.76796 102.799 10.088C102.783 10.408 102.767 10.784 102.751 11.216C102.735 11.632 102.719 12.112 102.703 12.656C102.687 13.184 102.679 13.8 102.679 14.504C102.679 14.936 102.679 15.352 102.679 15.752C102.695 16.152 102.719 16.584 102.751 17.048C102.575 17.016 102.399 17 102.223 17C102.047 17 101.879 17 101.719 17C101.543 17 101.367 17 101.191 17C101.015 17 100.839 17.016 100.663 17.048C100.711 16.648 100.759 15.84 100.807 14.624C100.871 13.408 100.903 11.712 100.903 9.53596C100.903 9.13596 100.855 8.75996 100.759 8.40796C100.679 8.05596 100.543 7.75196 100.351 7.49596C100.159 7.23996 99.9035 7.03996 99.5835 6.89596C99.2635 6.73596 98.8635 6.65596 98.3835 6.65596C97.8075 6.65596 97.3195 6.76796 96.9195 6.99196C96.5195 7.21596 96.2075 7.47996 95.9835 7.78396C95.8555 7.95996 95.7515 8.13596 95.6715 8.31196C95.6075 8.48796 95.5515 8.75996 95.5035 9.12796C95.4715 9.47996 95.4475 9.98396 95.4315 10.64C95.4155 11.28 95.4075 12.168 95.4075 13.304C95.4075 13.992 95.4155 14.624 95.4315 15.2C95.4635 15.76 95.4955 16.376 95.5275 17.048C95.1595 17.016 94.8075 17 94.4715 17C94.1355 17 93.7835 17.016 93.4155 17.048C93.4955 16.168 93.5515 15.272 93.5835 14.36C93.6155 13.448 93.6315 12.552 93.6315 11.672C93.6315 10.92 93.6235 10.336 93.6075 9.91996C93.6075 9.48796 93.5915 9.15196 93.5595 8.91196C93.5275 8.65596 93.4795 8.44796 93.4155 8.28796C93.3675 8.12796 93.2955 7.95196 93.1995 7.75996C93.0235 7.45596 92.7435 7.19996 92.3595 6.99196C91.9915 6.76796 91.6075 6.65596 91.2075 6.65596C90.1515 6.65596 89.3755 6.99996 88.8795 7.68796C88.3835 8.37596 88.1355 9.34396 88.1355 10.592V12.632C88.1355 13.352 88.1435 14.112 88.1595 14.912C88.1915 15.696 88.2475 16.408 88.3275 17.048C87.9595 17.016 87.5995 17 87.2475 17C86.8955 17 86.5355 17.016 86.1675 17.048C86.2475 16.408 86.2955 15.696 86.3115 14.912C86.3435 14.112 86.3595 13.352 86.3595 12.632V10.136Z" fill="white"/>
<path d="M72.7362 2.43201C72.6882 3.04001 72.6482 3.64001 72.6162 4.23201C72.6002 4.80801 72.5762 5.39201 72.5442 5.98401C72.7202 5.98401 73.0482 5.98401 73.5282 5.98401C74.0082 5.96801 74.5282 5.94401 75.0882 5.91201C75.0722 5.96001 75.0642 6.04801 75.0642 6.17601V6.41601V6.68001C75.0642 6.79201 75.0722 6.87201 75.0882 6.92001C74.8802 6.90401 74.6642 6.89601 74.4402 6.89601C74.2162 6.88001 73.9762 6.87201 73.7202 6.87201H72.5442C72.5282 6.93601 72.5042 7.19201 72.4722 7.64001C72.4562 8.08801 72.4402 8.62401 72.4242 9.24801C72.4082 9.85601 72.3922 10.496 72.3762 11.168C72.3762 11.84 72.3762 12.44 72.3762 12.968C72.3762 13.416 72.3842 13.856 72.4002 14.288C72.4322 14.72 72.5122 15.112 72.6402 15.464C72.7682 15.8 72.9602 16.072 73.2162 16.28C73.4722 16.488 73.8402 16.592 74.3202 16.592C74.4482 16.592 74.6162 16.576 74.8242 16.544C75.0482 16.512 75.2402 16.472 75.4002 16.424V17C75.1282 17.048 74.8242 17.104 74.4882 17.168C74.1682 17.248 73.8562 17.288 73.5522 17.288C72.5442 17.288 71.8002 17.04 71.3202 16.544C70.8402 16.048 70.6002 15.32 70.6002 14.36C70.6002 13.928 70.6082 13.464 70.6242 12.968C70.6402 12.456 70.6562 11.904 70.6722 11.312C70.7042 10.704 70.7282 10.04 70.7442 9.32001C70.7602 8.58401 70.7682 7.76801 70.7682 6.87201H70.0002C69.8722 6.87201 69.7362 6.88001 69.5922 6.89601C69.4482 6.89601 69.2962 6.90401 69.1362 6.92001C69.1522 6.82401 69.1602 6.73601 69.1602 6.65601C69.1762 6.56001 69.1842 6.46401 69.1842 6.36801C69.1842 6.28801 69.1762 6.20801 69.1602 6.12801C69.1602 6.04801 69.1522 5.96801 69.1362 5.88801C69.8562 5.93601 70.3842 5.96001 70.7202 5.96001C70.7042 5.64001 70.6882 5.24001 70.6722 4.76001C70.6722 4.28001 70.6562 3.78401 70.6242 3.27201L72.6162 2.43201H72.7362Z" fill="white"/>
<path d="M61.9122 6.17596C61.3202 6.17596 60.8162 6.31196 60.4002 6.58396C60.0002 6.85596 59.6642 7.19996 59.3922 7.61596C59.1362 8.01596 58.9362 8.46396 58.7922 8.95996C58.6642 9.43996 58.5842 9.89596 58.5522 10.328C59.0482 10.344 59.5602 10.36 60.0882 10.376C60.6322 10.392 61.1602 10.4 61.6722 10.4C62.2002 10.4 62.7362 10.392 63.2802 10.376C63.8242 10.36 64.3522 10.344 64.8642 10.328C64.8642 9.89596 64.8242 9.43996 64.7442 8.95996C64.6802 8.47996 64.5362 8.03196 64.3122 7.61596C64.1042 7.19996 63.8082 6.85596 63.4242 6.58396C63.0402 6.31196 62.5362 6.17596 61.9122 6.17596ZM56.3682 11.72C56.3682 9.75196 56.8322 8.20796 57.7602 7.08796C58.7042 5.96796 60.0722 5.40796 61.8642 5.40796C62.7122 5.40796 63.4402 5.54396 64.0482 5.81596C64.6722 6.07196 65.1922 6.42396 65.6082 6.87196C66.0242 7.30396 66.3282 7.81596 66.5202 8.40796C66.7282 8.99996 66.8322 9.63196 66.8322 10.304C66.8322 10.464 66.8242 10.624 66.8082 10.784C66.8082 10.928 66.8002 11.08 66.7842 11.24C65.9202 11.224 65.0642 11.208 64.2162 11.192C63.3682 11.176 62.5122 11.168 61.6482 11.168C61.1202 11.168 60.5922 11.176 60.0642 11.192C59.5522 11.208 59.0322 11.224 58.5042 11.24C58.4882 11.32 58.4802 11.44 58.4802 11.6V11.912C58.4802 12.536 58.5682 13.12 58.7442 13.664C58.9362 14.208 59.2082 14.68 59.5602 15.08C59.9122 15.464 60.3442 15.776 60.8562 16.016C61.3682 16.24 61.9602 16.352 62.6322 16.352C62.9522 16.352 63.2802 16.312 63.6162 16.232C63.9522 16.136 64.2802 16.016 64.6002 15.872C64.9202 15.712 65.2162 15.528 65.4882 15.32C65.7762 15.112 66.0242 14.888 66.2322 14.648L66.3522 14.72L66.2082 15.896C65.7282 16.28 65.1282 16.608 64.4082 16.88C63.7042 17.152 62.9682 17.288 62.2002 17.288C61.3362 17.288 60.5442 17.16 59.8242 16.904C59.1202 16.632 58.5042 16.248 57.9762 15.752C57.4642 15.24 57.0642 14.64 56.7762 13.952C56.5042 13.264 56.3682 12.52 56.3682 11.72Z" fill="white"/>
<path d="M46.704 14.816C46.784 14.976 46.904 15.152 47.064 15.344C47.24 15.536 47.44 15.72 47.664 15.896C47.904 16.056 48.168 16.192 48.456 16.304C48.76 16.416 49.08 16.472 49.416 16.472C49.72 16.472 50.008 16.424 50.28 16.328C50.568 16.232 50.816 16.096 51.024 15.92C51.248 15.744 51.424 15.52 51.552 15.248C51.68 14.976 51.744 14.664 51.744 14.312C51.744 13.816 51.6 13.44 51.312 13.184C51.04 12.912 50.696 12.696 50.28 12.536C49.864 12.36 49.408 12.208 48.912 12.08C48.416 11.952 47.96 11.776 47.544 11.552C47.128 11.312 46.776 11 46.488 10.616C46.216 10.232 46.08 9.70396 46.08 9.03196C46.08 8.50396 46.168 8.02396 46.344 7.59196C46.52 7.14396 46.776 6.75996 47.112 6.43996C47.448 6.11996 47.864 5.87196 48.36 5.69596C48.856 5.50396 49.424 5.40796 50.064 5.40796C50.656 5.40796 51.152 5.48796 51.552 5.64796C51.968 5.80796 52.36 5.95196 52.728 6.07996C52.6 6.31996 52.48 6.61596 52.368 6.96796C52.256 7.31996 52.184 7.59196 52.152 7.78396H51.864C51.736 7.39996 51.488 7.05596 51.12 6.75196C50.752 6.44796 50.296 6.29596 49.752 6.29596C49.512 6.29596 49.272 6.33596 49.032 6.41596C48.792 6.49596 48.576 6.61596 48.384 6.77596C48.192 6.93596 48.032 7.14396 47.904 7.39996C47.776 7.65596 47.712 7.95996 47.712 8.31196C47.712 8.82396 47.848 9.22396 48.12 9.51196C48.408 9.78396 48.76 9.99996 49.176 10.16C49.592 10.32 50.048 10.464 50.544 10.592C51.04 10.704 51.496 10.872 51.912 11.096C52.328 11.304 52.672 11.6 52.944 11.984C53.232 12.368 53.376 12.896 53.376 13.568C53.376 14.032 53.272 14.488 53.064 14.936C52.872 15.384 52.584 15.792 52.2 16.16C51.832 16.512 51.384 16.792 50.856 17C50.328 17.192 49.728 17.288 49.056 17.288C48.32 17.288 47.704 17.216 47.208 17.072C46.712 16.928 46.296 16.76 45.96 16.568C46.056 16.36 46.152 16.08 46.248 15.728C46.36 15.36 46.416 15.056 46.416 14.816H46.704Z" fill="white"/>
<path d="M26 26L1 1" stroke="white"/>
</svg>
