<svg width="177" height="35" viewBox="0 0 177 35" fill="none" xmlns="http://www.w3.org/2000/svg">
<path d="M158.242 27.8561C158.498 28.4321 158.834 29.0241 159.25 29.6321C159.698 30.2081 160.226 30.7361 160.834 31.2161C161.474 31.6961 162.21 32.0961 163.042 32.4161C163.874 32.7041 164.802 32.8481 165.826 32.8481C166.882 32.8481 167.826 32.6721 168.658 32.3201C169.522 31.9361 170.242 31.4401 170.818 30.8321C171.426 30.1921 171.89 29.4561 172.21 28.6241C172.53 27.7601 172.69 26.8481 172.69 25.8881C172.69 24.4161 172.306 23.2481 171.538 22.3841C170.802 21.5201 169.874 20.8001 168.754 20.2241C167.634 19.6481 166.418 19.1201 165.106 18.6401C163.826 18.1601 162.626 17.5681 161.506 16.8641C160.386 16.1281 159.442 15.2001 158.674 14.0801C157.938 12.9601 157.57 11.4561 157.57 9.5681C157.57 8.2241 157.81 7.00809 158.29 5.92009C158.77 4.80009 159.458 3.84009 160.354 3.04009C161.282 2.24009 162.386 1.61609 163.666 1.16809C164.946 0.720094 166.386 0.496094 167.986 0.496094C169.522 0.496094 170.85 0.688093 171.97 1.07209C173.09 1.42409 174.13 1.98409 175.09 2.75209C174.802 3.29609 174.562 3.87209 174.37 4.48009C174.178 5.08809 173.986 5.85609 173.794 6.78409H173.218C173.058 6.33609 172.834 5.85609 172.546 5.34409C172.29 4.80009 171.922 4.30409 171.442 3.85609C170.994 3.40809 170.45 3.04009 169.81 2.75209C169.17 2.43209 168.402 2.27209 167.506 2.27209C166.61 2.27209 165.778 2.41609 165.01 2.70409C164.274 2.99209 163.618 3.40809 163.042 3.95209C162.498 4.46409 162.066 5.08809 161.746 5.82409C161.458 6.56009 161.314 7.36009 161.314 8.22409C161.314 9.72809 161.682 10.9121 162.418 11.7761C163.186 12.6401 164.13 13.3761 165.25 13.9841C166.37 14.5601 167.57 15.0881 168.85 15.5681C170.162 16.0161 171.378 16.5761 172.498 17.2481C173.618 17.9201 174.546 18.7841 175.282 19.8401C176.05 20.8961 176.434 22.3041 176.434 24.0641C176.434 25.5361 176.162 26.9281 175.618 28.2401C175.106 29.5521 174.338 30.7041 173.314 31.6961C172.322 32.6561 171.09 33.4081 169.618 33.9521C168.178 34.4641 166.53 34.7201 164.674 34.7201C162.69 34.7201 161.074 34.4641 159.826 33.9521C158.61 33.4081 157.586 32.8001 156.754 32.1281C157.042 31.3921 157.234 30.7361 157.33 30.1601C157.458 29.5521 157.57 28.7841 157.666 27.8561H158.242Z" fill="black"/>
<path d="M131.842 27.8561C132.098 28.4321 132.434 29.0241 132.85 29.6321C133.298 30.2081 133.826 30.7361 134.434 31.2161C135.074 31.6961 135.81 32.0961 136.642 32.4161C137.474 32.7041 138.402 32.8481 139.426 32.8481C140.482 32.8481 141.426 32.6721 142.258 32.3201C143.122 31.9361 143.842 31.4401 144.418 30.8321C145.026 30.1921 145.49 29.4561 145.81 28.6241C146.13 27.7601 146.29 26.8481 146.29 25.8881C146.29 24.4161 145.906 23.2481 145.138 22.3841C144.402 21.5201 143.474 20.8001 142.354 20.2241C141.234 19.6481 140.018 19.1201 138.706 18.6401C137.426 18.1601 136.226 17.5681 135.106 16.8641C133.986 16.1281 133.042 15.2001 132.274 14.0801C131.538 12.9601 131.17 11.4561 131.17 9.5681C131.17 8.2241 131.41 7.00809 131.89 5.92009C132.37 4.80009 133.058 3.84009 133.954 3.04009C134.882 2.24009 135.986 1.61609 137.266 1.16809C138.546 0.720094 139.986 0.496094 141.586 0.496094C143.122 0.496094 144.45 0.688093 145.57 1.07209C146.69 1.42409 147.73 1.98409 148.69 2.75209C148.402 3.29609 148.162 3.87209 147.97 4.48009C147.778 5.08809 147.586 5.85609 147.394 6.78409H146.818C146.658 6.33609 146.434 5.85609 146.146 5.34409C145.89 4.80009 145.522 4.30409 145.042 3.85609C144.594 3.40809 144.05 3.04009 143.41 2.75209C142.77 2.43209 142.002 2.27209 141.106 2.27209C140.21 2.27209 139.378 2.41609 138.61 2.70409C137.874 2.99209 137.218 3.40809 136.642 3.95209C136.098 4.46409 135.666 5.08809 135.346 5.82409C135.058 6.56009 134.914 7.36009 134.914 8.22409C134.914 9.72809 135.282 10.9121 136.018 11.7761C136.786 12.6401 137.73 13.3761 138.85 13.9841C139.97 14.5601 141.17 15.0881 142.45 15.5681C143.762 16.0161 144.978 16.5761 146.098 17.2481C147.218 17.9201 148.146 18.7841 148.882 19.8401C149.65 20.8961 150.034 22.3041 150.034 24.0641C150.034 25.5361 149.762 26.9281 149.218 28.2401C148.706 29.5521 147.938 30.7041 146.914 31.6961C145.922 32.6561 144.69 33.4081 143.218 33.9521C141.778 34.4641 140.13 34.7201 138.274 34.7201C136.29 34.7201 134.674 34.4641 133.426 33.9521C132.21 33.4081 131.186 32.8001 130.354 32.1281C130.642 31.3921 130.834 30.7361 130.93 30.1601C131.058 29.5521 131.17 28.7841 131.266 27.8561H131.842Z" fill="black"/>
<path d="M106.498 13.5041C106.498 11.3921 106.45 9.31212 106.354 7.26412C106.29 5.21612 106.21 3.16812 106.114 1.12012C107.554 1.18412 108.978 1.24812 110.386 1.31212C111.826 1.34412 113.266 1.36012 114.706 1.36012C116.146 1.36012 117.57 1.34412 118.978 1.31212C120.386 1.24812 121.81 1.18412 123.25 1.12012C123.154 1.60012 123.106 2.08012 123.106 2.56012C123.106 3.04012 123.154 3.52012 123.25 4.00012C122.226 3.93612 121.282 3.87212 120.418 3.80812C119.586 3.74412 118.69 3.68012 117.73 3.61612C116.802 3.55212 115.778 3.50412 114.658 3.47212C113.538 3.40812 112.194 3.37612 110.626 3.37612C110.594 4.40012 110.546 5.37612 110.482 6.30412C110.45 7.23212 110.434 8.28812 110.434 9.47212C110.434 10.7201 110.434 11.9361 110.434 13.1201C110.466 14.3041 110.482 15.2001 110.482 15.8081C111.89 15.8081 113.154 15.7921 114.274 15.7601C115.394 15.7281 116.418 15.6961 117.346 15.6641C118.274 15.6001 119.122 15.5521 119.89 15.5201C120.69 15.4561 121.442 15.3921 122.146 15.3281C122.05 15.8081 122.002 16.3041 122.002 16.8161C122.002 17.2961 122.05 17.7761 122.146 18.2561C121.314 18.1601 120.338 18.0801 119.218 18.0161C118.13 17.9521 117.026 17.9201 115.906 17.9201C114.818 17.8881 113.778 17.8721 112.786 17.8721C111.826 17.8401 111.058 17.8241 110.482 17.8241C110.482 18.1121 110.466 18.4321 110.434 18.7841C110.434 19.1041 110.434 19.5201 110.434 20.0321V21.9041V24.7841C110.434 26.6081 110.434 28.1121 110.434 29.2961C110.466 30.4801 110.498 31.3761 110.53 31.9841C111.586 31.9841 112.706 31.9841 113.89 31.9841C115.106 31.9841 116.29 31.9681 117.442 31.9361C118.626 31.8721 119.73 31.8081 120.754 31.7441C121.81 31.6481 122.722 31.5201 123.49 31.3601C123.426 31.5841 123.378 31.8401 123.346 32.1281C123.346 32.3841 123.346 32.6241 123.346 32.8481C123.346 33.3601 123.394 33.7761 123.49 34.0961C122.05 34.0321 120.61 34.0001 119.17 34.0001C117.762 34.0001 116.322 34.0001 114.85 34.0001C113.378 34.0001 111.922 34.0001 110.482 34.0001C109.042 34.0001 107.586 34.0321 106.114 34.0961C106.21 32.0481 106.29 30.0161 106.354 28.0001C106.45 25.9521 106.498 23.8721 106.498 21.7601V13.5041Z" fill="black"/>
<path d="M96.898 32.1281C96.61 32.3841 96.146 32.6721 95.506 32.9921C94.898 33.2801 94.146 33.5521 93.25 33.8081C92.386 34.0321 91.41 34.2401 90.322 34.4321C89.234 34.6241 88.098 34.7201 86.914 34.7201C84.386 34.7201 82.05 34.3681 79.906 33.6641C77.762 32.9281 75.906 31.8241 74.338 30.3521C72.802 28.8801 71.586 27.0881 70.69 24.9761C69.826 22.8321 69.394 20.4001 69.394 17.6801C69.394 14.9601 69.826 12.5441 70.69 10.4321C71.586 8.28809 72.818 6.48009 74.386 5.00809C75.986 3.53609 77.89 2.41609 80.098 1.64809C82.306 0.880094 84.738 0.496094 87.394 0.496094C89.506 0.496094 91.426 0.720094 93.154 1.16809C94.914 1.58409 96.466 2.09609 97.81 2.70409C97.554 3.15209 97.346 3.76009 97.186 4.52809C97.026 5.29609 96.898 5.93609 96.802 6.44809L96.514 6.54409C96.194 6.16009 95.746 5.72809 95.17 5.24809C94.594 4.76809 93.922 4.30409 93.154 3.85609C92.386 3.40809 91.522 3.04009 90.562 2.75209C89.602 2.43209 88.546 2.27209 87.394 2.27209C85.506 2.27209 83.746 2.57609 82.114 3.18409C80.514 3.79209 79.106 4.73609 77.89 6.01609C76.706 7.26409 75.778 8.86409 75.106 10.8161C74.434 12.7361 74.098 15.0241 74.098 17.6801C74.098 20.3361 74.434 22.6401 75.106 24.5921C75.778 26.5121 76.706 28.1121 77.89 29.3921C79.106 30.6401 80.514 31.5681 82.114 32.1761C83.746 32.7841 85.506 33.0881 87.394 33.0881C88.546 33.0881 89.602 32.9441 90.562 32.6561C91.554 32.3681 92.45 32.0321 93.25 31.6481C94.082 31.2321 94.818 30.8001 95.458 30.3521C96.13 29.8721 96.69 29.4561 97.138 29.1041L97.33 29.2961L96.898 32.1281Z" fill="black"/>
<path d="M62.4825 32.1281C62.1945 32.3841 61.7305 32.6721 61.0905 32.9921C60.4825 33.2801 59.7305 33.5521 58.8345 33.8081C57.9705 34.0321 56.9945 34.2401 55.9065 34.4321C54.8185 34.6241 53.6825 34.7201 52.4985 34.7201C49.9705 34.7201 47.6345 34.3681 45.4905 33.6641C43.3465 32.9281 41.4905 31.8241 39.9225 30.3521C38.3865 28.8801 37.1705 27.0881 36.2745 24.9761C35.4105 22.8321 34.9785 20.4001 34.9785 17.6801C34.9785 14.9601 35.4105 12.5441 36.2745 10.4321C37.1705 8.28809 38.4025 6.48009 39.9705 5.00809C41.5705 3.53609 43.4745 2.41609 45.6825 1.64809C47.8905 0.880094 50.3225 0.496094 52.9785 0.496094C55.0905 0.496094 57.0105 0.720094 58.7385 1.16809C60.4985 1.58409 62.0505 2.09609 63.3945 2.70409C63.1385 3.15209 62.9305 3.76009 62.7705 4.52809C62.6105 5.29609 62.4825 5.93609 62.3865 6.44809L62.0985 6.54409C61.7785 6.16009 61.3305 5.72809 60.7545 5.24809C60.1785 4.76809 59.5065 4.30409 58.7385 3.85609C57.9705 3.40809 57.1065 3.04009 56.1465 2.75209C55.1865 2.43209 54.1305 2.27209 52.9785 2.27209C51.0905 2.27209 49.3305 2.57609 47.6985 3.18409C46.0985 3.79209 44.6905 4.73609 43.4745 6.01609C42.2905 7.26409 41.3625 8.86409 40.6905 10.8161C40.0185 12.7361 39.6825 15.0241 39.6825 17.6801C39.6825 20.3361 40.0185 22.6401 40.6905 24.5921C41.3625 26.5121 42.2905 28.1121 43.4745 29.3921C44.6905 30.6401 46.0985 31.5681 47.6985 32.1761C49.3305 32.7841 51.0905 33.0881 52.9785 33.0881C54.1305 33.0881 55.1865 32.9441 56.1465 32.6561C57.1385 32.3681 58.0345 32.0321 58.8345 31.6481C59.6665 31.2321 60.4025 30.8001 61.0425 30.3521C61.7145 29.8721 62.2745 29.4561 62.7225 29.1041L62.9145 29.2961L62.4825 32.1281Z" fill="black"/>
<path d="M9.93592 19.1681C10.7679 19.1681 11.6319 19.1841 12.5279 19.2161C13.4239 19.2481 14.2879 19.2641 15.1199 19.2641C16.0159 19.2641 16.9119 19.2641 17.8079 19.2641C18.7039 19.2321 19.5999 19.2001 20.4959 19.1681L15.1679 6.97609L9.93592 19.1681ZM31.1999 34.0961C30.7519 34.0321 30.3199 34.0001 29.9039 34.0001C29.5199 34.0001 29.1039 34.0001 28.6559 34.0001C28.2079 34.0001 27.7759 34.0001 27.3599 34.0001C26.9759 34.0001 26.5599 34.0321 26.1119 34.0961C25.8879 33.3601 25.5839 32.4801 25.1999 31.4561C24.8159 30.4001 24.3839 29.3121 23.9039 28.1921C23.4559 27.0401 22.9919 25.8881 22.5119 24.7361C22.0319 23.5521 21.5839 22.4321 21.1679 21.3761C20.1439 21.3441 19.1039 21.3281 18.0479 21.3281C16.9919 21.2961 15.9359 21.2801 14.8799 21.2801C13.8879 21.2801 12.9119 21.2961 11.9519 21.3281C10.9919 21.3281 10.0159 21.3441 9.02392 21.3761C7.99992 23.8721 7.07192 26.2561 6.23992 28.5281C5.40792 30.7681 4.78392 32.6241 4.36792 34.0961C3.82392 34.0321 3.23192 34.0001 2.59192 34.0001C1.95192 34.0001 1.35992 34.0321 0.815918 34.0961C3.40792 28.4961 5.93592 22.9281 8.39992 17.3921C10.8639 11.8561 13.3439 6.22409 15.8399 0.496094H16.7519C17.5199 2.35209 18.3519 4.36809 19.2479 6.54409C20.1439 8.68809 21.0559 10.8641 21.9839 13.0721C22.9119 15.2801 23.8399 17.4721 24.7679 19.6481C25.6959 21.8241 26.5599 23.8561 27.3599 25.7441C28.1919 27.6001 28.9279 29.2641 29.5679 30.7361C30.2399 32.2081 30.7839 33.3281 31.1999 34.0961Z" fill="black"/>
</svg>
