<svg width="134" height="35" viewBox="0 0 134 35" fill="none" xmlns="http://www.w3.org/2000/svg">
<path d="M116.32 13.504C116.32 11.392 116.272 9.312 116.176 7.264C116.112 5.216 116.032 3.168 115.936 1.12C117.376 1.184 118.8 1.248 120.208 1.312C121.648 1.344 123.088 1.36 124.528 1.36C125.968 1.36 127.392 1.344 128.8 1.312C130.208 1.248 131.632 1.184 133.072 1.12C132.976 1.6 132.928 2.08 132.928 2.56C132.928 3.04 132.976 3.52 133.072 4C132.048 3.936 131.104 3.872 130.24 3.808C129.408 3.744 128.512 3.68 127.552 3.616C126.624 3.552 125.6 3.504 124.48 3.472C123.36 3.408 122.016 3.376 120.448 3.376C120.416 4.4 120.368 5.376 120.304 6.304C120.272 7.232 120.256 8.288 120.256 9.472C120.256 10.72 120.256 11.936 120.256 13.12C120.288 14.304 120.304 15.2 120.304 15.808C121.712 15.808 122.976 15.792 124.096 15.76C125.216 15.728 126.24 15.696 127.168 15.664C128.096 15.6 128.944 15.552 129.712 15.52C130.512 15.456 131.264 15.392 131.968 15.328C131.872 15.808 131.824 16.304 131.824 16.816C131.824 17.296 131.872 17.776 131.968 18.256C131.136 18.16 130.16 18.08 129.04 18.016C127.952 17.952 126.848 17.92 125.728 17.92C124.64 17.888 123.6 17.872 122.608 17.872C121.648 17.84 120.88 17.824 120.304 17.824C120.304 18.112 120.288 18.432 120.256 18.784C120.256 19.104 120.256 19.52 120.256 20.032V21.904V24.784C120.256 26.608 120.256 28.112 120.256 29.296C120.288 30.48 120.32 31.376 120.352 31.984C121.408 31.984 122.528 31.984 123.712 31.984C124.928 31.984 126.112 31.968 127.264 31.936C128.448 31.872 129.552 31.808 130.576 31.744C131.632 31.648 132.544 31.52 133.312 31.36C133.248 31.584 133.2 31.84 133.168 32.128C133.168 32.384 133.168 32.624 133.168 32.848C133.168 33.36 133.216 33.776 133.312 34.096C131.872 34.032 130.432 34 128.992 34C127.584 34 126.144 34 124.672 34C123.2 34 121.744 34 120.304 34C118.864 34 117.408 34.032 115.936 34.096C116.032 32.048 116.112 30.016 116.176 28C116.272 25.952 116.32 23.872 116.32 21.76V13.504Z" fill="#231815"/>
<path d="M89.9196 13.552C89.9196 11.44 89.8716 9.376 89.7756 7.36C89.7116 5.312 89.6316 3.232 89.5356 1.12C89.9516 1.184 90.3516 1.248 90.7356 1.312C91.1196 1.344 91.5036 1.36 91.8876 1.36C92.2716 1.36 92.6556 1.344 93.0396 1.312C93.4236 1.248 93.8236 1.184 94.2396 1.12C94.1436 3.232 94.0476 5.312 93.9516 7.36C93.8876 9.376 93.8556 11.44 93.8556 13.552C93.8556 17.584 93.8716 21.088 93.9036 24.064C93.9356 27.008 93.9676 29.648 93.9996 31.984C96.2716 31.984 98.4476 31.968 100.528 31.936C102.608 31.872 104.848 31.68 107.248 31.36C107.088 31.936 107.008 32.416 107.008 32.8C107.008 33.152 107.088 33.584 107.248 34.096C105.776 34.032 104.304 34 102.832 34C101.36 34 99.8876 34 98.4156 34C96.8796 34 95.3916 34 93.9516 34C92.5436 34 91.0716 34.032 89.5356 34.096C89.6316 32.112 89.7116 30.096 89.7756 28.048C89.8716 26 89.9196 23.92 89.9196 21.808V13.552Z" fill="#231815"/>
<path d="M66.1918 20.608C65.8718 20.064 65.3918 19.28 64.7518 18.256C64.1438 17.2 63.4558 16.048 62.6878 14.8C61.9518 13.52 61.1678 12.192 60.3358 10.816C59.5038 9.408 58.7038 8.08 57.9358 6.832C57.1998 5.552 56.5278 4.416 55.9198 3.424C55.3118 2.4 54.8478 1.632 54.5278 1.12C54.9758 1.184 55.4078 1.248 55.8238 1.312C56.2718 1.344 56.7198 1.36 57.1678 1.36C57.6158 1.36 58.0478 1.344 58.4638 1.312C58.9118 1.248 59.3598 1.184 59.8078 1.12C61.2478 3.904 62.7038 6.64 64.1758 9.328C65.6798 12.016 67.2638 14.816 68.9278 17.728C69.6638 16.576 70.4318 15.312 71.2318 13.936C72.0318 12.56 72.8318 11.152 73.6318 9.712C74.4318 8.272 75.1998 6.832 75.9358 5.392C76.6718 3.92 77.3598 2.496 77.9998 1.12C78.7998 1.28 79.4238 1.36 79.8718 1.36C80.3198 1.36 80.9438 1.28 81.7438 1.12C80.2078 3.456 78.8318 5.568 77.6158 7.456C76.3998 9.344 75.3278 11.056 74.3998 12.592C73.4718 14.128 72.6558 15.52 71.9518 16.768C71.2478 17.984 70.6398 19.088 70.1278 20.08C70.1278 21.264 70.1278 22.528 70.1278 23.872C70.1598 25.216 70.1918 26.544 70.2238 27.856C70.2558 29.136 70.2878 30.336 70.3198 31.456C70.3838 32.544 70.4478 33.424 70.5118 34.096C69.7758 34.032 68.9918 34 68.1598 34C67.3278 34 66.5438 34.032 65.8078 34.096C65.9998 32.432 66.1118 30.416 66.1438 28.048C66.1758 25.68 66.1918 23.2 66.1918 20.608Z" fill="#231815"/>
<path d="M35.7759 13.552C35.7759 10.224 35.7279 6.912 35.6319 3.616C34.7999 3.616 33.9199 3.632 32.9919 3.664C32.0959 3.664 31.1839 3.696 30.2559 3.76C29.3599 3.792 28.4799 3.84 27.6159 3.904C26.7839 3.968 26.0319 4.048 25.3599 4.144C25.5199 3.568 25.5999 3.056 25.5999 2.608C25.5999 2.256 25.5199 1.76 25.3599 1.12C27.4719 1.184 29.5359 1.248 31.5519 1.312C33.5679 1.344 35.6319 1.36 37.7439 1.36C39.8559 1.36 41.9199 1.344 43.9359 1.312C45.9519 1.248 48.0159 1.184 50.1279 1.12C49.9679 1.76 49.8879 2.272 49.8879 2.656C49.8879 3.072 49.9679 3.568 50.1279 4.144C49.4559 4.048 48.6879 3.968 47.8239 3.904C46.9919 3.84 46.1119 3.792 45.1839 3.76C44.2879 3.696 43.3759 3.664 42.4479 3.664C41.5519 3.632 40.6879 3.616 39.8559 3.616C39.7599 6.912 39.7119 10.224 39.7119 13.552V21.808C39.7119 23.92 39.7439 26 39.8079 28.048C39.9039 30.096 39.9999 32.112 40.0959 34.096C39.3599 34.032 38.5759 34 37.7439 34C36.9119 34 36.1279 34.032 35.3919 34.096C35.4879 32.112 35.5679 30.096 35.6319 28.048C35.7279 26 35.7759 23.92 35.7759 21.808V13.552Z" fill="#231815"/>
<path d="M1.64791 27.856C1.90391 28.432 2.23991 29.024 2.65591 29.632C3.10391 30.208 3.63191 30.736 4.23991 31.216C4.87991 31.696 5.61591 32.096 6.44791 32.416C7.27991 32.704 8.20791 32.848 9.23191 32.848C10.2879 32.848 11.2319 32.672 12.0639 32.32C12.9279 31.936 13.6479 31.44 14.2239 30.832C14.8319 30.192 15.2959 29.456 15.6159 28.624C15.9359 27.76 16.0959 26.848 16.0959 25.888C16.0959 24.416 15.7119 23.248 14.9439 22.384C14.2079 21.52 13.2799 20.8 12.1599 20.224C11.0399 19.648 9.82391 19.12 8.51191 18.64C7.23191 18.16 6.03191 17.568 4.91191 16.864C3.79191 16.128 2.84791 15.2 2.07991 14.08C1.34391 12.96 0.975912 11.456 0.975912 9.56797C0.975912 8.22397 1.21591 7.00797 1.69591 5.91997C2.17591 4.79997 2.86391 3.83997 3.75991 3.03997C4.68791 2.23997 5.79191 1.61597 7.07191 1.16797C8.35191 0.719972 9.79191 0.495972 11.3919 0.495972C12.9279 0.495972 14.2559 0.687971 15.3759 1.07197C16.4959 1.42397 17.5359 1.98397 18.4959 2.75197C18.2079 3.29597 17.9679 3.87197 17.7759 4.47997C17.5839 5.08797 17.3919 5.85597 17.1999 6.78397H16.6239C16.4639 6.33597 16.2399 5.85597 15.9519 5.34397C15.6959 4.79997 15.3279 4.30397 14.8479 3.85597C14.3999 3.40797 13.8559 3.03997 13.2159 2.75197C12.5759 2.43197 11.8079 2.27197 10.9119 2.27197C10.0159 2.27197 9.18391 2.41597 8.41591 2.70397C7.67991 2.99197 7.02391 3.40797 6.44791 3.95197C5.90391 4.46397 5.47191 5.08797 5.15191 5.82397C4.86391 6.55997 4.71991 7.35997 4.71991 8.22397C4.71991 9.72797 5.08791 10.912 5.82391 11.776C6.59191 12.64 7.53591 13.376 8.65591 13.984C9.77591 14.56 10.9759 15.088 12.2559 15.568C13.5679 16.016 14.7839 16.576 15.9039 17.248C17.0239 17.92 17.9519 18.784 18.6879 19.84C19.4559 20.896 19.8399 22.304 19.8399 24.064C19.8399 25.536 19.5679 26.928 19.0239 28.24C18.5119 29.552 17.7439 30.704 16.7199 31.696C15.7279 32.656 14.4959 33.408 13.0239 33.952C11.5839 34.464 9.93591 34.72 8.07991 34.72C6.09591 34.72 4.47991 34.464 3.23191 33.952C2.01591 33.408 0.991912 32.8 0.159912 32.128C0.447912 31.392 0.639912 30.736 0.735912 30.16C0.863912 29.552 0.975912 28.784 1.07191 27.856H1.64791Z" fill="#231815"/>
</svg>
