<svg width="219" height="35" viewBox="0 0 219 35" fill="none" xmlns="http://www.w3.org/2000/svg">
<path d="M204.563 13.5521C204.563 10.2241 204.515 6.91212 204.419 3.61612C203.587 3.61612 202.707 3.63212 201.779 3.66412C200.883 3.66412 199.971 3.69612 199.043 3.76012C198.147 3.79212 197.267 3.84012 196.403 3.90412C195.571 3.96812 194.819 4.04812 194.147 4.14412C194.307 3.56812 194.387 3.05612 194.387 2.60812C194.387 2.25612 194.307 1.76012 194.147 1.12012C196.259 1.18412 198.323 1.24812 200.339 1.31212C202.355 1.34412 204.419 1.36012 206.531 1.36012C208.643 1.36012 210.707 1.34412 212.723 1.31212C214.739 1.24812 216.803 1.18412 218.915 1.12012C218.755 1.76012 218.675 2.27212 218.675 2.65612C218.675 3.07212 218.755 3.56812 218.915 4.14412C218.243 4.04812 217.475 3.96812 216.611 3.90412C215.779 3.84012 214.899 3.79212 213.971 3.76012C213.075 3.69612 212.163 3.66412 211.235 3.66412C210.339 3.63212 209.475 3.61612 208.643 3.61612C208.547 6.91212 208.499 10.2241 208.499 13.5521V21.8081C208.499 23.9201 208.531 26.0001 208.595 28.0481C208.691 30.0961 208.787 32.1121 208.883 34.0961C208.147 34.0321 207.363 34.0001 206.531 34.0001C205.699 34.0001 204.915 34.0321 204.179 34.0961C204.275 32.1121 204.355 30.0961 204.419 28.0481C204.515 26.0001 204.563 23.9201 204.563 21.8081V13.5521Z" fill="white"/>
<path d="M190.692 32.1281C190.404 32.3841 189.94 32.6721 189.3 32.9921C188.692 33.2801 187.94 33.5521 187.044 33.8081C186.18 34.0321 185.204 34.2401 184.116 34.4321C183.028 34.6241 181.892 34.7201 180.708 34.7201C178.18 34.7201 175.844 34.3681 173.7 33.6641C171.556 32.9281 169.7 31.8241 168.132 30.3521C166.596 28.8801 165.38 27.0881 164.484 24.9761C163.62 22.8321 163.188 20.4001 163.188 17.6801C163.188 14.9601 163.62 12.5441 164.484 10.4321C165.38 8.28809 166.612 6.48009 168.18 5.00809C169.78 3.53609 171.684 2.41609 173.892 1.64809C176.1 0.880094 178.532 0.496094 181.188 0.496094C183.3 0.496094 185.22 0.720094 186.948 1.16809C188.708 1.58409 190.26 2.09609 191.604 2.70409C191.348 3.15209 191.14 3.76009 190.98 4.52809C190.82 5.29609 190.692 5.93609 190.596 6.44809L190.308 6.54409C189.988 6.16009 189.54 5.72809 188.964 5.24809C188.388 4.76809 187.716 4.30409 186.948 3.85609C186.18 3.40809 185.316 3.04009 184.356 2.75209C183.396 2.43209 182.34 2.27209 181.188 2.27209C179.3 2.27209 177.54 2.57609 175.908 3.18409C174.308 3.79209 172.9 4.73609 171.684 6.01609C170.5 7.26409 169.572 8.86409 168.9 10.8161C168.228 12.7361 167.892 15.0241 167.892 17.6801C167.892 20.3361 168.228 22.6401 168.9 24.5921C169.572 26.5121 170.5 28.1121 171.684 29.3921C172.9 30.6401 174.308 31.5681 175.908 32.1761C177.54 32.7841 179.3 33.0881 181.188 33.0881C182.34 33.0881 183.396 32.9441 184.356 32.6561C185.348 32.3681 186.244 32.0321 187.044 31.6481C187.876 31.2321 188.612 30.8001 189.252 30.3521C189.924 29.8721 190.484 29.4561 190.932 29.1041L191.124 29.2961L190.692 32.1281Z" fill="white"/>
<path d="M140.546 19.1681C141.378 19.1681 142.242 19.1841 143.138 19.2161C144.034 19.2481 144.898 19.2641 145.73 19.2641C146.626 19.2641 147.522 19.2641 148.418 19.2641C149.314 19.2321 150.21 19.2001 151.106 19.1681L145.778 6.97609L140.546 19.1681ZM161.81 34.0961C161.362 34.0321 160.93 34.0001 160.514 34.0001C160.13 34.0001 159.714 34.0001 159.266 34.0001C158.818 34.0001 158.386 34.0001 157.97 34.0001C157.586 34.0001 157.17 34.0321 156.722 34.0961C156.498 33.3601 156.194 32.4801 155.81 31.4561C155.426 30.4001 154.994 29.3121 154.514 28.1921C154.066 27.0401 153.602 25.8881 153.122 24.7361C152.642 23.5521 152.194 22.4321 151.778 21.3761C150.754 21.3441 149.714 21.3281 148.658 21.3281C147.602 21.2961 146.546 21.2801 145.49 21.2801C144.498 21.2801 143.522 21.2961 142.562 21.3281C141.602 21.3281 140.626 21.3441 139.634 21.3761C138.61 23.8721 137.682 26.2561 136.85 28.5281C136.018 30.7681 135.394 32.6241 134.978 34.0961C134.434 34.0321 133.842 34.0001 133.202 34.0001C132.562 34.0001 131.97 34.0321 131.426 34.0961C134.018 28.4961 136.546 22.9281 139.01 17.3921C141.474 11.8561 143.954 6.22409 146.45 0.496094H147.362C148.13 2.35209 148.962 4.36809 149.858 6.54409C150.754 8.68809 151.666 10.8641 152.594 13.0721C153.522 15.2801 154.45 17.4721 155.378 19.6481C156.306 21.8241 157.17 23.8561 157.97 25.7441C158.802 27.6001 159.538 29.2641 160.178 30.7361C160.85 32.2081 161.394 33.3281 161.81 34.0961Z" fill="white"/>
<path d="M118.876 13.5521C118.876 10.2241 118.828 6.91212 118.732 3.61612C117.9 3.61612 117.02 3.63212 116.092 3.66412C115.196 3.66412 114.284 3.69612 113.356 3.76012C112.46 3.79212 111.58 3.84012 110.716 3.90412C109.884 3.96812 109.132 4.04812 108.46 4.14412C108.62 3.56812 108.7 3.05612 108.7 2.60812C108.7 2.25612 108.62 1.76012 108.46 1.12012C110.572 1.18412 112.636 1.24812 114.652 1.31212C116.668 1.34412 118.732 1.36012 120.844 1.36012C122.956 1.36012 125.02 1.34412 127.036 1.31212C129.052 1.24812 131.116 1.18412 133.228 1.12012C133.068 1.76012 132.988 2.27212 132.988 2.65612C132.988 3.07212 133.068 3.56812 133.228 4.14412C132.556 4.04812 131.788 3.96812 130.924 3.90412C130.092 3.84012 129.212 3.79212 128.284 3.76012C127.388 3.69612 126.476 3.66412 125.548 3.66412C124.652 3.63212 123.788 3.61612 122.956 3.61612C122.86 6.91212 122.812 10.2241 122.812 13.5521V21.8081C122.812 23.9201 122.844 26.0001 122.908 28.0481C123.004 30.0961 123.1 32.1121 123.196 34.0961C122.46 34.0321 121.676 34.0001 120.844 34.0001C120.012 34.0001 119.228 34.0321 118.492 34.0961C118.588 32.1121 118.668 30.0961 118.732 28.0481C118.828 26.0001 118.876 23.9201 118.876 21.8081V13.5521Z" fill="white"/>
<path d="M101.869 34.7201C98.1887 30.4641 94.2687 26.1121 90.1087 21.6641C85.9487 17.1841 81.7887 12.7361 77.6287 8.32009C77.5967 9.21609 77.5647 10.4161 77.5327 11.9201C77.5007 13.4241 77.4847 15.4721 77.4847 18.0641C77.4847 18.7361 77.4847 19.5681 77.4847 20.5601C77.5167 21.5521 77.5327 22.5921 77.5327 23.6801C77.5647 24.7681 77.5967 25.8721 77.6287 26.9921C77.6607 28.1121 77.6927 29.1521 77.7247 30.1121C77.7567 31.0721 77.7887 31.9201 77.8207 32.6561C77.8527 33.3601 77.8847 33.8401 77.9167 34.0961C77.4047 34.0321 76.8447 34.0001 76.2367 34.0001C75.5967 34.0001 75.0047 34.0321 74.4607 34.0961C74.5247 33.7761 74.5887 33.1841 74.6527 32.3201C74.7487 31.4561 74.8287 30.4321 74.8927 29.2481C74.9567 28.0321 75.0207 26.7201 75.0847 25.3121C75.1807 23.9041 75.2447 22.4961 75.2767 21.0881C75.3407 19.6801 75.3887 18.3041 75.4207 16.9601C75.4527 15.6161 75.4687 14.4161 75.4687 13.3601C75.4687 10.2881 75.4527 7.64809 75.4207 5.44009C75.4207 3.23209 75.3887 1.58409 75.3247 0.496094H76.0927C78.0447 2.60809 80.1247 4.88009 82.3327 7.31209C84.5727 9.71209 86.7807 12.0961 88.9567 14.4641C91.1647 16.8001 93.2447 19.0241 95.1967 21.1361C97.1807 23.2161 98.9087 24.9921 100.381 26.4641V19.9361C100.381 16.5761 100.349 13.3121 100.285 10.1441C100.253 6.94409 100.157 3.93609 99.9967 1.12009C100.637 1.28009 101.181 1.36009 101.629 1.36009C102.013 1.36009 102.525 1.28009 103.165 1.12009C103.101 1.82409 103.021 2.88009 102.925 4.28809C102.861 5.69609 102.781 7.20009 102.685 8.80009C102.621 10.4001 102.557 11.9681 102.493 13.5041C102.429 15.0401 102.397 16.2721 102.397 17.2001C102.397 18.0001 102.397 18.9601 102.397 20.0801C102.397 21.1681 102.397 22.3041 102.397 23.4881C102.429 24.6721 102.445 25.8721 102.445 27.0881C102.477 28.2721 102.493 29.3921 102.493 30.4481C102.525 31.4721 102.541 32.3681 102.541 33.1361C102.541 33.8401 102.541 34.3681 102.541 34.7201H101.869Z" fill="white"/>
<path d="M32.1724 17.6801C32.1724 14.9601 32.6044 12.5441 33.4684 10.4321C34.3644 8.28809 35.5964 6.48009 37.1644 5.00809C38.7644 3.53609 40.6684 2.41609 42.8764 1.64809C45.0844 0.880094 47.5004 0.496094 50.1244 0.496094C52.7804 0.496094 55.2124 0.880094 57.4204 1.64809C59.6284 2.41609 61.5164 3.53609 63.0844 5.00809C64.6844 6.48009 65.9164 8.28809 66.7804 10.4321C67.6764 12.5441 68.1244 14.9601 68.1244 17.6801C68.1244 20.4001 67.6764 22.8321 66.7804 24.9761C65.9164 27.0881 64.6844 28.8801 63.0844 30.3521C61.5164 31.8241 59.6284 32.9281 57.4204 33.6641C55.2124 34.3681 52.7804 34.7201 50.1244 34.7201C47.5004 34.7201 45.0844 34.3681 42.8764 33.6641C40.6684 32.9281 38.7644 31.8241 37.1644 30.3521C35.5964 28.8801 34.3644 27.0881 33.4684 24.9761C32.6044 22.8321 32.1724 20.4001 32.1724 17.6801ZM63.4204 17.6801C63.4204 15.0241 63.0844 12.7361 62.4124 10.8161C61.7404 8.86409 60.7964 7.26409 59.5804 6.01609C58.3964 4.73609 56.9884 3.79209 55.3564 3.18409C53.7564 2.57609 52.0124 2.27209 50.1244 2.27209C48.2684 2.27209 46.5244 2.57609 44.8924 3.18409C43.2924 3.79209 41.8844 4.73609 40.6684 6.01609C39.4844 7.26409 38.5564 8.86409 37.8844 10.8161C37.2124 12.7361 36.8764 15.0241 36.8764 17.6801C36.8764 20.3361 37.2124 22.6401 37.8844 24.5921C38.5564 26.5121 39.4844 28.1121 40.6684 29.3921C41.8844 30.6401 43.2924 31.5681 44.8924 32.1761C46.5244 32.7841 48.2684 33.0881 50.1244 33.0881C52.0124 33.0881 53.7564 32.7841 55.3564 32.1761C56.9884 31.5681 58.3964 30.6401 59.5804 29.3921C60.7964 28.1121 61.7404 26.5121 62.4124 24.5921C63.0844 22.6401 63.4204 20.3361 63.4204 17.6801Z" fill="white"/>
<path d="M27.6607 32.1281C27.3727 32.3841 26.9087 32.6721 26.2687 32.9921C25.6607 33.2801 24.9087 33.5521 24.0127 33.8081C23.1487 34.0321 22.1727 34.2401 21.0847 34.4321C19.9967 34.6241 18.8607 34.7201 17.6767 34.7201C15.1487 34.7201 12.8127 34.3681 10.6687 33.6641C8.52474 32.9281 6.66874 31.8241 5.10074 30.3521C3.56474 28.8801 2.34874 27.0881 1.45274 24.9761C0.588738 22.8321 0.156738 20.4001 0.156738 17.6801C0.156738 14.9601 0.588738 12.5441 1.45274 10.4321C2.34874 8.28809 3.58074 6.48009 5.14874 5.00809C6.74874 3.53609 8.65274 2.41609 10.8607 1.64809C13.0687 0.880094 15.5007 0.496094 18.1567 0.496094C20.2687 0.496094 22.1887 0.720094 23.9167 1.16809C25.6767 1.58409 27.2287 2.09609 28.5727 2.70409C28.3167 3.15209 28.1087 3.76009 27.9487 4.52809C27.7887 5.29609 27.6607 5.93609 27.5647 6.44809L27.2767 6.54409C26.9567 6.16009 26.5087 5.72809 25.9327 5.24809C25.3567 4.76809 24.6847 4.30409 23.9167 3.85609C23.1487 3.40809 22.2847 3.04009 21.3247 2.75209C20.3647 2.43209 19.3087 2.27209 18.1567 2.27209C16.2687 2.27209 14.5087 2.57609 12.8767 3.18409C11.2767 3.79209 9.86874 4.73609 8.65274 6.01609C7.46874 7.26409 6.54074 8.86409 5.86874 10.8161C5.19674 12.7361 4.86074 15.0241 4.86074 17.6801C4.86074 20.3361 5.19674 22.6401 5.86874 24.5921C6.54074 26.5121 7.46874 28.1121 8.65274 29.3921C9.86874 30.6401 11.2767 31.5681 12.8767 32.1761C14.5087 32.7841 16.2687 33.0881 18.1567 33.0881C19.3087 33.0881 20.3647 32.9441 21.3247 32.6561C22.3167 32.3681 23.2127 32.0321 24.0127 31.6481C24.8447 31.2321 25.5807 30.8001 26.2207 30.3521C26.8927 29.8721 27.4527 29.4561 27.9007 29.1041L28.0927 29.2961L27.6607 32.1281Z" fill="white"/>
</svg>
