<svg width="165" height="35" viewBox="0 0 165 35" fill="none" xmlns="http://www.w3.org/2000/svg">
<path d="M150.079 13.552C150.079 10.224 150.031 6.912 149.935 3.616C149.103 3.616 148.223 3.632 147.295 3.664C146.399 3.664 145.487 3.696 144.559 3.76C143.663 3.792 142.783 3.84 141.919 3.904C141.087 3.968 140.335 4.048 139.663 4.144C139.823 3.568 139.903 3.056 139.903 2.608C139.903 2.256 139.823 1.76 139.663 1.12C141.775 1.184 143.839 1.248 145.855 1.312C147.871 1.344 149.935 1.36 152.047 1.36C154.159 1.36 156.223 1.344 158.239 1.312C160.255 1.248 162.319 1.184 164.431 1.12C164.271 1.76 164.191 2.272 164.191 2.656C164.191 3.072 164.271 3.568 164.431 4.144C163.759 4.048 162.991 3.968 162.127 3.904C161.295 3.84 160.415 3.792 159.487 3.76C158.591 3.696 157.679 3.664 156.751 3.664C155.855 3.632 154.991 3.616 154.159 3.616C154.063 6.912 154.015 10.224 154.015 13.552V21.808C154.015 23.92 154.047 26 154.111 28.048C154.207 30.096 154.303 32.112 154.399 34.096C153.663 34.032 152.879 34 152.047 34C151.215 34 150.431 34.032 149.695 34.096C149.791 32.112 149.871 30.096 149.935 28.048C150.031 26 150.079 23.92 150.079 21.808V13.552Z" fill="black"/>
<path d="M131.055 16.72C131.055 12.176 131.039 8.672 131.007 6.20799C130.975 3.744 130.895 2.048 130.767 1.12C131.119 1.184 131.455 1.248 131.775 1.312C132.095 1.344 132.415 1.36 132.735 1.36C133.151 1.36 133.631 1.28 134.175 1.12C134.079 2.24 133.983 3.584 133.887 5.152C133.791 6.688 133.711 8.352 133.647 10.144C133.583 11.904 133.519 13.728 133.455 15.616C133.391 17.472 133.343 19.28 133.311 21.04C133.279 23.184 132.943 25.104 132.303 26.8C131.695 28.496 130.815 29.936 129.663 31.12C128.511 32.304 127.087 33.2 125.391 33.808C123.727 34.416 121.807 34.72 119.631 34.72C114.831 34.72 111.343 33.632 109.167 31.456C106.991 29.28 105.903 25.84 105.903 21.136C105.903 19.632 105.935 18.304 105.999 17.152C106.095 15.968 106.143 14.768 106.143 13.552C106.143 10.864 106.111 8.48 106.047 6.4C105.983 4.32 105.919 2.56 105.855 1.12C106.239 1.184 106.655 1.248 107.103 1.312C107.551 1.344 107.967 1.36 108.351 1.36C108.703 1.36 109.039 1.344 109.359 1.312C109.711 1.248 110.063 1.184 110.415 1.12C110.351 1.824 110.287 2.752 110.223 3.904C110.159 5.024 110.095 6.304 110.031 7.744C109.967 9.184 109.919 10.736 109.887 12.4C109.855 14.064 109.839 15.792 109.839 17.584C109.839 18.672 109.855 19.808 109.887 20.992C109.919 22.144 110.031 23.28 110.223 24.4C110.415 25.488 110.719 26.544 111.135 27.568C111.583 28.56 112.207 29.44 113.007 30.208C113.807 30.944 114.815 31.536 116.031 31.984C117.247 32.4 118.751 32.608 120.543 32.608C122.303 32.608 123.775 32.352 124.959 31.84C126.175 31.328 127.167 30.656 127.935 29.824C128.703 28.992 129.295 28.032 129.711 26.944C130.159 25.856 130.479 24.72 130.671 23.536C130.863 22.352 130.975 21.168 131.007 19.984C131.039 18.8 131.055 17.712 131.055 16.72Z" fill="black"/>
<path d="M63.3752 17.68C63.3752 14.96 63.8072 12.544 64.6712 10.432C65.5672 8.28797 66.7992 6.47997 68.3672 5.00797C69.9672 3.53597 71.8712 2.41597 74.0792 1.64797C76.2872 0.879972 78.7032 0.495972 81.3272 0.495972C83.9832 0.495972 86.4152 0.879972 88.6232 1.64797C90.8312 2.41597 92.7192 3.53597 94.2872 5.00797C95.8872 6.47997 97.1192 8.28797 97.9832 10.432C98.8792 12.544 99.3272 14.96 99.3272 17.68C99.3272 20.4 98.8792 22.832 97.9832 24.976C97.1192 27.088 95.8872 28.88 94.2872 30.352C92.7192 31.824 90.8312 32.928 88.6232 33.664C86.4152 34.368 83.9832 34.72 81.3272 34.72C78.7032 34.72 76.2872 34.368 74.0792 33.664C71.8712 32.928 69.9672 31.824 68.3672 30.352C66.7992 28.88 65.5672 27.088 64.6712 24.976C63.8072 22.832 63.3752 20.4 63.3752 17.68ZM94.6232 17.68C94.6232 15.024 94.2872 12.736 93.6152 10.816C92.9432 8.86397 91.9992 7.26397 90.7832 6.01597C89.5992 4.73597 88.1912 3.79197 86.5592 3.18397C84.9592 2.57597 83.2152 2.27197 81.3272 2.27197C79.4712 2.27197 77.7272 2.57597 76.0952 3.18397C74.4952 3.79197 73.0872 4.73597 71.8712 6.01597C70.6872 7.26397 69.7592 8.86397 69.0872 10.816C68.4152 12.736 68.0792 15.024 68.0792 17.68C68.0792 20.336 68.4152 22.64 69.0872 24.592C69.7592 26.512 70.6872 28.112 71.8712 29.392C73.0872 30.64 74.4952 31.568 76.0952 32.176C77.7272 32.784 79.4712 33.088 81.3272 33.088C83.2152 33.088 84.9592 32.784 86.5592 32.176C88.1912 31.568 89.5992 30.64 90.7832 29.392C91.9992 28.112 92.9432 26.512 93.6152 24.592C94.2872 22.64 94.6232 20.336 94.6232 17.68Z" fill="black"/>
<path d="M40.6554 22.528C40.6554 24.16 40.6874 25.776 40.7514 27.376C40.8154 28.976 40.8795 30.592 40.9435 32.224C41.5515 32.288 42.2715 32.352 43.1035 32.416C43.9355 32.448 44.7834 32.464 45.6474 32.464C46.6714 32.464 47.6475 32.288 48.5755 31.936C49.5355 31.584 50.3674 31.072 51.0714 30.4C51.7754 29.696 52.3355 28.848 52.7514 27.856C53.1674 26.832 53.3755 25.68 53.3755 24.4C53.3755 23.024 53.1195 21.904 52.6075 21.04C52.1275 20.144 51.4234 19.456 50.4954 18.976C49.5674 18.464 48.4475 18.112 47.1355 17.92C45.8555 17.728 44.4154 17.632 42.8154 17.632H40.6554V22.528ZM43.2475 15.856C44.3675 15.856 45.4714 15.744 46.5594 15.52C47.6794 15.296 48.6715 14.928 49.5354 14.416C50.3995 13.872 51.0874 13.168 51.5994 12.304C52.1434 11.408 52.4155 10.288 52.4155 8.944C52.4155 7.632 52.1754 6.592 51.6954 5.824C51.2154 5.024 50.6074 4.416 49.8714 4C49.1354 3.552 48.3034 3.264 47.3755 3.136C46.4474 2.976 45.5194 2.896 44.5914 2.896C43.7594 2.896 43.0555 2.928 42.4795 2.992C41.9035 3.024 41.3915 3.072 40.9435 3.136C40.8795 4.672 40.8154 6.192 40.7514 7.696C40.6874 9.2 40.6554 10.72 40.6554 12.256V15.856H43.2475ZM36.7194 13.504C36.7194 11.392 36.6715 9.312 36.5755 7.264C36.5115 5.216 36.4314 3.168 36.3354 1.12C37.1674 1.184 38.0154 1.248 38.8794 1.312C39.7434 1.344 40.5915 1.36 41.4235 1.36C42.2555 1.36 43.1034 1.328 43.9674 1.264C44.8314 1.168 45.6795 1.12 46.5115 1.12C47.8875 1.12 49.1835 1.232 50.3995 1.456C51.6155 1.648 52.6875 2.016 53.6155 2.56C54.5435 3.072 55.2795 3.776 55.8235 4.672C56.3675 5.568 56.6395 6.688 56.6395 8.032C56.6395 10.4 55.8874 12.256 54.3834 13.6C52.9114 14.944 50.9755 15.888 48.5755 16.432V16.528C51.4235 16.656 53.6634 17.344 55.2954 18.592C56.9594 19.84 57.7915 21.84 57.7915 24.592C57.7915 26.384 57.4235 27.888 56.6875 29.104C55.9515 30.32 54.9914 31.312 53.8074 32.08C52.6234 32.816 51.3114 33.344 49.8714 33.664C48.4634 33.952 47.0554 34.096 45.6474 34.096C44.8794 34.096 44.0954 34.08 43.2954 34.048C42.5274 34.016 41.7595 34 40.9915 34C40.2235 34 39.4394 34 38.6395 34C37.8714 34 37.1034 34.032 36.3354 34.096C36.4314 32.048 36.5115 30.016 36.5755 28C36.6715 25.952 36.7194 23.872 36.7194 21.76V13.504Z" fill="black"/>
<path d="M9.93592 19.168C10.7679 19.168 11.6319 19.184 12.5279 19.216C13.4239 19.248 14.2879 19.264 15.1199 19.264C16.0159 19.264 16.9119 19.264 17.8079 19.264C18.7039 19.232 19.5999 19.2 20.4959 19.168L15.1679 6.97597L9.93592 19.168ZM31.1999 34.096C30.7519 34.032 30.3199 34 29.9039 34C29.5199 34 29.1039 34 28.6559 34C28.2079 34 27.7759 34 27.3599 34C26.9759 34 26.5599 34.032 26.1119 34.096C25.8879 33.36 25.5839 32.48 25.1999 31.456C24.8159 30.4 24.3839 29.312 23.9039 28.192C23.4559 27.04 22.9919 25.888 22.5119 24.736C22.0319 23.552 21.5839 22.432 21.1679 21.376C20.1439 21.344 19.1039 21.328 18.0479 21.328C16.9919 21.296 15.9359 21.28 14.8799 21.28C13.8879 21.28 12.9119 21.296 11.9519 21.328C10.9919 21.328 10.0159 21.344 9.02392 21.376C7.99992 23.872 7.07192 26.256 6.23992 28.528C5.40792 30.768 4.78392 32.624 4.36792 34.096C3.82392 34.032 3.23192 34 2.59192 34C1.95192 34 1.35992 34.032 0.815918 34.096C3.40792 28.496 5.93592 22.928 8.39992 17.392C10.8639 11.856 13.3439 6.22397 15.8399 0.495972H16.7519C17.5199 2.35197 18.3519 4.36797 19.2479 6.54397C20.1439 8.68797 21.0559 10.864 21.9839 13.072C22.9119 15.28 23.8399 17.472 24.7679 19.648C25.6959 21.824 26.5599 23.856 27.3599 25.744C28.1919 27.6 28.9279 29.264 29.5679 30.736C30.2399 32.208 30.7839 33.328 31.1999 34.096Z" fill="black"/>
</svg>
