<svg width="129" height="35" viewBox="0 0 129 35" fill="none" xmlns="http://www.w3.org/2000/svg">
<path d="M111.695 13.5041C111.695 11.3921 111.647 9.31212 111.551 7.26412C111.487 5.21612 111.407 3.16812 111.311 1.12012C112.751 1.18412 114.175 1.24812 115.583 1.31212C117.023 1.34412 118.463 1.36012 119.903 1.36012C121.343 1.36012 122.767 1.34412 124.175 1.31212C125.583 1.24812 127.007 1.18412 128.447 1.12012C128.351 1.60012 128.303 2.08012 128.303 2.56012C128.303 3.04012 128.351 3.52012 128.447 4.00012C127.423 3.93612 126.479 3.87212 125.615 3.80812C124.783 3.74412 123.887 3.68012 122.927 3.61612C121.999 3.55212 120.975 3.50412 119.855 3.47212C118.735 3.40812 117.391 3.37612 115.823 3.37612C115.791 4.40012 115.743 5.37612 115.679 6.30412C115.647 7.23212 115.631 8.28812 115.631 9.47212C115.631 10.7201 115.631 11.9361 115.631 13.1201C115.663 14.3041 115.679 15.2001 115.679 15.8081C117.087 15.8081 118.351 15.7921 119.471 15.7601C120.591 15.7281 121.615 15.6961 122.543 15.6641C123.471 15.6001 124.319 15.5521 125.087 15.5201C125.887 15.4561 126.639 15.3921 127.343 15.3281C127.247 15.8081 127.199 16.3041 127.199 16.8161C127.199 17.2961 127.247 17.7761 127.343 18.2561C126.511 18.1601 125.535 18.0801 124.415 18.0161C123.327 17.9521 122.223 17.9201 121.103 17.9201C120.015 17.8881 118.975 17.8721 117.983 17.8721C117.023 17.8401 116.255 17.8241 115.679 17.8241C115.679 18.1121 115.663 18.4321 115.631 18.7841C115.631 19.1041 115.631 19.5201 115.631 20.0321V21.9041V24.7841C115.631 26.6081 115.631 28.1121 115.631 29.2961C115.663 30.4801 115.695 31.3761 115.727 31.9841C116.783 31.9841 117.903 31.9841 119.087 31.9841C120.303 31.9841 121.487 31.9681 122.639 31.9361C123.823 31.8721 124.927 31.8081 125.951 31.7441C127.007 31.6481 127.919 31.5201 128.687 31.3601C128.623 31.5841 128.575 31.8401 128.543 32.1281C128.543 32.3841 128.543 32.6241 128.543 32.8481C128.543 33.3601 128.591 33.7761 128.687 34.0961C127.247 34.0321 125.807 34.0001 124.367 34.0001C122.959 34.0001 121.519 34.0001 120.047 34.0001C118.575 34.0001 117.119 34.0001 115.679 34.0001C114.239 34.0001 112.783 34.0321 111.311 34.0961C111.407 32.0481 111.487 30.0161 111.551 28.0001C111.647 25.9521 111.695 23.8721 111.695 21.7601V13.5041Z" fill="white"/>
<path d="M102.095 32.1281C101.807 32.3841 101.343 32.6721 100.703 32.9921C100.095 33.2801 99.3431 33.5521 98.4471 33.8081C97.5831 34.0321 96.6071 34.2401 95.5191 34.4321C94.4311 34.6241 93.2951 34.7201 92.1111 34.7201C89.5831 34.7201 87.2471 34.3681 85.1031 33.6641C82.9591 32.9281 81.1031 31.8241 79.5351 30.3521C77.9991 28.8801 76.7831 27.0881 75.8871 24.9761C75.0231 22.8321 74.5911 20.4001 74.5911 17.6801C74.5911 14.9601 75.0231 12.5441 75.8871 10.4321C76.7831 8.28809 78.0151 6.48009 79.5831 5.00809C81.1831 3.53609 83.0871 2.41609 85.2951 1.64809C87.5031 0.880094 89.9351 0.496094 92.5911 0.496094C94.7031 0.496094 96.6231 0.720094 98.3511 1.16809C100.111 1.58409 101.663 2.09609 103.007 2.70409C102.751 3.15209 102.543 3.76009 102.383 4.52809C102.223 5.29609 102.095 5.93609 101.999 6.44809L101.711 6.54409C101.391 6.16009 100.943 5.72809 100.367 5.24809C99.7911 4.76809 99.1191 4.30409 98.3511 3.85609C97.5831 3.40809 96.7191 3.04009 95.7591 2.75209C94.7991 2.43209 93.7431 2.27209 92.5911 2.27209C90.7031 2.27209 88.9431 2.57609 87.3111 3.18409C85.7111 3.79209 84.3031 4.73609 83.0871 6.01609C81.9031 7.26409 80.9751 8.86409 80.3031 10.8161C79.6311 12.7361 79.2951 15.0241 79.2951 17.6801C79.2951 20.3361 79.6311 22.6401 80.3031 24.5921C80.9751 26.5121 81.9031 28.1121 83.0871 29.3921C84.3031 30.6401 85.7111 31.5681 87.3111 32.1761C88.9431 32.7841 90.7031 33.0881 92.5911 33.0881C93.7431 33.0881 94.7991 32.9441 95.7591 32.6561C96.7511 32.3681 97.6471 32.0321 98.4471 31.6481C99.2791 31.2321 100.015 30.8001 100.655 30.3521C101.327 29.8721 101.887 29.4561 102.335 29.1041L102.527 29.2961L102.095 32.1281Z" fill="white"/>
<path d="M61.5197 13.5521C61.5197 11.4401 61.4717 9.37612 61.3757 7.36012C61.3117 5.31212 61.2317 3.23212 61.1357 1.12012C61.5517 1.18412 61.9517 1.24812 62.3357 1.31212C62.7197 1.34412 63.1037 1.36012 63.4877 1.36012C63.8717 1.36012 64.2557 1.34412 64.6397 1.31212C65.0237 1.24812 65.4237 1.18412 65.8397 1.12012C65.7437 3.23212 65.6477 5.31212 65.5517 7.36012C65.4877 9.37612 65.4557 11.4401 65.4557 13.5521V21.8081C65.4557 23.9201 65.4877 26.0001 65.5517 28.0481C65.6477 30.0961 65.7437 32.1121 65.8397 34.0961C65.1037 34.0321 64.3197 34.0001 63.4877 34.0001C62.6557 34.0001 61.8717 34.0321 61.1357 34.0961C61.2317 32.1121 61.3117 30.0961 61.3757 28.0481C61.4717 26.0001 61.5197 23.9201 61.5197 21.8081V13.5521Z" fill="white"/>
<path d="M29.7758 13.5521C29.7758 11.4401 29.7278 9.37612 29.6318 7.36012C29.5678 5.31212 29.4878 3.23212 29.3918 1.12012C30.3198 1.18412 31.2318 1.24812 32.1278 1.31212C33.0238 1.34412 33.9358 1.36012 34.8638 1.36012C35.7918 1.36012 36.7038 1.32812 37.5998 1.26412C38.4958 1.16812 39.4078 1.12012 40.3358 1.12012C41.6798 1.12012 42.9598 1.24812 44.1758 1.50412C45.3918 1.76012 46.4478 2.19212 47.3438 2.80012C48.2718 3.37612 48.9918 4.14412 49.5038 5.10412C50.0478 6.06412 50.3198 7.26412 50.3198 8.70412C50.3198 10.2401 49.9678 11.5681 49.2638 12.6881C48.5918 13.7761 47.7598 14.6881 46.7678 15.4241C45.7758 16.1281 44.7038 16.6881 43.5518 17.1041C42.4318 17.4881 41.4078 17.7441 40.4798 17.8721C40.8638 18.3521 41.3918 19.0241 42.0638 19.8881C42.7358 20.7521 43.4878 21.7121 44.3198 22.7681C45.1518 23.7921 46.0158 24.8801 46.9118 26.0321C47.8078 27.1521 48.6718 28.2401 49.5038 29.2961C50.3358 30.3201 51.1198 31.2641 51.8558 32.1281C52.5918 32.9921 53.1838 33.6481 53.6318 34.0961C53.1518 34.0321 52.6718 34.0001 52.1918 34.0001C51.7118 34.0001 51.2318 34.0001 50.7518 34.0001C50.3038 34.0001 49.8398 34.0001 49.3598 34.0001C48.8798 34.0001 48.4158 34.0321 47.9678 34.0961C47.4878 33.4241 46.7518 32.4161 45.7598 31.0721C44.7998 29.7281 43.7278 28.2881 42.5438 26.7521C41.3598 25.2161 40.1438 23.6961 38.8958 22.1921C37.6798 20.6561 36.5598 19.3601 35.5358 18.3041H33.7118V21.8081C33.7118 23.9201 33.7438 26.0001 33.8078 28.0481C33.9038 30.0961 33.9998 32.1121 34.0958 34.0961C33.3598 34.0321 32.5758 34.0001 31.7438 34.0001C30.9118 34.0001 30.1278 34.0321 29.3918 34.0961C29.4878 32.1121 29.5678 30.0961 29.6318 28.0481C29.7278 26.0001 29.7758 23.9201 29.7758 21.8081V13.5521ZM33.7118 16.2881C34.1598 16.3841 34.6398 16.4481 35.1518 16.4801C35.6958 16.5121 36.2878 16.5281 36.9278 16.5281C37.9198 16.5281 38.9438 16.4161 39.9998 16.1921C41.0878 15.9681 42.0798 15.5841 42.9758 15.0401C43.8718 14.4641 44.6078 13.7121 45.1838 12.7841C45.7918 11.8241 46.0958 10.6241 46.0958 9.18412C46.0958 7.93612 45.8558 6.91212 45.3758 6.11212C44.9278 5.28012 44.3358 4.62412 43.5998 4.14412C42.8638 3.66412 42.0638 3.34412 41.1998 3.18412C40.3358 2.99212 39.4878 2.89612 38.6558 2.89612C37.5358 2.89612 36.6078 2.92812 35.8718 2.99212C35.1358 3.02412 34.5118 3.07212 33.9998 3.13612C33.9358 4.89612 33.8718 6.64012 33.8078 8.36812C33.7438 10.0961 33.7118 11.8241 33.7118 13.5521V16.2881Z" fill="white"/>
<path d="M4.64007 17.1521C5.72807 17.4081 6.86407 17.5361 8.04807 17.5361C9.04007 17.5361 10.0641 17.4241 11.1201 17.2001C12.1761 16.9761 13.1361 16.5761 14.0001 16.0001C14.8961 15.3921 15.6161 14.5761 16.1601 13.5521C16.7361 12.4961 17.0241 11.1521 17.0241 9.52012C17.0241 8.14412 16.8321 7.02412 16.4481 6.16012C16.0641 5.29612 15.5201 4.62412 14.8161 4.14412C14.1441 3.66412 13.3121 3.34412 12.3201 3.18412C11.3281 2.99212 10.2081 2.89612 8.96007 2.89612H4.64007V17.1521ZM0.704069 13.5521C0.704069 11.4401 0.656069 9.37612 0.560069 7.36012C0.496068 5.31212 0.416068 3.23212 0.320068 1.12012C1.08807 1.18412 1.85607 1.24812 2.62407 1.31212C3.42407 1.34412 4.20807 1.36012 4.97607 1.36012C5.36007 1.36012 5.82407 1.34412 6.36807 1.31212C6.91207 1.28012 7.45607 1.26412 8.00007 1.26412C8.57607 1.23212 9.12007 1.20012 9.63207 1.16812C10.1441 1.13612 10.5761 1.12012 10.9281 1.12012C11.4081 1.12012 12.0001 1.13612 12.7041 1.16812C13.4081 1.20012 14.1441 1.29612 14.9121 1.45612C15.7121 1.61612 16.4961 1.85612 17.2641 2.17612C18.0321 2.49612 18.7201 2.96012 19.3281 3.56812C19.9681 4.17612 20.4801 4.94412 20.8641 5.87212C21.2481 6.76812 21.4401 7.88812 21.4401 9.23212C21.4401 11.3441 20.9761 13.0561 20.0481 14.3681C19.1521 15.6801 18.0321 16.7041 16.6881 17.4401C15.3761 18.1761 13.9681 18.6721 12.4641 18.9281C10.9921 19.1841 9.68007 19.3121 8.52807 19.3121C7.79207 19.3121 7.12007 19.3121 6.51207 19.3121C5.90407 19.2801 5.28007 19.2321 4.64007 19.1681V21.8081C4.64007 23.9201 4.67207 26.0001 4.73607 28.0481C4.83207 30.0961 4.92807 32.1121 5.02407 34.0961C4.28807 34.0321 3.50407 34.0001 2.67207 34.0001C1.84007 34.0001 1.05607 34.0321 0.320068 34.0961C0.416068 32.1121 0.496068 30.0961 0.560069 28.0481C0.656069 26.0001 0.704069 23.9201 0.704069 21.8081V13.5521Z" fill="white"/>
</svg>
