<svg width="206" height="206" viewBox="0 0 206 206" fill="none" xmlns="http://www.w3.org/2000/svg">
<circle cx="103" cy="103" r="102.5" stroke="black"/>
<path d="M182.31 103.936C182.114 104.011 181.911 104.113 181.702 104.241C181.503 104.381 181.318 104.548 181.148 104.742C180.978 104.947 180.832 105.186 180.712 105.457C180.602 105.729 180.538 106.036 180.521 106.377C180.504 106.728 180.546 107.046 180.65 107.329C180.763 107.623 180.916 107.871 181.109 108.073C181.312 108.286 181.549 108.452 181.821 108.573C182.103 108.694 182.404 108.762 182.724 108.778C183.214 108.803 183.609 108.695 183.909 108.453C184.209 108.223 184.465 107.926 184.675 107.563C184.886 107.199 185.082 106.803 185.263 106.375C185.445 105.957 185.662 105.567 185.915 105.206C186.179 104.845 186.503 104.547 186.889 104.31C187.274 104.083 187.781 103.986 188.41 104.018C188.857 104.04 189.258 104.14 189.612 104.318C189.977 104.497 190.285 104.742 190.536 105.053C190.787 105.376 190.976 105.754 191.104 106.187C191.232 106.621 191.282 107.104 191.256 107.637C191.23 108.148 191.144 108.587 190.997 108.953C190.861 109.32 190.658 109.657 190.386 109.964C190.21 109.859 190.022 109.77 189.823 109.696C189.623 109.621 189.371 109.545 189.065 109.465L189.075 109.273C189.227 109.228 189.39 109.161 189.565 109.074C189.751 108.998 189.922 108.883 190.079 108.731C190.236 108.59 190.368 108.415 190.474 108.206C190.591 107.999 190.657 107.746 190.672 107.447C190.687 107.149 190.653 106.87 190.57 106.609C190.487 106.359 190.359 106.134 190.188 105.933C190.026 105.743 189.826 105.589 189.586 105.47C189.346 105.362 189.082 105.301 188.794 105.286C188.294 105.261 187.893 105.364 187.593 105.595C187.293 105.836 187.032 106.138 186.811 106.5C186.601 106.864 186.405 107.254 186.223 107.672C186.052 108.102 185.846 108.497 185.603 108.859C185.361 109.221 185.058 109.515 184.694 109.742C184.329 109.98 183.854 110.085 183.268 110.055C182.778 110.031 182.319 109.917 181.892 109.714C181.463 109.521 181.093 109.247 180.78 108.889C180.477 108.543 180.247 108.12 180.09 107.621C179.944 107.133 179.886 106.58 179.917 105.962C179.95 105.302 180.063 104.768 180.254 104.361C180.455 103.965 180.675 103.635 180.913 103.369C181.153 103.477 181.368 103.552 181.558 103.593C181.758 103.646 182.012 103.696 182.32 103.744L182.31 103.936Z" fill="black"/>
<path d="M183.524 112.207C184.209 112.316 184.78 112.526 185.238 112.837C185.697 113.147 186.054 113.512 186.312 113.931C186.578 114.362 186.746 114.832 186.816 115.34C186.897 115.85 186.897 116.357 186.817 116.863C186.725 117.442 186.569 117.947 186.349 118.376C186.139 118.818 185.928 119.125 185.717 119.296C185.571 119.197 185.413 119.102 185.244 119.01C185.084 118.931 184.912 118.855 184.729 118.783L184.749 118.656C184.898 118.604 185.051 118.526 185.208 118.421C185.376 118.319 185.532 118.187 185.676 118.026C185.829 117.878 185.959 117.704 186.067 117.505C186.185 117.308 186.264 117.083 186.304 116.83C186.379 116.356 186.355 115.931 186.231 115.555C186.117 115.191 185.924 114.874 185.654 114.604C185.382 114.345 185.043 114.129 184.639 113.956C184.243 113.796 183.803 113.678 183.318 113.6C182.233 113.428 181.375 113.529 180.743 113.903C180.121 114.28 179.739 114.915 179.597 115.811C179.563 116.022 179.555 116.242 179.573 116.471C179.601 116.703 179.645 116.931 179.706 117.157C179.778 117.384 179.868 117.598 179.977 117.799C180.084 118.011 180.205 118.198 180.341 118.36L180.281 118.431C180.037 118.338 179.784 118.265 179.522 118.213C179.32 117.857 179.167 117.427 179.063 116.925C178.958 116.433 178.945 115.934 179.026 115.428C179.098 114.975 179.234 114.527 179.434 114.084C179.643 113.653 179.93 113.277 180.294 112.957C180.669 112.639 181.122 112.403 181.654 112.25C182.184 112.108 182.808 112.093 183.524 112.207Z" fill="black"/>
<path d="M183.48 125.301C183.555 125.265 183.638 125.177 183.729 125.035C183.818 124.903 183.882 124.76 183.921 124.605C183.984 124.357 183.984 124.12 183.921 123.895C183.857 123.669 183.744 123.464 183.582 123.28C183.43 123.098 183.229 122.937 182.979 122.796C182.739 122.658 182.469 122.551 182.169 122.474L180.463 122.04C179.771 121.863 179.239 121.728 178.866 121.633C178.502 121.551 178.202 121.497 177.967 121.47C178.04 121.268 178.103 121.064 178.156 120.858C178.214 120.63 178.259 120.41 178.291 120.198C178.634 120.319 179.106 120.456 179.705 120.608C180.313 120.774 181.056 120.969 181.934 121.193L182.43 121.319C182.833 121.422 183.3 121.535 183.83 121.659C184.357 121.793 184.965 121.932 185.656 122.075C185.606 122.183 185.558 122.286 185.511 122.384C185.474 122.485 185.441 122.592 185.412 122.706C185.388 122.799 185.369 122.899 185.353 123.005C185.347 123.113 185.34 123.227 185.332 123.346C184.97 123.21 184.682 123.109 184.468 123.043C184.251 122.988 184.044 122.935 183.847 122.885L183.824 122.912C184.785 123.807 185.169 124.631 184.977 125.386C184.953 125.479 184.929 125.555 184.902 125.614C184.874 125.684 184.825 125.765 184.758 125.858C184.647 125.775 184.464 125.695 184.208 125.619C183.962 125.545 183.736 125.482 183.529 125.43L183.48 125.301Z" fill="black"/>
<path d="M180.04 128.148C179.62 127.993 179.201 127.88 178.785 127.807C178.365 127.743 177.967 127.745 177.59 127.812C177.224 127.882 176.895 128.034 176.605 128.268C176.314 128.503 176.088 128.84 175.927 129.281C175.765 129.721 175.72 130.125 175.79 130.491C175.86 130.858 176.012 131.186 176.246 131.477C176.491 131.771 176.795 132.025 177.16 132.238C177.521 132.461 177.912 132.65 178.333 132.804C178.753 132.959 179.174 133.067 179.594 133.13C180.01 133.203 180.401 133.205 180.768 133.135C181.144 133.068 181.478 132.918 181.768 132.684C182.059 132.449 182.285 132.112 182.446 131.671C182.608 131.231 182.654 130.827 182.584 130.46C182.514 130.094 182.356 129.764 182.112 129.47C181.878 129.179 181.58 128.922 181.219 128.699C180.854 128.486 180.461 128.302 180.04 128.148ZM180.525 126.826C181.206 127.075 181.743 127.392 182.137 127.775C182.537 128.171 182.818 128.598 182.98 129.055C183.152 129.516 183.224 129.985 183.196 130.463C183.175 130.956 183.085 131.417 182.927 131.848C182.766 132.288 182.536 132.698 182.238 133.077C181.949 133.46 181.591 133.772 181.162 134.012C180.743 134.256 180.255 134.395 179.697 134.429C179.145 134.477 178.529 134.376 177.848 134.126C177.167 133.877 176.627 133.553 176.227 133.157C175.833 132.774 175.55 132.352 175.379 131.891C175.217 131.434 175.155 130.969 175.192 130.494C175.23 130.019 175.33 129.562 175.491 129.121C175.649 128.69 175.869 128.277 176.151 127.88C176.429 127.494 176.777 127.178 177.196 126.934C177.625 126.694 178.115 126.55 178.667 126.502C179.225 126.468 179.844 126.576 180.525 126.826Z" fill="black"/>
<path d="M179.89 138.463C180.218 138.619 180.576 138.784 180.966 138.958C181.351 139.142 181.734 139.318 182.114 139.488C182.494 139.657 182.857 139.813 183.203 139.954C183.554 140.11 183.855 140.235 184.105 140.331C183.928 140.577 183.801 140.782 183.723 140.946C183.645 141.11 183.566 141.338 183.485 141.63C183.254 141.496 182.969 141.337 182.632 141.153C182.299 140.982 181.948 140.803 181.577 140.614C181.206 140.426 180.83 140.235 180.449 140.042C180.064 139.858 179.708 139.688 179.381 139.532L176.767 138.286C176.439 138.13 176.083 137.96 175.698 137.776C175.308 137.602 174.923 137.431 174.543 137.261C174.163 137.092 173.802 136.932 173.46 136.781C173.114 136.639 172.826 136.525 172.595 136.439C172.72 136.227 172.833 136.015 172.934 135.803C173.035 135.591 173.129 135.37 173.215 135.139C173.427 135.264 173.7 135.412 174.032 135.582C174.36 135.762 174.709 135.946 175.08 136.135C175.451 136.323 175.829 136.51 176.214 136.693C176.595 136.886 176.949 137.061 177.276 137.217L179.89 138.463Z" fill="black"/>
<path d="M177.358 143.497C177.674 143.675 178.021 143.863 178.398 144.063C178.77 144.272 179.14 144.473 179.508 144.668C179.876 144.862 180.228 145.041 180.564 145.205C180.904 145.384 181.196 145.529 181.439 145.641C181.246 145.876 181.105 146.072 181.017 146.23C180.928 146.388 180.834 146.61 180.734 146.897C180.512 146.748 180.239 146.57 179.914 146.363C179.594 146.171 179.255 145.969 178.897 145.756C178.54 145.543 178.178 145.328 177.811 145.109C177.439 144.901 177.095 144.707 176.778 144.53L174.253 143.112C173.937 142.935 173.593 142.742 173.221 142.533C172.843 142.333 172.471 142.136 172.103 141.942C171.735 141.748 171.385 141.564 171.055 141.39C170.719 141.226 170.438 141.094 170.214 140.992C170.353 140.789 170.479 140.585 170.594 140.38C170.709 140.175 170.817 139.961 170.919 139.736C171.122 139.875 171.384 140.04 171.705 140.232C172.02 140.434 172.356 140.641 172.714 140.854C173.071 141.067 173.436 141.278 173.808 141.486C174.175 141.705 174.516 141.902 174.833 142.08L177.358 143.497Z" fill="black"/>
<path d="M171.615 151.838C172.161 152.283 172.704 152.705 173.246 153.104C173.788 153.519 174.343 153.936 174.909 154.356C174.636 154.657 174.367 154.953 174.101 155.246C173.837 155.553 173.577 155.864 173.321 156.179C173.065 156.493 172.82 156.81 172.588 157.129C172.357 157.464 172.113 157.788 171.857 158.102C171.264 158.83 170.664 159.373 170.056 159.731C169.441 160.097 168.821 160.3 168.196 160.341C167.579 160.389 166.954 160.279 166.32 160.01C165.688 159.756 165.053 159.37 164.416 158.851C163.589 158.177 163.008 157.463 162.673 156.709C162.34 155.97 162.182 155.235 162.198 154.506C162.208 153.785 162.357 153.095 162.646 152.436C162.937 151.792 163.281 151.226 163.678 150.738C163.907 150.457 164.137 150.183 164.368 149.917C164.598 149.651 164.828 149.377 165.057 149.096C165.286 148.815 165.512 148.538 165.734 148.265C165.957 147.992 166.174 147.708 166.387 147.414C166.879 147.856 167.383 148.301 167.899 148.749C168.408 149.205 168.936 149.655 169.481 150.1L171.615 151.838ZM168.653 151.117C167.76 150.389 166.863 149.7 165.962 149.049C165.779 149.189 165.554 149.398 165.287 149.675C165.028 149.96 164.77 150.259 164.514 150.573C164.144 151.028 163.827 151.527 163.564 152.069C163.301 152.612 163.174 153.182 163.182 153.78C163.183 154.386 163.349 155.01 163.68 155.651C164.012 156.307 164.588 156.968 165.406 157.635C166.126 158.221 166.791 158.612 167.403 158.808C168.007 159.011 168.57 159.064 169.091 158.965C169.613 158.881 170.099 158.665 170.548 158.316C171.006 157.973 171.444 157.546 171.861 157.033C172.165 156.661 172.435 156.303 172.673 155.96C172.911 155.618 173.118 155.305 173.294 155.021C172.917 154.673 172.516 154.312 172.091 153.939C171.668 153.58 171.233 153.219 170.786 152.855L168.653 151.117Z" fill="black"/>
<path d="M159.691 160.883C159.389 160.552 159.071 160.257 158.736 160C158.393 159.75 158.039 159.567 157.674 159.451C157.317 159.344 156.955 159.327 156.589 159.4C156.224 159.473 155.867 159.668 155.52 159.984C155.173 160.3 154.945 160.636 154.838 160.994C154.73 161.351 154.713 161.713 154.787 162.079C154.867 162.452 155.02 162.818 155.244 163.176C155.461 163.541 155.72 163.89 156.022 164.221C156.323 164.552 156.646 164.843 156.989 165.094C157.324 165.351 157.67 165.533 158.027 165.641C158.392 165.756 158.757 165.777 159.123 165.704C159.489 165.631 159.845 165.436 160.193 165.12C160.54 164.805 160.767 164.468 160.875 164.111C160.982 163.753 160.996 163.388 160.915 163.014C160.842 162.648 160.697 162.282 160.48 161.917C160.255 161.559 159.992 161.215 159.691 160.883ZM160.732 159.936C161.22 160.472 161.55 161.001 161.722 161.523C161.893 162.06 161.944 162.568 161.876 163.048C161.815 163.536 161.662 163.986 161.416 164.397C161.169 164.823 160.876 165.19 160.537 165.499C160.19 165.815 159.797 166.072 159.357 166.27C158.924 166.476 158.462 166.587 157.971 166.601C157.486 166.623 156.989 166.521 156.479 166.293C155.968 166.08 155.468 165.705 154.98 165.168C154.492 164.632 154.163 164.095 153.992 163.559C153.82 163.037 153.765 162.532 153.825 162.044C153.893 161.564 154.054 161.123 154.307 160.719C154.56 160.316 154.86 159.956 155.208 159.641C155.547 159.332 155.933 159.067 156.366 158.846C156.792 158.632 157.247 158.514 157.731 158.491C158.223 158.477 158.724 158.576 159.235 158.789C159.745 159.017 160.244 159.399 160.732 159.936Z" fill="black"/>
<path d="M149.429 164.797C149.755 165.053 150.177 165.374 150.693 165.759C151.21 166.145 151.765 166.549 152.358 166.972C152.949 167.411 153.559 167.849 154.188 168.287C154.814 168.74 155.416 169.157 155.995 169.539C155.877 169.593 155.763 169.644 155.654 169.692C155.541 169.754 155.432 169.821 155.326 169.893C155.229 169.958 155.134 170.028 155.043 170.103C154.958 170.186 154.863 170.275 154.76 170.37C153.97 169.693 153.155 169.027 152.315 168.371C151.472 167.729 150.58 167.082 149.64 166.43C149.7 166.749 149.792 167.163 149.916 167.671C150.039 168.179 150.179 168.721 150.336 169.298C150.492 169.874 150.654 170.459 150.822 171.053C150.991 171.647 151.153 172.193 151.309 172.693C151.12 172.756 150.972 172.823 150.866 172.894C150.795 172.942 150.736 172.988 150.689 173.033C150.648 173.086 150.598 173.145 150.539 173.211C149.746 172.51 148.924 171.842 148.072 171.207C147.226 170.58 146.346 169.932 145.432 169.261C145.507 169.622 145.607 170.056 145.73 170.565C145.851 171.088 145.979 171.631 146.115 172.196C146.256 172.769 146.404 173.351 146.557 173.942C146.702 174.539 146.839 175.096 146.968 175.614C146.761 175.689 146.605 175.762 146.499 175.833C146.384 175.911 146.266 176.022 146.145 176.167C145.929 174.757 145.691 173.381 145.431 172.039C145.161 170.703 144.866 169.385 144.544 168.085C144.653 168.037 144.774 167.968 144.907 167.879C144.969 167.837 145.031 167.795 145.093 167.754C145.154 167.712 145.202 167.668 145.234 167.62C145.994 168.253 146.779 168.875 147.59 169.487C148.4 170.099 149.277 170.724 150.22 171.362C150.148 171.025 150.053 170.607 149.935 170.107C149.824 169.616 149.696 169.092 149.551 168.533C149.407 167.975 149.257 167.407 149.1 166.831C148.95 166.264 148.812 165.753 148.685 165.298C148.803 165.244 148.933 165.169 149.075 165.074C149.216 164.979 149.334 164.887 149.429 164.797Z" fill="black"/>
<path d="M136.87 177.355C137.216 178.076 137.617 178.552 138.072 178.783C138.531 179.024 139.006 179.026 139.496 178.79C140.169 178.466 140.564 178.021 140.682 177.455C140.791 176.894 140.665 176.239 140.304 175.489L139.714 174.263C139.506 173.831 139.282 173.377 139.041 172.901C138.795 172.439 138.555 172.028 138.322 171.666C138.553 171.579 138.773 171.485 138.985 171.383C139.196 171.281 139.408 171.167 139.62 171.042C139.757 171.449 139.934 171.891 140.151 172.366C140.363 172.856 140.573 173.317 140.781 173.75L141.503 175.249C141.711 175.682 141.938 176.129 142.184 176.591C142.425 177.067 142.669 177.5 142.916 177.89C142.623 177.971 142.396 178.051 142.232 178.13C142.155 178.167 142.076 178.211 141.994 178.262C141.907 178.328 141.806 178.4 141.69 178.48C141.534 178.081 141.363 177.69 141.178 177.305L141.15 177.319C141.079 177.862 140.91 178.334 140.642 178.736C140.378 179.147 139.986 179.477 139.467 179.727C139.198 179.857 138.911 179.948 138.604 180C138.289 180.058 137.974 180.043 137.66 179.957C137.351 179.881 137.051 179.712 136.759 179.45C136.462 179.202 136.194 178.828 135.953 178.329C135.754 177.915 135.558 177.483 135.364 177.032C135.176 176.59 134.963 176.124 134.727 175.634L134.276 174.697C134.202 174.543 134.128 174.389 134.054 174.235C133.975 174.096 133.898 173.961 133.824 173.831C134.026 173.758 134.232 173.67 134.443 173.568C134.645 173.471 134.838 173.367 135.021 173.255C135.242 173.764 135.47 174.288 135.705 174.826C135.931 175.368 136.178 175.918 136.446 176.476L136.87 177.355Z" fill="black"/>
<path d="M123.833 179.527C123.707 179.359 123.553 179.192 123.372 179.026C123.184 178.872 122.973 178.74 122.739 178.63C122.495 178.522 122.226 178.447 121.932 178.406C121.64 178.375 121.328 178.397 120.996 178.474C120.653 178.553 120.359 178.681 120.115 178.858C119.863 179.047 119.667 179.262 119.525 179.503C119.376 179.756 119.28 180.03 119.238 180.324C119.199 180.629 119.215 180.937 119.287 181.249C119.398 181.727 119.61 182.077 119.924 182.301C120.228 182.526 120.583 182.69 120.99 182.794C121.397 182.897 121.832 182.977 122.294 183.035C122.745 183.095 123.179 183.197 123.596 183.342C124.015 183.497 124.391 183.728 124.724 184.034C125.047 184.343 125.279 184.804 125.421 185.417C125.522 185.854 125.535 186.267 125.46 186.656C125.388 187.056 125.237 187.419 125.006 187.746C124.764 188.075 124.452 188.361 124.07 188.602C123.688 188.844 123.237 189.024 122.717 189.144C122.218 189.259 121.772 189.296 121.38 189.255C120.99 189.225 120.61 189.121 120.241 188.943C120.293 188.745 120.328 188.54 120.345 188.328C120.362 188.116 120.367 187.852 120.36 187.537L120.547 187.493C120.632 187.627 120.741 187.766 120.873 187.911C120.997 188.068 121.153 188.202 121.343 188.311C121.522 188.423 121.726 188.502 121.956 188.548C122.188 188.604 122.449 188.598 122.74 188.531C123.031 188.464 123.29 188.355 123.518 188.204C123.736 188.055 123.918 187.871 124.064 187.651C124.202 187.444 124.296 187.209 124.345 186.946C124.383 186.685 124.37 186.415 124.305 186.134C124.193 185.646 123.985 185.289 123.681 185.063C123.367 184.84 123.005 184.672 122.596 184.558C122.189 184.455 121.759 184.373 121.308 184.313C120.848 184.266 120.411 184.175 119.997 184.041C119.583 183.906 119.217 183.695 118.898 183.407C118.57 183.122 118.34 182.693 118.208 182.122C118.098 181.643 118.082 181.171 118.16 180.704C118.228 180.24 118.391 179.808 118.65 179.409C118.9 179.023 119.244 178.686 119.681 178.399C120.111 178.125 120.627 177.919 121.23 177.78C121.874 177.631 122.418 177.593 122.862 177.666C123.297 177.752 123.676 177.872 123.996 178.028C123.958 178.289 123.945 178.516 123.957 178.711C123.96 178.918 123.982 179.176 124.02 179.484L123.833 179.527Z" fill="black"/>
<path d="M116.315 182.909C116.398 183.597 116.353 184.204 116.179 184.73C116.006 185.256 115.753 185.7 115.421 186.062C115.079 186.436 114.673 186.727 114.204 186.933C113.736 187.151 113.247 187.29 112.739 187.351C112.157 187.421 111.629 187.409 111.156 187.315C110.673 187.234 110.32 187.115 110.098 186.959C110.153 186.791 110.201 186.613 110.243 186.426C110.276 186.25 110.302 186.064 110.321 185.868L110.448 185.853C110.539 185.982 110.656 186.108 110.8 186.23C110.945 186.363 111.114 186.477 111.308 186.572C111.493 186.679 111.695 186.756 111.916 186.805C112.138 186.864 112.376 186.879 112.63 186.848C113.107 186.791 113.509 186.651 113.837 186.429C114.156 186.219 114.408 185.947 114.593 185.613C114.768 185.281 114.883 184.896 114.938 184.46C114.984 184.036 114.978 183.58 114.919 183.093C114.788 182.002 114.456 181.204 113.923 180.698C113.391 180.204 112.674 180.01 111.774 180.118C111.562 180.144 111.348 180.196 111.132 180.276C110.918 180.366 110.71 180.472 110.51 180.592C110.311 180.724 110.129 180.869 109.966 181.028C109.792 181.189 109.645 181.357 109.527 181.532L109.442 181.494C109.464 181.234 109.465 180.97 109.443 180.704C109.731 180.412 110.102 180.147 110.557 179.91C111.001 179.674 111.477 179.525 111.986 179.464C112.441 179.41 112.909 179.418 113.391 179.489C113.863 179.572 114.302 179.745 114.71 180.008C115.119 180.281 115.47 180.652 115.762 181.122C116.044 181.593 116.229 182.189 116.315 182.909Z" fill="black"/>
<path d="M103.575 186.435C103.63 186.498 103.738 186.554 103.899 186.603C104.05 186.652 104.205 186.674 104.365 186.67C104.621 186.663 104.849 186.598 105.048 186.476C105.248 186.353 105.414 186.188 105.547 185.982C105.68 185.786 105.781 185.549 105.848 185.269C105.915 185.001 105.945 184.712 105.936 184.403L105.889 182.643C105.87 181.929 105.855 181.38 105.844 180.996C105.824 180.623 105.794 180.32 105.756 180.086C105.97 180.102 106.183 180.107 106.396 180.101C106.631 180.094 106.855 180.078 107.067 180.051C107.045 180.414 107.042 180.905 107.059 181.523C107.065 182.153 107.081 182.921 107.105 183.827L107.119 184.339C107.13 184.755 107.149 185.234 107.174 185.778C107.189 186.322 107.222 186.945 107.273 187.648C107.155 187.63 107.042 187.611 106.935 187.593C106.828 187.585 106.716 187.583 106.599 187.586C106.503 187.589 106.402 187.597 106.295 187.61C106.189 187.634 106.078 187.659 105.961 187.683C105.993 187.298 106.012 186.994 106.016 186.769C106.01 186.546 106.005 186.332 105.999 186.13L105.967 186.115C105.369 187.283 104.681 187.878 103.902 187.899C103.806 187.902 103.726 187.898 103.662 187.89C103.587 187.881 103.496 187.857 103.388 187.817C103.438 187.687 103.464 187.489 103.468 187.223C103.472 186.966 103.47 186.732 103.465 186.518L103.575 186.435Z" fill="black"/>
<path d="M99.6673 183.883C99.7018 183.437 99.6979 183.003 99.6555 182.583C99.6025 182.161 99.493 181.778 99.3271 181.434C99.1603 181.1 98.9248 180.825 98.6206 180.609C98.3163 180.393 97.9302 180.267 97.4623 180.231C96.9943 180.194 96.5934 180.26 96.2596 180.426C95.9258 180.593 95.6508 180.829 95.4347 181.133C95.2178 181.448 95.0561 181.81 94.9496 182.219C94.8324 182.627 94.7566 183.054 94.7221 183.501C94.6875 183.948 94.6968 184.382 94.7498 184.803C94.7922 185.224 94.8968 185.601 95.0635 185.935C95.2295 186.279 95.4646 186.559 95.7688 186.775C96.0731 186.992 96.4592 187.118 96.9271 187.154C97.395 187.19 97.7959 187.125 98.1298 186.958C98.4636 186.791 98.739 186.55 98.9559 186.235C99.172 185.931 99.3386 185.575 99.4558 185.167C99.5623 184.758 99.6328 184.33 99.6673 183.883ZM101.071 183.992C101.015 184.715 100.856 185.318 100.594 185.8C100.321 186.293 99.9861 186.679 99.5901 186.959C99.1932 187.249 98.7608 187.445 98.2928 187.548C97.8133 187.661 97.3449 187.7 96.8876 187.664C96.4197 187.628 95.9628 187.518 95.517 187.334C95.0704 187.16 94.6733 186.899 94.3258 186.552C93.9774 186.214 93.7113 185.782 93.5274 185.254C93.3321 184.736 93.2624 184.116 93.3183 183.393C93.3742 182.669 93.5388 182.062 93.8122 181.569C94.0742 181.087 94.4036 180.7 94.8005 180.41C95.1966 180.13 95.6282 179.944 96.0954 179.852C96.5625 179.76 97.0301 179.732 97.498 179.768C97.9553 179.803 98.413 179.903 98.8711 180.067C99.3185 180.23 99.7164 180.48 100.065 180.817C100.412 181.165 100.684 181.598 100.879 182.115C101.063 182.643 101.127 183.269 101.071 183.992Z" fill="black"/>
<path d="M89.6906 186.529C89.6295 186.886 89.5683 187.276 89.5069 187.699C89.435 188.119 89.3692 188.535 89.3096 188.947C89.25 189.359 89.1993 189.751 89.1574 190.122C89.1032 190.503 89.0641 190.826 89.0402 191.093C88.7548 190.99 88.5227 190.923 88.344 190.892C88.1652 190.862 87.9242 190.848 87.6208 190.85C87.6868 190.591 87.7626 190.273 87.8484 189.899C87.9218 189.532 87.9988 189.145 88.0795 188.737C88.1601 188.329 88.2416 187.915 88.324 187.496C88.3959 187.076 88.4625 186.687 88.5236 186.329L89.0117 183.475C89.0728 183.117 89.1393 182.728 89.2112 182.308C89.2726 181.885 89.3331 181.468 89.3927 181.056C89.4523 180.645 89.5083 180.254 89.5607 179.884C89.6026 179.512 89.6337 179.204 89.654 178.958C89.8922 179.021 90.127 179.072 90.3583 179.111C90.5896 179.151 90.828 179.181 91.0734 179.201C91.011 179.439 90.9431 179.742 90.8697 180.108C90.7858 180.472 90.7035 180.858 90.6228 181.267C90.5422 181.675 90.466 182.089 90.394 182.51C90.3116 182.929 90.2398 183.317 90.1787 183.674L89.6906 186.529Z" fill="black"/>
<path d="M84.1553 185.456C84.0698 185.808 83.9819 186.193 83.8917 186.61C83.7911 187.025 83.6969 187.435 83.6092 187.842C83.5214 188.249 83.4439 188.636 83.3766 189.004C83.2964 189.38 83.2353 189.7 83.1931 189.964C82.9154 189.842 82.6885 189.759 82.5123 189.716C82.3361 189.674 82.0965 189.643 81.7937 189.624C81.8773 189.37 81.9748 189.059 82.0861 188.691C82.1845 188.331 82.2879 187.95 82.3964 187.548C82.5048 187.146 82.6145 186.739 82.7255 186.327C82.8261 185.913 82.9192 185.529 83.0047 185.177L83.6876 182.362C83.7731 182.01 83.8662 181.626 83.9668 181.212C84.057 180.794 84.146 180.382 84.2337 179.976C84.3215 179.569 84.4042 179.183 84.4818 178.818C84.5491 178.45 84.6014 178.144 84.6385 177.901C84.8719 177.979 85.1026 178.046 85.3306 178.102C85.5587 178.157 85.7944 178.203 86.0379 178.24C85.9593 178.474 85.8708 178.77 85.7724 179.131C85.6636 179.488 85.555 179.868 85.4466 180.27C85.3381 180.672 85.2336 181.08 85.1329 181.495C85.022 181.907 84.9237 182.289 84.8382 182.641L84.1553 185.456Z" fill="black"/>
<path d="M74.5865 182.189C74.3051 182.834 74.0446 183.471 73.8053 184.1C73.5519 184.734 73.2991 185.38 73.0469 186.038C72.6839 185.857 72.3258 185.677 71.9726 185.5C71.6054 185.328 71.236 185.161 70.8644 184.999C70.4929 184.837 70.122 184.687 69.7518 184.549C69.3674 184.416 68.9895 184.269 68.618 184.106C67.7576 183.731 67.0734 183.299 66.5653 182.81C66.0475 182.316 65.6847 181.774 65.477 181.183C65.2651 180.601 65.2033 179.969 65.2918 179.286C65.3662 178.609 65.5676 177.894 65.896 177.141C66.3225 176.163 66.8539 175.412 67.4904 174.887C68.1129 174.367 68.7776 174.017 69.4847 173.836C70.182 173.652 70.8868 173.61 71.599 173.711C72.2973 173.818 72.9348 173.997 73.5116 174.249C73.8441 174.394 74.1695 174.542 74.4878 174.692C74.8062 174.843 75.1316 174.99 75.464 175.135C75.7964 175.28 76.1239 175.423 76.4466 175.564C76.7692 175.705 77.101 175.838 77.442 175.963C77.1482 176.557 76.8551 177.162 76.5626 177.779C76.2603 178.392 75.9684 179.021 75.6869 179.667L74.5865 182.189ZM74.4843 179.142C74.945 178.086 75.3677 177.037 75.7526 175.995C75.5686 175.856 75.307 175.695 74.9679 175.513C74.6244 175.339 74.2669 175.172 73.8954 175.01C73.3577 174.775 72.7922 174.604 72.1991 174.497C71.6059 174.389 71.0223 174.42 70.4484 174.588C69.8647 174.753 69.3086 175.08 68.7802 175.571C68.2377 176.068 67.7554 176.8 67.3332 177.768C66.9621 178.619 66.7647 179.365 66.741 180.006C66.7075 180.643 66.8082 181.199 67.0433 181.674C67.2643 182.154 67.6034 182.564 68.0606 182.903C68.5136 183.252 69.0431 183.559 69.6493 183.823C70.0892 184.015 70.5063 184.18 70.9004 184.317C71.2945 184.454 71.6516 184.569 71.9717 184.662C72.2058 184.205 72.4456 183.722 72.6912 183.213C72.9227 182.708 73.1537 182.192 73.384 181.664L74.4843 179.142Z" fill="black"/>
<path d="M62.7566 173.183C62.9943 172.804 63.1919 172.418 63.3493 172.025C63.4977 171.627 63.5783 171.237 63.591 170.855C63.598 170.482 63.5169 170.129 63.3475 169.797C63.1782 169.464 62.8946 169.173 62.4968 168.924C62.0989 168.675 61.7135 168.547 61.3404 168.54C60.9673 168.533 60.6144 168.614 60.2819 168.784C59.9437 168.962 59.6326 169.208 59.3486 169.521C59.0555 169.828 58.7901 170.172 58.5524 170.551C58.3147 170.931 58.1216 171.32 57.9732 171.718C57.8158 172.11 57.7335 172.493 57.7265 172.866C57.7138 173.248 57.7921 173.605 57.9614 173.938C58.1308 174.27 58.4144 174.561 58.8122 174.81C59.21 175.059 59.5955 175.187 59.9686 175.194C60.3417 175.201 60.6974 175.116 61.0356 174.937C61.3681 174.768 61.6809 174.53 61.974 174.222C62.258 173.909 62.5189 173.563 62.7566 173.183ZM63.95 173.93C63.5652 174.545 63.1448 175.006 62.6889 175.312C62.2183 175.621 61.7427 175.808 61.2622 175.872C60.7759 175.945 60.3016 175.919 59.8393 175.793C59.3622 175.671 58.9293 175.488 58.5405 175.244C58.1427 174.995 57.789 174.686 57.4795 174.316C57.1643 173.955 56.9334 173.54 56.7867 173.07C56.6344 172.61 56.5992 172.104 56.681 171.551C56.7481 171.001 56.9741 170.419 57.359 169.804C57.7438 169.19 58.1715 168.727 58.6421 168.418C59.098 168.112 59.5691 167.922 60.0553 167.849C60.5359 167.785 61.0045 167.82 61.4612 167.955C61.9179 168.09 62.3451 168.282 62.743 168.531C63.1317 168.774 63.4911 169.075 63.821 169.432C64.1418 169.784 64.3784 170.19 64.5307 170.651C64.6774 171.12 64.7171 171.629 64.65 172.179C64.5682 172.732 64.3349 173.316 63.95 173.93Z" fill="black"/>
<path d="M56.2316 164.357C56.0732 164.741 55.878 165.233 55.6463 165.834C55.4145 166.435 55.1747 167.079 54.927 167.765C54.6643 168.452 54.4068 169.157 54.1546 169.881C53.8873 170.606 53.6477 171.299 53.4358 171.959C53.3522 171.86 53.2726 171.764 53.1971 171.671C53.1066 171.58 53.0126 171.493 52.9151 171.41C52.8258 171.334 52.733 171.262 52.6368 171.194C52.5336 171.134 52.4223 171.068 52.3029 170.994C52.7419 170.051 53.164 169.086 53.5692 168.1C53.9594 167.116 54.342 166.083 54.7169 165.001C54.4258 165.145 54.0521 165.345 53.5959 165.601C53.1398 165.857 52.6553 166.138 52.1426 166.444C51.6299 166.75 51.1102 167.064 50.5837 167.386C50.0572 167.709 49.5745 168.012 49.1358 168.297C49.0242 168.132 48.9197 168.008 48.8222 167.925C48.7572 167.869 48.6969 167.825 48.6413 167.792C48.5787 167.766 48.5081 167.734 48.4293 167.695C48.8902 166.743 49.3117 165.771 49.6938 164.779C50.0689 163.796 50.4562 162.773 50.8554 161.712C50.5285 161.882 50.137 162.095 49.6808 162.351C49.2096 162.608 48.7205 162.878 48.2135 163.161C47.6995 163.452 47.1787 163.751 46.6509 164.058C46.1151 164.358 45.6156 164.641 45.1525 164.905C45.0246 164.726 44.912 164.595 44.8145 164.512C44.709 164.422 44.5699 164.338 44.3972 164.261C45.6969 163.673 46.9579 163.073 48.18 162.46C49.394 161.841 50.5836 161.201 51.7489 160.54C51.8244 160.632 51.923 160.73 52.0448 160.834C52.1017 160.882 52.1585 160.931 52.2154 160.979C52.2722 161.027 52.3279 161.061 52.3823 161.079C51.9779 161.982 51.5904 162.906 51.2197 163.851C50.849 164.796 50.4838 165.809 50.124 166.89C50.4289 166.729 50.806 166.525 51.2552 166.277C51.6976 166.037 52.1682 165.773 52.6671 165.483C53.166 165.193 53.6718 164.895 54.1845 164.589C54.6903 164.292 55.1453 164.021 55.5494 163.776C55.6331 163.876 55.7398 163.981 55.8698 164.091C55.9997 164.202 56.1203 164.291 56.2316 164.357Z" fill="black"/>
<path d="M40.7551 155.648C40.1536 156.176 39.8025 156.689 39.7017 157.189C39.5929 157.696 39.7179 158.154 40.0766 158.563C40.5689 159.124 41.1035 159.386 41.6805 159.348C42.2504 159.303 42.8481 159.005 43.4736 158.457L44.4961 157.56C44.8569 157.244 45.2343 156.905 45.6283 156.546C46.0072 156.185 46.3394 155.844 46.625 155.523C46.7707 155.721 46.921 155.909 47.0757 156.085C47.2304 156.261 47.3967 156.435 47.5745 156.605C47.2186 156.846 46.8406 157.135 46.4406 157.472C46.0256 157.808 45.6376 158.134 45.2767 158.45L44.0257 159.547C43.6648 159.864 43.295 160.202 42.9161 160.563C42.5221 160.923 42.1703 161.274 41.8607 161.616C41.7038 161.357 41.5656 161.159 41.4461 161.022C41.3898 160.958 41.326 160.894 41.2547 160.828C41.1683 160.762 41.0714 160.684 40.9639 160.594C41.3058 160.337 41.6371 160.067 41.9579 159.786L41.9368 159.762C41.395 159.84 40.8948 159.803 40.436 159.652C39.9693 159.508 39.546 159.22 39.1662 158.787C38.9693 158.562 38.8044 158.31 38.6716 158.029C38.5318 157.74 38.4612 157.433 38.4599 157.108C38.4505 156.79 38.5329 156.455 38.7071 156.104C38.8662 155.751 39.1543 155.392 39.5713 155.026C39.9161 154.724 40.28 154.419 40.663 154.112C41.0379 153.811 41.4299 153.482 41.8389 153.123L42.6208 152.437C42.7491 152.325 42.8774 152.212 43.0057 152.1C43.119 151.986 43.2282 151.876 43.3334 151.77C43.4581 151.944 43.5977 152.119 43.7525 152.296C43.9002 152.464 44.0524 152.622 44.2091 152.768C43.778 153.118 43.3349 153.478 42.8798 153.849C42.4176 154.211 41.954 154.597 41.4888 155.005L40.7551 155.648Z" fill="black"/>
<path d="M35.1402 143.732C35.2677 143.565 35.3871 143.372 35.4984 143.153C35.5952 142.93 35.6652 142.691 35.7083 142.436C35.7463 142.172 35.7456 141.893 35.7061 141.599C35.6573 141.309 35.551 141.015 35.3872 140.715C35.2184 140.406 35.0159 140.158 34.7799 139.971C34.5294 139.78 34.2692 139.649 33.9993 139.578C33.7149 139.502 33.4254 139.484 33.1309 139.524C32.8271 139.568 32.5347 139.667 32.254 139.821C31.8235 140.056 31.5433 140.355 31.4134 140.718C31.2784 141.072 31.2163 141.458 31.2269 141.878C31.2376 142.297 31.2776 142.738 31.3471 143.198C31.4114 143.649 31.4302 144.095 31.4034 144.535C31.3673 144.98 31.2468 145.405 31.0421 145.808C30.8322 146.203 30.4512 146.551 29.8991 146.853C29.506 147.068 29.112 147.192 28.717 147.226C28.3127 147.264 27.9219 147.217 27.5446 147.083C27.1622 146.939 26.8032 146.716 26.4675 146.413C26.1317 146.111 25.8359 145.725 25.58 145.257C25.3344 144.808 25.1782 144.389 25.1114 144C25.0352 143.616 25.0326 143.223 25.1037 142.819C25.3089 142.816 25.5157 142.794 25.7242 142.753C25.9328 142.712 26.1881 142.645 26.4902 142.553L26.5823 142.722C26.4769 142.84 26.3723 142.982 26.2686 143.149C26.1505 143.31 26.0643 143.497 26.01 143.709C25.9506 143.912 25.93 144.13 25.9481 144.363C25.9569 144.602 26.0329 144.852 26.1762 145.114C26.3195 145.376 26.4947 145.596 26.7017 145.775C26.9037 145.944 27.1303 146.069 27.3815 146.151C27.6182 146.228 27.8698 146.254 28.1362 146.23C28.3975 146.197 28.6545 146.111 28.9072 145.973C29.3471 145.732 29.6345 145.435 29.7695 145.082C29.8994 144.719 29.9636 144.325 29.9623 143.901C29.9517 143.481 29.9142 143.045 29.8499 142.594C29.7711 142.139 29.7404 141.694 29.7578 141.259C29.7752 140.824 29.8795 140.414 30.0706 140.03C30.2566 139.637 30.607 139.299 31.1218 139.018C31.5523 138.782 32.0029 138.639 32.4736 138.588C32.9392 138.528 33.3989 138.569 33.8528 138.71C34.2922 138.846 34.7092 139.086 35.1037 139.43C35.4837 139.769 35.8222 140.21 36.119 140.753C36.4363 141.333 36.6198 141.847 36.6697 142.293C36.7051 142.736 36.691 143.133 36.6275 143.484C36.3662 143.517 36.1437 143.566 35.9598 143.63C35.7616 143.69 35.519 143.78 35.2323 143.9L35.1402 143.732Z" fill="black"/>
<path d="M29.826 137.407C29.1854 137.673 28.5887 137.793 28.0357 137.768C27.4827 137.743 26.987 137.619 26.5485 137.397C26.096 137.168 25.7069 136.856 25.3812 136.46C25.0456 136.068 24.7799 135.635 24.584 135.162C24.3595 134.62 24.2285 134.109 24.1909 133.628C24.1394 133.141 24.1587 132.77 24.2487 132.513C24.425 132.521 24.6093 132.52 24.8013 132.509C24.9794 132.493 25.1653 132.468 25.359 132.434L25.408 132.552C25.3084 132.674 25.2191 132.821 25.1399 132.992C25.051 133.168 24.987 133.362 24.9479 133.574C24.895 133.781 24.8748 133.997 24.8875 134.223C24.8903 134.452 24.9407 134.686 25.0386 134.922C25.2223 135.366 25.4653 135.715 25.7675 135.971C26.0558 136.221 26.3857 136.39 26.7572 136.479C27.1246 136.558 27.5258 136.565 27.9608 136.5C28.3819 136.429 28.8191 136.3 29.2724 136.113C30.2875 135.692 30.9663 135.157 31.3091 134.507C31.6419 133.861 31.6349 133.119 31.2879 132.282C31.2063 132.085 31.098 131.893 30.963 131.706C30.8181 131.524 30.6606 131.352 30.4902 131.192C30.3101 131.036 30.1212 130.9 29.9237 130.786C29.7221 130.662 29.5209 130.566 29.32 130.499L29.3337 130.407C29.5907 130.358 29.8444 130.288 30.0948 130.196C30.4538 130.393 30.8089 130.679 31.1601 131.053C31.5072 131.417 31.7787 131.836 31.9746 132.309C32.1502 132.733 32.2686 133.186 32.3299 133.669C32.3773 134.145 32.3296 134.615 32.1866 135.079C32.0338 135.546 31.7708 135.984 31.3974 136.393C31.0199 136.792 30.4961 137.13 29.826 137.407Z" fill="black"/>
<path d="M22.9836 126.106C22.9382 126.176 22.9135 126.295 22.9096 126.464C22.9026 126.622 22.9226 126.778 22.9697 126.931C23.045 127.175 23.1686 127.377 23.3404 127.537C23.5121 127.696 23.7153 127.812 23.9498 127.885C24.1741 127.961 24.4298 127.993 24.7168 127.983C24.9936 127.976 25.2798 127.927 25.5755 127.836L27.2575 127.318C27.9406 127.108 28.4656 126.946 28.8326 126.833C29.1862 126.713 29.4705 126.603 29.6853 126.503C29.7277 126.714 29.7803 126.921 29.8431 127.125C29.9122 127.349 29.9883 127.56 30.0715 127.757C29.7154 127.834 29.2418 127.963 28.6505 128.145C28.0459 128.32 27.3104 128.541 26.4438 128.807L25.9545 128.958C25.5569 129.081 25.0998 129.227 24.583 129.397C24.0631 129.557 23.4714 129.756 22.808 129.994C22.7939 129.876 22.7813 129.762 22.7703 129.654C22.7491 129.549 22.7212 129.44 22.6867 129.328C22.6585 129.236 22.6235 129.141 22.5819 129.042C22.5302 128.947 22.4768 128.846 22.4219 128.74C22.8015 128.668 23.0998 128.604 23.3171 128.548C23.5311 128.482 23.735 128.419 23.9287 128.36L23.9346 128.325C22.6484 128.062 21.8907 127.559 21.6616 126.815C21.6333 126.723 21.6149 126.645 21.6062 126.581C21.5945 126.506 21.5933 126.412 21.6026 126.297C21.7407 126.31 21.9387 126.283 22.1967 126.215C22.4445 126.149 22.6703 126.085 22.8742 126.023L22.9836 126.106Z" fill="black"/>
<path d="M24.4842 122.1C24.9233 122.011 25.3392 121.889 25.7321 121.733C26.1229 121.567 26.4612 121.357 26.7472 121.103C27.0227 120.851 27.2227 120.549 27.3474 120.198C27.472 119.846 27.4877 119.44 27.3945 118.98C27.3013 118.52 27.1288 118.152 26.8771 117.877C26.6253 117.601 26.3236 117.401 25.9718 117.277C25.6096 117.154 25.2173 117.097 24.7947 117.107C24.37 117.106 23.9382 117.15 23.4991 117.239C23.06 117.328 22.6451 117.455 22.2543 117.622C21.8615 117.777 21.5273 117.981 21.2518 118.233C20.9658 118.487 20.7605 118.79 20.6359 119.141C20.5113 119.493 20.4956 119.899 20.5888 120.359C20.682 120.819 20.8545 121.187 21.1062 121.462C21.3579 121.738 21.6649 121.937 22.0271 122.059C22.3789 122.184 22.7671 122.247 23.1918 122.248C23.6143 122.238 24.0451 122.189 24.4842 122.1ZM24.7638 123.48C24.0529 123.624 23.4296 123.636 22.8937 123.516C22.3453 123.388 21.8825 123.171 21.5052 122.867C21.1174 122.565 20.81 122.202 20.583 121.78C20.3434 121.35 20.1781 120.91 20.087 120.461C19.9938 120.001 19.9748 119.531 20.0301 119.052C20.0749 118.575 20.217 118.122 20.4565 117.692C20.6855 117.265 21.0287 116.891 21.486 116.569C21.9308 116.24 22.5086 116.003 23.2195 115.859C23.9304 115.715 24.56 115.707 25.1084 115.835C25.6442 115.955 26.106 116.166 26.4938 116.469C26.8711 116.773 27.1681 117.137 27.3846 117.562C27.6011 117.986 27.756 118.428 27.8492 118.888C27.9403 119.337 27.9698 119.805 27.9375 120.29C27.9032 120.765 27.7715 121.216 27.5424 121.644C27.303 122.073 26.9609 122.453 26.5161 122.782C26.0588 123.103 25.4747 123.336 24.7638 123.48Z" fill="black"/>
<path d="M19.1857 113.068C18.825 113.106 18.433 113.152 18.0098 113.207C17.5854 113.252 17.1669 113.301 16.7543 113.355C16.3417 113.408 15.9508 113.465 15.5817 113.525C15.2009 113.576 14.879 113.626 14.616 113.675C14.638 113.372 14.6396 113.131 14.6207 112.95C14.6019 112.77 14.5504 112.534 14.4663 112.242C14.7338 112.236 15.0596 112.223 15.4437 112.205C15.8161 112.176 16.2098 112.146 16.6246 112.113C17.0395 112.081 17.4596 112.048 17.8851 112.014C18.3095 111.97 18.702 111.929 19.0627 111.891L21.943 111.59C22.3037 111.552 22.6963 111.511 23.1206 111.467C23.5439 111.412 23.9618 111.358 24.3745 111.304C24.7871 111.25 25.1785 111.198 25.5487 111.149C25.9178 111.089 26.2233 111.036 26.465 110.989C26.4693 111.235 26.4836 111.475 26.508 111.708C26.5324 111.942 26.568 112.179 26.6147 112.421C26.3684 112.425 26.0591 112.442 25.6867 112.47C25.3132 112.487 24.919 112.512 24.5041 112.545C24.0893 112.578 23.6697 112.616 23.2453 112.66C22.8198 112.694 22.4268 112.73 22.0661 112.768L19.1857 113.068Z" fill="black"/>
<path d="M18.7156 107.51C18.3532 107.524 17.9591 107.545 17.5331 107.572C17.1068 107.588 16.686 107.61 16.2707 107.636C15.8554 107.663 15.4617 107.694 15.0894 107.73C14.7061 107.756 14.3817 107.784 14.116 107.816C14.1578 107.515 14.1752 107.274 14.1682 107.093C14.1612 106.912 14.1253 106.673 14.0605 106.377C14.3277 106.388 14.6537 106.397 15.0382 106.403C15.4117 106.399 15.8064 106.395 16.2225 106.389C16.6386 106.384 17.0601 106.378 17.4868 106.373C17.9132 106.356 18.3076 106.341 18.67 106.327L21.5638 106.215C21.9262 106.201 22.3206 106.186 22.7469 106.169C23.1729 106.142 23.5935 106.115 24.0087 106.089C24.424 106.062 24.818 106.036 25.1906 106.011C25.5629 105.975 25.8711 105.942 26.1155 105.911C26.1036 106.157 26.1022 106.398 26.1113 106.632C26.1203 106.866 26.1402 107.106 26.171 107.35C25.9251 107.338 25.6153 107.334 25.2419 107.338C24.868 107.331 24.473 107.33 24.0569 107.336C23.6408 107.341 23.2196 107.352 22.7932 107.369C22.3665 107.374 21.9719 107.384 21.6095 107.398L18.7156 107.51Z" fill="black"/>
<path d="M19.2258 97.2678C18.5282 97.1731 17.8443 97.0965 17.1741 97.0379C16.4947 96.9673 15.8041 96.9005 15.1022 96.8375C15.1778 96.4388 15.2527 96.0453 15.3269 95.657C15.392 95.2568 15.4518 94.8559 15.5062 94.4542C15.5607 94.0526 15.6039 93.6548 15.6358 93.2608C15.6586 92.8549 15.6973 92.4511 15.7517 92.0494C15.8779 91.1193 16.107 90.343 16.439 89.7207C16.7725 89.0877 17.1951 88.5907 17.707 88.2296C18.2083 87.867 18.7995 87.635 19.4806 87.5337C20.1526 87.4203 20.8956 87.4189 21.7095 87.5293C22.7665 87.6727 23.6345 87.9788 24.3136 88.4477C24.9836 88.9046 25.5019 89.4485 25.8684 90.0795C26.2363 90.6999 26.4688 91.3666 26.5659 92.0794C26.6538 92.7803 26.6554 93.4425 26.5708 94.0661C26.5221 94.4255 26.4688 94.7789 26.4109 95.1262C26.353 95.4736 26.2997 95.827 26.2509 96.1864C26.2022 96.5457 26.1541 96.8998 26.1068 97.2486C26.0595 97.5974 26.022 97.953 25.9944 98.3152C25.3434 98.1946 24.6811 98.0778 24.0075 97.9649C23.3353 97.8414 22.6504 97.7324 21.9528 97.6377L19.2258 97.2678ZM22.1292 96.3376C23.2707 96.4925 24.3954 96.6128 25.5033 96.6985C25.5862 96.4837 25.6694 96.1882 25.7527 95.812C25.8255 95.4343 25.8891 95.0447 25.9436 94.643C26.0225 94.0617 26.0326 93.471 25.9741 92.8711C25.9155 92.2711 25.7268 91.718 25.408 91.2119C25.0906 90.6952 24.6235 90.2497 24.0069 89.8754C23.3812 89.4891 22.5451 89.225 21.4987 89.083C20.5791 88.9583 19.8076 88.972 19.1841 89.1243C18.5621 89.2659 18.0547 89.5147 17.662 89.8704C17.2601 90.2142 16.9585 90.6523 16.7571 91.1847C16.5451 91.7157 16.3947 92.3089 16.3058 92.9642C16.2413 93.4398 16.1969 93.8859 16.1727 94.3024C16.1485 94.719 16.1353 95.0939 16.1331 95.4273C16.6362 95.5279 17.1664 95.6267 17.7237 95.7238C18.2719 95.809 18.8314 95.8903 19.4021 95.9677L22.1292 96.3376Z" fill="black"/>
<path d="M24.6588 83.327C25.0889 83.4523 25.5141 83.5374 25.9344 83.5821C26.3577 83.6165 26.7549 83.5879 27.1261 83.4961C27.487 83.4013 27.8044 83.2271 28.0783 82.9736C28.3521 82.7201 28.5547 82.3681 28.686 81.9175C28.8174 81.4669 28.8356 81.0611 28.7408 80.7002C28.646 80.3393 28.4719 80.0219 28.2184 79.748C27.9547 79.4711 27.6335 79.2387 27.255 79.0506C26.8795 78.8523 26.4767 78.6904 26.0466 78.5651C25.6165 78.4397 25.1898 78.3598 24.7666 78.3254C24.3463 78.2806 23.9557 78.3057 23.5947 78.4005C23.2236 78.4923 22.901 78.6649 22.6272 78.9184C22.3533 79.1719 22.1507 79.524 22.0194 79.9746C21.8881 80.4252 21.8698 80.8309 21.9646 81.1919C22.0594 81.5528 22.2387 81.8717 22.5024 82.1485C22.7559 82.4224 23.0704 82.6585 23.4459 82.8568C23.8244 83.0449 24.2287 83.2016 24.6588 83.327ZM24.2649 84.6787C23.5685 84.4758 23.011 84.1967 22.5924 83.8413C22.1665 83.4728 21.8573 83.066 21.6648 82.621C21.462 82.1731 21.3582 81.7095 21.3534 81.2304C21.3414 80.738 21.3995 80.2717 21.5278 79.8313C21.6592 79.3807 21.8607 78.9561 22.1324 78.5576C22.3938 78.156 22.7304 77.8208 23.1421 77.5519C23.5435 77.2801 24.0214 77.1082 24.5756 77.0364C25.1226 76.9514 25.7442 77.0104 26.4406 77.2133C27.1369 77.4163 27.6981 77.702 28.124 78.0706C28.5426 78.4259 28.8533 78.8275 29.0561 79.2755C29.2486 79.7205 29.3421 80.181 29.3367 80.6572C29.3312 81.1334 29.2628 81.5967 29.1315 82.0473C29.0032 82.4877 28.8119 82.9152 28.5577 83.33C28.3065 83.7345 27.9802 84.0727 27.5787 84.3446C27.167 84.6135 26.6877 84.7904 26.1407 84.8755C25.5865 84.9473 24.9612 84.8817 24.2649 84.6787Z" fill="black"/>
<path d="M31.2962 74.7931C30.8841 74.7449 30.3572 74.6911 29.7157 74.6315C29.0741 74.572 28.3897 74.5163 27.6624 74.4644C26.9299 74.3984 26.1811 74.3425 25.4159 74.2967C24.6454 74.2368 23.9137 74.1946 23.2208 74.1702C23.2935 74.0627 23.3641 73.9601 23.4324 73.8624C23.4954 73.7505 23.5536 73.6363 23.607 73.52C23.6559 73.4133 23.6999 73.3045 23.7392 73.1934C23.7687 73.0778 23.8026 72.9526 23.8411 72.8176C24.8681 72.9835 25.911 73.1274 26.97 73.2492C28.0237 73.3569 29.122 73.444 30.265 73.5105C30.0468 73.2696 29.7526 72.9645 29.3822 72.5952C29.0117 72.2258 28.6096 71.836 28.1758 71.4259C27.7419 71.0157 27.2984 70.6011 26.8452 70.182C26.3919 69.7629 25.9686 69.381 25.5751 69.0363C25.7036 68.884 25.7946 68.7497 25.8479 68.6333C25.8835 68.5558 25.9098 68.4857 25.9268 68.4231C25.934 68.356 25.9458 68.2792 25.962 68.1928C27.0039 68.3772 28.0539 68.5184 29.1121 68.6164C30.1605 68.71 31.2496 68.8045 32.3792 68.9001C32.1267 68.6318 31.8153 68.313 31.4449 67.9436C31.0692 67.5601 30.6764 67.1629 30.2664 66.7519C29.8467 66.3364 29.4173 65.9166 28.9782 65.4923C28.5435 65.0582 28.1362 64.6543 27.756 64.2805C27.8935 64.1088 27.9888 63.9648 28.0422 63.8485C28.1 63.7224 28.1424 63.5659 28.1696 63.3788C29.0893 64.4695 30.0101 65.5195 30.9319 66.529C31.8581 67.5287 32.7977 68.4994 33.7506 69.441C33.6823 69.5388 33.6148 69.6604 33.5481 69.8058C33.5169 69.8737 33.4858 69.9415 33.4547 70.0094C33.4236 70.0773 33.4066 70.1399 33.4037 70.1973C32.4252 70.0536 31.4307 69.932 30.4203 69.8324C29.4098 69.7328 28.3357 69.6568 27.198 69.6045C27.4355 69.8542 27.7346 70.1616 28.0953 70.5265C28.4464 70.8869 28.8291 71.2678 29.2436 71.6691C29.658 72.0704 30.0822 72.4761 30.516 72.8863C30.9401 73.292 31.3247 73.6561 31.6697 73.9786C31.5969 74.0861 31.525 74.2174 31.4539 74.3725C31.3827 74.5276 31.3302 74.6678 31.2962 74.7931Z" fill="black"/>
<path d="M35.4977 57.4569C34.8275 57.02 34.2382 56.8205 33.7297 56.8583C33.2123 56.8903 32.805 57.1341 32.508 57.5898C32.1002 58.2154 31.9924 58.8008 32.1844 59.3461C32.3822 59.8826 32.8297 60.3779 33.5267 60.8323L34.666 61.5749C35.0681 61.837 35.4955 62.1092 35.9481 62.3915C36.3976 62.6591 36.8156 62.887 37.2022 63.0753C37.0504 63.2692 36.9104 63.4644 36.7822 63.661C36.6541 63.8576 36.532 64.0645 36.4159 64.2817C36.0876 64.004 35.7074 63.718 35.2753 63.4236C34.8402 63.1145 34.4216 62.8289 34.0195 62.5668L32.6255 61.6581C32.2233 61.396 31.7975 61.1312 31.348 60.8637C30.8954 60.5814 30.4624 60.3373 30.049 60.1315C30.2568 59.9104 30.4102 59.7239 30.5092 59.572C30.5558 59.5005 30.6009 59.4217 30.6444 59.3354C30.6847 59.2344 30.7338 59.12 30.7917 58.9922C31.1317 59.252 31.4804 59.4984 31.8378 59.7314L31.8553 59.7046C31.6341 59.2039 31.5344 58.7123 31.556 58.2299C31.5687 57.7416 31.7323 57.2562 32.0469 56.7736C32.2099 56.5234 32.4088 56.2965 32.6434 56.0929C32.8838 55.8804 33.1603 55.7296 33.473 55.6405C33.7768 55.5457 34.1213 55.5347 34.5067 55.6077C34.8889 55.6658 35.3124 55.8464 35.7771 56.1493C36.1613 56.3997 36.5531 56.6679 36.9525 56.9537C37.343 57.2337 37.7661 57.5222 38.2218 57.8192L39.0931 58.3872C39.236 58.4803 39.379 58.5735 39.522 58.6667C39.6619 58.7452 39.7973 58.8207 39.9282 58.8933C39.7938 59.0604 39.6626 59.2422 39.5344 59.4388C39.4121 59.6264 39.3016 59.8155 39.203 60.0058C38.75 59.6851 38.2836 59.3556 37.8037 59.0173C37.3297 58.6702 36.8336 58.3277 36.3153 57.9898L35.4977 57.4569Z" fill="black"/>
<path d="M45.3843 48.8522C45.5795 48.9298 45.7976 48.9925 46.0385 49.0404C46.2795 49.0732 46.5284 49.0759 46.7851 49.0485C47.0495 49.0137 47.3181 48.9374 47.5909 48.8197C47.8563 48.6944 48.111 48.5123 48.3549 48.2736C48.6065 48.0275 48.7904 47.7655 48.9066 47.4876C49.0229 47.1947 49.0789 46.9087 49.0744 46.6296C49.07 46.3353 49.009 46.0518 48.8913 45.779C48.7661 45.4985 48.5916 45.244 48.3678 45.0152C48.0247 44.6645 47.6609 44.4757 47.2765 44.4489C46.8997 44.4146 46.5108 44.4594 46.1097 44.5833C45.7085 44.7072 45.2957 44.8648 44.8712 45.0563C44.4544 45.2403 44.0305 45.379 43.5995 45.4724C43.1611 45.5581 42.7198 45.5571 42.2758 45.4693C41.8393 45.374 41.401 45.1015 40.9609 44.6516C40.6476 44.3314 40.4213 43.9857 40.282 43.6146C40.1353 43.2359 40.0754 42.8468 40.1024 42.4473C40.137 42.0403 40.2546 41.6343 40.4551 41.2292C40.6556 40.824 40.9465 40.435 41.3277 40.062C41.6937 39.7039 42.0548 39.4401 42.4112 39.2705C42.7601 39.0933 43.1384 38.9842 43.5462 38.9434C43.6044 39.1402 43.6815 39.3334 43.7775 39.523C43.8735 39.7126 44.0068 39.9403 44.1774 40.2062L44.0401 40.3405C43.8976 40.271 43.7323 40.2089 43.5443 40.154C43.3565 40.0841 43.1532 40.0517 42.9344 40.0569C42.7232 40.0546 42.5078 40.0937 42.2882 40.1743C42.0611 40.2472 41.8408 40.3882 41.6274 40.597C41.4139 40.8059 41.2492 41.0342 41.1334 41.2818C41.0252 41.522 40.9658 41.7741 40.9554 42.0379C40.9452 42.2868 40.9877 42.5361 41.083 42.7861C41.186 43.0286 41.3382 43.2528 41.5396 43.4586C41.8902 43.817 42.2539 44.0133 42.6307 44.0475C43.0151 44.0744 43.4116 44.0297 43.8202 43.9134C44.2213 43.7896 44.6303 43.6356 45.0471 43.4516C45.4642 43.2525 45.8844 43.1024 46.3079 43.0014C46.7314 42.9005 47.154 42.89 47.5755 42.97C48.0047 43.0426 48.4244 43.2885 48.8347 43.7078C49.1778 44.0586 49.4375 44.4536 49.6138 44.893C49.7976 45.325 49.8832 45.7785 49.8705 46.2536C49.8579 46.7135 49.7397 47.1799 49.5158 47.6527C49.2921 48.1104 48.9591 48.5555 48.5169 48.9882C48.0442 49.4507 47.5995 49.7664 47.1828 49.9354C46.7662 50.0892 46.3805 50.1831 46.0256 50.2169C45.9227 49.9744 45.8155 49.7734 45.7041 49.6138C45.5929 49.4391 45.4405 49.23 45.247 48.9865L45.3843 48.8522Z" fill="black"/>
<path d="M49.9292 42.0826C49.4992 41.5388 49.2208 40.9974 49.0939 40.4586C48.967 39.9198 48.9508 39.4091 49.0452 38.9266C49.1413 38.429 49.3355 37.9695 49.6278 37.5481C49.9135 37.1182 50.2571 36.7445 50.6587 36.427C51.1189 36.0631 51.5752 35.7975 52.0276 35.6302C52.4818 35.4479 52.8446 35.365 53.1161 35.3815C53.1567 35.5534 53.2082 35.7302 53.2704 35.9122C53.3345 36.0791 53.4093 36.2511 53.4949 36.4282L53.3945 36.5076C53.2499 36.4451 53.0844 36.3992 52.898 36.3698C52.705 36.3321 52.501 36.3234 52.2859 36.3438C52.0727 36.3493 51.8592 36.3889 51.6456 36.4626C51.4253 36.528 51.2147 36.6401 51.0139 36.7988C50.6374 37.0966 50.3673 37.4257 50.2037 37.7862C50.0418 38.1318 49.9689 38.4954 49.985 38.877C50.0095 39.2519 50.1123 39.6398 50.2932 40.0407C50.4759 40.4266 50.7194 40.8119 51.0238 41.1968C51.7052 42.0587 52.4053 42.5658 53.1241 42.7181C53.8362 42.8621 54.5479 42.653 55.2591 42.0906C55.4265 41.9583 55.5815 41.8018 55.7241 41.621C55.8601 41.4319 55.982 41.2335 56.0898 41.0259C56.191 40.8099 56.2698 40.5913 56.326 40.3701C56.3906 40.1422 56.4277 39.9225 56.4372 39.711L56.5297 39.699C56.6467 39.9329 56.7837 40.1578 56.9407 40.3736C56.8484 40.7729 56.6703 41.1925 56.4062 41.6324C56.1505 42.0658 55.8219 42.4412 55.4202 42.7588C55.0605 43.0432 54.6568 43.2808 54.2092 43.4715C53.7634 43.6472 53.2982 43.7295 52.8135 43.7184C52.3222 43.6989 51.829 43.5653 51.334 43.3176C50.8473 43.0633 50.3791 42.6516 49.9292 42.0826Z" fill="black"/>
<path d="M59.1689 32.235C59.0893 32.2102 58.9679 32.2188 58.8046 32.2609C58.6502 32.2972 58.5059 32.3588 58.3715 32.4457C58.1565 32.5847 57.9958 32.7585 57.8893 32.9671C57.7828 33.1756 57.7264 33.4027 57.72 33.6482C57.7078 33.8847 57.7457 34.1397 57.8336 34.4131C57.9157 34.6776 58.0407 34.9397 58.2087 35.1994L59.1643 36.6774C59.5524 37.2775 59.8507 37.7388 60.0592 38.0613C60.2709 38.369 60.4538 38.6127 60.6081 38.7923C60.4174 38.8903 60.2325 38.9972 60.0533 39.113C59.8563 39.2404 59.674 39.371 59.5064 39.5048C59.3363 39.1828 59.0834 38.7621 58.7474 38.2426C58.4147 37.7083 58.0021 37.0605 57.5098 36.2992L57.2318 35.8692C57.0059 35.5199 56.7408 35.1197 56.4364 34.6687C56.1411 34.2119 55.7888 33.6966 55.3796 33.1228C55.4898 33.077 55.5954 33.0341 55.6966 32.9941C55.7919 32.9451 55.8889 32.8888 55.9874 32.825C56.068 32.7729 56.1502 32.7134 56.234 32.6465C56.312 32.5707 56.3944 32.492 56.4814 32.4103C56.6541 32.756 56.7967 33.0257 56.9094 33.2196C57.031 33.4077 57.1469 33.5869 57.2569 33.7571L57.2925 33.7531C57.1954 32.444 57.4738 31.5781 58.1277 31.1553C58.2083 31.1031 58.2784 31.0642 58.3379 31.0384C58.4064 31.0068 58.4971 30.9799 58.6098 30.9579C58.6345 31.0943 58.7148 31.2774 58.8506 31.5071C58.9807 31.7279 59.1036 31.9278 59.2195 32.107L59.1689 32.235Z" fill="black"/>
<path d="M63.4514 32.5617C63.6561 32.9602 63.8867 33.3274 64.1432 33.6633C64.4091 33.9944 64.7031 34.2631 65.0249 34.4695C65.3419 34.6664 65.6866 34.7772 66.059 34.8017C66.4314 34.8263 66.8263 34.7314 67.2438 34.5169C67.6612 34.3025 67.9684 34.0368 68.1654 33.7198C68.3623 33.4028 68.473 33.0581 68.4976 32.6857C68.5173 32.3039 68.4653 31.9109 68.3417 31.5067C68.2275 31.0977 68.0681 30.6939 67.8634 30.2954C67.6587 29.8969 67.4233 29.5321 67.1574 29.2011C66.9009 28.8652 66.6141 28.5988 66.2971 28.4018C65.9753 28.1954 65.6281 28.0799 65.2558 28.0554C64.8834 28.0308 64.4885 28.1257 64.071 28.3402C63.6535 28.5546 63.3463 28.8203 63.1494 29.1373C62.9525 29.4543 62.8442 29.8037 62.8245 30.1856C62.7999 30.558 62.8447 30.9487 62.9589 31.3577C63.0825 31.7619 63.2467 32.1632 63.4514 32.5617ZM62.199 33.205C61.8675 32.5598 61.6869 31.9631 61.6571 31.4148C61.6319 30.8521 61.7147 30.3479 61.9054 29.9022C62.0913 29.447 62.3566 29.0529 62.7012 28.72C63.0504 28.3727 63.4291 28.0943 63.8371 27.8847C64.2545 27.6703 64.7014 27.5247 65.1776 27.448C65.649 27.3617 66.1238 27.3757 66.6021 27.4897C67.0755 27.5943 67.5288 27.8231 67.962 28.1762C68.3998 28.5149 68.7844 29.0069 69.1158 29.6521C69.4472 30.2973 69.6255 30.9012 69.6507 31.4639C69.6805 32.0122 69.6025 32.5139 69.4166 32.9691C69.2259 33.4149 68.9558 33.7994 68.6062 34.1229C68.2567 34.4463 67.8733 34.7152 67.4558 34.9297C67.0478 35.1392 66.6058 35.2943 66.1298 35.3949C65.6634 35.4906 65.1934 35.4862 64.72 35.3816C64.2417 35.2675 63.7837 35.0412 63.3459 34.7024C62.9127 34.3493 62.5304 33.8502 62.199 33.205Z" fill="black"/>
<path d="M70.44 25.1046C70.305 24.768 70.1531 24.4037 69.9844 24.0117C69.8255 23.6157 69.6637 23.2266 69.499 22.8445C69.3342 22.4623 69.1724 22.102 69.0137 21.7634C68.8608 21.411 68.7248 21.115 68.6058 20.8754C68.9028 20.8138 69.1355 20.7492 69.3038 20.6817C69.4721 20.6142 69.6849 20.5001 69.9423 20.3394C70.0217 20.5948 70.1231 20.9047 70.2462 21.2691C70.3753 21.6195 70.5123 21.9898 70.6573 22.3799C70.8022 22.7699 70.9492 23.165 71.0981 23.5649C71.257 23.9609 71.4039 24.3272 71.5389 24.6638L72.617 27.3517C72.752 27.6883 72.8989 28.0546 73.0577 28.4506C73.2265 28.8426 73.3932 29.2297 73.558 29.6118C73.7228 29.9939 73.8796 30.3563 74.0285 30.6988C74.1872 31.0374 74.3222 31.3165 74.4333 31.5363C74.1977 31.6078 73.971 31.6873 73.7532 31.7746C73.5354 31.862 73.3166 31.9612 73.0968 32.0723C73.0253 31.8367 72.925 31.5436 72.7959 31.1932C72.6767 30.8387 72.5447 30.4665 72.3997 30.0764C72.2547 29.6863 72.1028 29.2933 71.944 28.8973C71.7951 28.4973 71.6531 28.129 71.5181 27.7924L70.44 25.1046Z" fill="black"/>
<path d="M75.773 23.0776C75.6611 22.7327 75.5342 22.3589 75.3923 21.9564C75.2606 21.5506 75.1255 21.1514 74.9869 20.7591C74.8483 20.3667 74.7113 19.9962 74.5758 19.6477C74.4471 19.2857 74.3314 18.9812 74.2288 18.7342C74.5294 18.6927 74.7659 18.644 74.9384 18.588C75.1108 18.532 75.3309 18.4326 75.5985 18.2897C75.6605 18.5499 75.7407 18.8659 75.8389 19.2378C75.944 19.5961 76.0557 19.9748 76.174 20.3738C76.2922 20.7728 76.4121 21.1768 76.5337 21.586C76.6654 21.9918 76.7872 22.3672 76.8992 22.7121L77.7932 25.4667C77.9051 25.8117 78.0269 26.187 78.1587 26.5929C78.3005 26.9954 78.4407 27.3929 78.5793 27.7853C78.7178 28.1777 78.8498 28.5498 78.9752 28.9016C79.1107 29.2501 79.2265 29.5377 79.3225 29.7645C79.0826 29.8199 78.851 29.8839 78.6278 29.9563C78.4046 30.0287 78.1796 30.113 77.9529 30.209C77.8974 29.9691 77.8172 29.6699 77.7121 29.3115C77.6171 28.9498 77.5105 28.5695 77.3922 28.1705C77.274 27.7715 77.149 27.3691 77.0173 26.9633C76.8957 26.5542 76.7789 26.1771 76.667 25.8322L75.773 23.0776Z" fill="black"/>
<path d="M85.7597 20.7731C85.6624 20.0759 85.5514 19.3967 85.4268 18.7356C85.3113 18.0624 85.1891 17.3794 85.0601 16.6866C85.4645 16.6517 85.8636 16.6175 86.2574 16.5841C86.6603 16.5386 87.0625 16.4879 87.4639 16.4319C87.8654 16.3758 88.2601 16.31 88.648 16.2343C89.045 16.1466 89.4442 16.0747 89.8457 16.0186C90.7753 15.8889 91.5846 15.8998 92.2735 16.0514C92.973 16.2014 93.5657 16.4741 94.0517 16.8694C94.5362 17.2541 94.9192 17.7607 95.2008 18.3892C95.4914 19.0056 95.6935 19.7205 95.8071 20.5339C95.9545 21.5904 95.8942 22.5088 95.6262 23.2894C95.3673 24.0579 94.9836 24.7038 94.475 25.2271C93.9771 25.749 93.398 26.1529 92.7379 26.4389C92.0868 26.7128 91.4497 26.8933 90.8264 26.9803C90.4672 27.0305 90.1125 27.0746 89.7624 27.1127C89.4124 27.1508 89.0577 27.1949 88.6985 27.245C88.3393 27.2951 87.9854 27.3445 87.6368 27.3932C87.2882 27.4418 86.9358 27.5018 86.5795 27.5731C86.5198 26.9137 86.4533 26.2444 86.3801 25.5654C86.3174 24.8848 86.2374 24.1959 86.1401 23.4987L85.7597 20.7731ZM87.4395 23.3173C87.5988 24.4583 87.7867 25.5737 88.0035 26.6635C88.2327 26.6854 88.5397 26.6856 88.9244 26.6642C89.3077 26.6322 89.7 26.5883 90.1015 26.5322C90.6825 26.4511 91.254 26.3014 91.8158 26.0829C92.3777 25.8645 92.8592 25.5334 93.2604 25.0897C93.6721 24.6445 93.9749 24.0745 94.1687 23.3797C94.3716 22.6729 94.4001 21.7965 94.2541 20.7507C94.1259 19.8316 93.9042 19.0925 93.5892 18.5333C93.2848 17.9727 92.9083 17.5513 92.4597 17.2693C92.0201 16.9753 91.5168 16.8032 90.9498 16.7531C90.3813 16.6924 89.7696 16.7078 89.1146 16.7992C88.6392 16.8656 88.1977 16.9433 87.7901 17.0325C87.3825 17.1217 87.0179 17.2103 86.6963 17.2983C86.7354 17.8098 86.7835 18.347 86.8405 18.9098C86.9066 19.4606 86.9795 20.0213 87.0591 20.5917L87.4395 23.3173Z" fill="black"/>
<path d="M101.06 22.2166C101.055 22.6646 101.087 23.097 101.157 23.5138C101.238 23.9308 101.372 24.3057 101.56 24.6386C101.748 24.9608 102.001 25.2197 102.319 25.4154C102.637 25.6111 103.031 25.7117 103.5 25.7171C103.969 25.7225 104.365 25.6311 104.687 25.4428C105.009 25.2545 105.268 25.0015 105.464 24.6838C105.66 24.3553 105.797 23.9836 105.877 23.5685C105.967 23.1535 106.015 22.722 106.02 22.274C106.025 21.8261 105.987 21.3936 105.907 20.9766C105.837 20.5598 105.708 20.1903 105.52 19.8681C105.332 19.5352 105.079 19.2709 104.761 19.0752C104.443 18.8796 104.05 18.779 103.58 18.7736C103.111 18.7681 102.715 18.8595 102.393 19.0478C102.071 19.2361 101.812 19.4945 101.616 19.8229C101.42 20.1406 101.277 20.507 101.187 20.922C101.108 21.3371 101.065 21.7686 101.06 22.2166ZM99.6523 22.2003C99.6607 21.475 99.7798 20.863 100.01 20.3643C100.25 19.8551 100.559 19.4479 100.936 19.143C101.313 18.8273 101.731 18.6028 102.192 18.4695C102.663 18.3256 103.128 18.2563 103.586 18.2616C104.055 18.267 104.519 18.3471 104.975 18.5017C105.432 18.6457 105.846 18.8798 106.215 19.2041C106.585 19.5177 106.879 19.9318 107.097 20.4464C107.326 20.9504 107.436 21.5651 107.428 22.2903C107.419 23.0156 107.295 23.6329 107.054 24.1421C106.824 24.6408 106.521 25.048 106.144 25.3637C105.767 25.6687 105.349 25.8825 104.889 26.0052C104.428 26.1279 103.964 26.1865 103.494 26.1811C103.036 26.1757 102.573 26.1064 102.105 25.973C101.648 25.8396 101.234 25.6162 100.864 25.3025C100.495 24.9782 100.196 24.5641 99.9668 24.0601C99.7487 23.5455 99.6439 22.9256 99.6523 22.2003Z" fill="black"/>
<path d="M110.733 26.2688C110.667 25.8592 110.576 25.3376 110.458 24.7041C110.341 24.0706 110.208 23.3969 110.06 22.683C109.923 21.9602 109.773 21.2245 109.609 20.4757C109.457 19.7181 109.298 19.0026 109.132 18.3292C109.256 18.37 109.374 18.4099 109.486 18.4489C109.611 18.4791 109.737 18.504 109.863 18.5237C109.979 18.5417 110.096 18.5544 110.214 18.5619C110.333 18.5588 110.463 18.5573 110.603 18.5575C110.723 19.5909 110.869 20.6336 111.04 21.6856C111.224 22.7288 111.439 23.8093 111.687 24.9272C111.859 24.6517 112.072 24.2854 112.327 23.8284C112.581 23.3713 112.847 22.8782 113.123 22.349C113.399 21.8198 113.678 21.2801 113.957 20.7298C114.237 20.1796 114.489 19.6682 114.714 19.1957C114.895 19.2779 115.049 19.3288 115.176 19.3484C115.26 19.3615 115.335 19.3677 115.399 19.367C115.466 19.3557 115.543 19.3461 115.631 19.3381C115.737 20.3909 115.887 21.4397 116.081 22.4845C116.277 23.5187 116.483 24.5923 116.698 25.7053C116.888 25.3893 117.11 25.0027 117.364 24.5457C117.631 24.0797 117.906 23.5935 118.19 23.0871C118.475 22.5701 118.762 22.0425 119.051 21.5044C119.35 20.968 119.628 20.4659 119.884 19.9984C120.086 20.0838 120.251 20.1363 120.377 20.156C120.514 20.1772 120.677 20.1754 120.864 20.1506C120.065 21.3327 119.306 22.5047 118.586 23.6666C117.876 24.8302 117.198 25.9987 116.552 27.1721C116.439 27.133 116.304 27.1012 116.146 27.0767C116.072 27.0652 115.998 27.0538 115.924 27.0423C115.85 27.0309 115.786 27.0316 115.73 27.0445C115.601 26.0638 115.447 25.0738 115.268 24.0745C115.088 23.0751 114.869 22.021 114.609 20.912C114.433 21.2086 114.219 21.5801 113.966 22.0266C113.715 22.4626 113.453 22.9346 113.18 23.4427C112.907 23.9508 112.632 24.4695 112.355 24.9986C112.081 25.5173 111.835 25.9865 111.619 26.4063C111.496 26.3656 111.35 26.3321 111.181 26.3059C111.012 26.2798 110.863 26.2674 110.733 26.2688Z" fill="black"/>
<path d="M128.652 25.5925C128.891 24.8288 128.923 24.2074 128.748 23.7283C128.577 23.2391 128.231 22.9134 127.712 22.7514C126.999 22.5289 126.407 22.5842 125.934 22.9172C125.471 23.2533 125.116 23.8185 124.868 24.6128L124.463 25.911C124.32 26.3692 124.174 26.8545 124.026 27.3668C123.89 27.8721 123.785 28.3363 123.709 28.7595C123.481 28.666 123.255 28.5843 123.031 28.5144C122.807 28.4445 122.574 28.3832 122.334 28.3305C122.512 27.9391 122.684 27.4955 122.85 26.9997C123.029 26.497 123.19 26.0165 123.333 25.5583L123.829 23.9698C123.972 23.5116 124.111 23.0299 124.246 22.5246C124.395 22.0123 124.512 21.5293 124.598 21.0756C124.867 21.2154 125.088 21.3124 125.261 21.3664C125.343 21.3918 125.431 21.4138 125.526 21.4322C125.634 21.4436 125.757 21.4598 125.896 21.4807C125.739 21.8785 125.596 22.281 125.469 22.6883L125.5 22.6978C125.921 22.3489 126.367 22.1194 126.838 22.0091C127.311 21.8887 127.822 21.9142 128.372 22.0858C128.657 22.1748 128.93 22.3045 129.19 22.4749C129.459 22.6485 129.68 22.8737 129.85 23.1504C130.024 23.417 130.128 23.7456 130.163 24.1363C130.211 24.52 130.152 24.9766 129.987 25.506C129.85 25.9439 129.699 26.3938 129.532 26.8559C129.369 27.3077 129.206 27.7933 129.044 28.3126L128.734 29.3054C128.683 29.4683 128.632 29.6312 128.582 29.7941C128.544 29.95 128.508 30.1009 128.474 30.2466C128.277 30.1627 128.066 30.0858 127.842 30.0159C127.628 29.9491 127.416 29.8942 127.206 29.851C127.392 29.3278 127.582 28.7894 127.777 28.2358C127.983 27.6853 128.177 27.1147 128.362 26.5242L128.652 25.5925Z" fill="black"/>
<path d="M140.041 32.9922C140.018 33.2011 140.016 33.428 140.034 33.6729C140.067 33.9139 140.131 34.1545 140.226 34.3947C140.33 34.6402 140.475 34.8787 140.661 35.1102C140.853 35.3325 141.096 35.5294 141.391 35.7009C141.696 35.8776 141.997 35.985 142.296 36.0228C142.609 36.0568 142.9 36.0344 143.168 35.9555C143.45 35.8729 143.707 35.7384 143.938 35.5522C144.175 35.3567 144.374 35.1206 144.535 34.8439C144.781 34.4196 144.866 34.0187 144.79 33.6411C144.722 33.2688 144.575 32.9059 144.349 32.5524C144.122 32.1988 143.86 31.843 143.562 31.485C143.274 31.1324 143.027 30.7608 142.822 30.3704C142.622 29.9707 142.506 29.5452 142.472 29.0938C142.447 28.6478 142.593 28.1526 142.909 27.6084C143.134 27.2211 143.407 26.9107 143.727 26.6775C144.053 26.435 144.412 26.2735 144.805 26.1929C145.206 26.1177 145.629 26.1227 146.073 26.2079C146.517 26.293 146.969 26.4696 147.43 26.7374C147.873 26.9946 148.224 27.2723 148.482 27.5705C148.746 27.8594 148.952 28.195 149.1 28.5771C148.926 28.6857 148.76 28.8115 148.603 28.9546C148.446 29.0977 148.262 29.2869 148.052 29.5223L147.886 29.4258C147.914 29.2699 147.93 29.094 147.933 28.8983C147.95 28.6986 147.927 28.494 147.864 28.2845C147.81 28.0804 147.715 27.8832 147.578 27.6931C147.447 27.4937 147.253 27.319 146.995 27.169C146.736 27.019 146.472 26.9212 146.203 26.8756C145.942 26.8354 145.684 26.8455 145.427 26.9058C145.184 26.9623 144.955 27.0699 144.74 27.2284C144.533 27.3924 144.358 27.5988 144.213 27.8479C143.961 28.2814 143.869 28.6843 143.937 29.0565C144.014 29.4342 144.162 29.8043 144.383 30.1671C144.61 30.5206 144.867 30.8737 145.156 31.2264C145.459 31.5752 145.716 31.9402 145.926 32.3214C146.136 32.7026 146.259 33.107 146.295 33.5346C146.339 33.9676 146.214 34.4377 145.919 34.945C145.673 35.3693 145.362 35.725 144.985 36.0121C144.618 36.3045 144.204 36.508 143.742 36.6225C143.296 36.7331 142.815 36.7436 142.299 36.6539C141.799 36.5604 141.281 36.3583 140.746 36.0476C140.174 35.7154 139.751 35.3711 139.477 35.0145C139.218 34.6541 139.024 34.3075 138.897 33.9745C139.103 33.8105 139.268 33.6536 139.392 33.5036C139.531 33.3498 139.692 33.1472 139.875 32.8958L140.041 32.9922Z" fill="black"/>
<path d="M147.827 35.6219C148.237 35.0627 148.685 34.6503 149.17 34.3847C149.656 34.1191 150.144 33.9676 150.634 33.9302C151.14 33.8906 151.634 33.9556 152.118 34.1252C152.609 34.2862 153.06 34.5181 153.473 34.8208C153.946 35.1676 154.324 35.5369 154.605 35.9285C154.902 36.3178 155.078 36.6454 155.135 36.9115C154.98 36.9964 154.823 37.0931 154.664 37.2015C154.52 37.3076 154.374 37.4255 154.226 37.5551L154.123 37.4794C154.145 37.3235 154.145 37.1517 154.124 36.9642C154.109 36.7681 154.063 36.5691 153.986 36.3673C153.924 36.1631 153.829 35.9679 153.701 35.7816C153.58 35.5866 153.416 35.4135 153.209 35.2621C152.822 34.9783 152.433 34.8055 152.042 34.7437C151.666 34.6795 151.296 34.706 150.932 34.823C150.577 34.9464 150.231 35.1486 149.892 35.4297C149.569 35.7084 149.262 36.0457 148.972 36.4414C148.323 37.3275 148.02 38.1373 148.064 38.8707C148.115 39.5955 148.506 40.2259 149.237 40.762C149.409 40.8881 149.601 40.9959 149.814 41.0853C150.032 41.1661 150.256 41.2308 150.484 41.2795C150.72 41.3196 150.951 41.3373 151.18 41.3327C151.416 41.3344 151.638 41.3117 151.844 41.2646L151.881 41.3506C151.686 41.5256 151.506 41.7174 151.34 41.9262C150.93 41.9435 150.478 41.8834 149.984 41.7458C149.498 41.6146 149.049 41.3977 148.636 41.095C148.266 40.8238 147.93 40.4979 147.627 40.1172C147.339 39.7342 147.136 39.3076 147.018 38.8374C146.906 38.3586 146.903 37.8476 147.01 37.3046C147.126 36.7678 147.398 36.2069 147.827 35.6219Z" fill="black"/>
<path d="M159.359 41.5533C159.361 41.4701 159.32 41.3555 159.235 41.2096C159.159 41.0707 159.061 40.9483 158.941 40.8424C158.749 40.6729 158.538 40.565 158.309 40.5188C158.079 40.4725 157.845 40.4794 157.607 40.5395C157.376 40.5916 157.141 40.6968 156.901 40.8552C156.669 41.0056 156.45 41.1967 156.245 41.4286L155.08 42.7475C154.607 43.2831 154.243 43.6948 153.989 43.9826C153.749 44.2694 153.564 44.5114 153.433 44.7084C153.287 44.5512 153.134 44.4019 152.974 44.2607C152.799 44.1053 152.624 43.965 152.45 43.8397C152.714 43.5891 153.051 43.232 153.46 42.7684C153.885 42.3038 154.397 41.7318 154.998 41.0523L155.337 40.6686C155.612 40.3569 155.926 39.9936 156.278 39.5789C156.638 39.1712 157.039 38.693 157.482 38.1442C157.555 38.2379 157.625 38.328 157.691 38.4146C157.764 38.4932 157.844 38.5714 157.932 38.6491C158.004 38.7126 158.084 38.7757 158.171 38.8384C158.265 38.893 158.363 38.9512 158.465 39.0129C158.179 39.2724 157.957 39.4826 157.801 39.6434C157.653 39.8112 157.511 39.9711 157.377 40.123L157.391 40.1562C158.625 39.7095 159.534 39.744 160.118 40.2595C160.189 40.3231 160.246 40.38 160.287 40.4304C160.336 40.4878 160.386 40.5679 160.438 40.6705C160.313 40.7311 160.158 40.8578 159.974 41.0506C159.796 41.2353 159.637 41.4077 159.496 41.5675L159.359 41.5533Z" fill="black"/>
<path d="M160.16 45.7195C159.832 46.0246 159.541 46.3461 159.287 46.6841C159.041 47.0298 158.862 47.3856 158.75 47.7514C158.647 48.1099 158.634 48.4717 158.711 48.8368C158.788 49.2019 158.987 49.5563 159.306 49.9C159.626 50.2437 159.965 50.4673 160.323 50.5709C160.682 50.6745 161.044 50.6877 161.409 50.6104C161.782 50.5258 162.146 50.3693 162.501 50.1407C162.864 49.9199 163.209 49.657 163.538 49.3519C163.866 49.0468 164.153 48.7214 164.399 48.3756C164.653 48.0377 164.832 47.6894 164.936 47.3309C165.047 46.9652 165.064 46.5997 164.987 46.2346C164.909 45.8696 164.711 45.5152 164.391 45.1715C164.072 44.8277 163.733 44.6041 163.374 44.5005C163.016 44.3969 162.65 44.3874 162.277 44.4719C161.912 44.5492 161.548 44.6983 161.185 44.9191C160.83 45.1476 160.488 45.4145 160.16 45.7195ZM159.201 44.6884C159.732 44.1945 160.258 43.8589 160.778 43.6815C161.312 43.5047 161.82 43.4477 162.301 43.5105C162.789 43.566 163.241 43.7145 163.654 43.9559C164.083 44.198 164.454 44.4869 164.766 44.8228C165.086 45.1665 165.347 45.5572 165.55 45.9947C165.761 46.4251 165.876 46.8859 165.896 47.3772C165.924 47.8612 165.827 48.3596 165.604 48.8723C165.397 49.3855 165.028 49.8891 164.496 50.383C163.965 50.8769 163.432 51.2123 162.897 51.3891C162.378 51.5664 161.874 51.6273 161.385 51.5718C160.904 51.5091 160.461 51.3533 160.055 51.1046C159.649 50.8559 159.286 50.5597 158.966 50.2159C158.654 49.8801 158.385 49.4967 158.159 49.0658C157.94 48.6427 157.817 48.1892 157.79 47.7052C157.77 47.2138 157.863 46.7116 158.071 46.1983C158.293 45.6856 158.67 45.1823 159.201 44.6884Z" fill="black"/>
<path d="M169.475 50.7248C169.763 50.504 170.073 50.2596 170.405 49.9914C170.744 49.7317 171.075 49.471 171.398 49.2093C171.722 48.9476 172.025 48.6946 172.308 48.4505C172.606 48.2083 172.855 47.9975 173.053 47.8183C173.193 48.0877 173.318 48.2943 173.428 48.4382C173.539 48.5821 173.706 48.7563 173.93 48.9608C173.705 49.1062 173.434 49.2873 173.117 49.5041C172.814 49.7229 172.494 49.9547 172.158 50.1994C171.821 50.4442 171.48 50.6922 171.135 50.9434C170.797 51.2032 170.484 51.4434 170.196 51.6642L167.898 53.427C167.611 53.6478 167.298 53.888 166.959 54.1477C166.627 54.4159 166.299 54.6808 165.976 54.9425C165.652 55.2042 165.346 55.4529 165.056 55.6886C164.773 55.9328 164.54 56.138 164.358 56.3043C164.226 56.0967 164.088 55.8997 163.946 55.7136C163.803 55.5274 163.648 55.3435 163.482 55.1618C163.69 55.0294 163.945 54.8538 164.247 54.635C164.557 54.4247 164.879 54.1971 165.216 53.9524C165.553 53.7076 165.89 53.4554 166.229 53.1956C166.574 52.9444 166.89 52.7084 167.178 52.4876L169.475 50.7248Z" fill="black"/>
<path d="M172.772 55.1902C173.074 54.9889 173.399 54.7653 173.748 54.5195C174.103 54.2826 174.45 54.0442 174.79 53.8044C175.13 53.5645 175.45 53.3321 175.748 53.107C176.062 52.885 176.323 52.691 176.533 52.5252C176.655 52.8032 176.766 53.0176 176.867 53.1684C176.967 53.3192 177.123 53.504 177.333 53.7228C177.099 53.8532 176.817 54.016 176.486 54.2115C176.169 54.4099 175.835 54.6202 175.483 54.8423C175.131 55.0644 174.775 55.2895 174.414 55.5175C174.059 55.7544 173.731 55.9736 173.429 56.1749L171.021 57.7829C170.719 57.9843 170.391 58.2034 170.036 58.4404C169.687 58.6861 169.343 58.9289 169.003 59.1688C168.663 59.4087 168.34 59.6367 168.036 59.8528C167.737 60.0779 167.492 60.2674 167.299 60.4213C167.181 60.2054 167.057 59.9999 166.926 59.8047C166.796 59.6096 166.654 59.4159 166.5 59.2237C166.716 59.1052 166.982 58.9468 167.298 58.7483C167.621 58.5588 167.958 58.353 168.31 58.1309C168.662 57.9087 169.015 57.6792 169.37 57.4423C169.731 57.2143 170.062 56.9996 170.363 56.7982L172.772 55.1902Z" fill="black"/>
<path d="M177.645 64.0841C178.289 63.8002 178.913 63.5081 179.515 63.2079C180.131 62.9131 180.754 62.6091 181.386 62.2959C181.53 62.6754 181.671 63.0501 181.811 63.4198C181.965 63.795 182.123 64.1681 182.287 64.539C182.45 64.9099 182.621 65.2717 182.8 65.6242C182.993 65.9822 183.171 66.3467 183.334 66.7176C183.713 67.5766 183.923 68.3581 183.965 69.0622C184.012 69.7761 183.911 70.4207 183.663 70.9961C183.426 71.5672 183.043 72.074 182.515 72.5163C182.001 72.9642 181.369 73.3537 180.617 73.6849C179.641 74.115 178.741 74.3077 177.917 74.2629C177.107 74.2235 176.381 74.0306 175.739 73.6841C175.101 73.3475 174.554 72.9006 174.099 72.3436C173.657 71.792 173.31 71.2283 173.056 70.6524C172.91 70.3205 172.771 69.9914 172.639 69.6649C172.506 69.3385 172.367 69.0094 172.221 68.6775C172.075 68.3456 171.931 68.0187 171.789 67.6965C171.647 67.3744 171.493 67.0517 171.327 66.7285C171.945 66.4911 172.571 66.2445 173.204 65.9887C173.842 65.7427 174.483 65.4778 175.127 65.1939L177.645 64.0841ZM175.656 66.3945C174.602 66.859 173.58 67.3442 172.591 67.8502C172.632 68.0766 172.716 68.372 172.841 68.7363C172.977 69.0963 173.126 69.4618 173.289 69.8327C173.526 70.3696 173.826 70.8784 174.19 71.3594C174.553 71.8403 175.003 72.2132 175.539 72.4781C176.08 72.7527 176.711 72.8885 177.432 72.8853C178.168 72.8876 179.018 72.6759 179.985 72.25C180.834 71.8758 181.485 71.4609 181.937 71.0053C182.393 70.5594 182.695 70.0822 182.844 69.5737C183.007 69.0706 183.035 68.5394 182.929 67.9802C182.832 67.4168 182.65 66.8324 182.384 66.2272C182.19 65.788 181.995 65.3845 181.798 65.0167C181.601 64.6489 181.416 64.3224 181.244 64.037C180.762 64.2142 180.259 64.407 179.733 64.6154C179.221 64.8293 178.701 65.0524 178.174 65.2847L175.656 66.3945Z" fill="black"/>
<path d="M180.248 78.6312C179.816 78.75 179.409 78.9006 179.028 79.0829C178.649 79.2755 178.326 79.5082 178.058 79.781C177.801 80.051 177.622 80.3658 177.521 80.7252C177.421 81.0847 177.433 81.4907 177.558 81.9432C177.682 82.3957 177.879 82.7508 178.149 83.0084C178.419 83.266 178.734 83.445 179.094 83.5452C179.463 83.6426 179.859 83.6722 180.28 83.6339C180.703 83.6058 181.131 83.5324 181.563 83.4135C181.995 83.2947 182.4 83.139 182.779 82.9464C183.16 82.7641 183.48 82.5379 183.737 82.2679C184.005 81.9951 184.189 81.679 184.289 81.3195C184.39 80.96 184.378 80.554 184.253 80.1015C184.129 79.649 183.931 79.2939 183.661 79.0363C183.391 78.7787 183.071 78.6012 182.702 78.5037C182.342 78.4035 181.951 78.3674 181.527 78.3954C181.106 78.4338 180.68 78.5124 180.248 78.6312ZM179.874 77.2736C180.574 77.0812 181.195 77.0265 181.737 77.1096C182.293 77.2 182.77 77.3842 183.167 77.6622C183.575 77.9372 183.906 78.2775 184.162 78.683C184.43 79.0959 184.625 79.5235 184.747 79.9657C184.871 80.4183 184.922 80.8854 184.9 81.3673C184.888 81.8463 184.777 82.3082 184.568 82.7531C184.368 83.1951 184.052 83.592 183.617 83.9437C183.196 84.303 182.636 84.5788 181.937 84.7711C181.237 84.9635 180.61 85.0144 180.054 84.924C179.511 84.841 179.036 84.6619 178.628 84.3868C178.231 84.1089 177.91 83.7658 177.665 83.3575C177.42 82.9492 177.235 82.5188 177.11 82.0663C176.989 81.624 176.927 81.1597 176.926 80.6732C176.928 80.197 177.029 79.7379 177.228 79.2959C177.437 78.8511 177.753 78.449 178.174 78.0898C178.608 77.738 179.175 77.466 179.874 77.2736Z" fill="black"/>
<path d="M179.13 89.7267C179.507 89.5525 179.984 89.3233 180.563 89.0391C181.141 88.7548 181.754 88.4449 182.401 88.1093C183.06 87.7831 183.728 87.4397 184.405 87.0792C185.093 86.728 185.739 86.3818 186.343 86.0408C186.337 86.1704 186.33 86.2947 186.323 86.4138C186.328 86.5421 186.338 86.6699 186.353 86.797C186.367 86.9135 186.386 87.0293 186.411 87.1445C186.446 87.2585 186.482 87.383 186.52 87.5182C185.557 87.913 184.593 88.335 183.626 88.7841C182.671 89.2425 181.689 89.7418 180.68 90.282C180.991 90.3735 181.402 90.48 181.911 90.6015C182.419 90.7231 182.966 90.8455 183.55 90.9688C184.134 91.092 184.729 91.214 185.334 91.3347C185.94 91.4554 186.5 91.56 187.016 91.6485C186.986 91.8455 186.978 92.0075 186.994 92.1346C187.004 92.2194 187.018 92.2929 187.036 92.3551C187.065 92.4161 187.095 92.4877 187.126 92.5699C186.141 92.9567 185.172 93.3846 184.219 93.8536C183.276 94.3214 182.298 94.8094 181.284 95.3178C181.64 95.4148 182.072 95.5241 182.581 95.6456C183.101 95.7765 183.644 95.9102 184.208 96.0465C184.783 96.1816 185.368 96.3155 185.964 96.4481C186.562 96.5912 187.12 96.7229 187.639 96.8432C187.612 97.0614 187.606 97.234 187.621 97.3611C187.637 97.4988 187.683 97.6545 187.758 97.8282C186.404 97.3783 185.07 96.9637 183.757 96.5841C182.445 96.2152 181.137 95.8781 179.832 95.5727C179.839 95.4537 179.834 95.3147 179.814 95.1558C179.806 95.0817 179.797 95.0076 179.788 94.9334C179.779 94.8593 179.761 94.797 179.733 94.7466C180.643 94.3581 181.554 93.9425 182.468 93.4998C183.382 93.057 184.337 92.5609 185.335 92.0114C185.002 91.9225 184.586 91.8166 184.088 91.6938C183.601 91.5697 183.075 91.4447 182.512 91.3189C181.949 91.1931 181.376 91.0686 180.792 90.9454C180.218 90.8208 179.7 90.7112 179.237 90.6163C179.243 90.4866 179.236 90.3371 179.216 90.1677C179.195 89.9982 179.167 89.8512 179.13 89.7267Z" fill="black"/>
</svg>
